<svg width="101" height="101" viewBox="0 0 101 101" fill="none" xmlns="http://www.w3.org/2000/svg">
<path d="M75.4174 80.9573L20.2045 81.0846C17.7353 81.0846 15.7243 79.0991 15.7243 76.6554L15.6479 38.854C15.6479 36.4102 17.6589 34.3993 20.1281 34.3993L75.3411 34.272C77.8103 34.272 79.8212 36.2575 79.8212 38.7012L79.8976 76.5026C79.8722 78.9464 77.8612 80.9319 75.4174 80.9573Z" fill="#185D8A"/>
<path d="M73.4994 53.9982L26.4838 54.098C23.7121 54.1008 21.4486 51.8508 21.4458 49.0791L21.3938 24.36C21.391 21.5884 23.6411 19.3249 26.4128 19.3221L73.4283 19.2223C76.2 19.2195 78.4635 21.4696 78.4663 24.2412L78.5183 48.9603C78.5387 51.7283 76.271 53.9954 73.4994 53.9982Z" fill="#E1FAFC"/>
<path d="M78.484 32.3341L78.5184 48.9604C78.5212 51.7321 76.2711 53.9956 73.4995 53.9984L26.4839 54.0982C23.7122 54.101 21.4487 51.8509 21.4459 49.0793L21.4116 32.453" fill="#A7E6EA"/>
<path fill-rule="evenodd" clip-rule="evenodd" d="M37.6242 47.8703L26.7774 47.8871C26.1709 47.8837 25.6672 47.4002 25.6669 46.776C25.6702 46.1695 26.1538 45.6658 26.778 45.6655L37.6248 45.6487C38.2313 45.6521 38.735 46.1356 38.7353 46.7598C38.7319 47.3663 38.2271 47.8561 37.6242 47.8703Z" fill="#33BFC5"/>
<path fill-rule="evenodd" clip-rule="evenodd" d="M65.5208 43.4544L26.5591 43.5263C25.9526 43.5229 25.4489 43.0393 25.4486 42.4152C25.452 41.8086 25.9355 41.305 26.5597 41.3047L65.5214 41.2328C66.1279 41.2362 66.6316 41.7197 66.6319 42.3439C66.6285 42.9504 66.1237 43.4402 65.5208 43.4544Z" fill="#33BFC5"/>
<path fill-rule="evenodd" clip-rule="evenodd" d="M27.4061 26.0571C27.2404 26.0546 26.8488 26.0252 26.8466 25.6585C26.8509 25.2442 27.3781 25.2323 27.5889 25.2275L27.6021 25.2272C27.9688 25.225 28.449 25.3278 28.7847 25.4421C28.7847 25.4421 28.952 25.5098 29.1064 25.5675L29.1064 25.5777L29.124 25.5741L29.1064 25.5675L29.1064 24.4211C28.7106 24.2824 28.2408 24.1407 27.3768 24.1354C25.8887 24.1304 25.3581 25.0293 25.3662 25.7804C25.3654 26.2212 25.5586 27.2461 27.2518 27.3557L27.2519 27.3557C27.3259 27.3588 27.4741 27.3649 27.5803 27.4348C27.6829 27.4871 27.7751 27.5782 27.7762 27.7615C27.7815 28.0542 27.4724 28.2465 26.9399 28.2462C26.425 28.2423 25.9272 28.1431 25.4501 27.9662L25.461 29.1756C25.9661 29.3101 26.5483 29.3735 27.2289 29.3799C28.6782 29.3746 29.3325 28.542 29.3275 27.7168C29.3639 26.7363 28.6338 26.1342 27.4061 26.0571ZM37.264 23.9863C37.1469 23.8636 36.9666 23.7907 36.8009 23.7882L36.8008 23.8019C36.7207 23.8048 36.6555 23.8197 36.5788 23.8523C36.4908 23.8704 36.4276 23.9202 36.3681 23.9875C36.3365 24.0124 36.3225 24.0337 36.2945 24.0762C36.2666 24.1186 36.2386 24.1611 36.2283 24.2C36.19 24.2813 36.1693 24.359 36.1699 24.4507C36.171 24.6341 36.2426 24.8029 36.3597 24.9256C36.4768 25.0483 36.6571 25.1213 36.8228 25.1238L36.8229 25.11C36.903 25.1072 36.9681 25.0922 37.0449 25.0597C37.1329 25.0415 37.1961 24.9918 37.2556 24.9244C37.2872 24.8995 37.3012 24.8783 37.3291 24.8358L37.3291 24.8358L37.3292 24.8358C37.3571 24.7933 37.3851 24.7508 37.3954 24.712C37.4337 24.6306 37.4544 24.5529 37.4538 24.4612C37.4527 24.2779 37.3811 24.109 37.264 23.9863ZM39.3785 24.1006L38.0505 24.3379L38.0594 29.2747L39.3818 29.2772L39.3785 24.1006ZM36.1708 25.4709L36.1785 29.2828L37.5091 29.2801L37.5013 25.4681L36.1708 25.4709ZM35.3954 25.4368C34.1756 25.4865 33.5548 26.0369 33.5651 27.1547L33.564 29.2845L34.8864 29.2871L34.8933 27.5415C34.8858 26.8821 34.9685 26.5713 35.7336 26.542L35.7305 25.4594C35.6176 25.446 35.5046 25.4326 35.3954 25.4368ZM39.9615 24.3292L39.9705 29.266L41.2928 29.2685L41.2895 24.0919L39.9615 24.3292ZM31.0539 26.7915C31.5685 26.1712 31.8365 25.6019 31.8572 25.5242L33.3769 25.5043C33.1622 26.1545 32.8486 26.77 32.4288 27.3156C32.4288 27.3156 33.1664 28.577 33.3258 29.2601L31.6755 29.2702C31.6755 29.2702 31.4513 28.3618 31.0528 27.7647L31.055 29.2881L29.7326 29.2856L29.7133 24.3877L31.048 24.0939L31.0539 26.7915Z" fill="#5B215A"/>
<path d="M79.2968 87.474L22.6838 87.6013C20.1637 87.6013 18.1018 85.4376 18.0764 82.7902L18 41.705C18 39.0577 18.5091 36.8685 24.1093 36.8685L79.195 36.7412C81.7151 36.7412 83.777 38.9049 83.8024 41.5523L83.8788 82.6375C83.9043 85.2848 81.8424 87.474 79.2968 87.474Z" fill="#33BFC5"/>
<path d="M51.2832 87.537C52.2338 85.1233 52.8364 82.6613 52.8758 80.1211C52.9462 75.5878 51.2227 70.8055 49.4992 66.0233C48.063 62.0381 46.6268 58.0529 46.2286 54.2117C45.523 47.404 48.078 41.0488 50.1825 36.8082L79.1949 36.7412C81.715 36.7412 83.7769 38.9049 83.8024 41.5523L83.8787 82.6375C83.9042 85.2848 81.8423 87.474 79.2967 87.474L51.2832 87.537Z" fill="#185D8A"/>
<path d="M83.9451 68.0004H70.861C69.3082 68.0004 68.0354 66.7276 68.0354 65.1748V59.1928C68.0354 57.64 69.3082 56.3672 70.861 56.3672H83.9451C85.4979 56.3672 86.7706 57.64 86.7706 59.1928V65.1748C86.7706 66.7276 85.4979 68.0004 83.9451 68.0004Z" fill="#33BFC5"/>
<path d="M72.6682 64.08C73.7226 64.08 74.5774 63.2253 74.5774 62.1709C74.5774 61.1165 73.7226 60.2617 72.6682 60.2617C71.6138 60.2617 70.759 61.1165 70.759 62.1709C70.759 63.2253 71.6138 64.08 72.6682 64.08Z" fill="white"/>
<path d="M42.8818 100.021C42.6632 100.021 42.4447 99.9114 42.3082 99.7203C42.0897 99.42 42.1716 98.9832 42.4994 98.7648C43.2368 98.2734 44.0562 97.6182 44.9849 96.7719C45.258 96.5262 45.695 96.5262 45.9408 96.8265C46.1866 97.0995 46.1866 97.5363 45.8862 97.782C44.9302 98.6556 44.0289 99.3654 43.2368 99.8841C43.1276 99.9934 43.0183 100.021 42.8818 100.021ZM38.457 99.966C38.1839 99.966 37.9381 99.8022 37.8288 99.5565C37.5011 98.8194 37.3645 97.8366 37.3645 96.5535C37.3645 96.3897 37.3645 96.1986 37.3645 96.0348C37.3645 95.6525 37.6923 95.3522 38.0746 95.3795C38.457 95.3795 38.7575 95.7071 38.7302 96.0894C38.7302 96.2532 38.7302 96.417 38.7302 96.5808C38.7302 97.6455 38.8394 98.4918 39.0852 99.0378C39.2218 99.3927 39.0852 99.7749 38.7302 99.9388C38.6482 99.9388 38.5663 99.966 38.457 99.966ZM49.0818 94.3148C48.9179 94.3148 48.7541 94.2602 48.6175 94.1237C48.3444 93.878 48.3171 93.4412 48.5629 93.1682C49.2457 92.4311 49.9832 91.6121 50.7206 90.7384C50.9664 90.4654 51.4034 90.4108 51.6766 90.6565C51.9497 90.9022 52.0043 91.339 51.7585 91.6121C50.9937 92.4857 50.2563 93.332 49.5735 94.0691C49.4369 94.2329 49.273 94.3148 49.0818 94.3148ZM38.7028 91.5848C38.6482 91.5848 38.6209 91.5848 38.5663 91.5848C38.1839 91.5029 37.9654 91.1479 38.02 90.793C38.2112 89.7829 38.457 88.7182 38.7302 87.5443C38.8121 87.1893 39.1945 86.9436 39.5496 87.0255C39.9046 87.1074 40.1504 87.4897 40.0685 87.8446C39.7954 88.9639 39.5769 90.0559 39.3857 91.0114C39.331 91.3663 39.0306 91.5848 38.7028 91.5848ZM40.724 83.34C40.6694 83.34 40.5874 83.34 40.5328 83.3127C40.1778 83.2035 39.9592 82.8212 40.0685 82.4663C40.3416 81.4562 40.6694 80.3915 40.9971 79.2995C41.1064 78.9446 41.4888 78.7261 41.8439 78.8354C42.1989 78.9446 42.4174 79.3268 42.3082 79.6817C41.9804 80.7737 41.68 81.8111 41.3795 82.8212C41.2976 83.1489 41.0245 83.34 40.724 83.34ZM43.2095 75.2317C43.1276 75.2317 43.0729 75.2317 42.991 75.2044C42.6359 75.0952 42.4447 74.713 42.554 74.3307C42.8818 73.3206 43.2368 72.2559 43.5919 71.2185C43.7011 70.8636 44.1108 70.6725 44.4659 70.7817C44.821 70.8909 45.0122 71.3004 44.9029 71.6553C44.5478 72.72 44.1928 73.7574 43.865 74.7676C43.7558 75.0679 43.51 75.2317 43.2095 75.2317ZM45.9681 67.2326C45.8862 67.2326 45.8043 67.2326 45.7496 67.2053C45.3946 67.0688 45.2034 66.6866 45.3399 66.3317C45.7223 65.2669 46.1047 64.2295 46.4598 63.2467C46.5963 62.8918 46.9787 62.7007 47.3338 62.8372C47.6889 62.9737 47.8801 63.3559 47.7435 63.7108C47.3884 64.6936 47.006 65.731 46.6236 66.7958C46.5144 67.0415 46.2413 67.2326 45.9681 67.2326ZM48.918 59.2608C48.836 59.2608 48.7541 59.2335 48.6721 59.2062C48.3171 59.0697 48.1532 58.6875 48.2897 58.3326C48.7541 57.1313 49.1365 56.0939 49.4642 55.2749C49.6008 54.92 50.0105 54.7562 50.3382 54.8927C50.6933 55.0292 50.8572 55.4387 50.7206 55.7663C50.3929 56.6126 49.9832 57.6501 49.5462 58.824C49.4642 59.097 49.1911 59.2608 48.918 59.2608ZM52.2775 51.4801C52.1682 51.4801 52.059 51.4528 51.9497 51.3982C51.6219 51.2071 51.4854 50.7976 51.6766 50.47C52.1955 49.4872 52.7145 48.5316 53.2334 47.5761C53.4246 47.2485 53.8343 47.112 54.1621 47.3031C54.4898 47.4942 54.6264 47.9037 54.4352 48.2313C53.9163 49.1596 53.3973 50.1424 52.8784 51.1252C52.7691 51.3436 52.5233 51.4801 52.2775 51.4801ZM56.3198 44.0543C56.2106 44.0543 56.1013 44.027 55.992 43.9724C55.6643 43.7813 55.5277 43.3718 55.7189 43.0442C56.2652 42.0614 56.7841 41.1059 57.3031 40.1776C57.4943 39.85 57.904 39.7408 58.2317 39.9046C58.5595 40.0957 58.6687 40.5052 58.5049 40.8329C57.9859 41.7611 57.467 42.7166 56.9207 43.6994C56.7841 43.9178 56.5656 44.0543 56.3198 44.0543ZM60.4441 36.6559C60.3348 36.6559 60.2256 36.6286 60.1163 36.574C59.7886 36.3829 59.6793 35.9733 59.8705 35.6457C60.4168 34.6629 60.963 33.7347 61.5093 32.8065C61.7005 32.4789 62.1102 32.3697 62.4379 32.5608C62.7657 32.7519 62.875 33.1614 62.6838 33.489C62.1648 34.4172 61.6186 35.3454 61.045 36.3283C60.9084 36.5467 60.6899 36.6559 60.4441 36.6559ZM64.7049 29.3666C64.5957 29.3666 64.4591 29.3393 64.3499 29.2574C64.0221 29.0663 63.9129 28.6568 64.104 28.3292C64.6776 27.3463 65.2512 26.4181 65.7975 25.5172C65.9886 25.1896 66.4257 25.1077 66.7261 25.2988C67.0539 25.4899 67.1358 25.9267 66.9446 26.227C66.3983 27.1279 65.8248 28.0562 65.2512 29.0117C65.1693 29.2301 64.9507 29.3666 64.7049 29.3666ZM81.1474 26.5546C81.0655 26.5546 80.9562 26.5273 80.8743 26.5C80.5192 26.3635 80.3553 25.954 80.5192 25.5991C80.9289 24.589 81.3386 23.5789 81.7483 22.5687C81.8849 22.2138 82.2673 22.05 82.6223 22.1865C82.9774 22.323 83.1413 22.7052 83.0047 23.0601C82.6223 24.0703 82.1853 25.1077 81.7756 26.1178C81.6664 26.3908 81.4206 26.5546 81.1474 26.5546ZM69.157 22.1592C69.0204 22.1592 68.9112 22.1319 68.8019 22.05C68.4741 21.8589 68.3922 21.4221 68.5834 21.0945C69.1843 20.139 69.8125 19.2107 70.3861 18.3371C70.6046 18.0368 71.0143 17.9276 71.342 18.146C71.6425 18.3644 71.7517 18.7739 71.5332 19.1015C70.9596 19.9752 70.3587 20.8761 69.7579 21.8316C69.594 22.05 69.3755 22.1592 69.157 22.1592ZM84.1246 18.6101C84.0426 18.6101 83.988 18.6101 83.9061 18.5828C83.551 18.4736 83.3598 18.0914 83.469 17.7092C83.8241 16.6718 84.1519 15.6071 84.425 14.5969C84.5343 14.242 84.9166 14.0236 85.2717 14.1328C85.6268 14.242 85.8453 14.6242 85.736 14.9791C85.4356 16.0166 85.1078 17.0813 84.7528 18.1187C84.6708 18.4463 84.3977 18.6101 84.1246 18.6101ZM73.9095 15.1703C73.7729 15.1703 73.6363 15.1157 73.4998 15.0338C73.1993 14.8153 73.1174 14.3785 73.3359 14.0782C74.0187 13.1227 74.6742 12.2491 75.3297 11.4301C75.5756 11.1298 75.9852 11.0752 76.2857 11.3209C76.5861 11.5666 76.6408 11.9761 76.395 12.2764C75.7667 13.0681 75.1112 13.9417 74.4284 14.8699C74.3191 15.0611 74.128 15.1703 73.9095 15.1703ZM86.3369 10.4472C85.9272 10.4199 85.6268 10.1196 85.6541 9.73743C85.6541 9.65552 85.6541 9.51902 85.6541 9.38252C85.6541 8.7819 85.5995 7.66258 85.2717 6.76166C85.1352 6.40675 85.3263 6.02454 85.6814 5.88804C86.0365 5.75153 86.4189 5.94264 86.5554 6.29755C86.9378 7.33497 87.0198 8.5362 87.0198 9.38252C87.0198 9.54632 87.0198 9.71013 87.0198 9.79203C87.0198 10.1742 86.7193 10.4472 86.3369 10.4472ZM79.2628 8.6454C79.099 8.6454 78.9078 8.5908 78.7712 8.4543C78.4981 8.18129 78.4981 7.74448 78.7712 7.49877C79.6998 6.54325 80.5739 5.80613 81.3386 5.28742C81.6391 5.06902 82.0761 5.15092 82.2946 5.47853C82.5131 5.77883 82.4312 6.21564 82.1034 6.43405C81.3933 6.89816 80.6012 7.60798 79.7271 8.4816C79.6179 8.5635 79.454 8.6454 79.2628 8.6454Z" fill="black" fill-opacity="0.16"/>
<path d="M52.5 91C54.433 91 56 89.433 56 87.5C56 85.567 54.433 84 52.5 84C50.567 84 49 85.567 49 87.5C49 89.433 50.567 91 52.5 91Z" fill="#811E68"/>
<path d="M7.66748 78.5623C7.33216 78.5623 7.06868 78.2988 7.06868 77.9635C7.06868 77.6282 7.33216 77.3647 7.66748 77.3647C8.52975 77.3647 9.48783 77.2928 10.4938 77.221C10.8291 77.197 11.1166 77.4365 11.1405 77.7719C11.1645 78.1072 10.9249 78.3946 10.5896 78.4186C9.55969 78.4904 8.57766 78.5383 7.66748 78.5623ZM3.16451 78.1312C3.11661 78.1312 3.06871 78.1312 3.0208 78.1072C2.3262 77.9395 1.70344 77.7 1.20045 77.4126C1.05674 77.3407 0.577702 77.1252 0.170519 76.694C-0.0450489 76.4545 -0.0450489 76.0713 0.194471 75.8557C0.43399 75.6402 0.817222 75.6401 1.03279 75.8797C1.32021 76.191 1.65554 76.3348 1.65554 76.3348L1.7274 76.3587C2.15853 76.5982 2.68547 76.7898 3.28427 76.9575C3.59565 77.0294 3.78727 77.3647 3.71541 77.6761C3.66751 77.9395 3.42799 78.1312 3.16451 78.1312ZM1.58368 72.9575C1.43997 72.9575 1.27231 72.9096 1.15255 72.7899C0.91303 72.5503 0.91303 72.1671 1.15255 71.9515C1.75135 71.3528 2.51781 70.73 3.45194 70.0833C3.71541 69.8917 4.09864 69.9635 4.29026 70.227C4.48187 70.4905 4.41002 70.8737 4.14654 71.0653C3.28427 71.6641 2.56572 72.2629 2.01482 72.8138C1.89506 72.8857 1.75135 72.9575 1.58368 72.9575ZM7.69143 68.8138C7.47587 68.8138 7.2603 68.6941 7.16449 68.5025C6.99683 68.215 7.11659 67.8558 7.40401 67.6881C8.19443 67.257 9.0567 66.8258 9.99082 66.3707C10.2782 66.227 10.6375 66.3468 10.7812 66.6582C10.925 66.9456 10.8052 67.3049 10.4938 67.4486C9.58364 67.8797 8.74532 68.3109 7.95491 68.742C7.88305 68.7899 7.78724 68.8138 7.69143 68.8138ZM14.374 65.6043C14.1345 65.6043 13.9189 65.4606 13.8231 65.245C13.7034 64.9336 13.8231 64.5983 14.1345 64.4546C14.9728 64.0953 15.883 63.7121 16.7932 63.3288C17.1046 63.2091 17.4399 63.3528 17.5836 63.6642C17.7034 63.9756 17.5596 64.3109 17.2483 64.4546C16.3381 64.8378 15.4519 65.1971 14.6136 65.5564C14.5417 65.6043 14.4459 65.6043 14.374 65.6043ZM21.2482 62.8259C21.0087 62.8259 20.7692 62.6821 20.6974 62.4426C20.5776 62.1312 20.7453 61.7959 21.0327 61.6762C21.895 61.3408 22.8051 61.0055 23.7393 60.6702C24.0506 60.5504 24.386 60.7181 24.5057 61.0295C24.6255 61.3408 24.4578 61.6762 24.1464 61.7959C23.2363 62.1313 22.3261 62.4666 21.4638 62.8019C21.392 62.8019 21.3201 62.8259 21.2482 62.8259ZM28.2183 60.2869C27.9787 60.2869 27.7392 60.1432 27.6434 59.8798C27.5237 59.5684 27.6913 59.2331 28.0027 59.1133C28.8889 58.8019 29.7991 58.4906 30.7332 58.1792C31.0446 58.0834 31.3799 58.251 31.4997 58.5624C31.5955 58.8738 31.4278 59.2091 31.1165 59.3289C30.1823 59.6402 29.2722 59.9516 28.4099 60.263C28.338 60.263 28.2901 60.2869 28.2183 60.2869ZM35.2362 57.8918C34.9727 57.8918 34.7572 57.7241 34.6613 57.4846C34.5655 57.1732 34.7332 56.8379 35.0446 56.7181C35.9308 56.4307 36.841 56.1193 37.7751 55.8319C38.0865 55.7361 38.4218 55.9037 38.5176 56.2151C38.6134 56.5265 38.4458 56.8618 38.1344 56.9576C37.2003 57.2451 36.2901 57.5564 35.4039 57.8438C35.356 57.8918 35.3081 57.8918 35.2362 57.8918ZM42.302 55.6403C42.0386 55.6403 41.799 55.4726 41.7272 55.2091C41.6314 54.8978 41.799 54.5624 42.1104 54.4666C42.9966 54.1792 43.9308 53.9157 44.8649 53.6283C45.1763 53.5325 45.5116 53.7002 45.6074 54.0355C45.7032 54.3469 45.5355 54.6822 45.2002 54.778C44.2661 55.0654 43.3559 55.3528 42.4697 55.6163C42.4218 55.6403 42.3739 55.6403 42.302 55.6403ZM49.4158 53.4846C49.1523 53.4846 48.9128 53.3169 48.8409 53.0535C48.7451 52.7421 48.9367 52.4068 49.2481 52.3109C50.1583 52.0475 51.0684 51.7601 52.0026 51.4966C52.3139 51.4008 52.6493 51.5924 52.7451 51.9038C52.8409 52.2151 52.6493 52.5505 52.3379 52.6463C51.4038 52.9097 50.4936 53.1972 49.5834 53.4606C49.5116 53.4846 49.4637 53.4846 49.4158 53.4846ZM87.1401 52.4307C86.9485 52.4307 86.7569 52.3349 86.6371 52.1672C86.4455 51.8798 86.5413 51.5205 86.8048 51.3289C87.6431 50.778 88.4574 50.2511 89.176 49.7481C89.4395 49.5565 89.8227 49.6283 90.0143 49.8918C90.2059 50.1553 90.1341 50.5385 89.8706 50.7301C89.1281 51.2331 88.3137 51.784 87.4754 52.3349C87.3796 52.4068 87.2599 52.4307 87.1401 52.4307ZM56.5295 51.4008C56.266 51.4008 56.0265 51.2331 55.9546 50.9696C55.8588 50.6583 56.0504 50.3229 56.3618 50.2271C57.272 49.9637 58.1822 49.7002 59.1163 49.4367C59.4277 49.3409 59.763 49.5325 59.8588 49.8439C59.9546 50.1553 59.763 50.4906 59.4516 50.5864C58.5175 50.8499 57.6073 51.1134 56.6972 51.3768C56.6492 51.4008 56.5774 51.4008 56.5295 51.4008ZM63.6672 49.3888C63.4037 49.3888 63.1642 49.2211 63.0923 48.9577C62.9965 48.6463 63.1881 48.311 63.4995 48.2152C64.4097 47.9517 65.3438 47.7122 66.2779 47.4487C66.5893 47.3529 66.9246 47.5445 67.0204 47.8559C67.1162 48.1673 66.9246 48.5026 66.6133 48.5984C65.6791 48.8619 64.745 49.1014 63.8348 49.3649C63.7869 49.3888 63.739 49.3888 63.6672 49.3888ZM93.176 48.0954C93.0083 48.0954 92.8407 48.0235 92.7209 47.8798C92.5053 47.6164 92.5532 47.2571 92.7928 47.0415C93.6311 46.3469 94.3257 45.7002 94.8526 45.1493C95.0682 44.9098 95.4514 44.8858 95.6909 45.1254C95.9305 45.3409 95.9544 45.7242 95.7149 45.9637C95.164 46.5625 94.4215 47.2331 93.5353 47.9756C93.4395 48.0715 93.3197 48.0954 93.176 48.0954ZM70.8288 47.4247C70.5653 47.4247 70.3258 47.2571 70.254 46.9936C70.1581 46.6822 70.3498 46.3469 70.6851 46.2511C71.5953 46.0116 72.5294 45.7481 73.4635 45.5086C73.7749 45.4128 74.1102 45.6044 74.206 45.9397C74.3018 46.2511 74.1102 46.5864 73.7749 46.6822C72.8408 46.9218 71.9066 47.1852 70.9965 47.4247C70.9486 47.4247 70.8767 47.4247 70.8288 47.4247ZM78.0144 45.5086C77.7509 45.5086 77.5114 45.3409 77.4395 45.0535C77.3437 44.7421 77.5354 44.4068 77.8707 44.311C78.7809 44.0715 79.715 43.832 80.6491 43.5924C80.9605 43.5206 81.2958 43.7122 81.3677 44.0236C81.4395 44.3349 81.2479 44.6703 80.9365 44.7421C80.0024 44.9816 79.0683 45.2212 78.1581 45.4607C78.1102 45.5086 78.0623 45.5086 78.0144 45.5086ZM85.2 43.6403C84.9365 43.6403 84.697 43.4727 84.6251 43.1853C84.5533 42.8739 84.7449 42.5386 85.0563 42.4667C85.7269 42.299 86.3976 42.1314 87.0682 41.9637C87.0922 41.9637 87.4036 41.8918 87.9066 41.796C88.2419 41.7481 88.5533 41.9637 88.6012 42.2751C88.6491 42.6104 88.4335 42.9218 88.1221 42.9697C87.6431 43.0655 87.3557 43.1134 87.3557 43.1134C86.709 43.2811 86.0383 43.4487 85.3676 43.6164C85.2958 43.6403 85.2479 43.6403 85.2 43.6403ZM95.3556 42.6583C95.3077 42.6583 95.2359 42.6583 95.188 42.6344C94.7089 42.4906 94.0383 42.4188 93.1999 42.4188C92.9844 42.4188 92.7448 42.4188 92.5293 42.4427C92.194 42.4667 91.9305 42.2032 91.9065 41.8679C91.8826 41.5326 92.1461 41.2691 92.4814 41.2451C92.7209 41.2451 92.9604 41.2212 93.1999 41.2212C94.1341 41.2212 94.9245 41.317 95.5233 41.4847C95.8347 41.5805 96.0263 41.9158 95.9305 42.2272C95.8586 42.4906 95.6191 42.6583 95.3556 42.6583Z" fill="black" fill-opacity="0.16"/>
<path d="M15.6789 65.1981C16.7928 65.1981 17.6957 64.2952 17.6957 63.1813C17.6957 62.0675 16.7928 61.1646 15.6789 61.1646C14.5651 61.1646 13.6621 62.0675 13.6621 63.1813C13.6621 64.2952 14.5651 65.1981 15.6789 65.1981Z" fill="#811E68"/>
<path d="M92.145 78.0911L92.0692 76.8282C91.8167 76.8787 91.5388 77.1061 91.5388 77.4344C91.5388 77.788 91.7914 77.99 91.9682 78.0153C91.9429 78.0153 91.7914 77.9648 91.1347 77.8638C90.7811 77.8132 90.5538 77.4849 90.6043 77.1313C90.6549 76.7777 90.9832 76.5504 91.3368 76.6009C91.7156 76.6514 92.0187 76.702 92.246 76.7525C92.9027 76.6514 93.5088 76.5504 94.0392 76.4494C94.3928 76.3736 94.7212 76.6009 94.7969 76.9293C94.8727 77.2829 94.6454 77.6112 94.317 77.687C93.7109 77.8132 93.0542 77.9395 92.347 78.0406C92.246 78.0911 92.1955 78.0911 92.145 78.0911ZM86.4623 77.2576C86.437 77.2576 86.4118 77.2576 86.3865 77.2576L86.1845 77.2323C85.8309 77.1818 85.6036 76.8787 85.6288 76.5252C85.6541 76.1716 85.9824 75.9443 86.336 75.9695L86.538 75.9948C86.8916 76.0453 87.1189 76.3484 87.0937 76.702C87.0684 77.0303 86.7906 77.2576 86.4623 77.2576ZM98.2823 75.6159C98.2066 75.6159 98.1055 75.5907 98.0298 75.5654C97.7014 75.4139 97.5751 75.0603 97.7014 74.7319C97.7519 74.6309 97.7772 74.5046 97.7772 74.3784C97.7772 73.949 97.4741 73.3933 96.9185 72.7872C96.6912 72.5346 96.6912 72.1305 96.9437 71.9032C97.1963 71.6759 97.6004 71.6759 97.8277 71.9285C98.6359 72.8124 99.04 73.6207 99.04 74.3784C99.04 74.6814 98.9895 74.9593 98.8632 75.2371C98.7622 75.4896 98.5096 75.6159 98.2823 75.6159ZM93.5593 70.0847C93.4583 70.0847 93.332 70.0595 93.231 69.9837C92.4733 69.5038 91.5893 68.9987 90.6296 68.4936C90.3265 68.3168 90.2002 67.9379 90.377 67.6349C90.5538 67.3318 90.9327 67.2055 91.2358 67.3823C92.2208 67.9127 93.1047 68.4178 93.9129 68.9229C94.216 69.0997 94.2918 69.5038 94.115 69.7817C93.9887 69.9585 93.7867 70.0847 93.5593 70.0847ZM86.6391 66.3973C86.538 66.3973 86.4623 66.372 86.3612 66.3468C85.5025 65.9427 84.568 65.5133 83.6083 65.084C83.28 64.9324 83.1537 64.5788 83.28 64.2505C83.4315 63.9222 83.7851 63.7959 84.1134 63.9222C85.0732 64.3515 86.0077 64.7809 86.8916 65.185C87.1947 65.3365 87.3463 65.7154 87.1947 66.0184C87.0937 66.271 86.8664 66.3973 86.6391 66.3973ZM79.441 63.215C79.3652 63.215 79.2894 63.1897 79.1884 63.1645C78.2792 62.7856 77.3447 62.4068 76.3849 62.0027C76.0566 61.8764 75.9051 61.4975 76.0313 61.1692C76.1576 60.8409 76.5365 60.6893 76.8648 60.8156C77.8245 61.1945 78.7843 61.5986 79.6683 61.9774C79.9966 62.1037 80.1482 62.4825 79.9966 62.8109C79.9208 63.0634 79.6935 63.215 79.441 63.215ZM72.1671 60.2852C72.0913 60.2852 72.0156 60.26 71.9398 60.2347C71.0053 59.8811 70.0708 59.5023 69.1111 59.1487C68.7827 59.0224 68.6312 58.6688 68.7322 58.3405C68.8585 58.0121 69.2121 57.8606 69.5404 57.9616C70.5002 58.3152 71.4346 58.6941 72.3691 59.0477C72.6975 59.1739 72.849 59.5275 72.7227 59.8559C72.6722 60.1337 72.4197 60.2852 72.1671 60.2852ZM64.8174 57.5323C64.7417 57.5323 64.6659 57.5323 64.5901 57.4817C63.6557 57.1282 62.6959 56.7998 61.7362 56.4462C61.4078 56.32 61.231 55.9664 61.3573 55.638C61.4836 55.3097 61.8372 55.1329 62.1655 55.2592C63.1253 55.6128 64.085 55.9411 65.0195 56.2947C65.3478 56.421 65.5246 56.7746 65.3983 57.1029C65.3226 57.3807 65.07 57.5323 64.8174 57.5323ZM57.4425 54.8803C57.3668 54.8803 57.291 54.8803 57.2405 54.8551C56.2808 54.5267 55.3463 54.1731 54.3865 53.8448C54.0582 53.7185 53.8814 53.3649 54.0077 53.0366C54.1339 52.7083 54.4875 52.5315 54.8159 52.6578C55.7756 52.9861 56.7354 53.3144 57.6951 53.668C58.0234 53.7943 58.2002 54.1479 58.074 54.4762C57.9477 54.7035 57.6951 54.8803 57.4425 54.8803ZM50.0171 52.3042C49.9414 52.3042 49.8908 52.3042 49.8151 52.2789C48.8553 51.9506 47.8956 51.6222 46.9358 51.2939C46.6075 51.1929 46.4307 50.814 46.5317 50.4857C46.6328 50.1574 47.0116 49.9806 47.3399 50.0816C48.2997 50.4099 49.2594 50.7383 50.2192 51.0666C50.5475 51.1676 50.7243 51.5465 50.6233 51.8748C50.5223 52.1274 50.295 52.3042 50.0171 52.3042ZM42.5917 49.8038C42.516 49.8038 42.4654 49.8038 42.3897 49.7785C41.4299 49.4502 40.4702 49.1471 39.5104 48.8188C39.1821 48.7177 39.0053 48.3641 39.1063 48.0106C39.2073 47.6822 39.5609 47.5054 39.9145 47.6065C40.8743 47.9095 41.834 48.2379 42.7938 48.5662C43.1221 48.6672 43.2989 49.0461 43.1979 49.3744C43.0968 49.627 42.8443 49.8038 42.5917 49.8038ZM8.5712 47.859C8.44491 47.859 8.29338 47.8085 8.19235 47.7327C8.14184 47.7075 7.15683 46.9245 5.81824 45.788C5.56567 45.5607 5.51516 45.1566 5.74247 44.904C5.96978 44.6262 6.37388 44.6009 6.62645 44.8282C7.93978 45.9395 8.95004 46.7225 8.95004 46.7477C9.22787 46.9498 9.27838 47.3539 9.07633 47.6317C8.95004 47.7832 8.77325 47.859 8.5712 47.859ZM35.141 47.3539C35.0653 47.3539 35.0148 47.3539 34.939 47.3286C33.954 47.0003 32.9942 46.6972 32.0598 46.3941C31.7314 46.2931 31.5546 45.9395 31.6556 45.6112C31.7567 45.2829 32.1103 45.1061 32.4386 45.2071C33.3983 45.5102 34.3581 45.8385 35.3178 46.1416C35.6462 46.2426 35.823 46.5962 35.7219 46.9498C35.6462 47.1771 35.3936 47.3539 35.141 47.3539ZM27.6651 44.9293C27.5893 44.9293 27.5388 44.9293 27.4631 44.904C26.4781 44.6009 25.5183 44.2726 24.5586 43.9695C24.2302 43.8685 24.0534 43.5149 24.1545 43.1866C24.2555 42.8582 24.6091 42.6814 24.9374 42.7825C25.8719 43.0855 26.8569 43.3886 27.8419 43.717C28.1702 43.818 28.347 44.1716 28.246 44.4999C28.1702 44.7777 27.9429 44.9293 27.6651 44.9293ZM2.71169 42.6562C2.53489 42.6562 2.38335 42.5804 2.25707 42.4541C1.39835 41.5449 0.716421 40.7367 0.236547 40.0548C0.0344954 39.7769 0.110265 39.3728 0.413343 39.1708C0.691165 38.9687 1.09527 39.0445 1.29732 39.3476C1.72668 39.979 2.35809 40.7367 3.19156 41.5954C3.44412 41.848 3.41887 42.2521 3.1663 42.4794C3.01476 42.6057 2.86322 42.6562 2.71169 42.6562ZM20.1892 42.5552C20.1387 42.5552 20.0629 42.5552 19.9871 42.5299L17.0826 41.6207C16.7543 41.5196 16.5775 41.166 16.6785 40.8377C16.7796 40.5094 17.1332 40.3326 17.4615 40.4336L20.366 41.3428C20.6943 41.4439 20.8711 41.7975 20.7701 42.1258C20.6943 42.3784 20.4418 42.5552 20.1892 42.5552ZM12.688 40.181C12.6375 40.181 12.5617 40.181 12.486 40.1558C11.4252 39.8275 10.4402 39.4991 9.58146 39.2465C9.25312 39.1455 9.07633 38.7919 9.17735 38.4636C9.27838 38.1353 9.63197 37.9585 9.9603 38.0595C10.819 38.3373 11.804 38.6404 12.8648 38.9687C13.1931 39.0698 13.3699 39.4233 13.2689 39.7517C13.1931 40.0295 12.9658 40.181 12.688 40.181ZM5.18682 37.7817C5.13631 37.7817 5.0858 37.7817 5.06054 37.7564C3.89874 37.5039 2.93899 37.3776 2.1813 37.3523C1.82771 37.3523 1.54989 37.0492 1.57514 36.6956C1.57514 36.3421 1.87822 36.0642 2.23181 36.0895C3.06528 36.1147 4.10079 36.2663 5.33836 36.5188C5.6667 36.5946 5.89401 36.9229 5.81824 37.2765C5.74247 37.5796 5.4899 37.7817 5.18682 37.7817Z" fill="black" fill-opacity="0.16"/>
<path d="M14.4307 52.2789C14.5317 52.3547 14.6833 52.4052 14.8096 52.4052C15.0116 52.4052 15.1884 52.3294 15.3147 52.1779C15.5167 51.9001 15.4662 51.496 15.1884 51.2939C15.1884 51.2686 14.1781 50.4857 12.8648 49.3744C12.6122 49.1471 12.2081 49.1724 11.9808 49.4502C11.7535 49.7027 11.804 50.1068 12.0566 50.3342C13.3952 51.4707 14.3802 52.2537 14.4307 52.2789Z" fill="black" fill-opacity="0.16"/>
<path d="M97.582 75.6586C98.6958 75.6586 99.5988 74.7556 99.5988 73.6418C99.5988 72.5279 98.6958 71.625 97.582 71.625C96.4681 71.625 95.5652 72.5279 95.5652 73.6418C95.5652 74.7556 96.4681 75.6586 97.582 75.6586Z" fill="#811E68"/>
<path d="M52.6535 52.936C53.7674 52.936 54.6703 52.033 54.6703 50.9191C54.6703 49.8053 53.7674 48.9023 52.6535 48.9023C51.5397 48.9023 50.6367 49.8053 50.6367 50.9191C50.6367 52.033 51.5397 52.936 52.6535 52.936Z" fill="#811E68"/>
<path d="M96.7231 46.9936C98.7919 46.9936 100.469 45.3165 100.469 43.2478C100.469 41.179 98.7919 39.502 96.7231 39.502C94.6544 39.502 92.9773 41.179 92.9773 43.2478C92.9773 45.3165 94.6544 46.9936 96.7231 46.9936Z" fill="#811E68"/>
<path d="M85.4064 7.03359C86.5203 7.03359 87.4232 6.13064 87.4232 5.0168C87.4232 3.90295 86.5203 3 85.4064 3C84.2926 3 83.3896 3.90295 83.3896 5.0168C83.3896 6.13064 84.2926 7.03359 85.4064 7.03359Z" fill="#811E68"/>
</svg>
