<?xml version="1.0" encoding="UTF-8"?>
<svg xmlns="http://www.w3.org/2000/svg" width="40" height="41" viewBox="0 0 40 41" fill="none">
  <path fill-rule="evenodd" clip-rule="evenodd" d="M13.6129 14.2216C13.4962 14.37 13.3808 14.5187 13.2666 14.6675C13.203 14.7505 13.084 14.7662 13.001 14.7025C12.918 14.6389 12.9023 14.52 12.966 14.4369C13.0811 14.2869 13.1975 14.137 13.3152 13.9874C13.4329 13.8378 13.5511 13.6894 13.6698 13.5422C13.7355 13.4607 13.8547 13.448 13.9362 13.5136C14.0176 13.5793 14.0304 13.6986 13.9647 13.78C13.8469 13.926 13.7297 14.0732 13.6129 14.2216ZM12.3298 15.608C12.4149 15.6689 12.4345 15.7872 12.3736 15.8723C12.1533 16.1801 11.9385 16.4882 11.7294 16.7965C11.6707 16.8831 11.5529 16.9057 11.4663 16.847C11.3798 16.7883 11.3572 16.6705 11.4159 16.5839C11.6268 16.2729 11.8434 15.9621 12.0656 15.6518C12.1265 15.5667 12.2448 15.5471 12.3298 15.608ZM14.658 12.648C14.5788 12.5797 14.57 12.4601 14.6383 12.3809C14.8876 12.0918 15.1386 11.8081 15.3911 11.5299C15.4614 11.4524 15.5812 11.4466 15.6587 11.5169C15.7362 11.5872 15.742 11.707 15.6716 11.7845C15.4213 12.0603 15.1724 12.3417 14.9252 12.6283C14.8569 12.7075 14.7373 12.7164 14.658 12.648ZM10.8485 17.7927C10.9371 17.8483 10.9638 17.9653 10.9081 18.0538C10.7066 18.3745 10.5114 18.6947 10.3225 19.0143C10.2692 19.1043 10.1531 19.1342 10.063 19.0809C9.97296 19.0277 9.94311 18.9116 9.99635 18.8215C10.187 18.499 10.384 18.1758 10.5873 17.8523C10.643 17.7637 10.7599 17.737 10.8485 17.7927ZM16.4322 10.6937C16.3573 10.6208 16.3556 10.5008 16.4286 10.4259C16.6951 10.1521 16.9628 9.88444 17.2313 9.62316C17.3063 9.55021 17.4262 9.55185 17.4992 9.62683C17.5721 9.70181 17.5705 9.82174 17.4955 9.89469C17.2295 10.1536 16.9642 10.4187 16.7001 10.6901C16.6271 10.7651 16.5072 10.7667 16.4322 10.6937ZM9.5066 20.064C9.59863 20.1137 9.63289 20.2287 9.58313 20.3207C9.40255 20.6546 9.22916 20.9872 9.06305 21.3181C9.01611 21.4116 8.90227 21.4493 8.80878 21.4024C8.71528 21.3554 8.67754 21.2416 8.72448 21.1481C8.89234 20.8138 9.06751 20.4778 9.24988 20.1405C9.29964 20.0485 9.41458 20.0142 9.5066 20.064ZM18.3235 8.8545C18.2534 8.77679 18.2597 8.65701 18.3374 8.58697C18.6222 8.33028 18.9075 8.08089 19.1928 7.83899C19.2726 7.77135 19.3922 7.7812 19.4598 7.861C19.5275 7.94081 19.5176 8.06034 19.4378 8.12798C19.1554 8.36736 18.873 8.61423 18.591 8.86839C18.5133 8.93843 18.3935 8.93221 18.3235 8.8545ZM20.3362 7.14978C20.2721 7.0671 20.2872 6.94811 20.3699 6.88402C20.6742 6.64807 20.9781 6.42099 21.2811 6.20301C21.366 6.14191 21.4844 6.16123 21.5455 6.24615C21.6066 6.33107 21.5872 6.44944 21.5023 6.51054C21.2031 6.7258 20.9028 6.95018 20.602 7.18343C20.5193 7.24753 20.4003 7.23246 20.3362 7.14978ZM8.32403 22.4217C8.41949 22.4645 8.46216 22.5766 8.41934 22.672C8.26354 23.0194 8.11622 23.3641 7.9775 23.7056C7.93813 23.8025 7.82764 23.8491 7.73072 23.8098C7.63379 23.7704 7.58714 23.6599 7.62651 23.563C7.76697 23.2172 7.91608 22.8684 8.07368 22.517C8.11649 22.4215 8.22858 22.3788 8.32403 22.4217ZM22.4786 5.61067C22.4221 5.52262 22.4477 5.40544 22.5357 5.34894C22.8613 5.14002 23.1851 4.94224 23.5065 4.75594C23.597 4.70348 23.7129 4.73432 23.7654 4.82483C23.8178 4.91534 23.787 5.03124 23.6965 5.08371C23.3802 5.26703 23.0613 5.46182 22.7403 5.66779C22.6523 5.72429 22.5351 5.69871 22.4786 5.61067ZM7.33295 24.8663C7.43183 24.9005 7.48429 25.0084 7.45012 25.1072C7.32557 25.4677 7.21139 25.8235 7.10773 26.1741C7.07807 26.2744 6.97269 26.3317 6.87237 26.302C6.77205 26.2723 6.71477 26.167 6.74444 26.0667C6.84978 25.7104 6.96571 25.3492 7.09205 24.9835C7.12622 24.8846 7.23407 24.8322 7.33295 24.8663ZM24.7603 4.29205C24.7143 4.19808 24.7533 4.08463 24.8472 4.03866C25.1991 3.86654 25.5471 3.70941 25.8902 3.56777C25.9869 3.52785 26.0977 3.57389 26.1376 3.67059C26.1775 3.7673 26.1315 3.87804 26.0348 3.91796C25.6994 4.05636 25.3588 4.21017 25.0137 4.37898C24.9197 4.42495 24.8063 4.38603 24.7603 4.29205ZM6.58899 27.3945C6.69115 27.417 6.75569 27.5181 6.73316 27.6203C6.6504 27.9954 6.58118 28.3627 6.52566 28.7212C6.50965 28.8246 6.41286 28.8954 6.30948 28.8794C6.2061 28.8634 6.13527 28.7666 6.15128 28.6632C6.20809 28.2964 6.27883 27.9212 6.36321 27.5387C6.38574 27.4365 6.48683 27.3719 6.58899 27.3945ZM27.2 3.29243C27.1705 3.19206 27.2279 3.08677 27.3283 3.05725C27.7092 2.94519 28.0824 2.85493 28.4464 2.78733C28.5492 2.76822 28.6481 2.83612 28.6672 2.93898C28.6863 3.04183 28.6184 3.1407 28.5155 3.1598C28.1653 3.22485 27.8048 3.31198 27.4352 3.4207C27.3348 3.45022 27.2295 3.39279 27.2 3.29243ZM6.19224 30.001C6.29673 30.006 6.37735 30.0948 6.37231 30.1993C6.35372 30.5841 6.35398 30.9551 6.37327 31.3108C6.37894 31.4152 6.29885 31.5045 6.19439 31.5102C6.08993 31.5158 6.00065 31.4357 5.99499 31.3313C5.97493 30.9616 5.97475 30.5777 5.9939 30.1811C5.99895 30.0766 6.08775 29.996 6.19224 30.001ZM29.7895 2.82804C29.7897 2.72343 29.8746 2.63875 29.9793 2.63892C30.3824 2.63955 30.77 2.67501 31.1392 2.74715C31.2419 2.76721 31.3088 2.86671 31.2888 2.96938C31.2687 3.07206 31.1692 3.13903 31.0665 3.11897C30.7233 3.05191 30.3601 3.01836 29.9787 3.01776C29.874 3.0176 29.7894 2.93266 29.7895 2.82804ZM6.35098 32.6271C6.45262 32.6022 6.55511 32.6645 6.57992 32.7662C6.67035 33.1367 6.78853 33.4818 6.93456 33.7996C6.97825 33.8946 6.9366 34.0071 6.84154 34.0508C6.74648 34.0945 6.63401 34.0528 6.59033 33.9578C6.43323 33.6159 6.30746 33.2477 6.21188 32.856C6.18707 32.7544 6.24935 32.6519 6.35098 32.6271ZM7.46709 34.9869C7.54256 34.9145 7.66247 34.9169 7.73492 34.9924C7.85921 35.1218 7.99219 35.2425 8.134 35.3541C8.30977 35.4923 8.49601 35.6141 8.69214 35.7198C8.78424 35.7694 8.81865 35.8843 8.76902 35.9764C8.71938 36.0685 8.60449 36.1029 8.5124 36.0533C8.29736 35.9374 8.09287 35.8037 7.89978 35.6518C7.74403 35.5293 7.598 35.3968 7.46162 35.2547C7.38917 35.1793 7.39162 35.0594 7.46709 34.9869ZM32.3459 3.35679C32.3985 3.26638 32.5145 3.23575 32.6049 3.28838C32.7751 3.38745 32.9383 3.49815 33.0941 3.62066C33.2791 3.7662 33.4535 3.93724 33.6155 4.12914C33.683 4.20907 33.6729 4.32858 33.593 4.39608C33.5131 4.46358 33.3936 4.4535 33.3261 4.37357C33.1787 4.19908 33.0226 4.04643 32.8598 3.91844C32.718 3.8069 32.5694 3.70609 32.4143 3.61579C32.3239 3.56316 32.2933 3.4472 32.3459 3.35679ZM34.2988 5.67551C34.3973 5.64038 34.5057 5.6918 34.5408 5.79035C34.695 6.22303 34.8089 6.68799 34.8744 7.16979C34.8885 7.27345 34.8159 7.36892 34.7123 7.38303C34.6086 7.39714 34.5131 7.32454 34.499 7.22088C34.4369 6.76464 34.3292 6.3252 34.1839 5.91753C34.1488 5.81899 34.2002 5.71063 34.2988 5.67551ZM10.1944 36.3928C10.205 36.2887 10.2981 36.213 10.4021 36.2237C10.83 36.2676 11.2846 36.2648 11.7628 36.2162C11.8669 36.2056 11.9598 36.2814 11.9704 36.3855C11.981 36.4896 11.9052 36.5825 11.8011 36.5931C11.3006 36.644 10.8199 36.6474 10.3634 36.6006C10.2594 36.5899 10.1837 36.4969 10.1944 36.3928ZM34.7123 8.8456C34.8159 8.86019 34.888 8.956 34.8734 9.05959C34.8405 9.29334 34.7947 9.52673 34.7353 9.75817C34.7093 9.85949 34.606 9.92053 34.5047 9.8945C34.4034 9.86848 34.3423 9.76524 34.3684 9.66391C34.4242 9.44656 34.4673 9.22702 34.4983 9.00676C34.5129 8.90317 34.6087 8.83102 34.7123 8.8456ZM13.4287 36.0875C13.3992 35.9871 13.4566 35.8818 13.557 35.8523C13.7732 35.7887 13.9924 35.7178 14.2144 35.6396C14.3131 35.6049 14.4212 35.6567 14.456 35.7554C14.4907 35.8541 14.4389 35.9622 14.3402 35.997C14.1122 36.0773 13.8867 36.1502 13.6639 36.2158C13.5635 36.2453 13.4582 36.1878 13.4287 36.0875Z" fill="black" fill-opacity="0.16"></path>
  <path fill-rule="evenodd" clip-rule="evenodd" d="M19.5859 26.8904C19.4058 26.8708 19.2264 26.8502 19.0478 26.8286C18.944 26.816 18.8496 26.89 18.837 26.9939C18.8245 27.0977 18.8985 27.1921 19.0023 27.2047C19.1825 27.2265 19.3633 27.2473 19.5449 27.267C19.7265 27.2868 19.9076 27.3053 20.0882 27.3228C20.1923 27.3328 20.2849 27.2566 20.2949 27.1524C20.305 27.0483 20.2287 26.9557 20.1246 26.9457C19.9455 26.9284 19.7659 26.9099 19.5859 26.8904ZM21.3574 27.2378C21.3508 27.3422 21.43 27.4322 21.5344 27.4389C21.8998 27.4622 22.2628 27.4809 22.6231 27.4949C22.7276 27.4989 22.8156 27.4175 22.8197 27.3129C22.8238 27.2084 22.7423 27.1203 22.6378 27.1163C22.2807 27.1024 21.9209 27.0839 21.5585 27.0608C21.4541 27.0541 21.3641 27.1334 21.3574 27.2378ZM17.781 26.8488C17.797 26.7454 17.7261 26.6486 17.6227 26.6327C17.2638 26.5774 16.9084 26.5181 16.5567 26.4549C16.4538 26.4363 16.3553 26.5048 16.3368 26.6078C16.3183 26.7108 16.3868 26.8092 16.4897 26.8277C16.8445 26.8915 17.203 26.9514 17.565 27.0072C17.6684 27.0231 17.7651 26.9522 17.781 26.8488ZM23.8879 27.3362C23.8874 27.4408 23.9718 27.526 24.0764 27.5264C24.4431 27.528 24.8062 27.5247 25.1657 27.5167C25.2703 27.5143 25.3531 27.4276 25.3508 27.323C25.3484 27.2185 25.2618 27.1356 25.1572 27.1379C24.8012 27.1459 24.4414 27.1491 24.0781 27.1476C23.9735 27.1471 23.8883 27.2315 23.8879 27.3362ZM15.2886 26.4008C15.3106 26.2986 15.2456 26.1978 15.1434 26.1757C14.7882 26.0992 14.4376 26.0187 14.0916 25.9343C13.99 25.9096 13.8875 25.9719 13.8627 26.0735C13.8379 26.1752 13.9002 26.2776 14.0019 26.3024C14.3512 26.3876 14.7051 26.4689 15.0635 26.5461C15.1658 26.5681 15.2666 26.5031 15.2886 26.4008ZM26.4181 27.2793C26.4244 27.3837 26.5141 27.4633 26.6185 27.457C26.9858 27.4349 27.3484 27.4076 27.7059 27.3754C27.8101 27.366 27.8869 27.2739 27.8775 27.1697C27.8681 27.0655 27.776 26.9886 27.6719 26.998C27.3182 27.03 26.9593 27.0569 26.5958 27.0788C26.4914 27.0851 26.4118 27.1748 26.4181 27.2793ZM12.8298 25.8013C12.8584 25.7007 12.8 25.5959 12.6993 25.5673C12.349 25.4678 12.0044 25.3643 11.6658 25.2571C11.5661 25.2255 11.4596 25.2807 11.428 25.3805C11.3965 25.4802 11.4517 25.5867 11.5514 25.6183C11.8936 25.7267 12.2419 25.8312 12.5958 25.9318C12.6964 25.9604 12.8012 25.9019 12.8298 25.8013ZM28.9383 27.0513C28.9521 27.155 29.0474 27.2278 29.1511 27.2139C29.5174 27.1648 29.8774 27.1102 30.2305 27.0501C30.3336 27.0326 30.403 26.9348 30.3855 26.8316C30.368 26.7285 30.2701 26.6591 30.167 26.6766C29.8184 26.7359 29.4629 26.7899 29.1008 26.8384C28.9972 26.8523 28.9244 26.9476 28.9383 27.0513ZM10.4176 25.0368C10.4534 24.9385 10.4028 24.8298 10.3046 24.7939C9.96143 24.6688 9.6258 24.5396 9.2981 24.4068C9.20115 24.3675 9.0907 24.4142 9.0514 24.5112C9.0121 24.6081 9.05883 24.7186 9.15578 24.7579C9.48773 24.8925 9.82752 25.0232 10.1747 25.1499C10.273 25.1857 10.3817 25.1351 10.4176 25.0368ZM31.4331 26.6259C31.456 26.728 31.5574 26.7922 31.6594 26.7693C32.0218 26.6879 32.3753 26.6003 32.7193 26.5068C32.8203 26.4793 32.8799 26.3752 32.8524 26.2743C32.825 26.1733 32.7209 26.1137 32.6199 26.1412C32.2815 26.2332 31.9335 26.3194 31.5764 26.3996C31.4744 26.4225 31.4102 26.5238 31.4331 26.6259ZM8.0725 24.085C8.11683 23.9903 8.07595 23.8775 7.98119 23.8332C7.64973 23.6781 7.32836 23.5191 7.01765 23.3565C6.92496 23.308 6.81051 23.3438 6.762 23.4365C6.71349 23.5292 6.7493 23.6436 6.84198 23.6922C7.15789 23.8575 7.4843 24.019 7.82067 24.1764C7.91543 24.2207 8.02817 24.1798 8.0725 24.085ZM33.8726 25.96C33.907 26.0588 34.015 26.111 34.1138 26.0766C34.4687 25.953 34.8108 25.8222 35.1391 25.6842C35.2355 25.6437 35.2809 25.5326 35.2403 25.4362C35.1998 25.3397 35.0888 25.2944 34.9924 25.3349C34.6718 25.4696 34.3371 25.5977 33.9892 25.7188C33.8904 25.7532 33.8382 25.8612 33.8726 25.96ZM5.83322 22.9103C5.88805 22.8212 5.86028 22.7045 5.77119 22.6496C5.45745 22.4565 5.15815 22.2595 4.87404 22.059C4.78856 21.9987 4.67038 22.0191 4.61008 22.1046C4.54977 22.1901 4.57017 22.3083 4.65565 22.3686C4.9466 22.5739 5.25254 22.7753 5.57263 22.9723C5.66172 23.0271 5.77839 22.9994 5.83322 22.9103ZM36.2025 24.9753C36.2529 25.067 36.368 25.1005 36.4597 25.0501C36.7939 24.8666 37.108 24.6738 37.4004 24.4721C37.4865 24.4127 37.5081 24.2948 37.4487 24.2086C37.3894 24.1225 37.2714 24.1009 37.1853 24.1603C36.9044 24.3541 36.6013 24.5402 36.2774 24.718C36.1857 24.7684 36.1522 24.8836 36.2025 24.9753ZM3.76949 21.4476C3.83837 21.3689 3.83039 21.2492 3.75166 21.1803C3.47355 20.9369 3.21763 20.69 2.98494 20.4404C2.91361 20.3638 2.79376 20.3596 2.71723 20.431C2.64071 20.5023 2.6365 20.6222 2.70783 20.6987C2.95 20.9585 3.21526 21.2143 3.50221 21.4654C3.58094 21.5343 3.7006 21.5263 3.76949 21.4476ZM38.2723 23.531C38.3465 23.6047 38.4664 23.6043 38.5401 23.5301C38.8135 23.255 39.0522 22.967 39.2531 22.6668C39.3112 22.5799 39.2879 22.4622 39.201 22.4041C39.1141 22.3459 38.9964 22.3692 38.9382 22.4561C38.7522 22.7341 38.5294 23.0034 38.2714 23.2631C38.1977 23.3373 38.1981 23.4572 38.2723 23.531ZM2.05866 19.5921C2.14698 19.536 2.17314 19.419 2.11708 19.3307C1.92097 19.0216 1.76126 18.7107 1.63935 18.3992C1.60123 18.3018 1.49135 18.2537 1.39393 18.2919C1.29652 18.33 1.24846 18.4399 1.28659 18.5373C1.41823 18.8737 1.58943 19.2062 1.79724 19.5337C1.85329 19.622 1.97034 19.6482 2.05866 19.5921ZM39.6445 21.4358C39.7459 21.4617 39.849 21.4005 39.875 21.2992C39.9219 21.1156 39.956 20.9289 39.9766 20.7394C39.9989 20.5344 40.0051 20.3293 39.9959 20.1245C39.9911 20.02 39.9026 19.9391 39.7981 19.9438C39.6936 19.9485 39.6127 20.0371 39.6174 20.1416C39.6258 20.3272 39.6202 20.5129 39.6 20.6984C39.5813 20.87 39.5505 21.0389 39.508 21.2053C39.482 21.3066 39.5432 21.4098 39.6445 21.4358ZM1.16895 17.2509C1.2735 17.2473 1.35539 17.1597 1.35186 17.0551C1.34606 16.8835 1.35232 16.7119 1.37098 16.5403C1.394 16.3287 1.43548 16.121 1.49476 15.9172C1.52399 15.8168 1.46626 15.7116 1.36581 15.6824C1.26537 15.6532 1.16025 15.7109 1.13102 15.8114C1.06565 16.0361 1.01982 16.2655 0.994378 16.4994C0.973761 16.6889 0.96685 16.8785 0.973249 17.0679C0.976782 17.1725 1.0644 17.2544 1.16895 17.2509ZM39.5207 18.7935C39.6169 18.7522 39.6613 18.6409 39.6201 18.5447C39.4669 18.1879 39.2693 17.8356 39.031 17.4893C38.9717 17.4031 38.8538 17.3814 38.7676 17.4407C38.6814 17.5 38.6596 17.618 38.719 17.7041C38.9448 18.0322 39.1297 18.3627 39.272 18.6942C39.3132 18.7903 39.4246 18.8348 39.5207 18.7935ZM2.03257 14.45C2.11398 14.5157 2.23323 14.5029 2.29893 14.4215C2.55612 14.1028 2.86342 13.7969 3.21794 13.5054C3.29875 13.4389 3.3104 13.3196 3.24396 13.2388C3.17753 13.1579 3.05817 13.1463 2.97736 13.2127C2.60552 13.5185 2.27946 13.8424 2.00413 14.1836C1.93843 14.265 1.95117 14.3843 2.03257 14.45ZM38.0013 16.5368C38.075 16.4627 38.0748 16.3427 38.0006 16.2689C37.8622 16.1312 37.7174 15.9947 37.5663 15.8596C37.4883 15.7899 37.3685 15.7965 37.2988 15.8745C37.2291 15.9525 37.2358 16.0723 37.3137 16.142C37.4601 16.2729 37.6 16.4047 37.7334 16.5375C37.8075 16.6113 37.9275 16.611 38.0013 16.5368ZM4.41241 12.4595C4.46297 12.5511 4.5782 12.5844 4.66978 12.5338C4.85799 12.4299 5.05327 12.3288 5.25538 12.2306C5.34947 12.1849 5.3887 12.0715 5.34299 11.9774C5.29728 11.8833 5.18395 11.8441 5.08985 11.8898C4.88209 11.9908 4.68094 12.0949 4.4867 12.2021C4.39512 12.2527 4.36186 12.3679 4.41241 12.4595Z" fill="black" fill-opacity="0.16"></path>
  <path fill-rule="evenodd" clip-rule="evenodd" d="M26.7763 17.8016C26.7249 17.6297 26.6728 17.4588 26.6197 17.2887C26.5885 17.1888 26.6442 17.0826 26.7441 17.0514C26.844 17.0203 26.9502 17.076 26.9813 17.1758C27.0348 17.3474 27.0875 17.5198 27.1392 17.6932C27.191 17.8665 27.2415 18.0396 27.2908 18.2124C27.3195 18.313 27.2612 18.4178 27.1606 18.4466C27.06 18.4753 26.9552 18.417 26.9265 18.3164C26.8776 18.145 26.8276 17.9734 26.7763 17.8016ZM27.4326 19.4627C27.5341 19.4373 27.6369 19.4991 27.6623 19.6006C27.7502 19.9524 27.833 20.3028 27.9108 20.6513C27.9336 20.7534 27.8693 20.8546 27.7672 20.8774C27.6651 20.9002 27.5638 20.8359 27.5411 20.7338C27.464 20.3884 27.3819 20.0412 27.2947 19.6924C27.2694 19.5909 27.3311 19.4881 27.4326 19.4627ZM26.4144 16.0525C26.3157 16.0869 26.2077 16.0348 26.1732 15.936C26.0549 15.5965 25.9332 15.2611 25.8083 14.9301C25.7714 14.8322 25.8208 14.7229 25.9187 14.6859C26.0165 14.649 26.1258 14.6984 26.1627 14.7963C26.2888 15.1304 26.4116 15.4688 26.5309 15.8113C26.5654 15.9101 26.5132 16.0181 26.4144 16.0525ZM27.9789 21.9102C28.0817 21.891 28.1807 21.9588 28.1999 22.0616C28.2665 22.4186 28.3277 22.773 28.3835 23.1247C28.3999 23.228 28.3294 23.3251 28.2261 23.3415C28.1228 23.3579 28.0257 23.2874 28.0093 23.1841C27.9541 22.8358 27.8935 22.4848 27.8275 22.1312C27.8083 22.0283 27.8761 21.9294 27.9789 21.9102ZM25.5295 13.7061C25.433 13.7465 25.322 13.7009 25.2817 13.6044C25.1431 13.2725 25.0013 12.9456 24.8566 12.6241C24.8136 12.5287 24.8562 12.4166 24.9516 12.3736C25.0469 12.3307 25.1591 12.3732 25.202 12.4686C25.3482 12.7933 25.4913 13.1233 25.6313 13.4583C25.6716 13.5548 25.626 13.6658 25.5295 13.7061ZM28.3716 24.3856C28.4755 24.3732 28.5698 24.4473 28.5822 24.5512C28.6255 24.913 28.6629 25.2712 28.6944 25.6253C28.7036 25.7295 28.6267 25.8215 28.5225 25.8308C28.4183 25.84 28.3263 25.7631 28.317 25.6588C28.2859 25.3086 28.2489 24.9543 28.2061 24.5962C28.1936 24.4924 28.2678 24.3981 28.3716 24.3856ZM24.5008 11.4206C24.4071 11.4672 24.2935 11.429 24.2469 11.3353C24.0865 11.0124 23.9231 10.6958 23.7571 10.3858C23.7077 10.2936 23.7425 10.1788 23.8347 10.1294C23.9269 10.08 24.0417 10.1147 24.0911 10.2069C24.2589 10.5203 24.424 10.8404 24.5861 11.1667C24.6327 11.2603 24.5945 11.374 24.5008 11.4206ZM28.5933 26.8818C28.6978 26.8771 28.7863 26.958 28.791 27.0625C28.8074 27.4281 28.8172 27.7885 28.8205 28.1432C28.8214 28.2479 28.7374 28.3334 28.6328 28.3344C28.5282 28.3353 28.4426 28.2513 28.4417 28.1467C28.4385 27.7966 28.4288 27.4408 28.4125 27.0795C28.4078 26.975 28.4888 26.8865 28.5933 26.8818ZM23.3177 9.21158C23.2277 9.26495 23.1115 9.23528 23.0581 9.1453C22.8737 8.83432 22.6867 8.5314 22.4974 8.2369C22.4409 8.14889 22.4664 8.03169 22.5544 7.97512C22.6424 7.91856 22.7595 7.94405 22.8161 8.03206C23.0079 8.33046 23.1973 8.63724 23.384 8.95201C23.4373 9.04199 23.4076 9.1582 23.3177 9.21158ZM28.6152 29.3879C28.7197 29.3926 28.8007 29.481 28.7961 29.5855C28.7798 29.9529 28.7559 30.3127 28.7244 30.6643C28.7151 30.7685 28.6231 30.8454 28.5189 30.8361C28.4147 30.8268 28.3378 30.7347 28.3471 30.6305C28.3781 30.2848 28.4016 29.9307 28.4176 29.5688C28.4222 29.4643 28.5107 29.3833 28.6152 29.3879ZM21.962 7.10371C21.8772 7.16488 21.7588 7.14566 21.6976 7.06078C21.4859 6.76696 21.2721 6.48373 21.0566 6.21156C20.9917 6.12954 21.0056 6.0104 21.0876 5.94545C21.1696 5.88051 21.2887 5.89435 21.3536 5.97638C21.5728 6.2532 21.79 6.541 22.005 6.83927C22.0661 6.92415 22.0469 7.04254 21.962 7.10371ZM28.3895 31.8815C28.4928 31.8982 28.563 31.9954 28.5464 32.0987C28.4871 32.4663 28.4183 32.8227 28.3402 33.1668C28.317 33.2689 28.2155 33.3328 28.1135 33.3096C28.0115 33.2864 27.9476 33.1849 27.9708 33.0829C28.0471 32.747 28.1143 32.3985 28.1724 32.0384C28.189 31.9351 28.2863 31.8648 28.3895 31.8815ZM20.4063 5.14213C20.3291 5.21269 20.2092 5.20727 20.1387 5.13002C19.8927 4.86066 19.6454 4.60613 19.3974 4.36708C19.3221 4.29447 19.3199 4.17454 19.3925 4.09922C19.4651 4.0239 19.585 4.0217 19.6603 4.09431C19.9144 4.33925 20.1673 4.59956 20.4184 4.8745C20.4889 4.95174 20.4835 5.07157 20.4063 5.14213ZM27.8299 34.3231C27.9289 34.3569 27.9817 34.4646 27.9479 34.5636C27.826 34.9209 27.6914 35.2603 27.5441 35.5801C27.5004 35.6752 27.3879 35.7167 27.2929 35.673C27.1979 35.6292 27.1563 35.5167 27.2 35.4217C27.3414 35.1146 27.4713 34.7873 27.5894 34.4412C27.6232 34.3422 27.7309 34.2893 27.8299 34.3231ZM18.5996 3.40716C18.5354 3.48971 18.4164 3.50452 18.3338 3.44025C18.0453 3.21558 17.7573 3.01314 17.4707 2.83382C17.382 2.77833 17.3551 2.66144 17.4105 2.57275C17.466 2.48406 17.5829 2.45714 17.6716 2.51262C17.9701 2.69938 18.2687 2.90936 18.5666 3.14131C18.6491 3.20558 18.6639 3.32461 18.5996 3.40716ZM26.7731 36.5884C26.8585 36.6489 26.8786 36.7671 26.8181 36.8525C26.5964 37.1654 26.356 37.4471 26.0972 37.6946C26.0216 37.7669 25.9017 37.7642 25.8294 37.6885C25.7571 37.6129 25.7598 37.493 25.8354 37.4207C26.0751 37.1915 26.2999 36.9285 26.5091 36.6334C26.5696 36.548 26.6878 36.5279 26.7731 36.5884ZM16.474 2.09222C16.4358 2.18961 16.3259 2.2376 16.2285 2.1994C15.8918 2.0673 15.5596 1.97058 15.2335 1.91038C15.1306 1.89139 15.0626 1.79259 15.0816 1.68971C15.1006 1.58682 15.1994 1.51882 15.3023 1.53781C15.6544 1.60282 16.0099 1.70665 16.3669 1.84669C16.4642 1.88489 16.5122 1.99482 16.474 2.09222ZM24.9649 38.2863C25.0085 38.3814 24.9666 38.4938 24.8715 38.5374C24.701 38.6154 24.5253 38.6816 24.3445 38.7356C24.1479 38.7943 23.9483 38.8376 23.7463 38.8659C23.6427 38.8804 23.547 38.8082 23.5325 38.7046C23.5179 38.601 23.5902 38.5052 23.6938 38.4907C23.8771 38.465 24.0579 38.4258 24.2362 38.3726C24.4 38.3237 24.5592 38.2636 24.7139 38.1928C24.809 38.1493 24.9214 38.1911 24.9649 38.2863ZM14.031 1.66387C14.0468 1.76729 13.9757 1.86391 13.8723 1.87966C13.7041 1.90528 13.5381 1.9424 13.3742 1.99132C13.1711 2.05199 12.975 2.12974 12.7858 2.22393C12.6922 2.27057 12.5785 2.23245 12.5319 2.1388C12.4852 2.04515 12.5233 1.93143 12.617 1.88479C12.8253 1.78105 13.0416 1.69526 13.2659 1.62829C13.4467 1.5743 13.6299 1.53335 13.8152 1.50512C13.9187 1.48936 14.0153 1.56044 14.031 1.66387ZM22.3571 38.6461C22.3346 38.7483 22.2335 38.8128 22.1314 38.7903C21.7533 38.7069 21.3718 38.5795 20.9889 38.4113C20.8931 38.3692 20.8496 38.2575 20.8916 38.1617C20.9337 38.0659 21.0454 38.0224 21.1412 38.0644C21.5039 38.2237 21.8617 38.3428 22.2129 38.4203C22.3151 38.4428 22.3796 38.5439 22.3571 38.6461ZM11.4418 3.00619C11.5207 3.07495 11.5288 3.19461 11.4601 3.27346C11.1919 3.5811 10.9452 3.93516 10.721 4.33254C10.6696 4.42366 10.5541 4.45586 10.463 4.40446C10.3719 4.35306 10.3397 4.23752 10.3911 4.14639C10.6262 3.72945 10.8874 3.3538 11.1746 3.02446C11.2433 2.94561 11.363 2.93743 11.4418 3.00619ZM19.8657 37.5816C19.8066 37.6679 19.6888 37.6901 19.6024 37.631C19.4419 37.5213 19.2814 37.4049 19.121 37.2822C19.038 37.2186 19.0222 37.0997 19.0858 37.0166C19.1494 36.9336 19.2682 36.9178 19.3513 36.9814C19.5065 37.1002 19.6615 37.2125 19.8162 37.3183C19.9025 37.3773 19.9247 37.4952 19.8657 37.5816ZM9.90255 5.68321C10.0016 5.71699 10.0544 5.82465 10.0206 5.92366C9.95155 6.1262 9.8865 6.33515 9.82556 6.55025C9.79704 6.65091 9.69232 6.70939 9.59168 6.68086C9.49103 6.65234 9.43256 6.54762 9.46108 6.44696C9.52376 6.22575 9.59078 6.01044 9.66212 5.80132C9.6959 5.7023 9.80355 5.64942 9.90255 5.68321Z" fill="black" fill-opacity="0.16"></path>
  <path d="M21.5549 39.6264C22.2543 39.6264 22.8213 39.0595 22.8213 38.3601C22.8213 37.6607 22.2543 37.0938 21.5549 37.0938C20.8555 37.0938 20.2886 37.6607 20.2886 38.3601C20.2886 39.0595 20.8555 39.6264 21.5549 39.6264Z" fill="#872166"></path>
  <path d="M1.26634 17.5687C1.96572 17.5687 2.53268 17.0089 2.53268 16.3184C2.53268 15.6279 1.96572 15.0681 1.26634 15.0681C0.56696 15.0681 0 15.6279 0 16.3184C0 17.0089 0.56696 17.5687 1.26634 17.5687Z" fill="#872166"></path>
  <path fill-rule="evenodd" clip-rule="evenodd" d="M37.4438 19.8409C37.4438 29.1714 29.8807 36.7354 20.5512 36.7354C11.2219 36.7354 3.65894 29.1714 3.65894 19.8409C3.65894 10.5105 11.2219 2.94666 20.5512 2.94666C29.8807 2.94666 37.4438 10.5105 37.4438 19.8409Z" fill="#086981"></path>
  <path fill-rule="evenodd" clip-rule="evenodd" d="M36.7889 18.8658C35.8179 18.0587 35.1845 18.0587 35.1 18.2711C35.0157 18.4835 35.7757 19.2481 35.1 20.1827C34.4245 21.1172 33.9178 21.4996 34.1713 22.2641C34.4245 23.0288 33.1095 23.7085 34.105 24.3882C35.1 25.0679 34.8889 25.0679 35.6067 25.0254C36.3123 24.9837 36.22 26.1062 36.1682 26.2608C36.9893 24.275 37.4434 22.0973 37.4434 19.8123C37.4434 19.7423 37.4415 19.673 37.4407 19.6033C37.3219 19.4045 37.14 19.1577 36.7889 18.8658Z" fill="#29CFD4"></path>
  <path fill-rule="evenodd" clip-rule="evenodd" d="M30.129 28.1317C29.9896 28.0031 29.2417 28.1674 29.0626 28.1674C28.8836 28.1674 28.7906 28.0888 28.626 27.9888C28.4614 27.8887 28.2822 28.0104 28.1535 28.0388C28.0332 28.0655 27.0985 27.9133 27.5522 27.3744C27.7025 27.1957 27.5236 26.8958 27.4378 26.8672C27.3519 26.8387 27.1871 26.5814 26.9294 26.3815C26.6718 26.1813 26.4785 26.3314 26.1708 26.3314C25.8629 26.3314 25.7913 26.1956 25.6481 26.0884C25.2913 25.8216 24.9742 25.3162 24.5745 25.1311C24.2813 24.9952 23.86 25.4471 23.4792 25.3525C23.3499 25.3201 23.0211 24.9673 22.9425 24.8453C22.8779 24.7453 22.6704 24.7879 22.6775 24.9739C22.6848 25.1596 22.5773 25.2667 22.3769 25.3453C21.7843 25.5779 21.961 25.0339 21.4178 25.0881C21.0599 25.1239 21.2316 25.4953 21.2316 25.7026C21.2316 25.9097 20.931 25.9813 20.8808 25.9312C20.7475 25.7981 20.6388 25.7104 20.5587 25.5311C20.5301 25.4668 20.165 25.4026 20.0291 25.6597C19.7941 26.1037 18.9865 25.1451 19.17 24.8525C19.2996 24.6453 19.2793 24.0254 19.077 23.895C18.7334 23.6736 18.1965 23.8665 17.9101 23.8379C17.6238 23.8092 17.853 23.6021 17.9101 23.545C17.9675 23.488 18.082 23.2878 18.1391 23.1163C18.1965 22.9449 18.0892 22.9305 18.1893 22.7019C18.2895 22.4732 18.2609 22.3162 18.0319 22.302C17.8027 22.2877 17.588 22.459 17.5738 22.7876C17.5594 23.1161 17.2302 23.102 16.4713 23.0448C15.0162 22.935 15.5949 19.6596 17.1654 19.8704C17.1654 19.8704 17.7168 19.987 17.8887 19.9727C17.9669 19.9663 18.3524 19.6013 18.9194 19.6013C19.0627 19.6013 19.034 19.7155 19.1916 19.8704C19.3784 20.0543 19.3909 19.6854 19.7356 20.2443C19.9645 20.6158 19.9217 20.7444 19.9932 21.0588C20.0648 21.3731 20.2222 21.2159 20.3225 20.9587C20.4228 20.7014 20.208 19.8728 20.1506 19.444C20.0769 18.8913 21.5099 18.5117 21.7828 18.0581C21.9777 17.7337 22.4063 16.8953 22.4413 16.7294C22.5893 16.0282 22.953 16.0306 23.515 16.0433C25.2257 16.0824 24.6456 15.7991 24.9896 15.2931C25.1258 15.0932 25.4262 15.1859 25.6839 14.9287C25.9794 14.6338 25.1444 14.0675 24.8786 13.8463C24.082 13.1832 25.67 13.2397 25.963 13.2677C26.4823 13.3169 26.61 13.128 27.0798 13.064C27.3159 13.0319 27.3589 12.689 27.1979 12.5389C26.9303 12.2898 26.141 11.5514 26.3711 11.2529C26.4785 11.1136 26.0348 10.7707 25.8917 10.4135C25.6629 9.84255 25.7831 9.91328 25.591 10.4564C25.5051 10.6994 25.1471 10.5707 25.0899 10.5563C25.0324 10.5421 24.8322 10.2992 24.8463 10.0706C24.8609 9.84199 24.918 9.64184 24.8463 9.57046C24.6889 9.4131 24.4007 9.18931 24.2021 9.01317C23.3062 8.21857 23.2259 9.8026 22.8565 10.1705C22.7418 10.2849 22.928 10.3135 23.0282 10.6421C23.1285 10.9707 22.8995 11.2138 22.7993 11.3137C22.6991 11.4138 22.3698 11.4851 22.155 11.5567C21.2696 11.8506 19.8509 11.0028 19.4348 9.99907C19.263 9.5847 19.6066 9.21324 19.7498 8.91314C19.8929 8.61314 20.1793 8.65603 20.6374 8.48454C20.6898 8.46492 21.4664 8.02442 21.4964 7.98438C21.5824 7.87002 21.7828 7.75575 21.9688 7.65572C22.4191 7.41401 22.8562 7.47141 23.3003 7.27002C23.3701 7.23833 23.4739 6.67135 23.4436 6.59846C23.3719 6.42696 23.057 6.25556 22.8494 6.28403C22.6417 6.31269 22.9137 6.51266 22.6989 6.71273C22.6789 6.7314 22.0692 7.46416 22.0692 6.89846C22.0692 6.79843 22.2123 6.71273 22.2695 6.66983C22.5253 6.47886 21.6292 6.20617 21.883 5.81254C22.0118 5.61238 21.9688 5.52677 21.7971 5.42674C21.6253 5.32671 21.4248 5.48387 21.2245 5.69818C21.024 5.91266 21.0956 5.89815 21.1671 6.16976C21.2387 6.4412 21.1671 6.16976 21.2101 6.42696C21.253 6.68416 20.8808 6.65559 20.8808 6.65559C20.8808 6.65559 20.6947 6.64126 20.6232 6.6127C20.0899 6.39924 19.422 6.24114 18.7334 6.24114C18.6038 6.24114 18.0452 6.36329 17.9603 6.41272C17.347 6.3754 16.2057 5.79292 15.2975 5.58391C15.1114 5.54101 14.7535 5.66961 14.553 5.84101C14.3495 6.01522 12.7913 5.6244 12.7063 5.32671L12.5957 4.92578C11.3444 5.60624 10.1369 6.44593 9.12784 7.38485C9.26685 7.63813 9.44062 7.93846 9.48502 7.97006C9.77808 8.17928 9.04116 8.4561 8.64043 8.80911C7.57859 9.74437 6.70867 11.1776 8.70838 9.83834C8.70838 9.83834 8.80503 9.81689 8.81573 9.76323C8.9746 8.96911 10.0921 9.04284 10.7914 9.12032C11.5374 9.20303 11.3605 10.1437 11.3605 10.6421C11.3605 10.9869 11.3688 11.572 11.2316 11.8852C11.0812 12.2281 11.2316 12.121 11.4034 12.3566C11.5752 12.5925 11.6825 12.6997 11.8115 12.8497C11.9403 12.9997 11.8115 13.3426 11.6825 13.3641C10.9197 13.4911 10.9166 15.2753 10.5444 15.786C10.3726 16.0218 10.5229 16.5577 10.5444 16.6219C10.5659 16.6863 10.7019 16.9648 10.7019 16.9648V17.8436C10.7019 18.1294 11.2173 18.2723 11.3891 18.5152C12.0534 19.4531 10.9335 19.0582 11.9832 19.0582C12.0763 19.0582 12.2338 19.294 12.2768 19.3369C12.3198 19.3798 12.2838 19.6655 12.4628 19.9298C12.7522 20.3571 12.8546 20.6906 12.9657 20.9676C13.03 21.1282 13.1857 21.1658 13.304 21.1978C13.678 21.2999 13.741 22.186 13.6797 22.4518C13.6396 22.625 14.1642 23.1213 14.3239 23.1698C14.5709 23.2448 15.054 23.5593 15.1829 23.5877C15.6623 23.694 16.0225 23.6918 16.4713 23.7736C16.6289 23.8022 17.0871 24.2879 17.2302 24.4309C17.4511 24.6513 18.0692 24.4971 18.3898 24.9023C18.4836 25.0209 18.594 25.5447 18.805 25.5025C18.9482 25.4738 19.0912 25.6232 19.0912 25.6232C19.0912 25.9481 19.5396 25.9902 19.8359 26.1884C19.8788 26.2168 20.0506 26.0169 20.0219 25.9025C19.9382 25.5698 20.448 25.6899 20.5659 25.8312C20.6375 25.9169 20.795 26.1312 20.795 26.3027C20.795 26.4742 20.7806 26.7314 20.7806 27.0027C20.7806 27.2743 20.5659 27.403 20.4084 27.5887C20.2509 27.7745 20.1077 27.8602 20.0361 27.9459C19.6662 28.3887 20.2358 28.5411 19.7642 28.9176C19.3174 29.2743 20.0874 29.6084 20.2653 29.6605C20.5087 29.732 20.7662 30.3607 20.9095 30.6893C21.0527 31.018 21.1958 31.3039 21.3391 31.361C21.6741 31.4949 22.8227 31.8726 22.613 32.3326C22.5594 32.4506 22.6023 32.4826 22.6453 32.9113C22.7181 33.6388 22.4586 34.4155 22.4127 35.1045C22.4055 35.2117 22.205 35.276 22.1639 35.3762C22.1226 35.4762 22.2625 35.4762 22.291 35.5691C22.3196 35.6618 22.2337 35.8905 22.3196 35.9763C22.6303 36.2864 22.2529 36.2814 22.4506 36.6286C22.8013 36.5927 23.2114 36.5271 23.5552 36.4705C23.7605 36.2337 23.8267 36.3745 23.6868 35.8763C23.5866 35.519 23.9302 35.819 24.1451 35.7334C24.3598 35.6477 24.288 35.3619 24.5887 35.3191C25.1858 35.2337 25.2439 34.499 25.7627 34.5618C26.2351 34.619 26.6647 34.0187 27.0368 33.5757C27.409 33.1328 27.0798 32.9898 27.7384 32.5756C28.3969 32.1612 29.4634 31.0359 29.5278 30.6824C29.5924 30.3286 29.4097 30.3179 29.7856 30.0714C30.6902 29.4779 30.8734 28.8173 30.129 28.1317Z" fill="#29CFD4"></path>
  <path fill-rule="evenodd" clip-rule="evenodd" d="M26.764 5.01802C26.2314 5.01802 26.1192 5.56623 26.5959 5.65276C27.0722 5.73929 27.7033 5.91987 27.8714 6.64124C28.0397 7.36261 27.7168 7.38403 28.2213 7.73024C28.7259 8.07646 28.1093 8.45161 28.1093 8.94214C28.1093 9.43257 28.3335 9.83657 28.6699 10.0963C29.2907 10.5759 30.0433 11.7025 30.0433 9.89426C30.0433 9.40382 30.2935 9.43257 30.4906 9.46151C30.6879 9.49026 31.0804 9.43257 31.1924 9.46151C31.3046 9.49026 31.9774 9.49026 32.0333 9.14404C32.0894 8.79783 31.5847 8.27855 31.5847 8.27855C31.5847 8.27855 31.8681 7.79566 31.8651 7.57533C31.8646 7.53085 31.8353 7.36957 31.7862 7.22957C30.4348 5.99144 28.8819 5.03377 27.1898 4.29919C27.1886 4.5711 27.1348 5.01802 26.764 5.01802Z" fill="#29CFD4"></path>
  <path d="M34.6169 7.73641C35.3163 7.73641 35.8833 7.16946 35.8833 6.47008C35.8833 5.77069 35.3163 5.20374 34.6169 5.20374C33.9175 5.20374 33.3506 5.77069 33.3506 6.47008C33.3506 7.16946 33.9175 7.73641 34.6169 7.73641Z" fill="#872166"></path>
  <path d="M26.6761 23.9645C25.5017 24.5987 25.005 26.3949 25.6519 28.0361C26.2987 29.6773 27.6414 30.5134 29.1628 30.4469C29.6231 30.4267 30.3345 30.1118 30.5773 30.0146C31.2786 29.196 30.8003 27.6667 30.2246 26.206C29.6022 24.6265 29.4962 23.1193 27.9919 23.3027C27.484 23.4468 26.9953 23.7921 26.6761 23.9645Z" fill="#872166"></path>
  <path d="M27.8266 23.3385C26.3043 23.9474 25.6639 25.9466 26.3963 27.8038C27.1287 29.6611 28.9566 30.6731 30.4789 30.0642C32.0013 29.4553 32.6416 27.4561 31.9092 25.5988C31.1768 23.7416 29.349 22.7296 27.8266 23.3385Z" fill="#AB5991"></path>
  <path d="M30.1048 25.9177L28.5249 24.6577C28.4679 24.6157 28.3815 24.6438 28.36 24.7114L27.8467 26.662L29.1611 26.9957C29.2287 27.0169 29.2994 26.9939 29.3313 26.9316L30.1048 25.9177Z" fill="white"></path>
  <path d="M29.421 27.3379C29.4078 27.3508 29.3947 27.3637 29.3711 27.3714C29.3476 27.3791 29.3293 27.3764 29.3111 27.3736L27.8205 26.9505C27.8281 26.974 27.841 26.9871 27.854 27.0002L29.6199 28.4068C29.6511 28.4226 29.6822 28.4384 29.7136 28.4282C29.745 28.4179 29.7713 28.3921 29.7769 28.3556L30.3315 26.1585C30.3368 26.1481 30.3317 26.1325 30.3345 26.1143L29.421 27.3379Z" fill="white"></path>
  <path d="M11.6873 19.8856C12.9896 20.5889 13.5404 22.5807 12.8231 24.4008C12.1058 26.2209 10.6168 27.1481 8.9296 27.0743C8.41911 27.052 7.63026 26.7027 7.36092 26.5949C6.58317 25.6871 7.1136 23.9912 7.75204 22.3713C8.44234 20.6197 8.55984 18.9482 10.2281 19.1516C10.7913 19.3114 11.3332 19.6944 11.6873 19.8856Z" fill="#7D2163"></path>
  <path d="M10.4115 19.1912C12.0997 19.8665 12.8099 22.0835 11.9976 24.1432C11.1854 26.2028 9.15838 27.3251 7.47014 26.6498C5.7819 25.9746 5.07175 23.7575 5.88398 21.6978C6.6962 19.6382 8.72323 18.5159 10.4115 19.1912Z" fill="#993D7D"></path>
  <path d="M10.2618 24.2759C10.2638 24.2687 10.2566 24.2667 10.2494 24.2646L8.65287 23.8379L9.08492 23.0907L9.62928 23.0367C9.63647 23.0388 9.63853 23.0316 9.64059 23.0244L9.73026 22.6846C9.73233 22.6774 9.73233 22.6774 9.7272 22.6681C9.72001 22.6661 9.72207 22.6589 9.71283 22.664L9.30507 22.7027L9.97576 21.5572C9.97783 21.55 9.97783 21.55 9.97989 21.5428C9.98195 21.5356 9.97476 21.5335 9.96757 21.5315L8.99321 21.2676C8.98602 21.2656 8.97677 21.2707 8.97471 21.2779L8.13111 22.8094L7.67612 22.85C7.66893 22.848 7.66687 22.8551 7.66481 22.8623L7.56689 23.2309C7.56483 23.2381 7.56483 23.2381 7.56996 23.2474C7.57714 23.2494 7.57714 23.2494 7.58433 23.2515L7.90479 23.2189L7.41714 24.1058C7.41508 24.113 7.41508 24.113 7.41302 24.1202C7.41096 24.1274 7.41815 24.1294 7.42534 24.1315L9.93159 24.8035C9.93878 24.8055 9.94802 24.8004 9.95009 24.7932L10.2576 24.2903C10.2669 24.2852 10.2618 24.2759 10.2618 24.2759Z" fill="white"></path>
  <path d="M18.0593 2.17231C16.3091 3.12 15.5687 5.80407 16.5327 8.2566C17.4967 10.7091 19.4979 11.9584 21.7654 11.8589C22.4514 11.8289 23.5116 11.3582 23.8736 11.2129C24.9189 9.98969 24.2061 7.70451 23.3481 5.52164C22.4204 3.16147 22.2625 0.909136 20.0205 1.18332C19.2635 1.39866 18.5352 1.91465 18.0593 2.17231Z" fill="#70215E"></path>
  <path d="M19.7721 1.23454C17.5037 2.14483 16.5494 5.13344 17.6407 7.9098C18.732 10.6862 21.4556 12.1989 23.724 11.2886C25.9925 10.3784 26.9467 7.38974 25.8554 4.61338C24.7641 1.83702 22.0405 0.324261 19.7721 1.23454Z" fill="#872166"></path>
  <path d="M22.7108 5.78979L22.7093 5.7789C22.9835 5.51812 23.0745 5.13877 22.9648 4.75438C22.8334 4.29529 22.4731 4.02396 22.0672 3.98119C21.8759 3.96372 21.7002 3.97739 21.4854 4.02986L21.3139 3.44315C21.3108 3.42137 21.2875 3.41355 21.2657 3.41661L20.9342 3.50775C20.9125 3.51082 20.9046 3.53414 20.9077 3.55592L21.0777 4.13174L20.6404 4.26001L20.4704 3.68419C20.4673 3.6624 20.444 3.65458 20.4222 3.65765L20.0908 3.74879C20.069 3.75186 20.0612 3.77518 20.0642 3.79696L20.2342 4.37278L19.4872 4.58911C19.4452 4.60614 19.4171 4.64342 19.4248 4.69787L19.5391 5.11494C19.5561 5.15697 19.5934 5.18503 19.6479 5.17736L19.819 5.13102C19.9467 5.09083 20.0803 5.17196 20.1205 5.29958L20.8421 7.81915C20.8822 7.94677 20.8011 8.08038 20.6735 8.12057L20.4914 8.16845C20.4494 8.18547 20.4213 8.22275 20.429 8.2772L20.5418 8.68338C20.5588 8.72541 20.5961 8.75347 20.6505 8.7458L21.3975 8.52947L21.5675 9.10529C21.5706 9.12707 21.5939 9.13489 21.6157 9.13182L21.9472 9.04068C21.969 9.03761 21.9768 9.0143 21.9737 8.99252L21.8037 8.41669L22.241 8.28843L22.411 8.86425C22.4141 8.88603 22.4374 8.89385 22.4592 8.89078L22.7907 8.79965C22.8124 8.79658 22.8203 8.77326 22.8172 8.75148L22.6457 8.16477C22.8277 8.1169 22.985 8.05031 23.1485 7.94952C23.5549 7.68121 23.8048 7.16841 23.6457 6.59105C23.5268 6.14131 23.2008 5.7985 22.7108 5.78979ZM20.8165 4.87939L21.4577 4.70019C21.6071 4.65692 21.7284 4.65093 21.8295 4.6589C22.013 4.69969 22.1464 4.85859 22.1974 5.06245C22.287 5.38303 22.1698 5.655 21.8508 5.75549L21.1255 5.96876L20.8165 4.87939ZM22.7077 7.42296C22.6392 7.48816 22.5224 7.52682 22.426 7.55152L21.6572 7.77092L21.3064 6.54305L22.1064 6.30815C22.4799 6.19998 22.7719 6.38096 22.877 6.73268C22.9387 7.01277 22.8884 7.28643 22.7077 7.42296Z" fill="white"></path>
</svg>
