<?xml version="1.0" encoding="UTF-8"?>
<svg xmlns="http://www.w3.org/2000/svg" width="40" height="41" viewBox="0 0 40 41" fill="none">
  <g clip-path="url(#clip0_82_3124)">
    <path d="M19.3586 40.7263C19.3586 40.7263 19.3507 40.7263 19.3586 40.7263C19.036 40.7184 18.7133 40.6948 18.3986 40.6712C18.2884 40.6633 18.2097 40.5689 18.2176 40.4587C18.2254 40.3486 18.3199 40.2699 18.43 40.2777C18.7369 40.3013 19.0517 40.325 19.3665 40.3328C19.4767 40.3407 19.5632 40.4273 19.5553 40.5374C19.5475 40.6397 19.4609 40.7263 19.3586 40.7263ZM20.8538 40.7184C20.7515 40.7184 20.6649 40.6319 20.6571 40.5296C20.6492 40.4194 20.7358 40.3328 20.8459 40.325C21.1528 40.3092 21.4676 40.2935 21.7824 40.2699C21.8925 40.262 21.987 40.3407 21.9949 40.4509C22.0027 40.561 21.924 40.6555 21.8139 40.6633C21.4991 40.6869 21.1764 40.7106 20.8538 40.7184C20.8617 40.7184 20.8538 40.7184 20.8538 40.7184ZM16.9348 40.4823C16.927 40.4823 16.9112 40.4823 16.9034 40.4823C16.5886 40.4351 16.2738 40.3722 15.9669 40.3092C15.8567 40.2856 15.7938 40.1833 15.8174 40.0731C15.841 39.963 15.9433 39.9 16.0535 39.9236C16.3604 39.9866 16.6673 40.0417 16.9742 40.0967C17.0844 40.1125 17.1552 40.2148 17.1395 40.325C17.1158 40.4194 17.0293 40.4823 16.9348 40.4823ZM23.2776 40.4823C23.1831 40.4823 23.0966 40.4115 23.0808 40.3171C23.0651 40.2069 23.1359 40.1125 23.2461 40.0889C23.553 40.0417 23.8599 39.9787 24.1668 39.9157C24.277 39.8921 24.3793 39.963 24.4029 40.0653C24.4265 40.1754 24.3557 40.2777 24.2534 40.3013C23.9465 40.3643 23.6317 40.4273 23.3169 40.4745C23.3012 40.4823 23.2854 40.4823 23.2776 40.4823ZM14.5583 39.9472C14.5426 39.9472 14.519 39.9472 14.5032 39.9394C14.1963 39.8528 13.8973 39.7505 13.5982 39.6482C13.4959 39.6167 13.4409 39.4987 13.4802 39.3964C13.5195 39.2941 13.6297 39.239 13.732 39.2783C14.0232 39.3806 14.3222 39.4751 14.6213 39.5616C14.7236 39.5931 14.7865 39.7033 14.755 39.8056C14.7157 39.8921 14.6449 39.9472 14.5583 39.9472ZM25.6541 39.9394C25.5675 39.9394 25.4889 39.8843 25.4652 39.7977C25.4338 39.6954 25.4967 39.5852 25.599 39.5538C25.8981 39.4672 26.1971 39.3728 26.4883 39.2705C26.5906 39.2311 26.7007 39.2862 26.7401 39.3885C26.7794 39.4908 26.7243 39.601 26.622 39.6403C26.323 39.7426 26.0161 39.8449 25.7171 39.9315C25.6935 39.9394 25.6698 39.9394 25.6541 39.9394ZM12.2604 39.1209C12.2368 39.1209 12.2054 39.1131 12.1818 39.1052C11.8906 38.9793 11.5994 38.8455 11.3161 38.7039C11.2217 38.6566 11.1745 38.5386 11.2296 38.4442C11.2768 38.3497 11.3948 38.3025 11.4892 38.3576C11.7647 38.4914 12.0558 38.6252 12.3391 38.7511C12.4414 38.7904 12.4808 38.9085 12.4414 39.0108C12.41 39.0816 12.3391 39.1209 12.2604 39.1209ZM27.9441 39.1052C27.8654 39.1052 27.7946 39.058 27.7631 38.9872C27.7159 38.8849 27.7631 38.7747 27.8654 38.7275C28.1487 38.6016 28.432 38.4757 28.7153 38.334C28.8097 38.2868 28.9278 38.3261 28.975 38.4206C29.0222 38.515 28.9829 38.633 28.8884 38.6803C28.6051 38.8219 28.314 38.9557 28.0228 39.0816C27.9992 39.1052 27.9677 39.1052 27.9441 39.1052ZM10.0885 38.0192C10.057 38.0192 10.0177 38.0114 9.9862 37.9956C9.71077 37.8382 9.44321 37.6651 9.17565 37.492C9.08122 37.429 9.05761 37.311 9.12057 37.2166C9.18352 37.1221 9.30156 37.0985 9.396 37.1615C9.65568 37.3346 9.92324 37.4998 10.1908 37.6572C10.2852 37.7123 10.3167 37.8304 10.2616 37.9248C10.2223 37.9799 10.1515 38.0192 10.0885 38.0192ZM30.116 38.0035C30.0452 38.0035 29.9823 37.972 29.9429 37.9091C29.8878 37.8146 29.9193 37.6966 30.0137 37.6415C30.2813 37.4841 30.5489 37.3189 30.8085 37.1457C30.903 37.0828 31.021 37.1143 31.084 37.2008C31.1469 37.2952 31.1154 37.4133 31.0289 37.4762C30.7613 37.6494 30.4938 37.8225 30.2183 37.9799C30.179 37.9956 30.1475 38.0035 30.116 38.0035ZM8.06607 36.65C8.02673 36.65 7.97951 36.6342 7.94803 36.6106C7.69621 36.4139 7.44439 36.2171 7.20831 36.0125C7.12175 35.9417 7.11388 35.8158 7.1847 35.7371C7.25553 35.6505 7.38144 35.6427 7.46013 35.7135C7.69621 35.9181 7.94016 36.1148 8.18411 36.3037C8.27068 36.3667 8.28641 36.4926 8.22346 36.5791C8.18411 36.6264 8.12903 36.65 8.06607 36.65ZM32.1306 36.6342C32.0755 36.6342 32.0126 36.6106 31.9732 36.5555C31.9103 36.469 31.926 36.3431 32.0126 36.2801C32.2565 36.0912 32.5005 35.8945 32.7365 35.6899C32.8231 35.6191 32.9411 35.6269 33.012 35.7135C33.0828 35.8001 33.0749 35.9181 32.9884 35.9889C32.7444 36.1935 32.5005 36.3981 32.2486 36.587C32.2093 36.6185 32.1699 36.6342 32.1306 36.6342ZM6.23251 35.0446C6.18529 35.0446 6.13021 35.0289 6.09086 34.9895C5.86265 34.7692 5.64231 34.5331 5.42983 34.3049C5.35901 34.2262 5.35901 34.1003 5.4377 34.0295C5.5164 33.9586 5.64231 33.9586 5.71313 34.0373C5.9256 34.2655 6.13808 34.4938 6.35842 34.7062C6.43711 34.7849 6.43711 34.9108 6.35842 34.9817C6.33481 35.0289 6.27973 35.0446 6.23251 35.0446ZM33.9642 35.0289C33.9169 35.0289 33.8619 35.0131 33.8225 34.9738C33.7438 34.8951 33.7438 34.7692 33.8225 34.6984C34.0429 34.478 34.2632 34.2498 34.4678 34.0216C34.5386 33.9429 34.6645 33.935 34.7432 34.0059C34.8219 34.0767 34.8298 34.2026 34.759 34.2813C34.5465 34.5174 34.3262 34.7456 34.0979 34.9659C34.0586 35.0131 34.0114 35.0289 33.9642 35.0289ZM4.60355 33.2346C4.54846 33.2346 4.48551 33.211 4.44616 33.156C4.24943 32.9041 4.06056 32.6523 3.8717 32.3926C3.80874 32.3061 3.83235 32.1802 3.91891 32.1172C4.00548 32.0542 4.13139 32.0779 4.19434 32.1644C4.37534 32.4162 4.5642 32.6681 4.75307 32.912C4.82389 32.9986 4.80815 33.1245 4.72159 33.1874C4.69011 33.2189 4.65077 33.2346 4.60355 33.2346ZM35.5853 33.211C35.5459 33.211 35.4987 33.1953 35.4672 33.1717C35.3806 33.1009 35.3649 32.9828 35.4357 32.8963C35.6246 32.6523 35.8135 32.4005 35.9945 32.1487C36.0574 32.0621 36.1833 32.0385 36.2699 32.1015C36.3564 32.1644 36.3801 32.2903 36.3171 32.3769C36.1361 32.6366 35.9394 32.8884 35.7426 33.1402C35.7033 33.1874 35.6403 33.211 35.5853 33.211ZM3.21854 31.228C3.15559 31.228 3.08476 31.1965 3.05328 31.1335C2.88803 30.866 2.73064 30.5827 2.58112 30.3072C2.52604 30.2128 2.56538 30.0948 2.65982 30.0397C2.75425 29.9846 2.87229 30.0239 2.92737 30.1184C3.07689 30.3938 3.23428 30.6614 3.39167 30.9289C3.44675 31.0234 3.41528 31.1414 3.32871 31.1965C3.2815 31.2201 3.25002 31.228 3.21854 31.228ZM36.9703 31.2044C36.9388 31.2044 36.8994 31.1965 36.868 31.1729C36.7735 31.1178 36.7421 30.9919 36.805 30.9053C36.9624 30.6378 37.1198 30.3702 37.2693 30.0948C37.3244 30.0003 37.4424 29.961 37.5369 30.0161C37.6313 30.0712 37.6706 30.1892 37.6155 30.2836C37.466 30.5591 37.3086 30.8424 37.1434 31.1099C37.104 31.1729 37.0411 31.2044 36.9703 31.2044ZM2.08535 29.0718C2.00666 29.0718 1.93583 29.0245 1.90436 28.9537C1.77845 28.6625 1.65254 28.3714 1.5345 28.0802C1.49515 27.9779 1.54237 27.8677 1.64467 27.8284C1.74697 27.7891 1.85714 27.8363 1.89649 27.9386C2.00666 28.2297 2.13257 28.513 2.25848 28.7963C2.30569 28.8986 2.25848 29.0088 2.15618 29.056C2.14044 29.0718 2.10896 29.0718 2.08535 29.0718ZM38.1035 29.0403C38.0798 29.0403 38.0484 29.0324 38.0248 29.0245C37.9225 28.9773 37.8831 28.8672 37.9225 28.7649C38.0484 28.4816 38.1743 28.1904 38.2844 27.8992C38.3238 27.7969 38.434 27.7497 38.5363 27.7891C38.6386 27.8284 38.6858 27.9464 38.6464 28.0409C38.5284 28.332 38.4104 28.6311 38.2766 28.9222C38.253 29.0009 38.1821 29.0403 38.1035 29.0403ZM1.22759 26.7975C1.14103 26.7975 1.06233 26.7424 1.03873 26.6559C0.944294 26.3568 0.857731 26.0421 0.779037 25.7351C0.755429 25.6328 0.818384 25.5227 0.920686 25.4991C1.02299 25.4755 1.13316 25.5384 1.15677 25.6407C1.23546 25.9397 1.31415 26.2467 1.40859 26.5378C1.44006 26.6401 1.38498 26.7503 1.27481 26.7818C1.26694 26.7896 1.24333 26.7975 1.22759 26.7975ZM38.9533 26.7582C38.9376 26.7582 38.914 26.7582 38.8983 26.7503C38.796 26.7188 38.733 26.6086 38.7645 26.5063C38.851 26.2073 38.9376 25.9083 39.0163 25.6092C39.0399 25.5069 39.1501 25.4361 39.2524 25.4676C39.3547 25.4912 39.4255 25.6014 39.394 25.7037C39.3153 26.0106 39.2288 26.3175 39.1422 26.6244C39.1186 26.7031 39.0399 26.7582 38.9533 26.7582ZM0.660996 24.421C0.566564 24.421 0.48787 24.3501 0.464262 24.2557C0.409177 23.9409 0.361961 23.6262 0.322614 23.3114C0.306875 23.2012 0.385569 23.1068 0.49574 23.091C0.605911 23.0753 0.700343 23.154 0.716082 23.2642C0.755429 23.5711 0.802645 23.8858 0.857731 24.1849C0.873469 24.295 0.802645 24.3974 0.700343 24.4131C0.684605 24.421 0.668866 24.421 0.660996 24.421ZM39.5199 24.3816C39.5121 24.3816 39.4963 24.3816 39.4885 24.3816C39.3783 24.3659 39.3075 24.2636 39.3311 24.1534C39.3862 23.8465 39.4334 23.5396 39.4648 23.2327C39.4806 23.1225 39.575 23.0517 39.6852 23.0596C39.7954 23.0753 39.8662 23.1697 39.8583 23.2799C39.819 23.5947 39.7718 23.9095 39.7167 24.2242C39.6931 24.3187 39.6144 24.3816 39.5199 24.3816ZM0.393438 22.0051C0.291136 22.0051 0.204573 21.9264 0.196704 21.8162C0.180965 21.5014 0.173096 21.1788 0.173096 20.864C0.173096 20.7538 0.259659 20.6673 0.36983 20.6673C0.480001 20.6673 0.566564 20.7538 0.566564 20.864C0.566564 21.1788 0.574433 21.4857 0.590172 21.8005C0.598042 21.9106 0.511479 22.0051 0.401307 22.0051H0.393438ZM39.7796 21.9657H39.7718C39.6616 21.9578 39.5829 21.8713 39.5829 21.7611C39.5986 21.4542 39.6065 21.1394 39.6065 20.8247C39.6065 20.7145 39.6931 20.6279 39.8032 20.6279C39.9134 20.6279 40 20.7145 40 20.8247C40 21.1394 39.9921 21.4621 39.9764 21.7769C39.9764 21.8792 39.8898 21.9657 39.7796 21.9657ZM39.7796 19.9984C39.6773 19.9984 39.5908 19.9197 39.5829 19.8095C39.5672 19.5026 39.5435 19.1878 39.5121 18.8809C39.5042 18.7708 39.5829 18.6763 39.6852 18.6685C39.7954 18.6606 39.8898 18.7393 39.8977 18.8416C39.9291 19.1564 39.9528 19.479 39.9685 19.7938C39.9764 19.9039 39.8898 19.9984 39.7796 19.9984C39.7796 19.9984 39.7875 19.9984 39.7796 19.9984ZM0.424915 19.5656C0.417046 19.5656 0.417046 19.5656 0.409177 19.5656C0.299006 19.5577 0.220312 19.4633 0.228181 19.3531C0.251789 19.0383 0.283267 18.7157 0.322614 18.4009C0.338352 18.2907 0.432785 18.2199 0.542956 18.2278C0.653127 18.2435 0.723952 18.3379 0.716082 18.4481C0.676735 18.755 0.645258 19.0698 0.629519 19.3767C0.61378 19.4869 0.527217 19.5656 0.424915 19.5656ZM39.5042 17.5746C39.4098 17.5746 39.3311 17.5038 39.3075 17.4094C39.2524 17.1024 39.1894 16.7955 39.1265 16.4965C39.1029 16.3942 39.1658 16.284 39.276 16.2604C39.3783 16.2368 39.4885 16.2998 39.5121 16.4099C39.5829 16.7169 39.6458 17.0316 39.7009 17.3464C39.7167 17.4566 39.6458 17.5589 39.5435 17.5746C39.5278 17.5746 39.5121 17.5746 39.5042 17.5746ZM0.74756 17.1497C0.731821 17.1497 0.723951 17.1497 0.708213 17.1497C0.598042 17.1261 0.535087 17.0238 0.550825 16.9215C0.61378 16.6145 0.684605 16.2998 0.755429 15.9929C0.779037 15.8906 0.889208 15.8197 0.99151 15.8512C1.09381 15.8748 1.16464 15.985 1.13316 16.0873C1.05446 16.3863 0.99151 16.6932 0.928555 17.0001C0.920686 17.0867 0.841992 17.1497 0.74756 17.1497ZM38.9376 15.2059C38.851 15.2059 38.7723 15.1508 38.7487 15.0643C38.6543 14.7652 38.5599 14.4662 38.4497 14.175C38.4104 14.0727 38.4654 13.9626 38.5677 13.9232C38.67 13.8839 38.7802 13.939 38.8196 14.0413C38.9297 14.3403 39.032 14.6393 39.1186 14.9462C39.1501 15.0485 39.095 15.1587 38.9848 15.1902C38.9691 15.2059 38.9533 15.2059 38.9376 15.2059ZM1.36924 14.7967C1.34563 14.7967 1.32989 14.7967 1.30628 14.7889C1.20398 14.7574 1.1489 14.6393 1.18037 14.537C1.28268 14.238 1.39285 13.9311 1.50302 13.6399C1.54237 13.5376 1.65254 13.4904 1.75484 13.5298C1.85714 13.5691 1.90436 13.6793 1.86501 13.7816C1.75484 14.0727 1.64467 14.3718 1.55024 14.6629C1.52663 14.7416 1.4558 14.7967 1.36924 14.7967ZM38.072 12.9317C37.9933 12.9317 37.9225 12.8923 37.891 12.8136C37.7651 12.5303 37.6313 12.2471 37.4896 11.9716C37.4424 11.8772 37.4818 11.7591 37.5762 11.7041C37.6706 11.6568 37.7887 11.6962 37.8438 11.7906C37.9854 12.0739 38.1271 12.3572 38.253 12.6484C38.3002 12.7507 38.253 12.8609 38.1507 12.9081C38.1271 12.9238 38.1034 12.9317 38.072 12.9317ZM2.28209 12.5303C2.25061 12.5303 2.227 12.5225 2.19552 12.5146C2.10109 12.4674 2.05387 12.3494 2.10109 12.2549C2.23487 11.9716 2.38439 11.6805 2.53391 11.405C2.58899 11.3106 2.70703 11.2712 2.80146 11.3263C2.8959 11.3814 2.93524 11.4995 2.88016 11.5939C2.73064 11.8693 2.58899 12.1447 2.45521 12.428C2.4316 12.491 2.36078 12.5303 2.28209 12.5303ZM36.9388 10.7755C36.8758 10.7755 36.805 10.744 36.7735 10.681C36.6161 10.4135 36.443 10.1538 36.2699 9.89411C36.2069 9.80755 36.2305 9.68164 36.325 9.61868C36.4115 9.55573 36.5374 9.57934 36.6004 9.67377C36.7814 9.93346 36.9545 10.2089 37.1119 10.4764C37.167 10.5709 37.1355 10.6889 37.049 10.744C37.0096 10.7676 36.9703 10.7755 36.9388 10.7755ZM3.47036 10.3977C3.43101 10.3977 3.39954 10.3899 3.36806 10.3663C3.27363 10.3112 3.25002 10.1853 3.3051 10.0908C3.47823 9.82329 3.65923 9.55573 3.84022 9.29604C3.90318 9.20947 4.02909 9.18587 4.11565 9.24882C4.20221 9.31178 4.22582 9.43769 4.16287 9.52425C3.98187 9.77607 3.80874 10.0358 3.64349 10.3033C3.59627 10.3663 3.53332 10.3977 3.47036 10.3977ZM35.5459 8.77666C35.4908 8.77666 35.4279 8.75305 35.3885 8.70583C35.1918 8.46188 34.995 8.21793 34.7904 7.98972C34.7196 7.91103 34.7275 7.78512 34.8062 7.71429C34.8849 7.64347 35.0108 7.65134 35.0816 7.73003C35.2862 7.96611 35.4908 8.21793 35.6876 8.46188C35.7584 8.54845 35.7426 8.67436 35.6561 8.73731C35.6325 8.76092 35.5853 8.77666 35.5459 8.77666ZM4.91046 8.43041C4.86324 8.43041 4.82389 8.41467 4.78455 8.38319C4.69798 8.31237 4.69011 8.18646 4.76094 8.10776C4.96554 7.86381 5.17014 7.61986 5.39049 7.39165C5.46131 7.31296 5.58722 7.30509 5.66592 7.37591C5.74461 7.44674 5.75248 7.57265 5.68165 7.65134C5.46918 7.87955 5.26458 8.11563 5.06784 8.35958C5.02063 8.4068 4.96554 8.43041 4.91046 8.43041ZM33.9169 6.9667C33.8697 6.9667 33.8146 6.95097 33.7753 6.91162C33.555 6.69128 33.3267 6.4788 33.0907 6.2742C33.012 6.20338 33.0041 6.07747 33.0749 5.99877C33.1457 5.92008 33.2717 5.91221 33.3503 5.98303C33.5864 6.19551 33.8225 6.41585 34.0429 6.63619C34.1215 6.71489 34.1215 6.8408 34.0429 6.91162C34.0192 6.9431 33.9642 6.9667 33.9169 6.9667ZM6.57876 6.65193C6.52368 6.65193 6.47646 6.62832 6.43711 6.58898C6.36629 6.51028 6.36629 6.38437 6.44498 6.31355C6.67319 6.09321 6.91714 5.88073 7.15323 5.67613C7.23192 5.6053 7.35783 5.61317 7.42865 5.69974C7.49948 5.77843 7.49161 5.90434 7.40505 5.97516C7.16896 6.17977 6.93288 6.38437 6.71254 6.59684C6.67319 6.63619 6.62598 6.65193 6.57876 6.65193ZM32.0755 5.36135C32.0362 5.36135 31.989 5.34561 31.9575 5.32201C31.7135 5.13314 31.4538 4.94428 31.202 4.77115C31.1154 4.7082 31.0918 4.59016 31.1548 4.49572C31.2178 4.40916 31.3358 4.38555 31.4302 4.44851C31.6899 4.6295 31.9496 4.81837 32.2014 5.00723C32.288 5.07019 32.3037 5.1961 32.2408 5.28266C32.1936 5.33775 32.1385 5.36135 32.0755 5.36135ZM8.45167 5.09379C8.38872 5.09379 8.33363 5.06232 8.29428 5.0151C8.23133 4.92854 8.24707 4.80263 8.33363 4.73967C8.58545 4.55081 8.85301 4.36981 9.1127 4.19669C9.20713 4.13373 9.32517 4.16521 9.38813 4.25177C9.45108 4.3462 9.4196 4.46425 9.33304 4.5272C9.07335 4.70033 8.81366 4.88132 8.56971 5.06232C8.53823 5.08593 8.49102 5.09379 8.45167 5.09379ZM30.0531 3.99995C30.0216 3.99995 29.9823 3.99208 29.9508 3.97634C29.6832 3.81896 29.4078 3.66944 29.1324 3.51992C29.0379 3.47271 28.9986 3.3468 29.0458 3.25236C29.093 3.15793 29.2189 3.11858 29.3134 3.1658C29.5967 3.31532 29.8721 3.46484 30.1475 3.63009C30.242 3.68518 30.2734 3.80322 30.2183 3.89765C30.1869 3.96848 30.1239 3.99995 30.0531 3.99995ZM10.5056 3.77961C10.4348 3.77961 10.3718 3.74026 10.3324 3.67731C10.2774 3.58288 10.3167 3.46484 10.4111 3.40975C10.6866 3.25236 10.9699 3.11071 11.2532 2.96907C11.3476 2.92185 11.4656 2.9612 11.5207 3.05563C11.5679 3.15006 11.5286 3.2681 11.4342 3.32319C11.1587 3.45697 10.8754 3.60648 10.6079 3.756C10.5685 3.77174 10.5371 3.77961 10.5056 3.77961ZM27.8733 2.89824C27.8497 2.89824 27.8182 2.89037 27.7946 2.8825C27.5113 2.75659 27.2201 2.63855 26.9289 2.53625C26.8266 2.4969 26.7794 2.38673 26.8109 2.28443C26.8424 2.18213 26.9604 2.13491 27.0627 2.16639C27.3618 2.27656 27.6608 2.3946 27.952 2.52051C28.0543 2.55986 28.1015 2.6779 28.0543 2.7802C28.0228 2.85889 27.952 2.89824 27.8733 2.89824ZM12.7011 2.73298C12.6224 2.73298 12.5516 2.68577 12.5201 2.60708C12.4808 2.50477 12.528 2.3946 12.6303 2.34739C12.9215 2.22935 13.2205 2.11917 13.5195 2.009C13.6218 1.96966 13.732 2.02474 13.7714 2.12704C13.8107 2.22935 13.7556 2.33952 13.6533 2.37886C13.3622 2.48117 13.0631 2.59134 12.7798 2.70938C12.7483 2.72512 12.7247 2.73298 12.7011 2.73298ZM25.5833 2.07983C25.5675 2.07983 25.5439 2.07983 25.5282 2.07196C25.2292 1.9854 24.9223 1.9067 24.6232 1.83588C24.5209 1.81227 24.4501 1.7021 24.4737 1.5998C24.4973 1.49749 24.6075 1.42667 24.7098 1.45028C25.0167 1.5211 25.3315 1.60767 25.6305 1.69423C25.7328 1.72571 25.7958 1.83588 25.7643 1.93818C25.7485 2.01687 25.6698 2.07983 25.5833 2.07983ZM15.0147 1.96179C14.9282 1.96179 14.8495 1.9067 14.8259 1.81227C14.7944 1.70997 14.8573 1.5998 14.9675 1.56832C15.2744 1.48962 15.5892 1.41093 15.8961 1.34798C16.0063 1.32437 16.1086 1.39519 16.1322 1.49749C16.1558 1.5998 16.085 1.70997 15.9827 1.73358C15.6836 1.79653 15.3767 1.87522 15.0777 1.95392C15.0462 1.96179 15.0305 1.96179 15.0147 1.96179ZM23.1989 1.54471C23.191 1.54471 23.1753 1.54471 23.1674 1.54471C22.8605 1.49749 22.5457 1.45815 22.2388 1.4188C22.1286 1.40306 22.0499 1.30863 22.0657 1.19846C22.0814 1.08829 22.1758 1.00959 22.286 1.02533C22.6008 1.05681 22.9156 1.10403 23.2303 1.15124C23.3405 1.16698 23.4113 1.26928 23.3956 1.37945C23.3799 1.47389 23.3012 1.54471 23.1989 1.54471ZM17.3991 1.48176C17.3047 1.48176 17.2181 1.41093 17.2024 1.30863C17.1867 1.19846 17.2654 1.10403 17.3677 1.08829C17.6824 1.04894 17.9972 1.00959 18.312 0.985985C18.4222 0.978116 18.5166 1.05681 18.5245 1.16698C18.5323 1.27715 18.4536 1.37158 18.3435 1.37945C18.0366 1.40306 17.7218 1.44241 17.4149 1.48176C17.4228 1.48176 17.407 1.48176 17.3991 1.48176ZM20.7751 1.3165C20.4603 1.30863 20.1456 1.30076 19.8308 1.30863C19.7206 1.30863 19.634 1.22207 19.634 1.1119C19.634 1.00172 19.7206 0.915161 19.8308 0.915161C20.1456 0.915161 20.4682 0.915161 20.783 0.923031C20.8931 0.923031 20.9797 1.01746 20.9718 1.12763C20.9718 1.22994 20.8853 1.3165 20.7751 1.3165Z" fill="black" fill-opacity="0.16"></path>
    <path d="M39.8032 21.0214H39.4019C39.2917 21.0214 39.2052 20.9348 39.2052 20.8247C39.2052 20.7145 39.2917 20.6279 39.4019 20.6279H39.8032C39.9134 20.6279 40 20.7145 40 20.8247C40 20.9348 39.9134 21.0214 39.8032 21.0214ZM37.9067 21.0214H36.9624C36.8522 21.0214 36.7657 20.9348 36.7657 20.8247C36.7657 20.7145 36.8522 20.6279 36.9624 20.6279H37.9067C38.0169 20.6279 38.1035 20.7145 38.1035 20.8247C38.1035 20.9348 38.0169 21.0214 37.9067 21.0214ZM35.4672 21.0214H34.5229C34.4127 21.0214 34.3262 20.9348 34.3262 20.8247C34.3262 20.7145 34.4127 20.6279 34.5229 20.6279H35.4672C35.5774 20.6279 35.6639 20.7145 35.6639 20.8247C35.6639 20.9348 35.5774 21.0214 35.4672 21.0214ZM33.0277 21.0214H32.0834C31.9732 21.0214 31.8866 20.9348 31.8866 20.8247C31.8866 20.7145 31.9732 20.6279 32.0834 20.6279H33.0277C33.1379 20.6279 33.2244 20.7145 33.2244 20.8247C33.2244 20.9348 33.1379 21.0214 33.0277 21.0214ZM30.5882 21.0214H29.6439C29.5337 21.0214 29.4471 20.9348 29.4471 20.8247C29.4471 20.7145 29.5337 20.6279 29.6439 20.6279H30.5882C30.6984 20.6279 30.7849 20.7145 30.7849 20.8247C30.7849 20.9348 30.6984 21.0214 30.5882 21.0214ZM28.1487 21.0214H27.2044C27.0942 21.0214 27.0076 20.9348 27.0076 20.8247C27.0076 20.7145 27.0942 20.6279 27.2044 20.6279H28.1487C28.2589 20.6279 28.3454 20.7145 28.3454 20.8247C28.3454 20.9348 28.2589 21.0214 28.1487 21.0214ZM25.7092 21.0214H24.7649C24.6547 21.0214 24.5681 20.9348 24.5681 20.8247C24.5681 20.7145 24.6547 20.6279 24.7649 20.6279H25.7092C25.8194 20.6279 25.9059 20.7145 25.9059 20.8247C25.9059 20.9348 25.8194 21.0214 25.7092 21.0214ZM23.2697 21.0214H22.3254C22.2152 21.0214 22.1286 20.9348 22.1286 20.8247C22.1286 20.7145 22.2152 20.6279 22.3254 20.6279H23.2697C23.3799 20.6279 23.4664 20.7145 23.4664 20.8247C23.4664 20.9348 23.3799 21.0214 23.2697 21.0214ZM20.8302 21.0214H19.8859C19.7757 21.0214 19.6891 20.9348 19.6891 20.8247C19.6891 20.7145 19.7757 20.6279 19.8859 20.6279H20.8302C20.9404 20.6279 21.0269 20.7145 21.0269 20.8247C21.0269 20.9348 20.9404 21.0214 20.8302 21.0214ZM18.3907 21.0214H17.4464C17.3362 21.0214 17.2496 20.9348 17.2496 20.8247C17.2496 20.7145 17.3362 20.6279 17.4464 20.6279H18.3907C18.5009 20.6279 18.5874 20.7145 18.5874 20.8247C18.5874 20.9348 18.5009 21.0214 18.3907 21.0214ZM15.9512 21.0214H15.0069C14.8967 21.0214 14.8101 20.9348 14.8101 20.8247C14.8101 20.7145 14.8967 20.6279 15.0069 20.6279H15.9512C16.0613 20.6279 16.1479 20.7145 16.1479 20.8247C16.1479 20.9348 16.0613 21.0214 15.9512 21.0214ZM13.5117 21.0214H12.5674C12.4572 21.0214 12.3706 20.9348 12.3706 20.8247C12.3706 20.7145 12.4572 20.6279 12.5674 20.6279H13.5117C13.6218 20.6279 13.7084 20.7145 13.7084 20.8247C13.7084 20.9348 13.6218 21.0214 13.5117 21.0214ZM11.0722 21.0214H10.1278C10.0177 21.0214 9.93111 20.9348 9.93111 20.8247C9.93111 20.7145 10.0177 20.6279 10.1278 20.6279H11.0722C11.1823 20.6279 11.2689 20.7145 11.2689 20.8247C11.2689 20.9348 11.1823 21.0214 11.0722 21.0214ZM8.63267 21.0214H7.68834C7.57817 21.0214 7.49161 20.9348 7.49161 20.8247C7.49161 20.7145 7.57817 20.6279 7.68834 20.6279H8.63267C8.74284 20.6279 8.8294 20.7145 8.8294 20.8247C8.8294 20.9348 8.74284 21.0214 8.63267 21.0214ZM6.19316 21.0214H5.24884C5.13867 21.0214 5.0521 20.9348 5.0521 20.8247C5.0521 20.7145 5.13867 20.6279 5.24884 20.6279H6.19316C6.30333 20.6279 6.3899 20.7145 6.3899 20.8247C6.3899 20.9348 6.30333 21.0214 6.19316 21.0214ZM3.75366 21.0214H2.80933C2.69916 21.0214 2.6126 20.9348 2.6126 20.8247C2.6126 20.7145 2.69916 20.6279 2.80933 20.6279H3.75366C3.86383 20.6279 3.95039 20.7145 3.95039 20.8247C3.95039 20.9348 3.86383 21.0214 3.75366 21.0214ZM1.31415 21.0214H0.36983C0.259659 21.0214 0.173096 20.9348 0.173096 20.8247C0.173096 20.7145 0.259659 20.6279 0.36983 20.6279H1.31415C1.42433 20.6279 1.51089 20.7145 1.51089 20.8247C1.51089 20.9348 1.42433 21.0214 1.31415 21.0214Z" fill="black" fill-opacity="0.16"></path>
    <path d="M19.8072 40.7736C19.76 40.7736 19.7128 40.7578 19.6734 40.7185C19.4373 40.506 19.2091 40.2857 18.9809 40.0653C18.9022 39.9866 18.9022 39.8686 18.9809 39.7899C19.0596 39.7112 19.1776 39.7112 19.2563 39.7899C19.4767 40.0102 19.7049 40.2227 19.941 40.4352C20.0197 40.506 20.0275 40.6319 19.9567 40.7106C19.9095 40.75 19.8623 40.7736 19.8072 40.7736ZM18.0759 39.0502C18.0208 39.0502 17.9736 39.0266 17.9343 38.9872C17.7218 38.759 17.5015 38.5151 17.2969 38.279C17.226 38.2003 17.2339 38.0744 17.3126 38.0035C17.3913 37.9327 17.5172 37.9406 17.588 38.0193C17.7926 38.2554 18.0051 38.4914 18.2176 38.7197C18.2884 38.7984 18.2884 38.9243 18.2097 38.9951C18.1704 39.0344 18.1231 39.0502 18.0759 39.0502ZM16.4942 37.2009C16.4391 37.2009 16.3761 37.1773 16.3368 37.1222C16.1401 36.8704 15.9512 36.6185 15.7623 36.3667C15.6994 36.2802 15.7151 36.1542 15.8017 36.0913C15.8882 36.0283 16.0142 36.0441 16.0771 36.1306C16.2581 36.3825 16.4548 36.6343 16.6437 36.8782C16.7145 36.9648 16.6988 37.0907 16.6122 37.1537C16.5729 37.1851 16.5335 37.2009 16.4942 37.2009ZM15.062 35.2178C14.999 35.2178 14.936 35.1863 14.8967 35.1312C14.7236 34.8637 14.5504 34.5961 14.3852 34.3285C14.3301 34.2341 14.3616 34.1161 14.4481 34.061C14.5426 34.0059 14.6606 34.0374 14.7157 34.1239C14.881 34.3915 15.0462 34.6591 15.2193 34.9188C15.2823 35.0132 15.2508 35.1312 15.1643 35.1942C15.1407 35.2099 15.1013 35.2178 15.062 35.2178ZM13.8186 33.1245C13.7478 33.1245 13.6769 33.0852 13.6455 33.0222C13.496 32.7468 13.3464 32.4556 13.2127 32.1723C13.1654 32.0779 13.2048 31.9599 13.2992 31.9127C13.3937 31.8654 13.5117 31.9048 13.5589 31.9992C13.6927 32.2746 13.8422 32.5579 13.9839 32.8334C14.0389 32.9278 13.9996 33.0458 13.9052 33.1009C13.8816 33.1167 13.8501 33.1245 13.8186 33.1245ZM12.7641 30.929C12.6854 30.929 12.6146 30.8818 12.5831 30.8109C12.4572 30.5198 12.3392 30.2207 12.229 29.9296C12.1896 29.8273 12.2447 29.7171 12.3392 29.6778C12.4415 29.6384 12.5516 29.6935 12.591 29.7879C12.7011 30.0791 12.8192 30.3703 12.9372 30.6614C12.9766 30.7637 12.9294 30.8739 12.8349 30.9211C12.8192 30.9211 12.7877 30.929 12.7641 30.929ZM11.9221 28.639C11.8355 28.639 11.7647 28.5839 11.7332 28.5052C11.6388 28.2062 11.5443 27.8993 11.4657 27.5924C11.4342 27.4901 11.4971 27.3799 11.6073 27.3484C11.7096 27.3169 11.8198 27.3799 11.8513 27.4901C11.9299 27.7891 12.0244 28.096 12.1188 28.3872C12.1503 28.4895 12.0952 28.5996 11.9929 28.6311C11.9614 28.6311 11.9457 28.639 11.9221 28.639ZM11.3004 26.2782C11.206 26.2782 11.1273 26.2152 11.1115 26.1208C11.0486 25.8139 10.9856 25.4991 10.9305 25.1843C10.9148 25.0742 10.9856 24.9719 11.0879 24.9561C11.1981 24.9404 11.3004 25.0112 11.3161 25.1135C11.3712 25.4204 11.4263 25.7273 11.4893 26.0342C11.5129 26.1444 11.442 26.2467 11.3397 26.2703C11.3319 26.2782 11.3161 26.2782 11.3004 26.2782ZM10.9148 23.8702C10.8125 23.8702 10.7338 23.7993 10.7181 23.697C10.6866 23.3823 10.6551 23.0675 10.6315 22.7527C10.6236 22.6425 10.7023 22.5481 10.8125 22.5402C10.9227 22.5324 11.0171 22.6111 11.025 22.7212C11.0486 23.0281 11.0722 23.3429 11.1115 23.6577C11.1273 23.7679 11.0486 23.8623 10.9384 23.878C10.9305 23.8702 10.9227 23.8702 10.9148 23.8702ZM10.7732 21.4307C10.663 21.4307 10.5764 21.3441 10.5764 21.2339C10.5764 21.1316 10.5764 21.0293 10.5764 20.927C10.5764 20.7145 10.5764 20.4942 10.5843 20.2817C10.5843 20.1716 10.6787 20.085 10.7889 20.0929C10.8991 20.0929 10.9856 20.1873 10.9778 20.2975C10.9699 20.5099 10.9699 20.7224 10.9699 20.9349C10.9699 21.0372 10.9699 21.1316 10.9699 21.2339C10.9699 21.3441 10.8833 21.4307 10.7732 21.4307ZM10.8597 18.999C10.8518 18.999 10.8518 18.999 10.844 18.999C10.7338 18.9911 10.6551 18.8967 10.663 18.7865C10.6866 18.4718 10.7259 18.1491 10.7574 17.8422C10.7732 17.732 10.8676 17.6612 10.9778 17.6691C11.0879 17.6848 11.1587 17.7793 11.1509 17.8894C11.1115 18.1963 11.0801 18.5111 11.0564 18.818C11.0486 18.9203 10.962 18.999 10.8597 18.999ZM11.1824 16.5831C11.1745 16.5831 11.1588 16.5831 11.143 16.5831C11.0328 16.5674 10.962 16.4572 10.9856 16.3549C11.0407 16.048 11.1037 15.7332 11.1745 15.4263C11.1981 15.324 11.3004 15.2532 11.4106 15.2768C11.5129 15.3004 11.5837 15.4027 11.5601 15.5129C11.4893 15.8198 11.4263 16.1267 11.3712 16.4336C11.3555 16.5123 11.2768 16.5831 11.1824 16.5831ZM11.7411 14.2066C11.7253 14.2066 11.7017 14.2066 11.686 14.1987C11.5837 14.1672 11.5207 14.0571 11.5522 13.9548C11.6388 13.6557 11.7332 13.3488 11.8355 13.0498C11.867 12.9475 11.9772 12.8924 12.0873 12.9239C12.1896 12.9553 12.2447 13.0655 12.2132 13.1757C12.1188 13.4747 12.0244 13.7738 11.9378 14.0728C11.9063 14.1515 11.8276 14.2066 11.7411 14.2066ZM12.528 11.9008C12.5044 11.9008 12.4808 11.893 12.4572 11.8851C12.3549 11.8458 12.3077 11.7277 12.347 11.6333C12.4651 11.3421 12.5831 11.0431 12.7169 10.7598C12.7641 10.6575 12.8743 10.6181 12.9766 10.6575C13.0789 10.7047 13.1182 10.8149 13.0789 10.9172C12.953 11.2005 12.8349 11.4916 12.7169 11.7828C12.6775 11.8536 12.6067 11.9008 12.528 11.9008ZM13.5274 9.68169C13.496 9.68169 13.4645 9.67382 13.4409 9.65808C13.3464 9.61086 13.3071 9.49282 13.3543 9.39052C13.496 9.10722 13.6455 8.82392 13.8029 8.5485C13.8579 8.45406 13.976 8.42259 14.0704 8.4698C14.1649 8.52489 14.1963 8.64293 14.1491 8.73736C13.9996 9.01279 13.8501 9.28822 13.7084 9.56364C13.6691 9.64234 13.5983 9.68169 13.5274 9.68169ZM14.7314 7.56482C14.6921 7.56482 14.6606 7.55696 14.6291 7.53335C14.5347 7.47826 14.5111 7.35235 14.5662 7.26579C14.7314 6.99823 14.9124 6.73067 15.0856 6.47098C15.1485 6.38442 15.2666 6.36081 15.361 6.4159C15.4476 6.47885 15.4712 6.59689 15.4161 6.69132C15.243 6.95101 15.0698 7.2107 14.9046 7.47826C14.8652 7.52548 14.8023 7.56482 14.7314 7.56482ZM16.1243 5.55814C16.085 5.55814 16.0378 5.5424 16.0063 5.51879C15.9197 5.45583 15.904 5.32992 15.9669 5.24336C16.1558 4.99154 16.3525 4.73972 16.5571 4.49577C16.628 4.40921 16.746 4.40134 16.8326 4.46429C16.9191 4.53512 16.927 4.65316 16.864 4.73972C16.6673 4.98367 16.4706 5.22762 16.2817 5.47944C16.2424 5.53453 16.1873 5.55814 16.1243 5.55814ZM17.6825 3.68523C17.6352 3.68523 17.588 3.66949 17.5487 3.63801C17.47 3.56719 17.4621 3.44128 17.5329 3.36258C17.7454 3.1265 17.9658 2.89829 18.1782 2.67008C18.2569 2.59138 18.375 2.59138 18.4537 2.66221C18.5324 2.7409 18.5324 2.85894 18.4615 2.93764C18.2491 3.16585 18.0287 3.39406 17.8241 3.62227C17.7926 3.66162 17.7375 3.68523 17.6825 3.68523ZM19.3901 1.93823C19.335 1.93823 19.2878 1.91462 19.2485 1.87527C19.1776 1.79658 19.1776 1.67067 19.2563 1.59984C19.4845 1.38737 19.7206 1.16703 19.9567 0.954555C20.0354 0.88373 20.1613 0.8916 20.2321 0.970293C20.303 1.04899 20.2951 1.1749 20.2164 1.24572C19.9803 1.45033 19.7521 1.6628 19.5239 1.87527C19.4845 1.92249 19.4373 1.93823 19.3901 1.93823Z" fill="black" fill-opacity="0.16"></path>
    <path d="M31.3516 34.3062L3.41537 28.6009C2.2271 28.3569 1.4559 27.1923 1.69985 26.004L4.83186 10.6666C5.07581 9.47832 6.24048 8.70712 7.42875 8.95107L35.365 14.6564C36.5533 14.9003 37.3245 16.065 37.0805 17.2533L33.9485 32.5907C33.7124 33.7711 32.5399 34.5501 31.3516 34.3062Z" fill="#086981"></path>
    <path fill-rule="evenodd" clip-rule="evenodd" d="M11.1117 26.5156L4.98142 25.2643C4.63516 25.1935 4.41482 24.8551 4.48565 24.5089C4.55647 24.1626 4.89485 23.9423 5.24111 24.0131L11.3713 25.2643C11.7176 25.3352 11.9379 25.6735 11.8671 26.0198C11.7963 26.366 11.4579 26.5864 11.1117 26.5156Z" fill="#29CFD4"></path>
    <path fill-rule="evenodd" clip-rule="evenodd" d="M27.3854 27.2709L5.36691 22.7775C5.02066 22.7067 4.80032 22.3683 4.87114 22.0221C4.94197 21.6758 5.28035 21.4555 5.6266 21.5263L27.6451 26.0197C27.9913 26.0905 28.2117 26.4289 28.1409 26.7752C28.07 27.1214 27.7317 27.3418 27.3854 27.2709Z" fill="#29CFD4"></path>
    <path fill-rule="evenodd" clip-rule="evenodd" d="M11.2376 14.3416C11.3635 13.712 11.7806 13.4681 12.4731 13.5861C12.536 13.6019 12.599 13.6176 12.662 13.6412L12.536 14.2472C12.0954 14.1763 12.0245 14.3416 11.9458 14.7115L11.7412 15.6951L10.9937 15.5456L11.2376 14.3416Z" fill="white"></path>
    <path fill-rule="evenodd" clip-rule="evenodd" d="M13.4645 12.8228C13.5589 12.8464 13.6455 12.9014 13.7006 12.988C13.7557 13.0746 13.7714 13.1769 13.7557 13.2792C13.7478 13.3264 13.7242 13.3736 13.7006 13.4208C13.6849 13.4444 13.6691 13.468 13.6455 13.4838C13.6298 13.4995 13.614 13.5153 13.5904 13.531C13.5511 13.5625 13.5039 13.5782 13.4566 13.5861C13.4094 13.594 13.3622 13.594 13.3071 13.5861" fill="white"></path>
    <path fill-rule="evenodd" clip-rule="evenodd" d="M14.1022 13.2792L14.8813 13.2949L14.2832 16.2223L13.5356 16.0649L14.1022 13.2792Z" fill="white"></path>
    <path fill-rule="evenodd" clip-rule="evenodd" d="M15.1802 13.4995L14.6057 16.2853L15.3533 16.4427L15.9592 13.5153L15.1802 13.4995Z" fill="white"></path>
    <path fill-rule="evenodd" clip-rule="evenodd" d="M13.3072 13.5782C13.2128 13.5546 13.1262 13.4995 13.0711 13.4129C13.016 13.3264 13.0003 13.2241 13.016 13.1218C13.0239 13.0745 13.0475 13.0273 13.0711 12.9801C13.0869 12.9565 13.1026 12.9329 13.1262 12.9172C13.1419 12.9014 13.1577 12.8857 13.1813 12.8699C13.2206 12.8385 13.2679 12.8227 13.3151 12.8149C13.3623 12.807 13.4095 12.807 13.4646 12.8149" fill="black" fill-opacity="0.16"></path>
    <path fill-rule="evenodd" clip-rule="evenodd" d="M7.89322 13.0037C7.79879 12.9801 7.58631 12.9172 7.62566 12.7204C7.67288 12.4765 7.98765 12.5394 8.10569 12.5631C8.3103 12.6024 8.56999 12.7204 8.75098 12.8227C8.75098 12.8227 8.84541 12.8778 8.93198 12.9408V12.9487H8.94771L8.93985 12.9408H8.93198L9.06576 12.2798C8.85328 12.1538 8.60933 12.0201 8.12143 11.9178C7.27941 11.7446 6.87807 12.1853 6.79151 12.6103C6.74429 12.8542 6.72855 13.4602 7.68075 13.7199C7.72009 13.7277 7.79879 13.7513 7.86174 13.7985C7.91683 13.8379 7.95617 13.9087 7.93257 14.0031C7.90109 14.1763 7.70435 14.2392 7.39745 14.1763C7.11415 14.1133 6.83872 14.0031 6.59477 13.8379L6.45312 14.5225C6.72855 14.6563 7.04333 14.7665 7.42893 14.8452C8.25521 15.0104 8.7195 14.617 8.81394 14.1448C8.91624 13.6175 8.57786 13.1926 7.89322 13.0037Z" fill="white"></path>
    <path fill-rule="evenodd" clip-rule="evenodd" d="M10.4587 13.2241C10.4351 13.2635 10.2226 13.5546 9.85278 13.8458L10.1597 12.327L9.37275 12.3428L8.80615 15.1049L9.55374 15.2544L9.72687 14.3967C9.88426 14.7823 9.89999 15.3253 9.89999 15.3253L10.8364 15.5141C10.8207 15.1049 10.5532 14.3101 10.5532 14.3101C10.8522 14.0504 11.104 13.7435 11.3007 13.3973L10.4587 13.2241Z" fill="white"></path>
    <path d="M12.9065 13.6875L12.4656 15.8464L13.2135 15.9992L13.6544 13.8403L12.9065 13.6875Z" fill="white"></path>
    <path opacity="0.1" d="M35.6562 14.7114C36.6871 14.9239 37.356 15.939 37.1435 16.9621L33.8935 32.8739C33.681 33.9048 32.6658 34.5737 31.6428 34.3612L3.13209 28.5379C2.1012 28.3333 1.43231 27.3182 1.63691 26.2873" fill="black" fill-opacity="0.16"></path>
    <path d="M20.2872 40.75C20.2321 40.75 20.1849 40.7263 20.1455 40.687C20.0747 40.6083 20.0747 40.4824 20.1534 40.4116C20.3816 40.1991 20.6098 39.9866 20.838 39.7663C20.9167 39.6876 21.0426 39.6955 21.1134 39.7663C21.1921 39.845 21.1843 39.9709 21.1134 40.0417C20.8852 40.2621 20.657 40.4824 20.4209 40.6949C20.3816 40.7342 20.3344 40.75 20.2872 40.75ZM22.0184 39.0266C21.9712 39.0266 21.924 39.0108 21.8846 38.9715C21.806 38.9007 21.7981 38.7747 21.8768 38.696C22.0893 38.4678 22.3017 38.2318 22.5063 37.9957C22.5772 37.917 22.7031 37.9012 22.7818 37.9799C22.8604 38.0508 22.8762 38.1767 22.7975 38.2554C22.5929 38.4914 22.3804 38.7275 22.1601 38.9636C22.1207 39.003 22.0735 39.0266 22.0184 39.0266ZM23.6002 37.1694C23.5608 37.1694 23.5136 37.1537 23.4821 37.13C23.3956 37.0592 23.3798 36.9412 23.4507 36.8546C23.6395 36.6107 23.8363 36.3588 24.0172 36.107C24.0802 36.0205 24.2061 35.9969 24.2927 36.0677C24.3792 36.1306 24.4028 36.2565 24.332 36.3431C24.1432 36.5949 23.9543 36.8546 23.7576 37.0986C23.7182 37.1458 23.6553 37.1694 23.6002 37.1694ZM25.0245 35.1942C24.9852 35.1942 24.9537 35.1863 24.9144 35.1627C24.8199 35.0997 24.7963 34.9817 24.8593 34.8873C25.0324 34.6276 25.1976 34.36 25.3629 34.0925C25.418 33.998 25.5439 33.9666 25.6305 34.0295C25.7249 34.0846 25.7564 34.2105 25.6934 34.2971C25.5282 34.5646 25.3629 34.8401 25.1898 35.0997C25.1504 35.1627 25.0875 35.1942 25.0245 35.1942ZM26.2679 33.0931C26.2364 33.0931 26.2049 33.0852 26.1735 33.0694C26.079 33.0144 26.0397 32.8963 26.0948 32.8019C26.2443 32.5265 26.3859 32.2432 26.5197 31.9677C26.5669 31.8733 26.685 31.8261 26.7794 31.8812C26.8738 31.9284 26.921 32.0464 26.866 32.1409C26.7243 32.4242 26.5827 32.7075 26.4331 32.9908C26.4017 33.0537 26.3387 33.0931 26.2679 33.0931ZM27.3145 30.8896C27.2909 30.8896 27.2594 30.8818 27.2358 30.8739C27.1335 30.8345 27.0863 30.7165 27.1335 30.6142C27.2516 30.323 27.3696 30.0319 27.4798 29.7407C27.5191 29.6384 27.6293 29.5912 27.7316 29.6227C27.8339 29.662 27.8811 29.7722 27.8496 29.8745C27.7395 30.1657 27.6214 30.4647 27.4955 30.7559C27.464 30.8503 27.3932 30.8896 27.3145 30.8896ZM28.1565 28.5996C28.1408 28.5996 28.1172 28.5996 28.1014 28.5918C27.9991 28.5603 27.9362 28.4501 27.9755 28.3478C28.07 28.0488 28.1565 27.7498 28.2352 27.4507C28.2667 27.3484 28.369 27.2855 28.4792 27.3091C28.5815 27.3405 28.6444 27.4429 28.6208 27.553C28.5343 27.8599 28.4477 28.1668 28.3533 28.4659C28.3218 28.5524 28.2431 28.5996 28.1565 28.5996ZM28.7703 26.2388C28.7546 26.2388 28.7467 26.2388 28.731 26.231C28.6208 26.2074 28.5579 26.1051 28.5815 25.9949C28.6444 25.688 28.7074 25.3811 28.7546 25.0742C28.7703 24.964 28.8726 24.8932 28.9828 24.9168C29.093 24.9325 29.1638 25.0348 29.1402 25.145C29.0851 25.4598 29.03 25.7745 28.9592 26.0814C28.9435 26.1759 28.8648 26.2388 28.7703 26.2388ZM29.1559 23.8308C29.1481 23.8308 29.1402 23.8308 29.1323 23.8308C29.0222 23.8229 28.9435 23.7206 28.9592 23.6105C28.9907 23.3036 29.0222 22.9888 29.0458 22.674C29.0536 22.5638 29.1481 22.4851 29.2582 22.493C29.3684 22.5009 29.4471 22.5953 29.4392 22.7055C29.4156 23.0203 29.392 23.3429 29.3527 23.6498C29.3369 23.76 29.2582 23.8308 29.1559 23.8308ZM29.2976 21.3992C29.1874 21.3992 29.1009 21.3126 29.1009 21.2024C29.1009 21.1159 29.1009 21.0293 29.1009 20.9428C29.1009 20.7224 29.1009 20.4942 29.093 20.266C29.093 20.1558 29.1796 20.0693 29.2819 20.0614C29.392 20.0614 29.4786 20.1479 29.4865 20.2502C29.4943 20.4785 29.4943 20.7067 29.4943 20.9349C29.4943 21.0214 29.4943 21.1159 29.4943 21.2024C29.4943 21.3126 29.4078 21.3992 29.2976 21.3992ZM29.2032 18.9597C29.1009 18.9597 29.0143 18.881 29.0064 18.7787C28.9828 18.4718 28.9435 18.157 28.9041 17.8501C28.8884 17.7399 28.9671 17.6455 29.0772 17.6297C29.1874 17.614 29.2819 17.6927 29.2976 17.8029C29.3369 18.1176 29.3684 18.4324 29.3999 18.7472C29.4078 18.8574 29.3291 18.9518 29.2189 18.9597C29.2189 18.9597 29.211 18.9597 29.2032 18.9597ZM28.8726 16.5438C28.7782 16.5438 28.6995 16.4808 28.6759 16.3864C28.6208 16.0795 28.5579 15.7726 28.487 15.4657C28.4634 15.3634 28.5264 15.2532 28.6366 15.2296C28.7389 15.206 28.849 15.2689 28.8726 15.3791C28.9435 15.686 29.0064 16.0008 29.0694 16.3077C29.093 16.4179 29.0222 16.5202 28.912 16.5359C28.8963 16.5438 28.8884 16.5438 28.8726 16.5438ZM28.3061 14.1751C28.2195 14.1751 28.1408 14.12 28.1172 14.0334C28.0306 13.7344 27.9362 13.4354 27.8339 13.1442C27.8024 13.0419 27.8575 12.9317 27.9598 12.8924C28.0621 12.8609 28.1723 12.916 28.2116 13.0183C28.3139 13.3173 28.4084 13.6242 28.4949 13.9233C28.5264 14.0256 28.4634 14.1357 28.3611 14.1672C28.3454 14.1751 28.3218 14.1751 28.3061 14.1751ZM27.5112 11.8772C27.4326 11.8772 27.3617 11.83 27.3302 11.7513C27.2122 11.4602 27.0942 11.1769 26.9683 10.8857C26.921 10.7834 26.9683 10.6732 27.0706 10.626C27.1729 10.5788 27.283 10.626 27.3302 10.7283C27.4562 11.0195 27.5821 11.3106 27.7001 11.6018C27.7395 11.7041 27.6922 11.8143 27.5899 11.8615C27.5585 11.8694 27.5349 11.8772 27.5112 11.8772ZM26.4961 9.65808C26.4253 9.65808 26.3544 9.61873 26.323 9.5479C26.1813 9.27248 26.0318 8.99705 25.8823 8.72162C25.8272 8.62719 25.8665 8.50915 25.961 8.45406C26.0554 8.39898 26.1735 8.43832 26.2285 8.53276C26.3859 8.80818 26.5354 9.09148 26.6771 9.36691C26.7243 9.46134 26.6928 9.57938 26.5905 9.63447C26.5591 9.65021 26.5276 9.65808 26.4961 9.65808ZM25.2763 7.54122C25.2134 7.54122 25.1504 7.50974 25.1111 7.44678C24.9458 7.18709 24.7727 6.91954 24.5917 6.66772C24.5288 6.58115 24.5524 6.45524 24.6389 6.39229C24.7255 6.32933 24.8514 6.35294 24.9144 6.4395C25.0953 6.69919 25.2685 6.96675 25.4416 7.23431C25.4967 7.32874 25.4731 7.44678 25.3786 7.50974C25.355 7.53335 25.3157 7.54122 25.2763 7.54122ZM23.8835 5.5424C23.8205 5.5424 23.7654 5.51879 23.7261 5.4637C23.5372 5.21975 23.3405 4.96793 23.1437 4.73185C23.0729 4.64529 23.0887 4.52725 23.1752 4.45642C23.2618 4.3856 23.3798 4.40134 23.4507 4.4879C23.6474 4.73185 23.852 4.98367 24.0409 5.23549C24.1038 5.32205 24.0881 5.44796 24.0015 5.51092C23.97 5.53453 23.9228 5.5424 23.8835 5.5424ZM22.3175 3.66949C22.2624 3.66949 22.2073 3.64588 22.1679 3.60653C21.9633 3.37832 21.743 3.14224 21.5305 2.9219C21.4518 2.8432 21.4597 2.71729 21.5384 2.64647C21.6171 2.56778 21.743 2.57564 21.8138 2.65434C22.0342 2.88255 22.2545 3.11863 22.4591 3.34684C22.5299 3.42554 22.5221 3.55145 22.4434 3.62227C22.4119 3.65375 22.3647 3.66949 22.3175 3.66949ZM20.6098 1.93036C20.5626 1.93036 20.5154 1.91462 20.476 1.87527C20.2478 1.6628 20.0196 1.45032 19.7835 1.24572C19.7048 1.1749 19.697 1.04899 19.7678 0.970293C19.8386 0.8916 19.9645 0.88373 20.0432 0.954555C20.2793 1.16703 20.5154 1.3795 20.7436 1.59197C20.8223 1.6628 20.8302 1.78871 20.7515 1.8674C20.72 1.90675 20.6649 1.93036 20.6098 1.93036Z" fill="black" fill-opacity="0.16"></path>
    <path d="M20.0825 40.7342C19.9723 40.7342 19.8857 40.6477 19.8857 40.5375V40.1362C19.8857 40.026 19.9723 39.9394 20.0825 39.9394C20.1927 39.9394 20.2792 40.026 20.2792 40.1362V40.5375C20.2792 40.6477 20.1927 40.7342 20.0825 40.7342ZM20.0825 38.8377C19.9723 38.8377 19.8857 38.7511 19.8857 38.641V37.6966C19.8857 37.5865 19.9723 37.4999 20.0825 37.4999C20.1927 37.4999 20.2792 37.5865 20.2792 37.6966V38.641C20.2792 38.7511 20.1927 38.8377 20.0825 38.8377ZM20.0825 36.3982C19.9723 36.3982 19.8857 36.3116 19.8857 36.2015V35.2571C19.8857 35.147 19.9723 35.0604 20.0825 35.0604C20.1927 35.0604 20.2792 35.147 20.2792 35.2571V36.2015C20.2792 36.3116 20.1927 36.3982 20.0825 36.3982ZM20.0825 33.9587C19.9723 33.9587 19.8857 33.8721 19.8857 33.762V32.8176C19.8857 32.7075 19.9723 32.6209 20.0825 32.6209C20.1927 32.6209 20.2792 32.7075 20.2792 32.8176V33.762C20.2792 33.8721 20.1927 33.9587 20.0825 33.9587ZM20.0825 31.5192C19.9723 31.5192 19.8857 31.4326 19.8857 31.3225V30.3781C19.8857 30.268 19.9723 30.1814 20.0825 30.1814C20.1927 30.1814 20.2792 30.268 20.2792 30.3781V31.3225C20.2792 31.4326 20.1927 31.5192 20.0825 31.5192ZM20.0825 29.0797C19.9723 29.0797 19.8857 28.9931 19.8857 28.883V27.9386C19.8857 27.8285 19.9723 27.7419 20.0825 27.7419C20.1927 27.7419 20.2792 27.8285 20.2792 27.9386V28.883C20.2792 28.9931 20.1927 29.0797 20.0825 29.0797ZM20.0825 26.6402C19.9723 26.6402 19.8857 26.5536 19.8857 26.4435V25.4991C19.8857 25.389 19.9723 25.3024 20.0825 25.3024C20.1927 25.3024 20.2792 25.389 20.2792 25.4991V26.4435C20.2792 26.5536 20.1927 26.6402 20.0825 26.6402ZM20.0825 24.2007C19.9723 24.2007 19.8857 24.1141 19.8857 24.0039V23.0596C19.8857 22.9495 19.9723 22.8629 20.0825 22.8629C20.1927 22.8629 20.2792 22.9495 20.2792 23.0596V24.0039C20.2792 24.1141 20.1927 24.2007 20.0825 24.2007ZM20.0825 21.7612C19.9723 21.7612 19.8857 21.6746 19.8857 21.5644V20.6201C19.8857 20.5099 19.9723 20.4234 20.0825 20.4234C20.1927 20.4234 20.2792 20.5099 20.2792 20.6201V21.5644C20.2792 21.6746 20.1927 21.7612 20.0825 21.7612ZM20.0825 19.3217C19.9723 19.3217 19.8857 19.2351 19.8857 19.1249V18.1806C19.8857 18.0704 19.9723 17.9839 20.0825 17.9839C20.1927 17.9839 20.2792 18.0704 20.2792 18.1806V19.1249C20.2792 19.2351 20.1927 19.3217 20.0825 19.3217ZM20.0825 16.8822C19.9723 16.8822 19.8857 16.7956 19.8857 16.6854V15.7411C19.8857 15.6309 19.9723 15.5444 20.0825 15.5444C20.1927 15.5444 20.2792 15.6309 20.2792 15.7411V16.6854C20.2792 16.7956 20.1927 16.8822 20.0825 16.8822ZM20.0825 14.4427C19.9723 14.4427 19.8857 14.3561 19.8857 14.2459V13.3016C19.8857 13.1914 19.9723 13.1049 20.0825 13.1049C20.1927 13.1049 20.2792 13.1914 20.2792 13.3016V14.2459C20.2792 14.3561 20.1927 14.4427 20.0825 14.4427ZM20.0825 12.0032C19.9723 12.0032 19.8857 11.9166 19.8857 11.8064V10.8621C19.8857 10.7519 19.9723 10.6654 20.0825 10.6654C20.1927 10.6654 20.2792 10.7519 20.2792 10.8621V11.8064C20.2792 11.9166 20.1927 12.0032 20.0825 12.0032ZM20.0825 9.56365C19.9723 9.56365 19.8857 9.47709 19.8857 9.36692V8.4226C19.8857 8.31242 19.9723 8.22586 20.0825 8.22586C20.1927 8.22586 20.2792 8.31242 20.2792 8.4226V9.36692C20.2792 9.47709 20.1927 9.56365 20.0825 9.56365ZM20.0825 7.12415C19.9723 7.12415 19.8857 7.03759 19.8857 6.92742V5.98309C19.8857 5.87292 19.9723 5.78636 20.0825 5.78636C20.1927 5.78636 20.2792 5.87292 20.2792 5.98309V6.92742C20.2792 7.03759 20.1927 7.12415 20.0825 7.12415ZM20.0825 4.68465C19.9723 4.68465 19.8857 4.59808 19.8857 4.48791V3.54359C19.8857 3.43342 19.9723 3.34685 20.0825 3.34685C20.1927 3.34685 20.2792 3.43342 20.2792 3.54359V4.48791C20.2792 4.59808 20.1927 4.68465 20.0825 4.68465ZM20.0825 2.24514C19.9723 2.24514 19.8857 2.15858 19.8857 2.04841V1.10408C19.8857 0.993912 19.9723 0.907349 20.0825 0.907349C20.1927 0.907349 20.2792 0.993912 20.2792 1.10408V2.04841C20.2792 2.15858 20.1927 2.24514 20.0825 2.24514Z" fill="black" fill-opacity="0.16"></path>
    <path d="M37.7179 13.4904C38.3785 13.4904 38.914 12.9549 38.914 12.2943C38.914 11.6337 38.3785 11.0981 37.7179 11.0981C37.0573 11.0981 36.5217 11.6337 36.5217 12.2943C36.5217 12.9549 37.0573 13.4904 37.7179 13.4904Z" fill="#872166"></path>
    <path d="M5.99631 34.6826C5.9491 34.6826 5.90188 34.6669 5.86253 34.6275C5.78384 34.5567 5.78384 34.4308 5.85466 34.3521C6.07501 34.1239 6.29535 33.8957 6.52356 33.6753C6.60225 33.5967 6.72816 33.6045 6.79899 33.6832C6.87768 33.7619 6.86981 33.8878 6.79112 33.9586C6.57078 34.1711 6.34256 34.3993 6.13009 34.6197C6.09861 34.6669 6.04353 34.6826 5.99631 34.6826ZM33.2715 33.7855C33.2243 33.7855 33.1771 33.7698 33.1378 33.7304C32.9096 33.518 32.6813 33.3055 32.4453 33.1009C32.3666 33.0301 32.3508 32.9042 32.4217 32.8255C32.4925 32.7468 32.6184 32.731 32.6971 32.8018C32.9332 33.0065 33.1771 33.2189 33.4053 33.4393C33.484 33.518 33.484 33.636 33.4132 33.7147C33.3738 33.7619 33.3188 33.7855 33.2715 33.7855ZM7.77479 33.0222C7.7197 33.0222 7.66462 32.9986 7.62527 32.9514C7.55445 32.8648 7.57019 32.7468 7.64888 32.6759C7.89283 32.4713 8.14465 32.2746 8.40434 32.0936C8.4909 32.0306 8.61681 32.0464 8.67977 32.133C8.74272 32.2195 8.72698 32.3454 8.64042 32.4084C8.3886 32.5894 8.14465 32.7861 7.9007 32.9828C7.86922 33.0065 7.82201 33.0222 7.77479 33.0222ZM31.3986 32.2274C31.3593 32.2274 31.3199 32.2116 31.2806 32.188C31.0288 32.007 30.7691 31.826 30.5094 31.6608C30.415 31.5978 30.3914 31.4798 30.4543 31.3854C30.5173 31.2909 30.6353 31.2673 30.7297 31.3303C30.9973 31.5034 31.257 31.6844 31.5167 31.8733C31.6032 31.9362 31.6268 32.0621 31.5639 32.1487C31.5167 32.1959 31.4616 32.2274 31.3986 32.2274ZM9.75787 31.6057C9.69492 31.6057 9.62409 31.5742 9.59261 31.5113C9.53753 31.4168 9.56114 31.2988 9.65557 31.2437C9.92313 31.0785 10.1986 30.9132 10.4819 30.7637C10.5763 30.7086 10.6943 30.7479 10.7494 30.8424C10.8045 30.9368 10.7652 31.0548 10.6707 31.1099C10.4032 31.2595 10.1277 31.4168 9.86804 31.5821C9.82869 31.5978 9.79722 31.6057 9.75787 31.6057ZM29.3369 30.9289C29.3054 30.9289 29.2739 30.9211 29.2424 30.9053C28.967 30.7558 28.6916 30.622 28.4083 30.4883C28.306 30.441 28.2666 30.323 28.3138 30.2286C28.3611 30.1341 28.4791 30.0869 28.5735 30.1341C28.8647 30.2679 29.148 30.4096 29.4313 30.5591C29.5257 30.6142 29.5651 30.7322 29.51 30.8266C29.4706 30.8896 29.4077 30.9289 29.3369 30.9289ZM11.9062 30.4568C11.8275 30.4568 11.7567 30.4174 11.7252 30.3387C11.678 30.2364 11.7252 30.1263 11.8196 30.079C12.1108 29.9453 12.402 29.8272 12.701 29.7092C12.8033 29.6698 12.9135 29.7171 12.9528 29.8194C12.9922 29.9217 12.945 30.0318 12.8427 30.0712C12.5515 30.1813 12.2682 30.3073 11.9849 30.4332C11.9613 30.4489 11.9377 30.4568 11.9062 30.4568ZM27.1098 29.9374C27.0862 29.9374 27.0626 29.9374 27.039 29.9217C26.7478 29.8115 26.4488 29.7171 26.1576 29.6226C26.0553 29.5911 25.9924 29.481 26.0317 29.3787C26.0632 29.2764 26.1734 29.2134 26.2757 29.2528C26.5826 29.3472 26.8816 29.4495 27.1807 29.5597C27.283 29.599 27.338 29.7092 27.2987 29.8115C27.2672 29.8823 27.1885 29.9374 27.1098 29.9374ZM14.1883 29.599C14.1018 29.599 14.0231 29.5439 13.9995 29.4574C13.968 29.3551 14.0231 29.2449 14.1332 29.2134C14.4323 29.119 14.7471 29.0403 15.054 28.9616C15.1563 28.938 15.2664 29.0009 15.29 29.1032C15.3136 29.2055 15.2507 29.3157 15.1484 29.3393C14.8494 29.418 14.5424 29.4967 14.2513 29.5911C14.2277 29.599 14.2119 29.599 14.1883 29.599ZM24.7726 29.2449C24.7569 29.2449 24.7411 29.2449 24.7333 29.237C24.4342 29.1662 24.1273 29.1111 23.8204 29.056C23.7103 29.0403 23.6394 28.938 23.663 28.8278C23.6788 28.7176 23.7811 28.6468 23.8913 28.6704C24.206 28.7255 24.5208 28.7885 24.8277 28.8593C24.93 28.8829 25.0008 28.9852 24.9772 29.0954C24.9458 29.1898 24.8592 29.2449 24.7726 29.2449ZM16.5649 29.0403C16.4704 29.0403 16.3839 28.9695 16.3681 28.875C16.3524 28.7649 16.4232 28.6626 16.5255 28.6468C16.8324 28.5917 17.1551 28.5445 17.4699 28.5052C17.58 28.4894 17.6745 28.5681 17.6902 28.6783C17.7059 28.7885 17.6272 28.8829 17.5171 28.8986C17.2102 28.938 16.8954 28.9852 16.5885 29.0324C16.5806 29.0403 16.5727 29.0403 16.5649 29.0403ZM22.3646 28.8593C22.3567 28.8593 22.3489 28.8593 22.341 28.8593C22.0341 28.8278 21.7193 28.8042 21.4045 28.7885C21.2944 28.7806 21.2157 28.6862 21.2157 28.5839C21.2235 28.4737 21.318 28.395 21.4203 28.395C21.7351 28.4107 22.0577 28.4422 22.3725 28.4737C22.4826 28.4816 22.5613 28.5839 22.5456 28.6862C22.5535 28.7885 22.4669 28.8593 22.3646 28.8593ZM18.9886 28.7806C18.8863 28.7806 18.7998 28.7019 18.7919 28.5917C18.784 28.4816 18.8706 28.3871 18.9808 28.3871C19.2955 28.3714 19.6182 28.3635 19.933 28.3635C20.0431 28.3635 20.1297 28.4501 20.1297 28.5603C20.1297 28.6704 20.0431 28.757 19.933 28.757C19.6182 28.757 19.3034 28.7649 18.9965 28.7806C18.9886 28.7727 18.9886 28.7806 18.9886 28.7806Z" fill="black" fill-opacity="0.16"></path>
    <path d="M20.3028 13.396C20.1926 13.396 20.106 13.3094 20.106 13.1992C20.106 13.0891 20.1926 13.0025 20.3028 13.0025C20.6176 13.0025 20.9323 12.9946 21.2392 12.9789C21.3494 12.971 21.436 13.0576 21.4438 13.1678C21.4517 13.2779 21.3651 13.3645 21.255 13.3724C20.9402 13.3881 20.6254 13.396 20.3028 13.396ZM18.8076 13.3645H18.7997C18.485 13.3488 18.1623 13.3251 17.8475 13.2937C17.7374 13.2858 17.6587 13.1835 17.6744 13.0812C17.6901 12.9789 17.7846 12.8923 17.8869 12.9081C18.1938 12.9395 18.5086 12.9632 18.8233 12.9789C18.9335 12.9868 19.0122 13.0812 19.0122 13.1835C18.9965 13.2779 18.9099 13.3645 18.8076 13.3645ZM22.7344 13.2543C22.6321 13.2543 22.5534 13.1835 22.5377 13.0812C22.5219 12.971 22.6006 12.8766 22.7108 12.8609C23.0256 12.8294 23.3325 12.7822 23.6394 12.7349C23.7496 12.7192 23.844 12.79 23.8676 12.9002C23.8833 13.0104 23.8125 13.1048 23.7023 13.1284C23.3954 13.1756 23.0728 13.215 22.758 13.2543C22.7502 13.2543 22.7423 13.2543 22.7344 13.2543ZM16.3838 13.0891C16.376 13.0891 16.3602 13.0891 16.3524 13.0891C16.0376 13.034 15.7228 12.971 15.4159 12.9081C15.3136 12.8845 15.2428 12.7822 15.2664 12.672C15.29 12.5697 15.3923 12.4989 15.5025 12.5225C15.8015 12.5854 16.1084 12.6484 16.4232 12.7035C16.5334 12.7192 16.6042 12.8215 16.5806 12.9317C16.5648 13.0261 16.4783 13.0891 16.3838 13.0891ZM25.1424 12.853C25.0559 12.853 24.9693 12.79 24.9536 12.7035C24.93 12.6012 24.9929 12.491 25.1031 12.4674C25.41 12.3966 25.709 12.3179 26.0081 12.2313C26.1104 12.1998 26.2205 12.2628 26.252 12.3651C26.2835 12.4674 26.2205 12.5776 26.1182 12.609C25.8192 12.6956 25.5044 12.7743 25.1975 12.853C25.166 12.8451 25.1503 12.853 25.1424 12.853ZM14.0152 12.5303C13.9994 12.5303 13.9758 12.5303 13.9601 12.5225C13.6532 12.428 13.3541 12.3257 13.0551 12.2156C12.9528 12.1762 12.8977 12.066 12.937 11.9637C12.9764 11.8614 13.0866 11.8064 13.1889 11.8457C13.48 11.948 13.7791 12.0503 14.0781 12.1447C14.1804 12.1762 14.2434 12.2864 14.2119 12.3887C14.1725 12.4753 14.0938 12.5303 14.0152 12.5303ZM27.4718 12.1369C27.3931 12.1369 27.3144 12.0897 27.2908 12.011C27.2514 11.9087 27.2986 11.7985 27.401 11.7591C27.6921 11.649 27.9833 11.5231 28.2587 11.3972C28.361 11.3499 28.4712 11.3972 28.5184 11.4916C28.5656 11.5939 28.5184 11.7041 28.424 11.7513C28.1328 11.8851 27.8416 12.0031 27.5426 12.1211C27.519 12.129 27.4954 12.1369 27.4718 12.1369ZM11.733 11.6568C11.7016 11.6568 11.678 11.649 11.6465 11.6411C11.3553 11.5073 11.072 11.3657 10.7887 11.2162C10.6943 11.1689 10.6549 11.043 10.71 10.9486C10.7572 10.8542 10.8831 10.8148 10.9776 10.8699C11.253 11.0116 11.5284 11.1532 11.8117 11.287C11.914 11.3342 11.9534 11.4522 11.9062 11.5467C11.8826 11.6175 11.8117 11.6568 11.733 11.6568ZM29.6673 11.0902C29.5965 11.0902 29.5335 11.0509 29.4942 10.9879C29.4391 10.8935 29.4706 10.7755 29.565 10.7204C29.8326 10.5709 30.1001 10.4056 30.3598 10.2404C30.4543 10.1853 30.5723 10.2089 30.6353 10.2954C30.6903 10.3899 30.6667 10.5079 30.5802 10.5709C30.3126 10.744 30.0372 10.9093 29.7618 11.0666C29.7382 11.0824 29.7067 11.0902 29.6673 11.0902ZM9.60044 10.4843C9.56109 10.4843 9.52961 10.4764 9.49027 10.4528C9.22271 10.2797 8.96302 10.0987 8.70333 9.90984C8.61677 9.84689 8.59316 9.72098 8.65611 9.63441C8.71907 9.54785 8.84498 9.52424 8.93154 9.5872C9.18336 9.76819 9.44305 9.94919 9.70274 10.1144C9.79717 10.1695 9.82078 10.2954 9.75783 10.3899C9.72635 10.4528 9.66339 10.4843 9.60044 10.4843ZM31.6976 9.73672C31.6425 9.73672 31.5796 9.71311 31.5402 9.65802C31.4694 9.57146 31.4852 9.44555 31.5717 9.38259C31.8157 9.19373 32.0596 8.99699 32.2878 8.78452C32.3665 8.7137 32.4924 8.72157 32.5633 8.80026C32.6341 8.87895 32.6262 9.00486 32.5475 9.07569C32.3036 9.28816 32.0596 9.49276 31.8078 9.68163C31.7842 9.72098 31.737 9.73672 31.6976 9.73672ZM7.64883 9.02847C7.60162 9.02847 7.5544 9.01273 7.52292 8.98126C7.28684 8.77665 7.04289 8.56418 6.81468 8.34384C6.73599 8.26514 6.73599 8.1471 6.80681 8.06841C6.87764 7.98972 7.00355 7.98972 7.08224 8.06054C7.31045 8.27301 7.53866 8.48549 7.77474 8.69009C7.85344 8.76091 7.86918 8.88682 7.79835 8.96552C7.75901 9.00486 7.70392 9.02847 7.64883 9.02847ZM33.5076 8.10776C33.4604 8.10776 33.4053 8.09202 33.3738 8.05267C33.2951 7.97398 33.2951 7.85594 33.3738 7.77724C33.5863 7.5569 33.7987 7.32869 34.0112 7.09261C34.082 7.01391 34.208 7.00604 34.2866 7.07687C34.3653 7.14769 34.3732 7.2736 34.3024 7.3523C34.0899 7.58838 33.8696 7.82446 33.6492 8.05267C33.6099 8.09202 33.5627 8.10776 33.5076 8.10776Z" fill="black" fill-opacity="0.16"></path>
    <path d="M6.24033 35.572C6.90094 35.572 7.43648 35.0364 7.43648 34.3758C7.43648 33.7152 6.90094 33.1797 6.24033 33.1797C5.57972 33.1797 5.04419 33.7152 5.04419 34.3758C5.04419 35.0364 5.57972 35.572 6.24033 35.572Z" fill="#872166"></path>
    <path d="M29.3214 21.533C29.7386 21.533 30.0768 21.1948 30.0768 20.7776C30.0768 20.3603 29.7386 20.0221 29.3214 20.0221C28.9041 20.0221 28.5659 20.3603 28.5659 20.7776C28.5659 21.1948 28.9041 21.533 29.3214 21.533Z" fill="#872166"></path>
    <path d="M0.755459 17.4723C1.17269 17.4723 1.51092 17.1341 1.51092 16.7169C1.51092 16.2997 1.17269 15.9614 0.755459 15.9614C0.338231 15.9614 0 16.2997 0 16.7169C0 17.1341 0.338231 17.4723 0.755459 17.4723Z" fill="#872166"></path>
    <path d="M16.3133 5.86504C16.7305 5.86504 17.0688 5.52681 17.0688 5.10959C17.0688 4.69236 16.7305 4.35413 16.3133 4.35413C15.8961 4.35413 15.5579 4.69236 15.5579 5.10959C15.5579 5.52681 15.8961 5.86504 16.3133 5.86504Z" fill="#872166"></path>
  </g>
  <defs>
    <clipPath id="clip0_82_3124">
      <rect width="40" height="40" fill="white" transform="translate(0 0.906006)"></rect>
    </clipPath>
  </defs>
</svg>
