<svg width="86" height="86" viewBox="0 0 86 86" fill="none" xmlns="http://www.w3.org/2000/svg">
<g clip-path="url(#clip0)">
<path d="M42.4834 77.5876C60.9846 77.5876 75.9827 62.5895 75.9827 44.0883C75.9827 25.5871 60.9846 10.589 42.4834 10.589C23.9823 10.589 8.98413 25.5871 8.98413 44.0883C8.98413 62.5895 23.9823 77.5876 42.4834 77.5876Z" fill="white"/>
<path d="M75.983 41.8494C75.5653 56.4688 62.1656 34.0635 53.1433 35.4001C41.1805 37.1712 53.1433 20.1959 35.9342 23.3704C23.2362 25.7095 35.2325 11.3742 35.2325 11.3742C35.2826 11.4076 51.1384 6.9967 64.087 18.2745C64.087 18.2745 76.3673 28.3828 75.983 41.8494Z" fill="#E1FAFC"/>
<path d="M36.9868 77.1364C36.9868 77.1364 32.2585 43.754 43.7869 40.9137C55.3154 38.0733 49.8018 59.9941 73.9112 55.7503C73.9112 55.7503 65.5406 80.645 36.9868 77.1364Z" fill="#E1FAFC"/>
<path d="M27.0957 73.7782C31.8407 76.3178 26.2937 69.7349 22.3507 60.2114C18.4076 50.6879 27.1458 50.1866 28.5159 40.329C29.8859 30.4713 13.3618 27.5475 13.3618 27.5475C8.01529 34.8655 3.43733 61.1136 27.0957 73.7782Z" fill="#E1FAFC"/>
<path fill-rule="evenodd" clip-rule="evenodd" d="M76.6248 11.9635C76.0164 11.8563 75.3623 11.8098 74.6655 11.8216C74.4349 11.8255 74.2447 11.6417 74.2408 11.4111C74.2369 11.1804 74.4207 10.9902 74.6513 10.9863C75.3937 10.9737 76.1017 11.023 76.7698 11.1408C76.997 11.1808 77.1487 11.3974 77.1087 11.6246C77.0686 11.8518 76.852 12.0035 76.6248 11.9635ZM73.019 11.5209C73.0532 11.749 72.896 11.9617 72.6679 11.9959C72.0297 12.0916 71.3662 12.2255 70.6794 12.3955C70.4555 12.4509 70.229 12.3143 70.1736 12.0904C70.1181 11.8665 70.2547 11.64 70.4787 11.5846C71.1878 11.409 71.8771 11.2697 72.544 11.1697C72.7721 11.1355 72.9848 11.2927 73.019 11.5209ZM78.283 11.9887C78.3837 11.7811 78.6335 11.6945 78.8411 11.7952C79.5014 12.1155 80.0969 12.535 80.6186 13.0606C80.7811 13.2243 80.7801 13.4888 80.6164 13.6513C80.4527 13.8138 80.1882 13.8128 80.0257 13.6491C79.5727 13.1927 79.0551 12.8275 78.4765 12.5468C78.2689 12.4461 78.1823 12.1962 78.283 11.9887ZM69.0021 12.4272C69.0729 12.6468 68.9524 12.8822 68.7328 12.953C68.1081 13.1545 67.4685 13.381 66.8154 13.6312C66.6 13.7137 66.3584 13.6059 66.2759 13.3905C66.1934 13.1751 66.3012 12.9335 66.5166 12.851C67.1824 12.596 67.8362 12.3644 68.4764 12.1579C68.6959 12.0871 68.9313 12.2077 69.0021 12.4272ZM65.1436 13.8541C65.2353 14.0658 65.1381 14.3117 64.9265 14.4035C64.3151 14.6685 63.6942 14.9514 63.0648 15.2513C62.8566 15.3505 62.6073 15.2621 62.5081 15.0538C62.4089 14.8456 62.4973 14.5963 62.7055 14.4971C63.3432 14.1933 63.9731 13.9062 64.5943 13.637C64.8059 13.5452 65.0519 13.6425 65.1436 13.8541ZM81.3284 14.6558C81.5338 14.5508 81.7854 14.6322 81.8904 14.8377C82.1943 15.4323 82.4417 16.097 82.6307 16.8337C82.688 17.0571 82.5534 17.2848 82.3299 17.3421C82.1065 17.3994 81.8788 17.2648 81.8215 17.0413C81.646 16.3573 81.4192 15.7514 81.1465 15.2179C81.0415 15.0124 81.123 14.7608 81.3284 14.6558ZM61.4093 15.5987C61.5147 15.8039 61.4339 16.0557 61.2287 16.1611C60.6331 16.4672 60.0313 16.7867 59.4243 17.1187C59.2219 17.2294 58.9681 17.1551 58.8574 16.9527C58.7467 16.7503 58.8211 16.4965 59.0235 16.3858C59.6364 16.0505 60.2445 15.7276 60.8469 15.4181C61.0521 15.3127 61.3039 15.3935 61.4093 15.5987ZM57.7941 17.5505C57.9094 17.7504 57.8408 18.0058 57.641 18.121C57.0564 18.4581 56.468 18.8056 55.8765 19.1628C55.679 19.282 55.4223 19.2186 55.303 19.0211C55.1838 18.8236 55.2472 18.5668 55.4447 18.4476C56.0408 18.0877 56.634 17.7374 57.2236 17.3974C57.4235 17.2821 57.6789 17.3507 57.7941 17.5505ZM82.5328 18.5436C82.7624 18.5206 82.9671 18.6881 82.99 18.9176C83.0556 19.5729 83.0867 20.2717 83.0824 21.0154C83.0811 21.2461 82.893 21.432 82.6623 21.4307C82.4316 21.4293 82.2457 21.2412 82.2471 21.0106C82.2512 20.293 82.2211 19.6238 82.1588 19.0008C82.1358 18.7712 82.3033 18.5665 82.5328 18.5436ZM54.2609 19.6635C54.3837 19.8588 54.3249 20.1167 54.1296 20.2395C53.5548 20.6008 52.9779 20.9704 52.3995 21.3474C52.2062 21.4734 51.9474 21.4188 51.8214 21.2256C51.6955 21.0323 51.75 20.7735 51.9433 20.6476C52.5254 20.2681 53.1062 19.8961 53.685 19.5322C53.8803 19.4094 54.1381 19.4682 54.2609 19.6635ZM50.8004 21.9024C50.9293 22.0938 50.8787 22.3533 50.6873 22.4822C50.1239 22.8617 49.5597 23.2476 48.9954 23.6393C48.8059 23.7709 48.5457 23.7239 48.4141 23.5343C48.2826 23.3448 48.3296 23.0846 48.5191 22.953C49.0865 22.5592 49.6539 22.1711 50.2206 21.7893C50.412 21.6605 50.6716 21.7111 50.8004 21.9024ZM82.6048 22.6484C82.8347 22.6673 83.0057 22.8691 82.9867 23.099C82.958 23.4476 82.9227 23.8045 82.8808 24.17L82.8784 24.1909L82.8739 24.2115L82.8591 24.2083C82.8739 24.2115 82.8739 24.2115 82.8739 24.2115L82.8739 24.2116L82.8738 24.2117L82.8737 24.2121L82.8735 24.2132L82.8727 24.2167L82.8699 24.2291C82.8686 24.2351 82.8669 24.2426 82.8648 24.2515C82.8632 24.2584 82.8614 24.2662 82.8594 24.2748C82.85 24.3145 82.8361 24.3721 82.8173 24.4464C82.7796 24.595 82.7223 24.8101 82.6427 25.0801C82.5775 25.3014 82.3452 25.4279 82.1239 25.3626C81.9027 25.2974 81.7762 25.0651 81.8414 24.8439C81.9178 24.5849 81.9723 24.3802 82.0075 24.2412C82.0251 24.1717 82.0379 24.1187 82.0462 24.0836C82.0491 24.0709 82.0515 24.0605 82.0534 24.0526C82.0932 23.7033 82.1267 23.3626 82.1542 23.0303C82.1731 22.8004 82.3749 22.6294 82.6048 22.6484ZM47.4141 24.2383C47.5481 24.4261 47.5045 24.687 47.3167 24.821C46.7611 25.2175 46.2059 25.619 45.6519 26.0249C45.4658 26.1612 45.2044 26.1208 45.0681 25.9347C44.9318 25.7486 44.9721 25.4872 45.1582 25.3509C45.715 24.9431 46.2729 24.5396 46.8315 24.141C47.0192 24.007 47.2801 24.0506 47.4141 24.2383ZM81.8333 26.2201C82.0491 26.3018 82.1577 26.5429 82.076 26.7586C81.8873 27.257 81.6606 27.8078 81.3915 28.3912C81.2949 28.6006 81.0467 28.6921 80.8373 28.5955C80.6278 28.4989 80.5363 28.2507 80.6329 28.0412C80.8931 27.4773 81.1123 26.9447 81.2948 26.4628C81.3765 26.247 81.6176 26.1384 81.8333 26.2201ZM44.0849 26.6639C44.2234 26.8484 44.1861 27.1102 44.0017 27.2487C43.4548 27.6593 42.9096 28.0735 42.3667 28.4907C42.1838 28.6313 41.9216 28.597 41.781 28.4141C41.6404 28.2312 41.6748 27.9689 41.8577 27.8284C42.403 27.4092 42.9507 26.9931 43.5001 26.5807C43.6846 26.4422 43.9464 26.4794 44.0849 26.6639ZM40.8148 29.1651C40.9574 29.3465 40.9259 29.6091 40.7445 29.7517C40.2054 30.1755 39.669 30.6018 39.1362 31.03C38.9563 31.1745 38.6934 31.1458 38.5489 30.966C38.4044 30.7862 38.4331 30.5232 38.6129 30.3787C39.1481 29.9487 39.6867 29.5206 40.2283 29.0949C40.4096 28.9523 40.6722 28.9838 40.8148 29.1651ZM80.4285 29.4039C80.6303 29.5157 80.7033 29.7699 80.5916 29.9717C80.3154 30.4702 80.0097 30.9789 79.6719 31.4876C79.5442 31.6797 79.285 31.7321 79.0928 31.6045C78.9006 31.4768 78.8483 31.2176 78.9759 31.0254C79.3003 30.5369 79.5946 30.0476 79.8608 29.5669C79.9725 29.3651 80.2267 29.2921 80.4285 29.4039ZM37.6006 31.7362C37.747 31.9145 37.7211 32.1777 37.5428 32.324C37.0113 32.7604 36.4839 33.1979 35.9613 33.6362C35.7845 33.7844 35.5211 33.7612 35.3728 33.5845C35.2246 33.4077 35.2478 33.1442 35.4245 32.996C35.9494 32.5559 36.479 32.1165 37.0127 31.6783C37.1911 31.532 37.4543 31.5579 37.6006 31.7362ZM78.5597 32.3365C78.7397 32.4809 78.7686 32.7437 78.6243 32.9237C78.4403 33.1532 78.249 33.3808 78.0502 33.6053C77.8973 33.778 77.6333 33.7941 77.4606 33.6412C77.2879 33.4883 77.2718 33.2243 77.4247 33.0516C77.6142 32.8376 77.7967 32.6205 77.9725 32.4011C78.1168 32.2212 78.3797 32.1922 78.5597 32.3365ZM34.438 34.3767C34.5881 34.5519 34.5677 34.8156 34.3925 34.9656C34.1329 35.1879 33.8748 35.4102 33.6181 35.6324C33.3465 35.8677 33.0771 36.1001 32.8101 36.3297C32.6351 36.48 32.3714 36.4601 32.221 36.2852C32.0706 36.1103 32.0905 35.8465 32.2655 35.6962C32.5318 35.4672 32.8003 35.2355 33.0711 35.001L33.0712 35.0009C33.3291 34.7777 33.5884 34.5544 33.849 34.3312C34.0243 34.1811 34.2879 34.2015 34.438 34.3767ZM31.2487 37.1148C31.3978 37.2908 31.376 37.5544 31.2 37.7035C30.6511 38.1686 30.1121 38.6218 29.5827 39.0643C29.4057 39.2123 29.1423 39.1888 28.9944 39.0118C28.8464 38.8348 28.8699 38.5713 29.0469 38.4234C29.575 37.982 30.1126 37.5299 30.66 37.0661C30.836 36.917 31.0996 36.9388 31.2487 37.1148ZM28.0074 39.8317C28.1544 40.0095 28.1293 40.2728 27.9515 40.4197C27.3948 40.8796 26.8493 41.3279 26.3146 41.7656C26.1361 41.9117 25.873 41.8855 25.7268 41.707C25.5807 41.5285 25.6069 41.2653 25.7854 41.1192C26.3193 40.6821 26.8639 40.2347 27.4194 39.7757C27.5972 39.6288 27.8605 39.6538 28.0074 39.8317ZM24.7385 42.5133C24.8841 42.6922 24.8572 42.9553 24.6783 43.101C24.2904 43.4167 23.9084 43.7273 23.5322 44.0331C23.3651 44.169 23.1992 44.3038 23.0345 44.4378C22.8555 44.5834 22.5924 44.5563 22.4469 44.3773C22.3013 44.1983 22.3284 43.9352 22.5074 43.7897C22.6727 43.6553 22.8391 43.52 23.0066 43.3838C23.3823 43.0784 23.7636 42.7684 24.1509 42.4531C24.3298 42.3075 24.5929 42.3344 24.7385 42.5133ZM21.4565 45.1839C21.6025 45.3626 21.5761 45.6257 21.3974 45.7717C20.8394 46.2278 20.2951 46.6748 19.7638 47.1147C19.5861 47.2618 19.3228 47.237 19.1756 47.0593C19.0285 46.8817 19.0533 46.6183 19.231 46.4712C19.764 46.0299 20.3098 45.5818 20.8688 45.1249C21.0474 44.9789 21.3105 45.0053 21.4565 45.1839ZM18.1959 47.8785C18.345 48.0546 18.3232 48.3181 18.1471 48.4672C17.5998 48.9306 17.0672 49.3883 16.5484 49.8428C16.3748 49.9949 16.111 49.9774 15.9589 49.8039C15.8069 49.6304 15.8243 49.3665 15.9979 49.2145C16.5208 48.7564 17.057 48.2956 17.6073 47.8297C17.7833 47.6806 18.0469 47.7025 18.1959 47.8785ZM15.0049 50.658C15.1609 50.8279 15.1497 51.0921 14.9798 51.2482C14.4563 51.7289 13.9475 52.2091 13.4525 52.6923C13.2874 52.8534 13.0229 52.8502 12.8618 52.6851C12.7007 52.52 12.7039 52.2555 12.869 52.0944C13.3708 51.6047 13.8857 51.1186 14.4147 50.6328C14.5847 50.4768 14.8489 50.4881 15.0049 50.658ZM11.9623 53.5946C12.1295 53.7535 12.1362 54.0179 11.9772 54.1851C11.4934 54.6938 11.0231 55.2092 10.5651 55.7347C10.4135 55.9086 10.1497 55.9267 9.97577 55.7752C9.80186 55.6236 9.78374 55.3598 9.9353 55.1859C10.4017 54.6507 10.8802 54.1264 11.3718 53.6094C11.5308 53.4422 11.7952 53.4356 11.9623 53.5946ZM9.15766 56.7596C9.33862 56.9027 9.36933 57.1654 9.22625 57.3464C8.79664 57.8897 8.37784 58.4467 7.96878 59.0208C7.83491 59.2087 7.57409 59.2524 7.38622 59.1186C7.19835 58.9847 7.15457 58.7239 7.28843 58.536C7.7057 57.9504 8.13286 57.3823 8.57094 56.8282C8.71402 56.6473 8.9767 56.6166 9.15766 56.7596ZM6.67051 60.1781C6.86479 60.3025 6.92145 60.5608 6.79706 60.7551C6.42749 61.3323 6.06559 61.928 5.71048 62.5451C5.59542 62.7451 5.34006 62.8139 5.14011 62.6988C4.94017 62.5838 4.87135 62.3284 4.98641 62.1285C5.348 61.5001 5.71673 60.8932 6.09351 60.3047C6.2179 60.1104 6.47623 60.0537 6.67051 60.1781ZM4.52621 63.8232C4.73098 63.9294 4.81087 64.1815 4.70465 64.3863C4.54513 64.6938 4.38689 65.0066 4.22984 65.325C4.06798 65.6533 3.93228 65.9674 3.82096 66.2678C3.74079 66.4841 3.50045 66.5944 3.28414 66.5143C3.06783 66.4341 2.95746 66.1938 3.03763 65.9774C3.15984 65.6477 3.30721 65.3072 3.48055 64.9556L3.4806 64.9555C3.64012 64.6321 3.80092 64.3143 3.96309 64.0016C4.06932 63.7969 4.32143 63.717 4.52621 63.8232ZM3.00604 67.7798C3.23669 67.784 3.42031 67.9743 3.41616 68.205C3.40349 68.9089 3.56715 69.5091 3.8692 70.0272C3.98538 70.2265 3.91799 70.4823 3.7187 70.5985C3.5194 70.7146 3.26366 70.6473 3.14748 70.448C2.76517 69.7921 2.56559 69.0401 2.5809 68.1899C2.58505 67.9593 2.77539 67.7757 3.00604 67.7798ZM4.63861 71.514C4.7668 71.3222 5.0262 71.2707 5.21799 71.3989C5.73206 71.7425 6.34421 72.0365 7.03727 72.2852C7.25441 72.3631 7.36728 72.6022 7.28938 72.8194C7.21148 73.0365 6.97231 73.1494 6.75517 73.0715C6.01455 72.8058 5.3376 72.4836 4.75375 72.0934C4.56197 71.9652 4.51041 71.7058 4.63861 71.514ZM8.53927 73.1601C8.58664 72.9343 8.80807 72.7897 9.03384 72.8371C9.69168 72.9751 10.3853 73.0851 11.1027 73.171C11.3318 73.1984 11.4952 73.4063 11.4678 73.6354C11.4404 73.8644 11.2325 74.0279 11.0034 74.0005C10.2659 73.9122 9.54781 73.7985 8.8623 73.6546C8.63653 73.6073 8.4919 73.3859 8.53927 73.1601ZM23.1676 73.4543C23.1896 73.6839 23.0213 73.888 22.7917 73.91C22.4519 73.9426 22.0972 73.9746 21.7299 74.0052C21.5 74.0243 21.2981 73.8535 21.279 73.6236C21.2598 73.3937 21.4307 73.1918 21.6606 73.1727C22.0242 73.1424 22.3754 73.1107 22.7119 73.0784C22.9415 73.0564 23.1456 73.2247 23.1676 73.4543ZM19.9833 73.7144C19.9963 73.9448 19.82 74.142 19.5897 74.1549C18.8967 74.1939 18.1792 74.2246 17.4484 74.2432C17.2178 74.2491 17.0261 74.0669 17.0202 73.8363C17.0143 73.6057 17.1965 73.4139 17.4272 73.4081C18.1485 73.3897 18.8575 73.3594 19.5428 73.3209C19.7732 73.3079 19.9704 73.4841 19.9833 73.7144ZM12.7591 73.7464C12.7724 73.5161 12.9699 73.3401 13.2002 73.3534C13.898 73.3937 14.6049 73.4162 15.311 73.4243C15.5417 73.4269 15.7266 73.616 15.7239 73.8467C15.7213 74.0774 15.5322 74.2622 15.3015 74.2596C14.5841 74.2514 13.8642 74.2286 13.152 74.1875C12.9217 74.1742 12.7458 73.9767 12.7591 73.7464Z" fill="#33BFC5"/>
<path fill-rule="evenodd" clip-rule="evenodd" d="M76.9237 34.1794C77.0811 34.3481 77.0719 34.6124 76.9033 34.7698C76.6454 35.0104 76.3868 35.2346 76.1274 35.4422C75.9472 35.5863 75.6844 35.5571 75.5403 35.377C75.3962 35.1968 75.4254 34.934 75.6055 34.7899C75.8473 34.5964 76.0899 34.3862 76.3333 34.1591C76.5019 34.0017 76.7663 34.0108 76.9237 34.1794Z" fill="#5DD2D8"/>
<path fill-rule="evenodd" clip-rule="evenodd" d="M33.1305 2.23821C32.4418 2.04542 31.7674 1.9777 31.1998 2.12954C30.977 2.18916 30.748 2.05684 30.6884 1.83399C30.6288 1.61114 30.7611 1.38215 30.9839 1.32253C31.7572 1.11564 32.5993 1.22201 33.3557 1.43374C33.5779 1.49592 33.7075 1.72642 33.6453 1.94857C33.5832 2.17072 33.3527 2.3004 33.1305 2.23821ZM34.8825 2.47565C34.9924 2.2728 35.2459 2.19742 35.4487 2.30728C35.741 2.46556 35.9818 2.61057 36.1503 2.71647C36.2346 2.76947 36.3009 2.81279 36.3468 2.84323C36.3697 2.85846 36.3875 2.87048 36.3998 2.87888C36.406 2.88309 36.4108 2.88639 36.4142 2.88874L36.4251 2.89593C36.4349 2.90236 36.449 2.91173 36.4674 2.92405C36.5041 2.9487 36.5578 2.98514 36.6274 3.03341C36.7666 3.12995 36.9694 3.27384 37.2272 3.46538C37.4123 3.60299 37.4509 3.86463 37.3133 4.04979C37.1757 4.23494 36.914 4.27349 36.7289 4.13588C36.4788 3.95002 36.2834 3.81145 36.1514 3.71989C36.0853 3.6741 36.0352 3.64008 36.0019 3.61777C35.9853 3.60662 35.9729 3.59839 35.9649 3.5931L35.9561 3.58734L35.954 3.58597M35.943 3.57854L35.9405 3.57682L35.9298 3.56947C35.9199 3.56276 35.9047 3.55249 35.8845 3.53905C35.844 3.51218 35.7836 3.47269 35.7057 3.42371C35.5497 3.32568 35.3246 3.19011 35.0509 3.04186C34.848 2.932 34.7727 2.6785 34.8825 2.47565M29.6888 2.7366C29.8978 2.83412 29.9883 3.08265 29.8907 3.29171C29.6744 3.75562 29.5197 4.38998 29.473 5.24677C29.4604 5.47711 29.2635 5.65367 29.0332 5.64112C28.8028 5.62857 28.6263 5.43166 28.6388 5.20132C28.6895 4.27182 28.8598 3.52576 29.1337 2.93859C29.2312 2.72952 29.4797 2.63909 29.6888 2.7366ZM38.1769 4.73401C38.3246 4.55685 38.588 4.53299 38.7652 4.68074C39.2161 5.05681 39.7187 5.49246 40.2607 5.98812C40.431 6.14379 40.4428 6.40799 40.2871 6.57824C40.1315 6.74849 39.8673 6.76031 39.697 6.60464C39.1648 6.11796 38.6718 5.69066 38.2302 5.32232C38.053 5.17458 38.0291 4.91118 38.1769 4.73401ZM29.0877 6.99213C29.3171 6.96799 29.5227 7.13441 29.5468 7.36383C29.6133 7.99603 29.7189 8.69687 29.869 9.47273C29.9129 9.69922 29.7648 9.91835 29.5383 9.96217C29.3118 10.006 29.0927 9.85792 29.0489 9.63143C28.8949 8.83552 28.7854 8.11068 28.716 7.45124C28.6919 7.22181 28.8583 7.01626 29.0877 6.99213ZM41.0881 7.342C41.2506 7.17831 41.5151 7.17738 41.6788 7.33993C42.1208 7.77885 42.579 8.25063 43.0485 8.75545C43.2056 8.92436 43.1961 9.18866 43.0272 9.34578C42.8582 9.50289 42.5939 9.49333 42.4368 9.32441C41.9751 8.82797 41.5246 8.36413 41.0901 7.93271C40.9264 7.77016 40.9255 7.50569 41.0881 7.342ZM43.7747 10.1816C43.9496 10.0312 44.2133 10.051 44.3637 10.2259C44.7785 10.7082 45.1984 11.2146 45.6203 11.7453C45.7639 11.9259 45.7339 12.1886 45.5534 12.3322C45.3728 12.4758 45.11 12.4458 44.9665 12.2652C44.5514 11.7432 44.1384 11.245 43.7304 10.7706C43.5799 10.5957 43.5998 10.332 43.7747 10.1816ZM29.776 10.9545C29.9997 10.8982 30.2267 11.0338 30.2831 11.2575C30.3692 11.5996 30.4623 11.9529 30.5627 12.3179C30.6239 12.5403 30.4931 12.7702 30.2707 12.8314C30.0483 12.8926 29.8184 12.7618 29.7572 12.5394C29.6553 12.1689 29.5607 11.8097 29.473 11.4616C29.4166 11.2379 29.5523 11.0109 29.776 10.9545ZM46.2327 13.2211C46.4187 13.0846 46.6801 13.1247 46.8166 13.3107C47.1961 13.8275 47.575 14.364 47.9512 14.9202C48.0804 15.1113 48.0303 15.3709 47.8392 15.5002C47.6481 15.6294 47.3885 15.5793 47.2592 15.3882C46.8892 14.8412 46.5165 14.3135 46.1432 13.805C46.0067 13.6191 46.0467 13.3577 46.2327 13.2211ZM48.4475 16.4381C48.6435 16.3164 48.901 16.3765 49.0228 16.5725C49.3631 17.1202 49.6993 17.6848 50.0299 18.2662C50.1439 18.4667 50.0737 18.7217 49.8731 18.8357C49.6726 18.9497 49.4176 18.8796 49.3036 18.679C48.9786 18.1073 48.6479 17.5521 48.3132 17.0133C48.1914 16.8174 48.2516 16.5599 48.4475 16.4381ZM50.4079 19.821C50.6128 19.715 50.8648 19.7952 50.9709 20C51.2689 20.576 51.5605 21.1669 51.8442 21.7726C51.942 21.9816 51.8519 22.2302 51.643 22.3281C51.4341 22.4259 51.1854 22.3358 51.0876 22.1269C50.8087 21.5313 50.522 20.9503 50.2289 20.384C50.1229 20.1791 50.203 19.9271 50.4079 19.821ZM52.0963 23.3482C52.309 23.2587 52.5539 23.3586 52.6434 23.5712C52.8939 24.1666 53.1364 24.7752 53.3695 25.397C53.4505 25.613 53.341 25.8538 53.125 25.9348C52.909 26.0158 52.6683 25.9063 52.5873 25.6903C52.3581 25.079 52.1197 24.4806 51.8734 23.8952C51.7839 23.6826 51.8837 23.4377 52.0963 23.3482ZM53.4968 26.9896C53.7158 26.9173 53.9521 27.0362 54.0244 27.2552C54.2285 27.873 54.423 28.5028 54.6071 29.1447C54.6707 29.3665 54.5425 29.5978 54.3207 29.6614C54.099 29.725 53.8677 29.5968 53.8041 29.375C53.6231 28.7439 53.4318 28.1246 53.2312 27.5172C53.1588 27.2982 53.2777 27.062 53.4968 26.9896ZM54.6069 30.7389C54.831 30.684 55.0571 30.8212 55.1119 31.0453C55.2657 31.6736 55.4092 32.3128 55.5417 32.9627C55.5878 33.1887 55.4419 33.4093 55.2159 33.4554C54.9898 33.5015 54.7692 33.3556 54.7231 33.1295C54.5928 32.4903 54.4517 31.8618 54.3004 31.2439C54.2456 31.0198 54.3828 30.7937 54.6069 30.7389ZM55.419 34.5612C55.6467 34.5239 55.8615 34.6782 55.8988 34.9059C56.0036 35.5455 56.0977 36.195 56.1802 36.8543C56.2089 37.0832 56.0465 37.292 55.8176 37.3206C55.5887 37.3493 55.3799 37.187 55.3513 36.9581C55.2701 36.3093 55.1775 35.6702 55.0744 35.041C55.0371 34.8133 55.1914 34.5985 55.419 34.5612ZM55.9351 38.4266C56.1649 38.4064 56.3676 38.5764 56.3877 38.8062C56.4446 39.4555 56.4903 40.1139 56.5241 40.7812C56.5358 41.0116 56.3585 41.2079 56.1281 41.2196C55.8977 41.2313 55.7015 41.054 55.6898 40.8236C55.6565 40.1664 55.6115 39.5183 55.5555 38.8791C55.5353 38.6493 55.7053 38.4467 55.9351 38.4266ZM56.1645 42.3278C56.3952 42.3243 56.585 42.5084 56.5885 42.7391C56.5984 43.3871 56.5972 44.0433 56.5842 44.7077C56.5797 44.9383 56.3891 45.1216 56.1585 45.1171C55.9278 45.1127 55.7445 44.922 55.749 44.6914C55.7617 44.0367 55.763 43.3902 55.7532 42.7518C55.7497 42.5211 55.9339 42.3313 56.1645 42.3278ZM56.1174 46.2403C56.3478 46.2526 56.5246 46.4493 56.5123 46.6796C56.4779 47.3233 56.4327 47.9742 56.3761 48.6324C56.3563 48.8622 56.1539 49.0325 55.9241 49.0127C55.6943 48.9929 55.524 48.7906 55.5437 48.5608C55.5996 47.9116 55.6442 47.2697 55.6781 46.6351C55.6904 46.4048 55.8871 46.228 56.1174 46.2403ZM55.8085 50.1423C56.0376 50.1694 56.2014 50.3771 56.1743 50.6062C56.0989 51.243 56.013 51.8864 55.9161 52.5363C55.882 52.7645 55.6695 52.9219 55.4413 52.8879C55.2132 52.8538 55.0558 52.6413 55.0898 52.4131C55.1855 51.7715 55.2703 51.1364 55.3447 50.508C55.3718 50.2789 55.5794 50.1152 55.8085 50.1423ZM55.2566 54.0104C55.4837 54.0512 55.6347 54.2684 55.5938 54.4954C55.4806 55.1259 55.357 55.7622 55.2228 56.4045C55.1756 56.6304 54.9543 56.7752 54.7285 56.728C54.5027 56.6808 54.3579 56.4595 54.4051 56.2337C54.5376 55.599 54.6597 54.9704 54.7716 54.3477C54.8124 54.1206 55.0296 53.9696 55.2566 54.0104ZM54.4802 57.8391C54.7046 57.8925 54.8432 58.1177 54.7898 58.3421C54.6417 58.9647 54.4836 59.5928 54.3154 60.2262C54.2562 60.4491 54.0275 60.5819 53.8045 60.5227C53.5815 60.4634 53.4488 60.2347 53.508 60.0117C53.6744 59.3853 53.8307 58.7643 53.9771 58.1487C54.0305 57.9243 54.2557 57.7857 54.4802 57.8391ZM53.4966 61.6243C53.718 61.6892 53.8448 61.9212 53.7799 62.1426C53.6003 62.755 53.4113 63.3723 53.2125 63.9945C53.1424 64.2143 52.9073 64.3355 52.6876 64.2653C52.4678 64.1951 52.3466 63.9601 52.4168 63.7404C52.6135 63.1245 52.8006 62.5135 52.9782 61.9076C53.0431 61.6862 53.2752 61.5594 53.4966 61.6243ZM52.3288 65.3441C52.5468 65.4195 52.6625 65.6573 52.5871 65.8753C52.3777 66.4813 52.1592 67.0918 51.9313 67.7067C51.8511 67.923 51.6108 68.0334 51.3945 67.9532C51.1782 67.8731 51.0678 67.6327 51.148 67.4164C51.3737 66.8072 51.5902 66.2026 51.7976 65.6025C51.8729 65.3845 52.1107 65.2688 52.3288 65.3441Z" fill="#33BFC5"/>
<path d="M40.9041 83.8378C40.2894 84.2034 39.6559 84.4445 39.0684 84.4457C38.8377 84.4462 38.6511 84.6336 38.6516 84.8643C38.6521 85.095 38.8395 85.2816 39.0702 85.2811C39.8707 85.2794 40.656 84.9573 41.3311 84.5559C41.5294 84.438 41.5945 84.1817 41.4766 83.9834C41.3587 83.7851 41.1024 83.7199 40.9041 83.8378Z" fill="#33BFC5"/>
<path d="M42.5338 83.1522C42.6927 83.3194 42.9571 83.3262 43.1243 83.1673C43.3652 82.9383 43.56 82.7356 43.695 82.5894C43.7626 82.5163 43.8154 82.4572 43.8517 82.4159C43.8699 82.3952 43.8839 82.379 43.8936 82.3676L43.905 82.3544L43.9136 82.3446L43.9471 82.3064C43.9761 82.2731 44.0185 82.2239 44.0731 82.1592C44.1824 82.0297 44.3407 81.8379 44.5396 81.5859C44.6826 81.4048 44.6516 81.1421 44.4705 80.9992C44.2894 80.8563 44.0268 80.8872 43.8839 81.0683C43.6908 81.3129 43.5383 81.4976 43.4347 81.6204C43.3828 81.6818 43.3433 81.7277 43.317 81.7579L43.2877 81.7914L43.2807 81.7992L43.279 81.8011L42.5338 83.1522L43.2703 81.8111L43.2684 81.8134L43.2599 81.8233C43.2521 81.8324 43.2401 81.8463 43.2241 81.8645C43.192 81.901 43.144 81.9549 43.0815 82.0224C42.9565 82.1577 42.7745 82.3472 42.5488 82.5617C42.3816 82.7206 42.3749 82.985 42.5338 83.1522Z" fill="#33BFC5"/>
<path d="M37.4513 84.2532C37.6278 84.1046 37.6504 83.8411 37.5017 83.6647C37.172 83.2732 36.8574 82.701 36.5891 81.886C36.517 81.6668 36.2809 81.5477 36.0618 81.6198C35.8426 81.6919 35.7235 81.928 35.7956 82.1471C36.0866 83.0314 36.4454 83.7073 36.8628 84.2028C37.0114 84.3793 37.2749 84.4018 37.4513 84.2532Z" fill="#33BFC5"/>
<path d="M45.1261 80.1136C45.3149 80.2462 45.5754 80.2006 45.7079 80.0118C46.0454 79.5313 46.417 78.9797 46.8113 78.36C46.9351 78.1653 46.8777 77.9072 46.683 77.7834C46.4884 77.6595 46.2302 77.717 46.1064 77.9116C45.7193 78.5201 45.3547 79.0611 45.0243 79.5318C44.8917 79.7206 44.9373 79.9811 45.1261 80.1136Z" fill="#33BFC5"/>
<path d="M35.7625 80.3012C35.9903 80.2648 36.1454 80.0505 36.1089 79.8228C36.0084 79.1951 35.9278 78.4909 35.8706 77.7027C35.8539 77.4726 35.6539 77.2997 35.4238 77.3163C35.1937 77.333 35.0207 77.5331 35.0374 77.7632C35.0961 78.5717 35.1792 79.3 35.284 79.9548C35.3205 80.1826 35.5347 80.3377 35.7625 80.3012Z" fill="#33BFC5"/>
<path d="M47.2573 76.8373C47.4569 76.953 47.7125 76.885 47.8282 76.6854C48.1406 76.1465 48.4601 75.5717 48.7819 74.962C48.8896 74.758 48.8115 74.5053 48.6075 74.3976C48.4035 74.2899 48.1508 74.368 48.0431 74.572C47.7266 75.1716 47.4125 75.7368 47.1055 76.2665C46.9898 76.466 47.0578 76.7216 47.2573 76.8373Z" fill="#33BFC5"/>
<path d="M49.1115 73.3959C49.3195 73.4956 49.569 73.4077 49.6687 73.1997C49.9435 72.626 50.2169 72.0277 50.4861 71.4054C50.5777 71.1937 50.4803 70.9478 50.2685 70.8562C50.0568 70.7646 49.8109 70.862 49.7193 71.0738C49.4546 71.6859 49.1856 72.2745 48.9153 72.8388C48.8156 73.0468 48.9034 73.2963 49.1115 73.3959Z" fill="#33BFC5"/>
<path d="M51.5623 27.3316C54.9708 27.3316 57.7339 24.5684 57.7339 21.1599C57.7339 17.7514 54.9708 14.9883 51.5623 14.9883C48.1538 14.9883 45.3906 17.7514 45.3906 21.1599C45.3906 24.5684 48.1538 27.3316 51.5623 27.3316Z" fill="#FF9703"/>
<path fill-rule="evenodd" clip-rule="evenodd" d="M8.4107 25.3107C9.11 25.2253 9.85373 25.2357 10.5478 25.29C10.7778 25.308 10.9497 25.509 10.9317 25.739C10.9137 25.969 10.7127 26.1408 10.4827 26.1229C9.82193 26.0712 9.13771 26.0635 8.51198 26.14C8.28299 26.1679 8.07469 26.005 8.04672 25.776C8.01876 25.547 8.18172 25.3387 8.4107 25.3107ZM12.1401 25.9093C12.184 25.6828 12.4032 25.5349 12.6297 25.5788C12.9386 25.6387 13.1929 25.6954 13.3707 25.7373C13.4596 25.7582 13.5295 25.7755 13.5776 25.7876C13.6016 25.7937 13.6202 25.7985 13.633 25.8018L13.6478 25.8057L13.6519 25.8068L13.6535 25.8072L13.6537 25.8072C13.6537 25.8072 13.6537 25.8073 13.5457 26.2107L13.6537 25.8072C13.8765 25.8669 14.0089 26.0959 13.9492 26.3188C13.8896 26.5416 13.6606 26.6739 13.4377 26.6142M13.4377 26.6142L13.4373 26.6141L13.4346 26.6134L13.4225 26.6102C13.4116 26.6074 13.395 26.6031 13.373 26.5976C13.329 26.5865 13.2635 26.5703 13.1792 26.5504C13.0106 26.5107 12.7671 26.4564 12.4706 26.3989C12.2441 26.355 12.0961 26.1358 12.1401 25.9093M6.87881 26.1455C7.02082 26.3273 6.98856 26.5898 6.80676 26.7318C6.4173 27.036 6.16832 27.4826 6.19162 28.1891C6.19922 28.4196 6.01848 28.6127 5.78792 28.6203C5.55735 28.6279 5.36428 28.4472 5.35668 28.2166C5.32506 27.258 5.68151 26.5507 6.2925 26.0735C6.4743 25.9314 6.7368 25.9637 6.87881 26.1455ZM6.11862 29.7875C6.33057 29.6965 6.57621 29.7945 6.66728 30.0064C6.88954 30.5237 7.19642 31.1068 7.6027 31.7628C7.72417 31.9589 7.66366 32.2163 7.46754 32.3378C7.27142 32.4593 7.01397 32.3988 6.8925 32.2026C6.46934 31.5194 6.14168 30.8993 5.89974 30.3362C5.80867 30.1242 5.90667 29.8786 6.11862 29.7875ZM8.1475 33.3312C8.33327 33.1944 8.59474 33.2342 8.7315 33.4199C9.10007 33.9206 9.51423 34.4529 9.97756 35.0186C10.1237 35.1971 10.0975 35.4603 9.91906 35.6064C9.74059 35.7526 9.47742 35.7264 9.33125 35.5479C8.85987 34.9724 8.43677 34.4287 8.05875 33.9152C7.92199 33.7294 7.96172 33.468 8.1475 33.3312ZM10.7078 36.5314C10.8809 36.3788 11.1448 36.3954 11.2974 36.5684C11.7254 37.0536 12.1847 37.5598 12.6769 38.0876C12.8342 38.2563 12.825 38.5206 12.6562 38.6779C12.4875 38.8353 12.2232 38.826 12.0659 38.6573C11.5688 38.1243 11.1043 37.6124 10.6709 37.121C10.5183 36.948 10.5348 36.684 10.7078 36.5314ZM13.5071 39.5694C13.6723 39.4085 13.9368 39.4119 14.0977 39.5772C14.5467 40.038 15.0183 40.5137 15.5134 41.0045C15.6772 41.1669 15.6783 41.4314 15.5159 41.5952C15.3535 41.759 15.089 41.7602 14.9252 41.5977C14.4269 41.1037 13.9519 40.6246 13.4994 40.1601C13.3384 39.9948 13.3418 39.7304 13.5071 39.5694ZM16.3969 42.4552C16.5568 42.289 16.8213 42.2839 16.9875 42.4439C17.4622 42.9007 17.9556 43.3696 18.4683 43.8509C18.6365 44.0087 18.6449 44.2731 18.487 44.4413C18.3291 44.6095 18.0648 44.6179 17.8966 44.46C17.3815 43.9765 16.8855 43.5052 16.4082 43.0458C16.242 42.8858 16.2369 42.6214 16.3969 42.4552ZM19.3716 45.2623C19.5277 45.0924 19.7919 45.0812 19.9618 45.2372C20.4542 45.6895 20.9625 46.1518 21.4871 46.6245C21.6585 46.7789 21.6722 47.0431 21.5178 47.2144C21.3634 47.3858 21.0993 47.3996 20.9279 47.2452C20.4014 46.7707 19.8911 46.3066 19.3967 45.8525C19.2268 45.6964 19.2156 45.4322 19.3716 45.2623ZM22.4131 48.0142C22.5661 47.8415 22.8301 47.8256 23.0028 47.9785C23.5037 48.4223 24.0181 48.8747 24.5465 49.3357C24.7203 49.4874 24.7383 49.7513 24.5866 49.9251C24.4349 50.0989 24.1711 50.1169 23.9973 49.9652C23.4674 49.5028 22.9513 49.049 22.4488 48.6038C22.2761 48.4508 22.2602 48.1868 22.4131 48.0142ZM25.5072 50.7228C25.6577 50.5479 25.9214 50.5282 26.0962 50.6787C26.5995 51.1118 27.1143 51.5522 27.6411 52.0001C27.8168 52.1495 27.8382 52.4131 27.6887 52.5889C27.5393 52.7646 27.2757 52.7859 27.1 52.6365C26.572 52.1876 26.0558 51.7461 25.5513 51.3118C25.3764 51.1613 25.3567 50.8976 25.5072 50.7228ZM28.6518 53.4027C28.8002 53.2261 29.0637 53.2033 29.2403 53.3517C29.7417 53.7731 30.2531 54.2006 30.7748 54.6346C30.9521 54.7821 30.9763 55.0455 30.8288 55.2228C30.6813 55.4002 30.4179 55.4243 30.2405 55.2768C29.7178 54.842 29.2053 54.4135 28.7028 53.9912C28.5262 53.8428 28.5034 53.5794 28.6518 53.4027ZM31.7826 56.0122C31.9292 55.8342 32.1925 55.8087 32.3705 55.9554C32.6417 56.1787 32.9154 56.4037 33.1917 56.6302C33.4664 56.8555 33.7397 57.0783 34.0114 57.2988C34.1906 57.4441 34.218 57.7072 34.0727 57.8863C33.9273 58.0655 33.6643 58.0929 33.4851 57.9476C33.2122 57.7262 32.9379 57.5024 32.662 57.2763C32.3852 57.0493 32.111 56.824 31.8394 56.6002C31.6613 56.4535 31.6359 56.1903 31.7826 56.0122ZM35.0378 58.661C35.1812 58.4803 35.444 58.4501 35.6246 58.5935C36.1566 59.0157 36.6826 59.4286 37.203 59.8324C37.3852 59.9738 37.4183 60.2362 37.2769 60.4185C37.1355 60.6007 36.8731 60.6338 36.6908 60.4924C36.168 60.0867 35.6395 59.6719 35.1053 59.2478C34.9246 59.1044 34.8944 58.8416 35.0378 58.661ZM72.6646 58.9154C72.7805 58.716 73.0362 58.6482 73.2357 58.7641C73.5471 58.9451 73.8463 59.143 74.1327 59.3561C74.3178 59.4937 74.3563 59.7554 74.2186 59.9405C74.0809 60.1256 73.8193 60.1641 73.6342 60.0264C73.3725 59.8317 73.0995 59.6512 72.8159 59.4864C72.6165 59.3705 72.5487 59.1149 72.6646 58.9154ZM75.1128 60.7704C75.2864 60.6184 75.5502 60.6358 75.7023 60.8093C76.1726 61.3462 76.5874 61.9295 76.9429 62.5444C77.0584 62.7441 76.9901 62.9996 76.7904 63.1151C76.5907 63.2306 76.3352 63.1623 76.2197 62.9626C75.8904 62.393 75.5071 61.8543 75.0739 61.3598C74.9219 61.1863 74.9393 60.9224 75.1128 60.7704ZM38.2737 61.1824C38.4128 60.9985 38.6748 60.9621 38.8588 61.1013C39.4095 61.518 39.9536 61.9241 40.4909 62.3198C40.6766 62.4566 40.7163 62.7181 40.5795 62.9038C40.4427 63.0896 40.1812 63.1293 39.9955 62.9925C39.4552 62.5946 38.9083 62.1863 38.3548 61.7675C38.1708 61.6284 38.1345 61.3664 38.2737 61.1824ZM41.5621 63.6172C41.6963 63.4295 41.9572 63.3862 42.1448 63.5204C42.7142 63.9276 43.2757 64.3227 43.8294 64.7061C44.0191 64.8374 44.0664 65.0976 43.9351 65.2873C43.8037 65.4769 43.5435 65.5242 43.3539 65.3929C42.7966 65.0071 42.2316 64.6095 41.6589 64.1999C41.4712 64.0657 41.4279 63.8048 41.5621 63.6172ZM77.2993 64.2236C77.517 64.1473 77.7553 64.2619 77.8317 64.4795C78.0688 65.1556 78.241 65.8506 78.3438 66.5493C78.3774 66.7775 78.2196 66.9898 77.9914 67.0234C77.7632 67.0569 77.5509 66.8992 77.5173 66.6709C77.4224 66.026 77.2632 65.3828 77.0433 64.756C76.967 64.5383 77.0816 64.2999 77.2993 64.2236ZM44.9206 65.958C45.0488 65.7663 45.3082 65.7147 45.5 65.8429C46.0869 66.2352 46.6647 66.6139 47.2334 66.9791C47.4275 67.1038 47.4838 67.3622 47.3591 67.5563C47.2344 67.7504 46.976 67.8067 46.7819 67.682C46.2088 67.314 45.6268 66.9325 45.0357 66.5374C44.8439 66.4092 44.7924 66.1498 44.9206 65.958ZM48.3658 68.1893C48.4866 67.9928 48.7439 67.9315 48.9404 68.0523C49.5428 68.4227 50.1345 68.7774 50.7154 69.1169C50.9146 69.2333 50.9817 69.4891 50.8653 69.6883C50.7489 69.8874 50.4931 69.9545 50.2939 69.8382C49.7074 69.4954 49.1104 69.1375 48.5028 68.7639C48.3063 68.6431 48.245 68.3858 48.3658 68.1893ZM78.0464 68.2431C78.2766 68.2577 78.4514 68.4562 78.4368 68.6864C78.391 69.4088 78.2639 70.1198 78.0495 70.8011C77.9802 71.0211 77.7457 71.1434 77.5256 71.0741C77.3056 71.0048 77.1834 70.7703 77.2526 70.5502C77.4455 69.9375 77.5612 69.2934 77.6031 68.6336C77.6177 68.4033 77.8161 68.2285 78.0464 68.2431ZM51.911 70.2827C52.0224 70.0808 52.2765 70.0074 52.4785 70.1189C53.0927 70.4578 53.6941 70.7789 54.2829 71.0827C54.4879 71.1885 54.5683 71.4405 54.4626 71.6455C54.3568 71.8505 54.1048 71.9309 53.8998 71.8251C53.3039 71.5176 52.6956 71.1929 52.0748 70.8503C51.8729 70.7388 51.7995 70.4847 51.911 70.2827ZM55.5617 72.1914C55.6609 71.9831 55.9101 71.8947 56.1184 71.9938C56.7432 72.2914 57.3526 72.5683 57.9468 72.8254C58.1586 72.917 58.2559 73.1629 58.1643 73.3746C58.0727 73.5863 57.8268 73.6837 57.6151 73.5921C57.0113 73.3309 56.3927 73.0498 55.7592 72.7481C55.5509 72.6489 55.4625 72.3997 55.5617 72.1914ZM77.0069 72.1772C77.1994 72.3042 77.2525 72.5633 77.1255 72.7559C76.7338 73.3495 76.2523 73.8942 75.6767 74.3723C75.4993 74.5197 75.2359 74.4953 75.0885 74.3178C74.9411 74.1404 74.9655 73.877 75.143 73.7296C75.6541 73.3051 76.0809 72.8222 76.4282 72.2958C76.5552 72.1033 76.8143 72.0502 77.0069 72.1772ZM59.3089 73.8421C59.3913 73.6266 59.6328 73.5188 59.8482 73.6011C60.5102 73.8542 61.1512 74.0809 61.7717 74.2826C61.9911 74.3539 62.1112 74.5895 62.0399 74.8089C61.9686 75.0283 61.7329 75.1484 61.5135 75.0771C60.8789 74.8708 60.2244 74.6394 59.5499 74.3814C59.3344 74.2991 59.2265 74.0576 59.3089 73.8421ZM74.0546 74.9558C74.1497 75.166 74.0564 75.4134 73.8462 75.5085C73.2314 75.7867 72.5538 76.0083 71.8118 76.1653C71.5861 76.213 71.3644 76.0687 71.3167 75.843C71.269 75.6173 71.4132 75.3957 71.6389 75.3479C72.3258 75.2027 72.9455 74.9992 73.5018 74.7474C73.712 74.6523 73.9594 74.7456 74.0546 74.9558ZM63.2054 75.1507C63.2631 74.9273 63.491 74.793 63.7143 74.8507C64.3992 75.0277 65.0555 75.1712 65.6837 75.2835C65.9108 75.3242 66.062 75.5412 66.0213 75.7683C65.9807 75.9953 65.7637 76.1465 65.5366 76.1059C64.8863 75.9896 64.2094 75.8414 63.5054 75.6596C63.282 75.6019 63.1477 75.374 63.2054 75.1507ZM67.2281 75.9288C67.2467 75.6989 67.4482 75.5276 67.6782 75.5462C68.3878 75.6037 69.0541 75.6164 69.6786 75.5888C69.9091 75.5787 70.1041 75.7573 70.1143 75.9877C70.1245 76.2182 69.9459 76.4133 69.7154 76.4234C69.0536 76.4526 68.3524 76.439 67.6107 76.3789C67.3808 76.3603 67.2095 76.1588 67.2281 75.9288Z" fill="#33BFC5"/>
<path d="M20.8969 48.4322C21.912 48.4322 22.7348 47.6094 22.7348 46.5943C22.7348 45.5793 21.912 44.7565 20.8969 44.7565C19.8819 44.7565 19.0591 45.5793 19.0591 46.5943C19.0591 47.6094 19.8819 48.4322 20.8969 48.4322Z" fill="#FF9703"/>
<path d="M5.79026 30.1256C6.80528 30.1256 7.62813 29.3028 7.62813 28.2878C7.62813 27.2727 6.80528 26.4499 5.79026 26.4499C4.77523 26.4499 3.95239 27.2727 3.95239 28.2878C3.95239 29.3028 4.77523 30.1256 5.79026 30.1256Z" fill="#FF9703"/>
<path d="M12.8437 75.9722C13.8588 75.9722 14.6816 75.1493 14.6816 74.1343C14.6816 73.1193 13.8588 72.2964 12.8437 72.2964C11.8287 72.2964 11.0059 73.1193 11.0059 74.1343C11.0059 75.1493 11.8287 75.9722 12.8437 75.9722Z" fill="#FF9703"/>
<path d="M50.7553 71.5639C51.7704 71.5639 52.5932 70.741 52.5932 69.726C52.5932 68.711 51.7704 67.8881 50.7553 67.8881C49.7403 67.8881 48.9175 68.711 48.9175 69.726C48.9175 70.741 49.7403 71.5639 50.7553 71.5639Z" fill="#FF9703"/>
<path d="M77.2051 65.3922C78.2201 65.3922 79.0429 64.5694 79.0429 63.5543C79.0429 62.5393 78.2201 61.7165 77.2051 61.7165C76.19 61.7165 75.3672 62.5393 75.3672 63.5543C75.3672 64.5694 76.19 65.3922 77.2051 65.3922Z" fill="#FF9703"/>
<path d="M81.6135 29.244C82.6285 29.244 83.4514 28.4211 83.4514 27.4061C83.4514 26.3911 82.6285 25.5682 81.6135 25.5682C80.5985 25.5682 79.7756 26.3911 79.7756 27.4061C79.7756 28.4211 80.5985 29.244 81.6135 29.244Z" fill="#FF9703"/>
<path d="M34.0036 3.6757C35.0187 3.6757 35.8415 2.85286 35.8415 1.83784C35.8415 0.822811 35.0187 -3.05176e-05 34.0036 -3.05176e-05C32.9886 -3.05176e-05 32.1658 0.822811 32.1658 1.83784C32.1658 2.85286 32.9886 3.6757 34.0036 3.6757Z" fill="#FF9703"/>
</g>
<defs>
<clipPath id="clip0">
<path d="M0 0H86V86H0V0Z" fill="white"/>
</clipPath>
</defs>
</svg>
