<svg width="100" height="100" viewBox="0 0 100 100" fill="none" xmlns="http://www.w3.org/2000/svg">
<path d="M48.414 97.3724C48.414 97.3724 48.3947 97.3724 48.414 97.3724C47.625 97.3531 46.8361 97.2954 46.0664 97.2377C45.797 97.2184 45.6045 96.9875 45.6238 96.7181C45.643 96.4487 45.8739 96.2563 46.1433 96.2755C46.8938 96.3332 47.6635 96.391 48.4332 96.4102C48.7026 96.4295 48.9143 96.6411 48.8951 96.9105C48.8758 97.1607 48.6641 97.3724 48.414 97.3724ZM52.0701 97.3531C51.82 97.3531 51.6083 97.1414 51.589 96.8913C51.5698 96.6219 51.7815 96.4102 52.0509 96.391C52.8013 96.3525 53.5711 96.314 54.3408 96.2563C54.6102 96.237 54.8411 96.4295 54.8603 96.6989C54.8796 96.9683 54.6871 97.1992 54.4177 97.2184C53.648 97.2761 52.8591 97.3339 52.0701 97.3531C52.0701 97.3531 52.0894 97.3531 52.0701 97.3531ZM42.4872 96.7758C42.468 96.7758 42.4295 96.7758 42.4102 96.7758C41.6405 96.6604 40.8708 96.5064 40.1203 96.3525C39.8509 96.2948 39.697 96.0446 39.7547 95.7752C39.8124 95.5058 40.0626 95.3519 40.332 95.4096C41.0825 95.5635 41.8329 95.6982 42.5834 95.8329C42.8528 95.8714 43.026 96.1216 42.9875 96.391C42.9298 96.6219 42.7181 96.7758 42.4872 96.7758ZM57.9969 96.7758C57.766 96.7758 57.5543 96.6026 57.5158 96.3717C57.4773 96.1023 57.6505 95.8714 57.9199 95.8137C58.6704 95.6982 59.4209 95.5443 60.1713 95.3903C60.4407 95.3326 60.6909 95.5058 60.7486 95.756C60.8064 96.0254 60.6332 96.2755 60.383 96.3332C59.6325 96.4872 58.8628 96.6411 58.0931 96.7566C58.0546 96.7758 58.0161 96.7758 57.9969 96.7758ZM36.6759 95.4673C36.6374 95.4673 36.5797 95.4673 36.5412 95.4481C35.7907 95.2364 35.0595 94.9862 34.3282 94.7361C34.0781 94.6591 33.9434 94.3705 34.0396 94.1203C34.1358 93.8702 34.4052 93.7355 34.6554 93.8317C35.3674 94.0818 36.0986 94.3127 36.8298 94.5244C37.08 94.6014 37.2339 94.8708 37.1569 95.1209C37.0607 95.3326 36.8875 95.4673 36.6759 95.4673ZM63.8082 95.4481C63.5966 95.4481 63.4041 95.3134 63.3464 95.1017C63.2694 94.8515 63.4234 94.5821 63.6735 94.5052C64.4048 94.2935 65.136 94.0626 65.848 93.8124C66.0981 93.7162 66.3675 93.8509 66.4637 94.1011C66.56 94.3512 66.4253 94.6206 66.1751 94.7168C65.4439 94.967 64.6934 95.2172 63.9622 95.4288C63.9044 95.4481 63.8467 95.4481 63.8082 95.4481ZM31.057 93.4468C30.9992 93.4468 30.9223 93.4276 30.8645 93.4083C30.1526 93.1004 29.4406 92.7733 28.7478 92.4269C28.5169 92.3115 28.4015 92.0228 28.5362 91.7919C28.6516 91.561 28.9403 91.4456 29.1712 91.5803C29.8447 91.9074 30.5567 92.2345 31.2494 92.5424C31.4995 92.6386 31.5958 92.9273 31.4995 93.1774C31.4226 93.3506 31.2494 93.4468 31.057 93.4468ZM69.4079 93.4083C69.2155 93.4083 69.0423 93.2929 68.9653 93.1197C68.8498 92.8695 68.9653 92.6001 69.2155 92.4847C69.9082 92.1768 70.6009 91.8689 71.2937 91.5225C71.5246 91.4071 71.8132 91.5033 71.9287 91.7342C72.0442 91.9651 71.9479 92.2538 71.717 92.3692C71.0243 92.7156 70.3123 93.0427 69.6003 93.3506C69.5426 93.4083 69.4656 93.4083 69.4079 93.4083ZM25.7459 90.7528C25.669 90.7528 25.5728 90.7336 25.4958 90.6951C24.8223 90.3102 24.168 89.8869 23.5138 89.4636C23.2829 89.3096 23.2251 89.021 23.3791 88.7901C23.533 88.5591 23.8217 88.5014 24.0526 88.6554C24.6876 89.0787 25.3418 89.4828 25.9961 89.8677C26.227 90.0024 26.304 90.291 26.1693 90.5219C26.0731 90.6566 25.8999 90.7528 25.7459 90.7528ZM74.7189 90.7143C74.5457 90.7143 74.3918 90.6374 74.2956 90.4834C74.1609 90.2525 74.2378 89.9639 74.4687 89.8292C75.123 89.4443 75.7773 89.0402 76.4123 88.6169C76.6432 88.4629 76.9318 88.5399 77.0858 88.7516C77.2397 88.9825 77.1627 89.2711 76.9511 89.4251C76.2968 89.8484 75.6426 90.2718 74.9691 90.6566C74.8728 90.6951 74.7959 90.7143 74.7189 90.7143ZM20.8005 87.4046C20.7043 87.4046 20.5889 87.3661 20.5119 87.3084C19.8961 86.8273 19.2804 86.3462 18.7031 85.8459C18.4914 85.6727 18.4722 85.3648 18.6453 85.1724C18.8185 84.9607 19.1264 84.9415 19.3188 85.1147C19.8961 85.615 20.4927 86.0961 21.0892 86.5579C21.3009 86.7118 21.3393 87.0197 21.1854 87.2314C21.0892 87.3468 20.9545 87.4046 20.8005 87.4046ZM79.6451 87.3661C79.5104 87.3661 79.3564 87.3084 79.2602 87.1737C79.1063 86.962 79.1448 86.6541 79.3564 86.5002C79.9529 86.0383 80.5495 85.5573 81.1268 85.057C81.3384 84.8838 81.6271 84.903 81.8003 85.1147C81.9734 85.3263 81.9542 85.615 81.7425 85.7882C81.146 86.2885 80.5495 86.7888 79.9337 87.2506C79.8375 87.3276 79.7413 87.3661 79.6451 87.3661ZM16.317 83.479C16.2015 83.479 16.0668 83.4406 15.9706 83.3443C15.4126 82.8055 14.8738 82.2283 14.3542 81.6702C14.181 81.4778 14.181 81.1699 14.3734 80.9967C14.5659 80.8235 14.8738 80.8235 15.0469 81.016C15.5665 81.574 16.0861 82.132 16.6249 82.6516C16.8173 82.844 16.8173 83.1519 16.6249 83.3251C16.5671 83.4406 16.4324 83.479 16.317 83.479ZM84.1286 83.4406C84.0132 83.4406 83.8785 83.4021 83.7823 83.3059C83.5898 83.1134 83.5898 82.8055 83.7823 82.6324C84.3211 82.0936 84.8599 81.5355 85.3602 80.9775C85.5334 80.785 85.8413 80.7658 86.0337 80.939C86.2261 81.1122 86.2454 81.4201 86.0722 81.6125C85.5526 82.1898 85.0138 82.7478 84.4558 83.2866C84.3596 83.4021 84.2441 83.4406 84.1286 83.4406ZM12.3337 79.0532C12.199 79.0532 12.0451 78.9955 11.9488 78.8608C11.4678 78.245 11.006 77.6292 10.5441 76.9942C10.3902 76.7825 10.4479 76.4747 10.6596 76.3207C10.8713 76.1668 11.1791 76.2245 11.3331 76.4362C11.7757 77.0519 12.2375 77.6677 12.6993 78.2642C12.8725 78.4759 12.834 78.7838 12.6223 78.9377C12.5454 79.0147 12.4492 79.0532 12.3337 79.0532ZM88.0927 78.9955C87.9964 78.9955 87.881 78.957 87.804 78.8992C87.5924 78.7261 87.5539 78.4374 87.727 78.2258C88.1889 77.6292 88.6507 77.0135 89.0933 76.3977C89.2472 76.186 89.5551 76.1283 89.7668 76.2822C89.9785 76.4362 90.0362 76.7441 89.8822 76.9557C89.4397 77.5907 88.9586 78.2065 88.4775 78.8223C88.3813 78.9377 88.2274 78.9955 88.0927 78.9955ZM8.94697 74.1463C8.79303 74.1463 8.61984 74.0693 8.54287 73.9154C8.13877 73.2611 7.75391 72.5684 7.3883 71.8949C7.2536 71.664 7.34982 71.3753 7.58073 71.2406C7.81164 71.1059 8.10029 71.2021 8.23498 71.433C8.6006 72.1065 8.98545 72.7608 9.37031 73.415C9.50501 73.646 9.42804 73.9346 9.21637 74.0693C9.10091 74.127 9.02394 74.1463 8.94697 74.1463ZM91.4794 74.0885C91.4024 74.0885 91.3062 74.0693 91.2292 74.0116C90.9983 73.8769 90.9214 73.569 91.0753 73.3573C91.4602 72.7031 91.845 72.0488 92.2106 71.3753C92.3453 71.1444 92.634 71.0482 92.8649 71.1829C93.0958 71.3176 93.192 71.6062 93.0573 71.8371C92.6917 72.5106 92.3068 73.2034 91.9027 73.8576C91.8065 74.0116 91.6526 74.0885 91.4794 74.0885ZM6.176 68.8737C5.98358 68.8737 5.81039 68.7583 5.73342 68.5851C5.42553 67.8731 5.11765 67.1611 4.82901 66.4491C4.73279 66.199 4.84825 65.9296 5.09841 65.8334C5.34856 65.7372 5.61796 65.8526 5.71418 66.1028C5.98358 66.8148 6.29146 67.5075 6.59935 68.2002C6.7148 68.4504 6.59935 68.7198 6.34919 68.8353C6.3107 68.8737 6.23373 68.8737 6.176 68.8737ZM94.2504 68.7968C94.1926 68.7968 94.1157 68.7775 94.0579 68.7583C93.8078 68.6428 93.7116 68.3734 93.8078 68.1233C94.1157 67.4305 94.4235 66.7185 94.6929 66.0066C94.7892 65.7564 95.0586 65.641 95.3087 65.7372C95.5589 65.8334 95.6743 66.122 95.5781 66.3529C95.2895 67.0649 95.0008 67.7961 94.6737 68.5081C94.616 68.7006 94.4428 68.7968 94.2504 68.7968ZM4.07854 63.3126C3.86687 63.3126 3.67444 63.1779 3.61671 62.9662C3.3858 62.235 3.17412 61.4653 2.9817 60.7148C2.92397 60.4646 3.07791 60.1952 3.32807 60.1375C3.57822 60.0798 3.84762 60.2337 3.90535 60.4839C4.09778 61.2151 4.29021 61.9656 4.52112 62.6776C4.59809 62.9277 4.46339 63.1971 4.19399 63.2741C4.17475 63.2933 4.11702 63.3126 4.07854 63.3126ZM96.3286 63.2164C96.2901 63.2164 96.2324 63.2164 96.1939 63.1971C95.9437 63.1201 95.7898 62.8507 95.8668 62.6006C96.0784 61.8694 96.2901 61.1381 96.4825 60.4069C96.5403 60.1567 96.8097 59.9836 97.0598 60.0605C97.31 60.1183 97.4832 60.3877 97.4062 60.6378C97.2138 61.3883 97.0021 62.1388 96.7904 62.8892C96.7327 63.0817 96.5403 63.2164 96.3286 63.2164ZM2.69305 57.5012C2.46214 57.5012 2.26971 57.328 2.21198 57.0971C2.07728 56.3274 1.96183 55.5577 1.86561 54.788C1.82713 54.5186 2.01956 54.2877 2.28896 54.2492C2.55835 54.2107 2.78927 54.4031 2.82775 54.6725C2.92397 55.423 3.03943 56.1927 3.17412 56.924C3.21261 57.1934 3.03943 57.4435 2.78927 57.482C2.75078 57.5012 2.7123 57.5012 2.69305 57.5012ZM97.7141 57.405C97.6948 57.405 97.6563 57.405 97.6371 57.405C97.3677 57.3665 97.1945 57.1164 97.2522 56.847C97.3869 56.0965 97.5024 55.346 97.5794 54.5956C97.6179 54.3262 97.8488 54.153 98.1182 54.1722C98.3876 54.2107 98.5608 54.4416 98.5415 54.711C98.4453 55.4807 98.3298 56.2505 98.1951 57.0202C98.1374 57.2511 97.945 57.405 97.7141 57.405ZM2.0388 51.5937C1.78864 51.5937 1.57697 51.4013 1.55773 51.1319C1.51924 50.3622 1.5 49.5732 1.5 48.8035C1.5 48.5341 1.71167 48.3224 1.98107 48.3224C2.25047 48.3224 2.46214 48.5341 2.46214 48.8035C2.46214 49.5732 2.48138 50.3237 2.51987 51.0934C2.53911 51.3628 2.32744 51.5937 2.05804 51.5937C2.05804 51.5937 2.0388 51.5937 2.0388 51.5937ZM98.3491 51.4975H98.3298C98.0604 51.4782 97.868 51.2666 97.868 50.9972C97.9065 50.2467 97.9257 49.477 97.9257 48.7073C97.9257 48.4379 98.1374 48.2262 98.4068 48.2262C98.6762 48.2262 98.8879 48.4379 98.8879 48.7073C98.8879 49.477 98.8686 50.2659 98.8302 51.0356C98.8302 51.2858 98.6185 51.4975 98.3491 51.4975ZM98.3491 46.6868C98.0989 46.6868 97.8873 46.4944 97.868 46.225C97.8295 45.4745 97.7718 44.7048 97.6948 43.9543C97.6756 43.6849 97.868 43.454 98.1182 43.4347C98.3876 43.4155 98.6185 43.6079 98.6377 43.8581C98.7147 44.6278 98.7724 45.4168 98.8109 46.1865C98.8302 46.4559 98.6185 46.6868 98.3491 46.6868C98.3683 46.6868 98.3491 46.6868 98.3491 46.6868ZM2.11577 45.6284C2.09653 45.6284 2.09653 45.6284 2.07728 45.6284C1.80788 45.6092 1.61546 45.3783 1.6347 45.1089C1.69243 44.3392 1.7694 43.5502 1.86561 42.7805C1.9041 42.5111 2.13501 42.3379 2.40441 42.3571C2.67381 42.3956 2.847 42.6265 2.82775 42.8959C2.73154 43.6464 2.65457 44.4161 2.61608 45.1666C2.5776 45.436 2.36593 45.6284 2.11577 45.6284ZM97.6756 40.76C97.4447 40.76 97.2522 40.5868 97.1945 40.3559C97.0598 39.6054 96.9059 38.855 96.7519 38.1237C96.6942 37.8736 96.8481 37.6042 97.1175 37.5464C97.3677 37.4887 97.6371 37.6427 97.6948 37.9121C97.868 38.6625 98.022 39.4322 98.1567 40.2019C98.1951 40.4713 98.022 40.7215 97.7718 40.76C97.7333 40.76 97.6948 40.76 97.6756 40.76ZM2.90473 39.7209C2.86624 39.7209 2.847 39.7209 2.80851 39.7209C2.53911 39.6632 2.38517 39.413 2.42366 39.1628C2.5776 38.4124 2.75078 37.6427 2.92397 36.8922C2.9817 36.642 3.2511 36.4688 3.50125 36.5458C3.75141 36.6035 3.92459 36.8729 3.84762 37.1231C3.6552 37.8543 3.50125 38.6048 3.34731 39.3553C3.32807 39.5669 3.13564 39.7209 2.90473 39.7209ZM96.2901 34.9679C96.0784 34.9679 95.886 34.8332 95.8283 34.6215C95.5974 33.8903 95.3664 33.1591 95.097 32.4471C95.0008 32.1969 95.1355 31.9275 95.3857 31.8313C95.6358 31.7351 95.9052 31.8698 96.0015 32.12C96.2709 32.8512 96.521 33.5824 96.7327 34.3329C96.8097 34.583 96.675 34.8524 96.4056 34.9294C96.3671 34.9679 96.3286 34.9679 96.2901 34.9679ZM4.42491 33.9673C4.36718 33.9673 4.32869 33.9673 4.27097 33.948C4.02081 33.8711 3.88611 33.5824 3.96308 33.3323C4.21324 32.601 4.48264 31.8506 4.75204 31.1386C4.84825 30.8884 5.11765 30.773 5.36781 30.8692C5.61796 30.9654 5.73342 31.2348 5.63721 31.485C5.36781 32.1969 5.09841 32.9282 4.86749 33.6401C4.80976 33.8326 4.63658 33.9673 4.42491 33.9673ZM94.1734 29.4067C93.981 29.4067 93.8078 29.3105 93.7308 29.1181C93.4229 28.4253 93.0958 27.7326 92.7494 27.0591C92.634 26.8282 92.7302 26.5396 92.9611 26.4049C93.192 26.2894 93.4806 26.3856 93.6153 26.6165C93.9617 27.3093 94.3081 28.002 94.616 28.714C94.7314 28.9641 94.616 29.2335 94.3658 29.349C94.3081 29.3875 94.2504 29.4067 94.1734 29.4067ZM6.65707 28.4253C6.5801 28.4253 6.52237 28.4061 6.4454 28.3869C6.21449 28.2714 6.09903 27.9828 6.21449 27.7518C6.54162 27.0591 6.90723 26.3471 7.27284 25.6736C7.40754 25.4427 7.69619 25.3465 7.9271 25.4812C8.15801 25.6159 8.25423 25.9045 8.11953 26.1354C7.75391 26.8089 7.40754 27.4824 7.08042 28.1752C7.02269 28.3291 6.8495 28.4253 6.65707 28.4253ZM91.4024 24.1342C91.2485 24.1342 91.0753 24.0572 90.9983 23.9033C90.6135 23.249 90.1901 22.614 89.7668 21.979C89.6128 21.7673 89.6706 21.4594 89.9015 21.3055C90.1132 21.1516 90.421 21.2093 90.575 21.4402C91.0176 22.0752 91.4409 22.7487 91.8258 23.403C91.9605 23.6339 91.8835 23.9225 91.6718 24.0572C91.5756 24.115 91.4794 24.1342 91.4024 24.1342ZM9.56274 23.2105C9.46652 23.2105 9.38955 23.1913 9.31258 23.1336C9.08167 22.9989 9.02394 22.691 9.15864 22.4601C9.58198 21.8058 10.0246 21.1516 10.4672 20.5165C10.6211 20.3049 10.929 20.2471 11.1406 20.4011C11.3523 20.555 11.41 20.8629 11.2561 21.0746C10.8135 21.6904 10.3902 22.3254 9.98608 22.9796C9.87062 23.1336 9.71668 23.2105 9.56274 23.2105ZM87.9964 19.2465C87.8618 19.2465 87.7078 19.1888 87.6116 19.0733C87.1305 18.4768 86.6495 17.8803 86.1491 17.3222C85.976 17.1298 85.9952 16.8219 86.1876 16.6487C86.38 16.4756 86.6879 16.4948 86.8611 16.6872C87.3614 17.2645 87.8617 17.8803 88.3428 18.4768C88.516 18.6885 88.4775 18.9964 88.2658 19.1503C88.2081 19.208 88.0927 19.2465 87.9964 19.2465ZM13.0842 18.3998C12.9687 18.3998 12.8725 18.3614 12.7763 18.2844C12.5646 18.1112 12.5454 17.8033 12.7186 17.6109C13.2189 17.0144 13.7192 16.4178 14.258 15.8598C14.4312 15.6674 14.7391 15.6481 14.9315 15.8213C15.1239 15.9945 15.1432 16.3024 14.97 16.4948C14.4504 17.0528 13.9501 17.6301 13.469 18.2267C13.3536 18.3421 13.2189 18.3998 13.0842 18.3998ZM84.0132 14.8207C83.8977 14.8207 83.763 14.7822 83.6668 14.686C83.128 14.1472 82.57 13.6276 81.9927 13.1273C81.8003 12.9541 81.781 12.6462 81.9542 12.4538C82.1274 12.2614 82.4353 12.2421 82.6277 12.4153C83.205 12.9349 83.7823 13.4737 84.3211 14.0125C84.5135 14.2049 84.5135 14.5128 84.3211 14.686C84.2633 14.7629 84.1286 14.8207 84.0132 14.8207ZM17.1637 14.051C17.029 14.051 16.9135 13.9932 16.8173 13.897C16.6441 13.7046 16.6441 13.3967 16.8365 13.2235C17.3946 12.6847 17.9911 12.1652 18.5684 11.6649C18.7608 11.4917 19.0687 11.5109 19.2419 11.7226C19.4151 11.915 19.3958 12.2229 19.1841 12.3961C18.6069 12.8964 18.0296 13.3967 17.4908 13.9163C17.3946 14.0125 17.2791 14.051 17.1637 14.051ZM79.5104 10.8951C79.4142 10.8951 79.2987 10.8567 79.2217 10.7989C78.6252 10.3371 77.9902 9.87527 77.3744 9.45193C77.1627 9.29799 77.105 9.00934 77.259 8.77843C77.4129 8.56676 77.7015 8.50903 77.9325 8.66297C78.5675 9.10556 79.2025 9.56739 79.8183 10.0292C80.0299 10.1832 80.0684 10.491 79.9145 10.7027C79.799 10.8374 79.6643 10.8951 79.5104 10.8951ZM21.7434 10.2409C21.5895 10.2409 21.4548 10.1639 21.3586 10.0485C21.2046 9.83678 21.2431 9.5289 21.4548 9.37496C22.0706 8.91313 22.7248 8.47055 23.3598 8.0472C23.5908 7.89326 23.8794 7.97023 24.0333 8.1819C24.1873 8.41282 24.1103 8.70146 23.8986 8.8554C23.2636 9.27874 22.6286 9.72133 22.0321 10.1639C21.9551 10.2216 21.8397 10.2409 21.7434 10.2409ZM74.565 7.56613C74.488 7.56613 74.3918 7.54689 74.3148 7.5084C73.6606 7.12355 72.9871 6.75793 72.3136 6.39232C72.0826 6.27686 71.9864 5.96898 72.1019 5.73807C72.2173 5.50715 72.5252 5.41094 72.7561 5.52639C73.4489 5.89201 74.1224 6.25762 74.7959 6.66172C75.0268 6.79642 75.1038 7.08506 74.9691 7.31598C74.8921 7.48916 74.7381 7.56613 74.565 7.56613ZM26.7658 7.02733C26.5926 7.02733 26.4387 6.93112 26.3425 6.77718C26.2078 6.54626 26.304 6.25762 26.5349 6.12292C27.2084 5.73807 27.9011 5.39169 28.5939 5.04532C28.8248 4.92987 29.1134 5.02608 29.2481 5.25699C29.3636 5.48791 29.2674 5.77655 29.0365 5.91125C28.363 6.23838 27.6702 6.60399 27.016 6.96961C26.9198 7.00809 26.8428 7.02733 26.7658 7.02733ZM69.2347 4.87214C69.177 4.87214 69.1 4.8529 69.0423 4.83365C68.3495 4.52577 67.6376 4.23713 66.9256 3.98697C66.6754 3.89075 66.56 3.62136 66.6369 3.3712C66.7139 3.12104 67.0025 3.00559 67.2527 3.08256C67.9839 3.35196 68.7151 3.6406 69.4271 3.94848C69.6773 4.0447 69.7927 4.33334 69.6773 4.5835C69.6003 4.77592 69.4271 4.87214 69.2347 4.87214ZM32.1346 4.46804C31.9421 4.46804 31.7689 4.35258 31.692 4.16015C31.5958 3.91 31.7112 3.6406 31.9614 3.52514C32.6734 3.2365 33.4046 2.9671 34.1358 2.6977C34.386 2.60149 34.6554 2.73619 34.7516 2.98634C34.8478 3.2365 34.7131 3.5059 34.4629 3.60211C33.751 3.85227 33.0197 4.12167 32.327 4.41031C32.25 4.4488 32.1923 4.46804 32.1346 4.46804ZM63.635 2.87089C63.5966 2.87089 63.5388 2.87089 63.5003 2.85164C62.7691 2.63997 62.0186 2.44754 61.2874 2.27436C61.0373 2.21663 60.8641 1.94723 60.9218 1.69707C60.9795 1.44692 61.2489 1.27373 61.4991 1.33146C62.2496 1.50465 63.0193 1.71632 63.7505 1.92799C64.0007 2.00496 64.1546 2.27436 64.0776 2.52452C64.0391 2.71694 63.8467 2.87089 63.635 2.87089ZM37.7919 2.58224C37.5803 2.58224 37.3878 2.44754 37.3301 2.21663C37.2531 1.96647 37.4071 1.69707 37.6765 1.6201C38.427 1.42767 39.1967 1.23525 39.9471 1.0813C40.2165 1.02358 40.4667 1.19676 40.5244 1.44692C40.5822 1.69707 40.409 1.96647 40.1588 2.0242C39.4276 2.17814 38.6771 2.37057 37.9459 2.563C37.8689 2.58224 37.8304 2.58224 37.7919 2.58224ZM57.8045 1.56237C57.7852 1.56237 57.7467 1.56237 57.7275 1.56237C56.977 1.44692 56.2073 1.3507 55.4568 1.25449C55.1875 1.216 54.995 0.98509 55.0335 0.715691C55.072 0.446291 55.3029 0.253863 55.5723 0.292349C56.342 0.36932 57.1117 0.484777 57.8814 0.600234C58.1508 0.638719 58.324 0.888876 58.2855 1.15828C58.2471 1.38919 58.0546 1.56237 57.8045 1.56237ZM43.6225 1.40843C43.3916 1.40843 43.1799 1.23525 43.1415 0.98509C43.103 0.715691 43.2954 0.484777 43.5455 0.446291C44.3153 0.350077 45.085 0.253863 45.8547 0.196135C46.1241 0.176892 46.355 0.36932 46.3742 0.638719C46.3935 0.908119 46.2011 1.13903 45.9317 1.15828C45.1812 1.216 44.4115 1.31222 43.661 1.40843C43.6802 1.40843 43.6418 1.40843 43.6225 1.40843ZM51.8777 1.00433C51.108 0.98509 50.3383 0.965847 49.5686 0.98509C49.2992 0.98509 49.0875 0.773419 49.0875 0.50402C49.0875 0.23462 49.2992 0.0229492 49.5686 0.0229492C50.3383 0.0229492 51.1272 0.0229492 51.8969 0.042192C52.1663 0.042192 52.378 0.273106 52.3588 0.542505C52.3588 0.792662 52.1471 1.00433 51.8777 1.00433Z" fill="black" fill-opacity="0.16"/>
<path d="M98.4068 49.1877H97.4254C97.156 49.1877 96.9444 48.9761 96.9444 48.7067C96.9444 48.4373 97.156 48.2256 97.4254 48.2256H98.4068C98.6762 48.2256 98.8879 48.4373 98.8879 48.7067C98.8879 48.9761 98.6762 49.1877 98.4068 49.1877ZM93.7693 49.1877H91.4602C91.1908 49.1877 90.9791 48.9761 90.9791 48.7067C90.9791 48.4373 91.1908 48.2256 91.4602 48.2256H93.7693C94.0387 48.2256 94.2504 48.4373 94.2504 48.7067C94.2504 48.9761 94.0387 49.1877 93.7693 49.1877ZM87.804 49.1877H85.4949C85.2255 49.1877 85.0138 48.9761 85.0138 48.7067C85.0138 48.4373 85.2255 48.2256 85.4949 48.2256H87.804C88.0734 48.2256 88.2851 48.4373 88.2851 48.7067C88.2851 48.9761 88.0734 49.1877 87.804 49.1877ZM81.8387 49.1877H79.5296C79.2602 49.1877 79.0485 48.9761 79.0485 48.7067C79.0485 48.4373 79.2602 48.2256 79.5296 48.2256H81.8387C82.1081 48.2256 82.3198 48.4373 82.3198 48.7067C82.3198 48.9761 82.1081 49.1877 81.8387 49.1877ZM75.8735 49.1877H73.5643C73.2949 49.1877 73.0833 48.9761 73.0833 48.7067C73.0833 48.4373 73.2949 48.2256 73.5643 48.2256H75.8735C76.1429 48.2256 76.3545 48.4373 76.3545 48.7067C76.3545 48.9761 76.1429 49.1877 75.8735 49.1877ZM69.9082 49.1877H67.5991C67.3297 49.1877 67.118 48.9761 67.118 48.7067C67.118 48.4373 67.3297 48.2256 67.5991 48.2256H69.9082C70.1776 48.2256 70.3893 48.4373 70.3893 48.7067C70.3893 48.9761 70.1776 49.1877 69.9082 49.1877ZM63.9429 49.1877H61.6338C61.3644 49.1877 61.1527 48.9761 61.1527 48.7067C61.1527 48.4373 61.3644 48.2256 61.6338 48.2256H63.9429C64.2123 48.2256 64.424 48.4373 64.424 48.7067C64.424 48.9761 64.2123 49.1877 63.9429 49.1877ZM57.9777 49.1877H55.6685C55.3991 49.1877 55.1875 48.9761 55.1875 48.7067C55.1875 48.4373 55.3991 48.2256 55.6685 48.2256H57.9777C58.2471 48.2256 58.4587 48.4373 58.4587 48.7067C58.4587 48.9761 58.2471 49.1877 57.9777 49.1877ZM52.0124 49.1877H49.7032C49.4339 49.1877 49.2222 48.9761 49.2222 48.7067C49.2222 48.4373 49.4339 48.2256 49.7032 48.2256H52.0124C52.2818 48.2256 52.4935 48.4373 52.4935 48.7067C52.4935 48.9761 52.2818 49.1877 52.0124 49.1877ZM46.0471 49.1877H43.738C43.4686 49.1877 43.2569 48.9761 43.2569 48.7067C43.2569 48.4373 43.4686 48.2256 43.738 48.2256H46.0471C46.3165 48.2256 46.5282 48.4373 46.5282 48.7067C46.5282 48.9761 46.3165 49.1877 46.0471 49.1877ZM40.0818 49.1877H37.7727C37.5033 49.1877 37.2916 48.9761 37.2916 48.7067C37.2916 48.4373 37.5033 48.2256 37.7727 48.2256H40.0818C40.3512 48.2256 40.5629 48.4373 40.5629 48.7067C40.5629 48.9761 40.3512 49.1877 40.0818 49.1877ZM34.1166 49.1877H31.8074C31.538 49.1877 31.3264 48.9761 31.3264 48.7067C31.3264 48.4373 31.538 48.2256 31.8074 48.2256H34.1166C34.386 48.2256 34.5976 48.4373 34.5976 48.7067C34.5976 48.9761 34.386 49.1877 34.1166 49.1877ZM28.1513 49.1877H25.8422C25.5728 49.1877 25.3611 48.9761 25.3611 48.7067C25.3611 48.4373 25.5728 48.2256 25.8422 48.2256H28.1513C28.4207 48.2256 28.6324 48.4373 28.6324 48.7067C28.6324 48.9761 28.4207 49.1877 28.1513 49.1877ZM22.186 49.1877H19.8769C19.6075 49.1877 19.3958 48.9761 19.3958 48.7067C19.3958 48.4373 19.6075 48.2256 19.8769 48.2256H22.186C22.4554 48.2256 22.6671 48.4373 22.6671 48.7067C22.6671 48.9761 22.4554 49.1877 22.186 49.1877ZM16.2208 49.1877H13.9116C13.6422 49.1877 13.4305 48.9761 13.4305 48.7067C13.4305 48.4373 13.6422 48.2256 13.9116 48.2256H16.2208C16.4902 48.2256 16.7018 48.4373 16.7018 48.7067C16.7018 48.9761 16.4902 49.1877 16.2208 49.1877ZM10.2555 49.1877H7.94634C7.67694 49.1877 7.46527 48.9761 7.46527 48.7067C7.46527 48.4373 7.67694 48.2256 7.94634 48.2256H10.2555C10.5249 48.2256 10.7366 48.4373 10.7366 48.7067C10.7366 48.9761 10.5249 49.1877 10.2555 49.1877ZM4.29021 49.1877H1.98107C1.71167 49.1877 1.5 48.9761 1.5 48.7067C1.5 48.4373 1.71167 48.2256 1.98107 48.2256H4.29021C4.55961 48.2256 4.77128 48.4373 4.77128 48.7067C4.77128 48.9761 4.55961 49.1877 4.29021 49.1877Z" fill="black" fill-opacity="0.16"/>
<path d="M17.2407 35.7821C13.7038 37.5255 12.2696 42.5736 14.2983 47.2293C16.3269 51.885 20.4342 54.2961 25.047 54.1679C26.4427 54.1291 28.5879 53.2682 29.3208 53.0035C31.4153 50.7214 29.9024 46.3883 28.0967 42.2445C26.1445 37.7641 25.762 33.5075 21.2058 33.9664C19.6709 34.3531 18.2023 35.3082 17.2407 35.7821Z" fill="#811E68"/>
<path d="M20.7044 34.0574C16.1099 35.7176 14.2455 41.3338 16.5403 46.6015C18.8351 51.8693 24.42 54.7937 29.0145 53.1334C33.6091 51.4732 35.4734 45.857 33.1786 40.5893C30.8838 35.3215 25.2989 32.3971 20.7044 34.0574Z" fill="#C86DA8"/>
<path d="M22.5249 49.608L21.9725 48.1342C22.4139 47.7603 22.7298 47.3102 22.9202 46.7838C23.1181 46.2431 23.1079 45.6812 22.8893 45.0982C22.861 45.0226 22.8289 44.9542 22.793 44.8929C22.7647 44.8173 22.7306 44.7435 22.6906 44.6714L20.9496 45.1979L20.4276 43.8051L21.5811 43.3661L21.6856 43.3345C21.5234 43.1431 21.3728 42.9482 21.2339 42.7499C21.1065 42.548 21.0024 42.339 20.9214 42.1231C20.7312 41.6156 20.6521 41.1287 20.6841 40.6622C20.716 40.1958 20.8419 39.773 21.0616 39.394C21.289 39.0007 21.6007 38.66 21.9967 38.372C22.3886 38.0732 22.8574 37.8412 23.4029 37.6763C24.0529 37.4797 24.6583 37.4229 25.2192 37.5057C25.7917 37.585 26.3541 37.7755 26.9066 38.0773L25.9993 39.7941C25.717 39.6271 25.4454 39.5229 25.1844 39.4816C24.9194 39.4295 24.6476 39.4456 24.369 39.5299C23.9047 39.6703 23.5798 39.9067 23.3943 40.2393C23.2204 40.5684 23.2306 40.992 23.4249 41.5103C23.4977 41.7046 23.5879 41.8937 23.6956 42.0775C23.8033 42.2614 23.9225 42.4417 24.0534 42.6185L26.6301 41.8393L27.1825 43.3131L24.9366 43.9922C24.9765 44.0643 25.0106 44.1381 25.039 44.2137C25.0748 44.275 25.109 44.3488 25.1413 44.4352C25.287 44.8239 25.3486 45.1779 25.3262 45.4972C25.3153 45.8131 25.2252 46.1589 25.0559 46.5346L25.0802 46.5994L29.5895 45.2358L30.3422 47.2441L22.5249 49.608Z" fill="white"/>
<path d="M78.3129 68.0638L31.7474 58.3768C29.7668 57.9626 28.4865 56.0109 28.8996 54.025L34.2035 28.3925C34.6166 26.4066 36.5631 25.123 38.5438 25.5372L85.1092 35.2242C87.0899 35.6384 88.3701 37.5901 87.957 39.576L82.6532 65.2085C82.2533 67.1813 80.2935 68.478 78.3129 68.0638Z" fill="#185D8A"/>
<path fill-rule="evenodd" clip-rule="evenodd" d="M44.5957 54.9292L34.3775 52.8047C33.8004 52.6845 33.4346 52.1175 33.5546 51.5388C33.6745 50.9601 34.2401 50.5934 34.8172 50.7136L45.0354 52.8381C45.6125 52.9584 45.9783 53.5254 45.8583 54.1041C45.7384 54.6828 45.1728 55.0495 44.5957 54.9292Z" fill="#33BFC5"/>
<path fill-rule="evenodd" clip-rule="evenodd" d="M71.7347 56.2779L35.0333 48.6485C34.4562 48.5282 34.0904 47.9612 34.2103 47.3825C34.3303 46.8039 34.8958 46.4371 35.473 46.5574L72.1744 54.1868C72.7516 54.3071 73.1173 54.8741 72.9974 55.4528C72.8774 56.0315 72.3119 56.3982 71.7347 56.2779Z" fill="#33BFC5"/>
<rect width="8.90338" height="7.43738" rx="1" transform="matrix(0.977737 0.209851 -0.208796 0.977956 37.8308 33.3281)" fill="#33BFC5"/>
<path opacity="0.1" d="M85.5943 35.3176C87.3126 35.6783 88.4229 37.3795 88.0632 39.0892L82.5595 65.6818C82.1997 67.4046 80.5031 68.5179 78.7979 68.1572L31.2749 58.2698C29.5565 57.9223 28.4462 56.2211 28.7928 54.4982" fill="black" fill-opacity="0.16"/>
<path d="M30.028 59.8234C32.5369 61.1812 33.5968 65.0292 32.2131 68.5462C30.8294 72.0633 27.9593 73.8558 24.7083 73.7146C23.7246 73.6719 22.2048 72.9977 21.6859 72.7896C20.1879 71.0363 21.2113 67.7594 22.4429 64.629C23.7745 61.2444 24.0022 58.0149 27.2167 58.4066C28.3018 58.7149 29.3459 59.4543 30.028 59.8234Z" fill="#741E64"/>
<path d="M27.5708 58.4809C30.824 59.7856 32.1924 64.0691 30.6273 68.0484C29.0621 72.0277 25.1561 74.1959 21.9029 72.8913C18.6498 71.5867 17.2813 67.3032 18.8465 63.3239C20.4116 59.3446 24.3176 57.1763 27.5708 58.4809Z" fill="#A54588"/>
<path d="M23.1634 69.5656C22.4337 69.2004 21.9115 68.6619 21.5967 67.9502C21.2937 67.2345 21.2699 66.3962 21.5254 65.4351L20.8034 65.0737L21.2046 64.2682L21.8566 64.5362C21.8759 64.4778 21.8972 64.4253 21.9205 64.3786C21.9438 64.3319 21.9689 64.2813 21.9961 64.2268C22.0232 64.1724 22.0484 64.1218 22.0716 64.0751C22.0988 64.0206 22.1278 63.9719 22.1589 63.9291L21.5301 63.6144L21.9254 62.8205L22.6764 63.1235C22.9865 62.7343 23.3181 62.419 23.671 62.1775C24.0279 61.9283 24.3964 61.753 24.7766 61.6517C25.1645 61.5542 25.5544 61.5306 25.9464 61.5809C26.3422 61.6235 26.7341 61.7419 27.1223 61.9362C27.4716 62.111 27.7744 62.3598 28.0307 62.6826C28.287 63.0053 28.4657 63.3767 28.5668 63.7968L27.1528 64.2412C27.0789 64.0195 26.9837 63.8211 26.8672 63.6461C26.7585 63.475 26.6032 63.339 26.4014 63.2379C26.0676 63.0708 25.728 63.0516 25.3828 63.1802C25.0453 63.3127 24.7195 63.5774 24.4055 63.9744L26.8973 65.2217L26.4671 66.0856L23.8705 64.7859L23.7484 65.0311C23.7174 65.0933 23.6884 65.1517 23.6612 65.2062C23.6341 65.2607 23.6109 65.3171 23.5915 65.3755L25.7107 66.4362L25.2747 67.3118L23.272 66.3093C23.1675 66.7918 23.1677 67.2003 23.2727 67.5348C23.3854 67.8732 23.6048 68.124 23.9308 68.2872C24.156 68.3999 24.3772 68.4425 24.5944 68.4152C24.8195 68.3917 25.06 68.3176 25.316 68.193L25.8174 69.5523C25.3635 69.7627 24.9115 69.8719 24.4615 69.88C24.0152 69.8802 23.5825 69.7755 23.1634 69.5656Z" fill="white"/>
<path d="M44.5503 55.5244C41.6833 57.0269 40.4895 61.316 42.0933 65.2483C43.6971 69.1806 46.9946 71.1957 50.7182 71.0548C51.8449 71.0122 53.5824 70.2675 54.1758 70.038C55.8826 68.0889 54.6927 64.4264 53.2653 60.9265C51.7219 57.1423 51.4438 53.5368 47.7634 53.9576C46.5219 54.2961 45.3298 55.116 44.5503 55.5244Z" fill="#671D5F"/>
<path d="M47.3562 54.0378C43.6376 55.4762 42.0949 60.2508 43.9103 64.7024C45.7258 69.154 50.212 71.5967 53.9305 70.1584C57.6491 68.7201 59.1918 63.9454 57.3763 59.4938C55.5609 55.0422 51.0747 52.5995 47.3562 54.0378Z" fill="#811E68"/>
<path d="M51.8249 60.8041C51.3963 60.7147 50.9585 60.6779 50.5228 60.6346C50.2702 60.6097 50.0228 60.5673 49.7882 60.4772C49.326 60.299 49.2563 59.8175 49.6394 59.5109C49.7479 59.4242 49.873 59.3708 50.0029 59.3261C50.5041 59.1565 51.0151 59.1084 51.5402 59.1887C51.8017 59.2291 51.8673 59.1745 51.8754 58.9257C51.8834 58.6628 51.8767 58.4001 51.8783 58.1371C51.8789 57.9605 51.7839 57.8711 51.6017 57.8483C51.2684 57.8081 50.9381 57.8052 50.6047 57.8472C50.1702 57.9038 50.1696 57.9019 50.0459 57.5059C49.8724 56.9475 49.8724 56.9475 49.2817 57.1143C49.1962 57.1384 49.1101 57.1607 49.0252 57.1867C48.7515 57.272 48.719 57.3313 48.7922 57.5973C48.8246 57.7164 48.8647 57.8334 48.8996 57.9538C49.0052 58.3049 49.0016 58.2999 48.6853 58.5215C47.9209 59.058 47.5623 59.7607 47.7778 60.662C47.9679 61.4602 48.5618 61.8678 49.3583 62.0619C49.8491 62.1819 50.3546 62.1915 50.8549 62.2527C51.0499 62.2758 51.2405 62.3122 51.4194 62.3859C51.9475 62.5996 52.0402 63.1768 51.5995 63.5298C51.364 63.7186 51.0868 63.8269 50.7827 63.8747C50.3135 63.949 49.8456 63.9589 49.3759 63.873C49.1006 63.8225 49.0403 63.8736 49.034 64.1419C49.0292 64.3738 49.0327 64.6054 49.0362 64.8369C49.041 65.1483 49.093 65.2077 49.4239 65.2606C49.8452 65.3261 50.2662 65.3014 50.6871 65.2487C51.0167 65.2078 51.0303 65.2179 51.1294 65.5267C51.1743 65.6664 51.2179 65.8084 51.2629 65.9481C51.3192 66.1246 51.4403 66.2027 51.6338 66.152C51.8526 66.0943 52.0722 66.0323 52.2881 65.9653C52.4657 65.9111 52.5287 65.7931 52.4761 65.6215C52.4172 65.4297 52.3674 65.2333 52.3008 65.0436C52.231 64.8508 52.2898 64.726 52.4722 64.6184C52.8926 64.3714 53.2098 64.0292 53.4026 63.5979C53.9398 62.4039 53.1922 61.0896 51.8249 60.8041Z" fill="white"/>
<path d="M49.5108 97.4874C49.3953 97.4874 49.2799 97.4489 49.1837 97.3527C48.6064 96.8331 48.0483 96.2943 47.4903 95.7555C47.2979 95.5631 47.2979 95.2744 47.4903 95.082C47.6827 94.8896 47.9714 94.8896 48.1638 95.082C48.7026 95.6208 49.2606 96.1404 49.8379 96.6599C50.0304 96.8331 50.0496 97.141 49.8764 97.3334C49.761 97.4296 49.6455 97.4874 49.5108 97.4874ZM45.2774 93.2732C45.1427 93.2732 45.0272 93.2155 44.931 93.1193C44.4115 92.5612 43.8727 91.9647 43.3723 91.3874C43.1992 91.195 43.2184 90.8871 43.4108 90.7139C43.6033 90.5407 43.9111 90.56 44.0843 90.7524C44.5846 91.3297 45.1042 91.907 45.6238 92.465C45.7969 92.6574 45.7969 92.9653 45.6045 93.1385C45.5083 93.2347 45.3928 93.2732 45.2774 93.2732ZM41.4096 88.7511C41.2749 88.7511 41.1209 88.6934 41.0247 88.5587C40.5436 87.9429 40.0818 87.3272 39.62 86.7114C39.466 86.4997 39.5045 86.1918 39.7162 86.0379C39.9279 85.884 40.2358 85.9224 40.3897 86.1341C40.8323 86.7499 41.3134 87.3657 41.7752 87.9622C41.9484 88.1738 41.9099 88.4817 41.6982 88.6357C41.602 88.7126 41.5058 88.7511 41.4096 88.7511ZM37.9074 83.9019C37.7534 83.9019 37.5995 83.825 37.5033 83.6903C37.0799 83.036 36.6566 82.3818 36.2525 81.7275C36.1178 81.4966 36.1948 81.2079 36.4064 81.0732C36.6374 80.9385 36.926 81.0155 37.0607 81.2272C37.4648 81.8814 37.8689 82.5357 38.2922 83.1707C38.4462 83.4016 38.3692 83.6903 38.1575 83.8442C38.0998 83.8827 38.0036 83.9019 37.9074 83.9019ZM34.867 78.7834C34.6938 78.7834 34.5206 78.6871 34.4437 78.5332C34.0781 77.8597 33.7124 77.1477 33.3853 76.455C33.2699 76.2241 33.3661 75.9354 33.597 75.82C33.8279 75.7045 34.1165 75.8007 34.232 76.0316C34.5591 76.7051 34.9247 77.3979 35.2711 78.0714C35.4058 78.3023 35.3096 78.5909 35.0787 78.7256C35.021 78.7641 34.944 78.7834 34.867 78.7834ZM32.2885 73.4146C32.096 73.4146 31.9229 73.2991 31.8459 73.126C31.538 72.414 31.2494 71.6828 30.98 70.9708C30.8837 70.7206 31.0184 70.4512 31.2494 70.355C31.4995 70.2588 31.7689 70.3935 31.8651 70.6244C32.1345 71.3364 32.4232 72.0484 32.7118 72.7604C32.808 73.0105 32.6926 73.2799 32.4617 73.3954C32.4232 73.3954 32.3462 73.4146 32.2885 73.4146ZM30.2295 67.8149C30.0178 67.8149 29.8446 67.6802 29.7677 67.4878C29.5367 66.7566 29.3058 66.0061 29.1134 65.2557C29.0364 65.0055 29.1904 64.7361 29.4598 64.6591C29.7099 64.5822 29.9793 64.7361 30.0563 65.0055C30.2487 65.7367 30.4796 66.4872 30.7106 67.1992C30.7875 67.4493 30.6528 67.7187 30.4027 67.7957C30.3257 67.7957 30.2872 67.8149 30.2295 67.8149ZM28.7093 62.0421C28.4784 62.0421 28.286 61.8882 28.2475 61.6572C28.0935 60.9068 27.9396 60.1371 27.8049 59.3674C27.7664 59.098 27.9396 58.8478 28.1897 58.8093C28.4591 58.7708 28.7093 58.944 28.7478 59.1942C28.8825 59.9446 29.0172 60.6951 29.1711 61.4456C29.2289 61.715 29.0557 61.9651 28.8055 62.0229C28.7863 62.0421 28.7478 62.0421 28.7093 62.0421ZM27.7664 56.1538C27.5163 56.1538 27.3238 55.9806 27.2853 55.7305C27.2084 54.9607 27.1314 54.191 27.0737 53.4213C27.0544 53.1519 27.2469 52.921 27.5162 52.9018C27.7856 52.8825 28.0166 53.0749 28.0358 53.3443C28.0935 54.0948 28.1513 54.8645 28.2475 55.6342C28.286 55.9036 28.0935 56.1346 27.8241 56.173C27.8049 56.1538 27.7856 56.1538 27.7664 56.1538ZM27.42 50.1885C27.1506 50.1885 26.939 49.9769 26.939 49.7075C26.939 49.4573 26.939 49.2071 26.939 48.957C26.939 48.4374 26.939 47.8986 26.9582 47.3791C26.9582 47.1097 27.1891 46.898 27.4585 46.9172C27.7279 46.9172 27.9396 47.1482 27.9204 47.4176C27.9011 47.9371 27.9011 48.4567 27.9011 48.9762C27.9011 49.2264 27.9011 49.4573 27.9011 49.7075C27.9011 49.9769 27.6894 50.1885 27.42 50.1885ZM27.6317 44.2425C27.6125 44.2425 27.6125 44.2425 27.5932 44.2425C27.3238 44.2233 27.1314 43.9923 27.1506 43.7229C27.2084 42.9532 27.3046 42.1643 27.3816 41.4138C27.42 41.1444 27.651 40.9712 27.9204 40.9905C28.1897 41.0289 28.3629 41.2599 28.3437 41.5293C28.2475 42.2797 28.1705 43.0494 28.1128 43.7999C28.0935 44.0501 27.8819 44.2425 27.6317 44.2425ZM28.4207 38.335C28.4014 38.335 28.3629 38.335 28.3245 38.335C28.0551 38.2965 27.8819 38.0271 27.9396 37.7769C28.0743 37.0264 28.2282 36.2567 28.4014 35.5063C28.4591 35.2561 28.7093 35.0829 28.9787 35.1406C29.2289 35.1984 29.402 35.4485 29.3443 35.7179C29.1711 36.4684 29.0172 37.2189 28.8825 37.9693C28.844 38.1618 28.6516 38.335 28.4207 38.335ZM29.7869 32.5236C29.7484 32.5236 29.6907 32.5236 29.6522 32.5044C29.402 32.4274 29.2481 32.158 29.3251 31.9078C29.5367 31.1766 29.7677 30.4262 30.0178 29.6949C30.0948 29.4448 30.3642 29.3101 30.6336 29.387C30.8837 29.464 31.0184 29.7334 30.9415 30.0028C30.7106 30.734 30.4796 31.4653 30.268 32.1965C30.191 32.3889 29.9986 32.5236 29.7869 32.5236ZM31.7112 26.8855C31.6535 26.8855 31.5957 26.8662 31.538 26.847C31.2878 26.7508 31.1724 26.4621 31.2686 26.2312C31.5572 25.5192 31.8459 24.788 32.173 24.0953C32.2885 23.8451 32.5579 23.7489 32.808 23.8451C33.0582 23.9606 33.1544 24.23 33.0582 24.4801C32.7503 25.1729 32.4617 25.8848 32.173 26.5968C32.0768 26.77 31.9036 26.8855 31.7112 26.8855ZM34.155 21.459C34.0781 21.459 34.0011 21.4398 33.9434 21.4013C33.7124 21.2858 33.6162 20.9972 33.7317 20.747C34.0781 20.0543 34.4437 19.3615 34.8285 18.688C34.9632 18.4571 35.2519 18.3801 35.4828 18.4956C35.7137 18.6303 35.7907 18.9189 35.6752 19.1499C35.3096 19.8234 34.944 20.4969 34.5976 21.1704C34.5014 21.3628 34.3282 21.459 34.155 21.459ZM37.0992 16.2827C37.003 16.2827 36.926 16.2634 36.849 16.2057C36.6181 16.071 36.5604 15.7631 36.6951 15.5515C37.0992 14.8972 37.5418 14.2429 37.9651 13.6079C38.119 13.3963 38.4077 13.3385 38.6386 13.4732C38.8503 13.6272 38.908 13.9158 38.7733 14.1467C38.35 14.7817 37.9266 15.4168 37.5225 16.071C37.4263 16.1865 37.2724 16.2827 37.0992 16.2827ZM40.5052 11.3758C40.4089 11.3758 40.2935 11.3373 40.2165 11.2795C40.0048 11.1256 39.9664 10.8177 40.1203 10.6061C40.5821 9.99028 41.0632 9.37451 41.5635 8.77798C41.7367 8.56631 42.0253 8.54707 42.237 8.70101C42.4487 8.8742 42.4679 9.16284 42.314 9.37451C41.8329 9.97104 41.3518 10.5676 40.89 11.1833C40.7938 11.318 40.6591 11.3758 40.5052 11.3758ZM44.3152 6.79597C44.1998 6.79597 44.0843 6.75749 43.9881 6.68052C43.7957 6.50733 43.7764 6.19945 43.9496 6.00702C44.4692 5.42973 45.008 4.87169 45.5275 4.31365C45.72 4.12122 46.0086 4.12122 46.201 4.29441C46.3935 4.48684 46.3935 4.77548 46.2203 4.96791C45.7007 5.52595 45.1619 6.08399 44.6616 6.64203C44.5846 6.73824 44.4499 6.79597 44.3152 6.79597ZM48.4909 2.52407C48.3562 2.52407 48.2408 2.46634 48.1446 2.37013C47.9714 2.1777 47.9714 1.86981 48.1638 1.69663C48.7218 1.17707 49.2991 0.638272 49.8764 0.118716C50.0688 -0.0544697 50.3767 -0.0352269 50.5499 0.157201C50.7231 0.349629 50.7039 0.657514 50.5114 0.8307C49.9341 1.33101 49.3761 1.85057 48.8181 2.37013C48.7218 2.48558 48.6064 2.52407 48.4909 2.52407Z" fill="black" fill-opacity="0.16"/>
<path d="M50.6846 97.4296C50.5499 97.4296 50.4345 97.3719 50.3383 97.2757C50.1651 97.0833 50.1651 96.7754 50.3575 96.6022C50.9156 96.0826 51.4736 95.5631 52.0316 95.0243C52.2241 94.8319 52.5319 94.8511 52.7051 95.0243C52.8976 95.2167 52.8783 95.5246 52.7051 95.6978C52.1471 96.2366 51.5891 96.7754 51.0118 97.2949C50.9156 97.3912 50.8001 97.4296 50.6846 97.4296ZM54.9181 93.2155C54.8026 93.2155 54.6871 93.177 54.5909 93.0808C54.3985 92.9076 54.3793 92.5997 54.5717 92.4073C55.0912 91.8492 55.6108 91.2719 56.1111 90.6946C56.2843 90.5022 56.5922 90.4637 56.7846 90.6562C56.977 90.8294 57.0155 91.1372 56.8231 91.3297C56.3228 91.9069 55.8032 92.4842 55.2644 93.0615C55.1682 93.1577 55.0528 93.2155 54.9181 93.2155ZM58.7859 88.6742C58.6897 88.6742 58.5742 88.6357 58.4972 88.5779C58.2856 88.4048 58.2471 88.1161 58.4203 87.9044C58.8821 87.3079 59.3632 86.6921 59.8057 86.0764C59.9597 85.8647 60.2676 85.807 60.4792 85.9802C60.6909 86.1341 60.7486 86.442 60.5755 86.6537C60.1136 87.2694 59.6518 87.9044 59.1707 88.501C59.0745 88.6164 58.9206 88.6742 58.7859 88.6742ZM62.2688 83.8442C62.1726 83.8442 62.0956 83.825 61.9994 83.7672C61.7685 83.6133 61.7108 83.3246 61.8647 83.0937C62.2881 82.4587 62.6922 81.8045 63.0963 81.1502C63.231 80.9193 63.5388 80.8423 63.7505 80.9963C63.9814 81.131 64.0584 81.4389 63.9045 81.6505C63.5004 82.3048 63.0963 82.9783 62.6729 83.6133C62.5767 83.7672 62.4228 83.8442 62.2688 83.8442ZM65.3092 78.7064C65.2322 78.7064 65.1552 78.6871 65.0783 78.6486C64.8474 78.5139 64.7511 78.2253 64.8858 77.9944C65.2515 77.3209 65.5978 76.6281 65.925 75.9546C66.0404 75.7237 66.3291 75.6083 66.56 75.743C66.7909 75.8584 66.9063 76.1471 66.7716 76.378C66.4253 77.0707 66.0789 77.7635 65.7133 78.4562C65.6363 78.6102 65.4824 78.7064 65.3092 78.7064ZM67.8685 73.3184C67.8108 73.3184 67.7338 73.2991 67.6761 73.2799C67.4259 73.1837 67.3104 72.895 67.4259 72.6449C67.7145 71.9329 68.0032 71.2209 68.2726 70.5089C68.3688 70.2588 68.6382 70.1433 68.8883 70.2203C69.1385 70.3165 69.254 70.5859 69.177 70.8361C68.9076 71.548 68.6189 72.2793 68.3111 72.9913C68.2341 73.2222 68.0609 73.3184 67.8685 73.3184ZM69.9275 67.7187C69.889 67.7187 69.8312 67.7187 69.7928 67.6995C69.5426 67.6225 69.3887 67.3531 69.4849 67.103C69.7158 66.3717 69.9275 65.6405 70.1199 64.9093C70.1969 64.6591 70.447 64.5052 70.7164 64.5629C70.9666 64.6399 71.1205 64.89 71.0628 65.1594C70.8511 65.9099 70.6394 66.6604 70.4085 67.3916C70.3316 67.6033 70.1391 67.7187 69.9275 67.7187ZM71.4284 61.9459C71.3899 61.9459 71.3707 61.9459 71.3322 61.9266C71.0628 61.8689 70.9088 61.6188 70.9666 61.3494C71.1205 60.5989 71.2745 59.8484 71.3899 59.0979C71.4284 58.8285 71.6786 58.6554 71.948 58.7131C72.2174 58.7516 72.3905 59.0017 72.3328 59.2711C72.1981 60.0408 72.0634 60.8106 71.8902 61.561C71.8517 61.7919 71.6593 61.9459 71.4284 61.9459ZM72.3713 56.0576C72.3521 56.0576 72.3328 56.0576 72.3136 56.0576C72.0442 56.0383 71.8517 55.7882 71.8902 55.5188C71.9672 54.7683 72.0442 53.9986 72.1019 53.2289C72.1211 52.9595 72.3521 52.7671 72.6215 52.7863C72.8909 52.8055 73.0833 53.0365 73.064 53.3059C73.0063 54.0756 72.9486 54.8645 72.8524 55.615C72.8139 55.8844 72.6215 56.0576 72.3713 56.0576ZM72.7177 50.1116C72.4483 50.1116 72.2366 49.8999 72.2366 49.6305C72.2366 49.4188 72.2366 49.2071 72.2366 48.9955C72.2366 48.4567 72.2366 47.8986 72.2174 47.3406C72.2174 47.0712 72.429 46.8595 72.6792 46.8403C72.9486 46.8403 73.1603 47.0519 73.1795 47.3021C73.1987 47.8601 73.1987 48.4182 73.1987 48.9762C73.1987 49.1879 73.1987 49.4188 73.1987 49.6305C73.1987 49.8999 72.9871 50.1116 72.7177 50.1116ZM72.4868 44.1463C72.2366 44.1463 72.0249 43.9538 72.0057 43.7037C71.948 42.9532 71.8517 42.1835 71.7555 41.433C71.717 41.1636 71.9095 40.9327 72.1789 40.8942C72.4483 40.8558 72.6792 41.0482 72.7177 41.3176C72.8139 42.0873 72.8909 42.857 72.9678 43.6267C72.9871 43.8961 72.7946 44.127 72.5252 44.1463C72.5252 44.1463 72.506 44.1463 72.4868 44.1463ZM71.6786 38.2387C71.4476 38.2387 71.2552 38.0848 71.1975 37.8539C71.0628 37.1034 70.9088 36.3529 70.7357 35.6025C70.6779 35.3523 70.8319 35.0829 71.1013 35.0252C71.3514 34.9675 71.6208 35.1214 71.6786 35.3908C71.8517 36.1413 72.0057 36.911 72.1596 37.6614C72.2174 37.9308 72.0442 38.181 71.7748 38.2195C71.7363 38.2387 71.717 38.2387 71.6786 38.2387ZM70.2931 32.4466C70.0814 32.4466 69.889 32.3119 69.8312 32.1003C69.6196 31.369 69.3887 30.6378 69.1385 29.9258C69.0615 29.6757 69.1962 29.4063 69.4464 29.3101C69.6965 29.2331 69.9659 29.3678 70.0622 29.618C70.3123 30.3492 70.5432 31.0996 70.7549 31.8309C70.8319 32.081 70.6779 32.3504 70.4278 32.4274C70.3893 32.4466 70.3316 32.4466 70.2931 32.4466ZM68.3496 26.8277C68.1571 26.8277 67.9839 26.7123 67.907 26.5199C67.6183 25.8079 67.3297 25.1151 67.0218 24.4031C66.9063 24.153 67.0218 23.8836 67.272 23.7681C67.5221 23.6527 67.7915 23.7681 67.907 24.0183C68.2148 24.7303 68.5227 25.4423 68.8114 26.1542C68.9076 26.4044 68.7921 26.6738 68.542 26.7893C68.465 26.8085 68.4073 26.8277 68.3496 26.8277ZM65.8672 21.4013C65.694 21.4013 65.5209 21.3051 65.4439 21.1319C65.0975 20.4584 64.7319 19.7849 64.3663 19.1114C64.2316 18.8805 64.3278 18.5918 64.5587 18.4571C64.7896 18.3224 65.0783 18.4186 65.213 18.6495C65.5978 19.323 65.9634 20.0158 66.3098 20.6893C66.4253 20.9202 66.3483 21.2088 66.0981 21.3435C66.0212 21.382 65.9442 21.4013 65.8672 21.4013ZM62.8846 16.225C62.7306 16.225 62.5767 16.148 62.4805 15.994C62.0764 15.359 61.653 14.7048 61.2105 14.089C61.0565 13.8773 61.1143 13.5694 61.3259 13.4155C61.5376 13.2616 61.8455 13.3193 61.9994 13.531C62.442 14.166 62.8653 14.8202 63.2887 15.4745C63.4234 15.7054 63.3657 15.994 63.1347 16.148C63.077 16.2057 62.9808 16.225 62.8846 16.225ZM59.4786 11.3373C59.3247 11.3373 59.19 11.2795 59.0938 11.1448C58.6319 10.5483 58.1509 9.93255 57.6698 9.35527C57.4966 9.1436 57.5351 8.85495 57.7468 8.68177C57.9584 8.50858 58.2471 8.54707 58.4203 8.75874C58.9013 9.35527 59.4016 9.97104 59.8635 10.5868C60.0174 10.7985 59.9789 11.1064 59.7673 11.2603C59.6903 11.318 59.5748 11.3373 59.4786 11.3373ZM55.6493 6.75749C55.5146 6.75749 55.3799 6.69976 55.2837 6.60354C54.7834 6.0455 54.2446 5.46822 53.725 4.92942C53.5326 4.73699 53.5518 4.42911 53.7443 4.25592C53.9367 4.06349 54.2446 4.08274 54.4178 4.27516C54.9565 4.83321 55.4953 5.41049 55.9957 5.96853C56.1688 6.16096 56.1496 6.46884 55.9572 6.64203C55.8802 6.719 55.7647 6.75749 55.6493 6.75749ZM51.4736 2.50482C51.3581 2.50482 51.2427 2.46634 51.1465 2.37013C50.5884 1.85057 50.0304 1.33101 49.4531 0.8307C49.2607 0.657514 49.2414 0.349629 49.4146 0.157201C49.5878 -0.0352269 49.8957 -0.0544697 50.0881 0.118716C50.6654 0.638272 51.2427 1.15783 51.8007 1.67738C51.9932 1.85057 52.0124 2.15845 51.82 2.35088C51.743 2.4471 51.6083 2.50482 51.4736 2.50482Z" fill="black" fill-opacity="0.16"/>
<path d="M50.1844 97.3913C49.915 97.3913 49.7034 97.1796 49.7034 96.9102V95.9288C49.7034 95.6594 49.915 95.4478 50.1844 95.4478C50.4539 95.4478 50.6655 95.6594 50.6655 95.9288V96.9102C50.6655 97.1796 50.4539 97.3913 50.1844 97.3913ZM50.1844 92.7538C49.915 92.7538 49.7034 92.5421 49.7034 92.2727V89.9636C49.7034 89.6942 49.915 89.4825 50.1844 89.4825C50.4539 89.4825 50.6655 89.6942 50.6655 89.9636V92.2727C50.6655 92.5421 50.4539 92.7538 50.1844 92.7538ZM50.1844 86.7885C49.915 86.7885 49.7034 86.5768 49.7034 86.3074V83.9983C49.7034 83.7289 49.915 83.5172 50.1844 83.5172C50.4539 83.5172 50.6655 83.7289 50.6655 83.9983V86.3074C50.6655 86.5768 50.4539 86.7885 50.1844 86.7885ZM50.1844 80.8232C49.915 80.8232 49.7034 80.6116 49.7034 80.3422V78.033C49.7034 77.7636 49.915 77.552 50.1844 77.552C50.4539 77.552 50.6655 77.7636 50.6655 78.033V80.3422C50.6655 80.6116 50.4539 80.8232 50.1844 80.8232ZM50.1844 74.858C49.915 74.858 49.7034 74.6463 49.7034 74.3769V72.0678C49.7034 71.7984 49.915 71.5867 50.1844 71.5867C50.4539 71.5867 50.6655 71.7984 50.6655 72.0678V74.3769C50.6655 74.6463 50.4539 74.858 50.1844 74.858ZM50.1844 68.8927C49.915 68.8927 49.7034 68.681 49.7034 68.4116V66.1025C49.7034 65.8331 49.915 65.6214 50.1844 65.6214C50.4539 65.6214 50.6655 65.8331 50.6655 66.1025V68.4116C50.6655 68.681 50.4539 68.8927 50.1844 68.8927ZM50.1844 62.9274C49.915 62.9274 49.7034 62.7157 49.7034 62.4463V60.1372C49.7034 59.8678 49.915 59.6561 50.1844 59.6561C50.4539 59.6561 50.6655 59.8678 50.6655 60.1372V62.4463C50.6655 62.7157 50.4539 62.9274 50.1844 62.9274ZM50.1844 56.9621C49.915 56.9621 49.7034 56.7505 49.7034 56.4811V54.1719C49.7034 53.9025 49.915 53.6909 50.1844 53.6909C50.4539 53.6909 50.6655 53.9025 50.6655 54.1719V56.4811C50.6655 56.7505 50.4539 56.9621 50.1844 56.9621ZM50.1844 50.9969C49.915 50.9969 49.7034 50.7852 49.7034 50.5158V48.2067C49.7034 47.9373 49.915 47.7256 50.1844 47.7256C50.4539 47.7256 50.6655 47.9373 50.6655 48.2067V50.5158C50.6655 50.7852 50.4539 50.9969 50.1844 50.9969ZM50.1844 45.0316C49.915 45.0316 49.7034 44.8199 49.7034 44.5505V42.2414C49.7034 41.972 49.915 41.7603 50.1844 41.7603C50.4539 41.7603 50.6655 41.972 50.6655 42.2414V44.5505C50.6655 44.8199 50.4539 45.0316 50.1844 45.0316ZM50.1844 39.0663C49.915 39.0663 49.7034 38.8547 49.7034 38.5853V36.2761C49.7034 36.0067 49.915 35.7951 50.1844 35.7951C50.4539 35.7951 50.6655 36.0067 50.6655 36.2761V38.5853C50.6655 38.8547 50.4539 39.0663 50.1844 39.0663ZM50.1844 33.1011C49.915 33.1011 49.7034 32.8894 49.7034 32.62V30.3109C49.7034 30.0415 49.915 29.8298 50.1844 29.8298C50.4539 29.8298 50.6655 30.0415 50.6655 30.3109V32.62C50.6655 32.8894 50.4539 33.1011 50.1844 33.1011ZM50.1844 27.1358C49.915 27.1358 49.7034 26.9241 49.7034 26.6547V24.3456C49.7034 24.0762 49.915 23.8645 50.1844 23.8645C50.4539 23.8645 50.6655 24.0762 50.6655 24.3456V26.6547C50.6655 26.9241 50.4539 27.1358 50.1844 27.1358ZM50.1844 21.1705C49.915 21.1705 49.7034 20.9588 49.7034 20.6894V18.3803C49.7034 18.1109 49.915 17.8992 50.1844 17.8992C50.4539 17.8992 50.6655 18.1109 50.6655 18.3803V20.6894C50.6655 20.9588 50.4539 21.1705 50.1844 21.1705ZM50.1844 15.2052C49.915 15.2052 49.7034 14.9936 49.7034 14.7242V12.415C49.7034 12.1456 49.915 11.934 50.1844 11.934C50.4539 11.934 50.6655 12.1456 50.6655 12.415V14.7242C50.6655 14.9936 50.4539 15.2052 50.1844 15.2052ZM50.1844 9.23997C49.915 9.23997 49.7034 9.0283 49.7034 8.7589V6.44976C49.7034 6.18036 49.915 5.96869 50.1844 5.96869C50.4539 5.96869 50.6655 6.18036 50.6655 6.44976V8.7589C50.6655 9.0283 50.4539 9.23997 50.1844 9.23997ZM50.1844 3.2747C49.915 3.2747 49.7034 3.06303 49.7034 2.79363V0.484488C49.7034 0.215089 49.915 0.00341797 50.1844 0.00341797C50.4539 0.00341797 50.6655 0.215089 50.6655 0.484488V2.79363C50.6655 3.06303 50.4539 3.2747 50.1844 3.2747Z" fill="black" fill-opacity="0.16"/>
<path d="M93.3075 30.7727C94.9229 30.7727 96.2324 29.4631 96.2324 27.8478C96.2324 26.2324 94.9229 24.9229 93.3075 24.9229C91.6921 24.9229 90.3826 26.2324 90.3826 27.8478C90.3826 29.4631 91.6921 30.7727 93.3075 30.7727Z" fill="#811E68"/>
<path d="M49.838 100C51.4534 100 52.7629 98.6907 52.7629 97.0753C52.7629 95.4599 51.4534 94.1504 49.838 94.1504C48.2226 94.1504 46.9131 95.4599 46.9131 97.0753C46.9131 98.6907 48.2226 100 49.838 100Z" fill="#811E68"/>
<path d="M15.7396 82.5936C15.6241 82.5936 15.5087 82.5551 15.4124 82.4589C15.22 82.2857 15.22 81.9778 15.3932 81.7854C15.932 81.2273 16.4708 80.6693 17.0288 80.1305C17.2213 79.9381 17.5292 79.9573 17.7023 80.1497C17.8948 80.3422 17.8755 80.6501 17.6831 80.8232C17.1443 81.3428 16.5863 81.9008 16.0667 82.4396C15.9897 82.5551 15.855 82.5936 15.7396 82.5936ZM82.4352 80.3999C82.3197 80.3999 82.2043 80.3614 82.1081 80.2652C81.55 79.7456 80.992 79.2261 80.4147 78.7258C80.2223 78.5526 80.1838 78.2447 80.357 78.0523C80.5301 77.8598 80.838 77.8214 81.0305 77.9945C81.6077 78.4949 82.2043 79.0144 82.7623 79.5532C82.9547 79.7456 82.9547 80.0343 82.7816 80.2267C82.6853 80.3422 82.5506 80.3999 82.4352 80.3999ZM20.0885 78.5333C19.9538 78.5333 19.8191 78.4756 19.7228 78.3602C19.5497 78.1485 19.5881 77.8598 19.7806 77.6867C20.3771 77.1863 20.9929 76.7053 21.6279 76.2627C21.8395 76.1087 22.1474 76.1472 22.3014 76.3589C22.4553 76.5706 22.4168 76.8785 22.2052 77.0324C21.5894 77.475 20.9929 77.9561 20.3963 78.4371C20.3194 78.4949 20.2039 78.5333 20.0885 78.5333ZM77.8554 76.5898C77.7592 76.5898 77.663 76.5513 77.5668 76.4936C76.951 76.051 76.316 75.6084 75.681 75.2043C75.45 75.0504 75.3923 74.7618 75.5463 74.5308C75.7002 74.2999 75.9888 74.2422 76.2198 74.3961C76.874 74.8195 77.509 75.2621 78.144 75.7239C78.3557 75.8778 78.4134 76.1857 78.2595 76.3974C78.144 76.5129 78.0093 76.5898 77.8554 76.5898ZM24.9376 75.0696C24.7837 75.0696 24.6105 74.9927 24.5335 74.8387C24.3988 74.6078 24.4566 74.3192 24.6875 74.1845C25.3417 73.7804 26.0152 73.3763 26.708 73.0107C26.9389 72.876 27.2275 72.9722 27.3622 73.2031C27.4969 73.434 27.4007 73.7226 27.1698 73.8573C26.5156 74.223 25.8421 74.6078 25.207 75.0119C25.1108 75.0504 25.0339 75.0696 24.9376 75.0696ZM72.8138 73.4148C72.7368 73.4148 72.6598 73.3955 72.5829 73.357C71.9094 72.9914 71.2359 72.6643 70.5431 72.3372C70.293 72.2217 70.1968 71.9331 70.3122 71.7021C70.4277 71.4712 70.7163 71.3558 70.9472 71.4712C71.6592 71.7984 72.3519 72.1447 73.0447 72.5103C73.2756 72.645 73.3718 72.9337 73.2371 73.1646C73.1409 73.3185 72.987 73.4148 72.8138 73.4148ZM30.1909 72.2602C29.9985 72.2602 29.8253 72.164 29.7483 71.9715C29.6329 71.7214 29.7483 71.452 29.9793 71.3365C30.6912 71.0094 31.4032 70.7208 32.1345 70.4321C32.3846 70.3359 32.654 70.4514 32.7502 70.7015C32.8464 70.9517 32.731 71.2211 32.4808 71.3173C31.7688 71.5867 31.0761 71.8946 30.3834 72.2025C30.3256 72.2409 30.2679 72.2602 30.1909 72.2602ZM67.3681 70.9902C67.3103 70.9902 67.2526 70.9902 67.1949 70.9517C66.4829 70.6823 65.7517 70.4514 65.0397 70.2205C64.7895 70.1435 64.6356 69.8741 64.7318 69.6239C64.8088 69.3738 65.0782 69.2198 65.3283 69.316C66.0788 69.547 66.81 69.7971 67.5412 70.0665C67.7914 70.1627 67.9261 70.4321 67.8299 70.6823C67.7529 70.8555 67.5605 70.9902 67.3681 70.9902ZM35.7713 70.1627C35.5597 70.1627 35.3672 70.028 35.3095 69.8164C35.2325 69.5662 35.3673 69.2968 35.6366 69.2198C36.3679 68.9889 37.1376 68.7965 37.8881 68.6041C38.1382 68.5463 38.4076 68.7003 38.4653 68.9504C38.5231 69.2006 38.3691 69.47 38.119 69.5277C37.3877 69.7201 36.6373 69.9126 35.9253 70.1435C35.8676 70.1627 35.8291 70.1627 35.7713 70.1627ZM61.6529 69.2968C61.6145 69.2968 61.576 69.2968 61.5567 69.2776C60.8255 69.1044 60.075 68.9697 59.3246 68.835C59.0552 68.7965 58.882 68.5463 58.9397 68.2769C58.9782 68.0075 59.2283 67.8343 59.4977 67.8921C60.2675 68.0268 61.0372 68.1807 61.7876 68.3539C62.0378 68.4116 62.211 68.6618 62.1533 68.9312C62.0763 69.1621 61.8646 69.2968 61.6529 69.2968ZM41.5827 68.7965C41.3518 68.7965 41.1401 68.6233 41.1016 68.3924C41.0631 68.123 41.2363 67.8728 41.4865 67.8343C42.2369 67.6996 43.0259 67.5842 43.7956 67.488C44.065 67.4495 44.2959 67.6419 44.3344 67.9113C44.3729 68.1807 44.1805 68.4116 43.9111 68.4501C43.1606 68.5463 42.3909 68.6618 41.6404 68.7772C41.6212 68.7965 41.6019 68.7965 41.5827 68.7965ZM55.7646 68.3539C55.7454 68.3539 55.7261 68.3539 55.7069 68.3539C54.9564 68.2769 54.1867 68.2192 53.417 68.1807C53.1476 68.1615 52.9552 67.9306 52.9552 67.6804C52.9744 67.411 53.2053 67.2186 53.4555 67.2186C54.2252 67.2571 55.0142 67.334 55.7839 67.411C56.0533 67.4302 56.2457 67.6804 56.2072 67.9306C56.2265 68.1807 56.0148 68.3539 55.7646 68.3539ZM47.5095 68.1615C47.2593 68.1615 47.0476 67.969 47.0284 67.6996C47.0092 67.4302 47.2208 67.1993 47.4902 67.1993C48.2599 67.1608 49.0489 67.1416 49.8186 67.1416C50.088 67.1416 50.2997 67.3533 50.2997 67.6227C50.2997 67.8921 50.088 68.1037 49.8186 68.1037C49.0489 68.1037 48.2792 68.123 47.5287 68.1615C47.5095 68.1422 47.5095 68.1615 47.5095 68.1615Z" fill="black" fill-opacity="0.16"/>
<path d="M50.723 30.5419C50.4536 30.5419 50.2419 30.3302 50.2419 30.0608C50.2419 29.7914 50.4536 29.5797 50.723 29.5797C51.4927 29.5797 52.2624 29.5605 53.0129 29.522C53.2823 29.5028 53.494 29.7144 53.5132 29.9838C53.5325 30.2532 53.3208 30.4649 53.0514 30.4842C52.2817 30.5226 51.512 30.5419 50.723 30.5419ZM47.0669 30.4649H47.0476C46.2779 30.4264 45.489 30.3687 44.7192 30.2917C44.4498 30.2725 44.2574 30.0223 44.2959 29.7722C44.3344 29.522 44.5653 29.3103 44.8155 29.3488C45.5659 29.4258 46.3356 29.4835 47.1054 29.522C47.3748 29.5413 47.5672 29.7722 47.5672 30.0223C47.5287 30.2532 47.317 30.4649 47.0669 30.4649ZM56.669 30.1955C56.4189 30.1955 56.2264 30.0223 56.188 29.7722C56.1495 29.5028 56.3419 29.2719 56.6113 29.2334C57.381 29.1564 58.1315 29.0409 58.882 28.9255C59.1514 28.887 59.3823 29.0602 59.44 29.3296C59.4785 29.599 59.3053 29.8299 59.0359 29.8876C58.2854 30.0031 57.4965 30.0993 56.7268 30.1955C56.7075 30.1955 56.6883 30.1955 56.669 30.1955ZM41.1401 29.7914C41.1208 29.7914 41.0824 29.7914 41.0631 29.7914C40.2934 29.6567 39.5237 29.5028 38.7732 29.3488C38.5231 29.2911 38.3499 29.0409 38.4076 28.7715C38.4653 28.5214 38.7155 28.3482 38.9849 28.4059C39.7161 28.5599 40.4666 28.7138 41.2363 28.8485C41.5057 28.887 41.6789 29.1372 41.6212 29.4066C41.5827 29.6375 41.371 29.7914 41.1401 29.7914ZM62.5573 29.2141C62.3457 29.2141 62.134 29.0602 62.0955 28.8485C62.0378 28.5984 62.1917 28.329 62.4611 28.2712C63.2116 28.098 63.9428 27.9056 64.674 27.6939C64.9242 27.617 65.1936 27.7709 65.2706 28.0211C65.3475 28.2712 65.1936 28.5406 64.9434 28.6176C64.2122 28.8293 63.4425 29.0217 62.692 29.2141C62.6151 29.1949 62.5766 29.2141 62.5573 29.2141ZM35.348 28.4252C35.3095 28.4252 35.2518 28.4252 35.2133 28.4059C34.4628 28.175 33.7316 27.9249 33.0004 27.6555C32.7502 27.5592 32.6155 27.2898 32.7117 27.0397C32.8079 26.7895 33.0773 26.6548 33.3275 26.7511C34.0395 27.0012 34.7707 27.2514 35.5019 27.4823C35.7521 27.5592 35.906 27.8286 35.8291 28.0788C35.7329 28.2905 35.5404 28.4252 35.348 28.4252ZM68.2532 27.463C68.0608 27.463 67.8684 27.3476 67.8106 27.1551C67.7144 26.905 67.8299 26.6356 68.08 26.5394C68.792 26.27 69.504 25.9621 70.1775 25.6542C70.4277 25.5388 70.697 25.6542 70.8125 25.8851C70.928 26.1353 70.8125 26.4047 70.5816 26.5201C69.8696 26.8473 69.1576 27.1359 68.4264 27.4245C68.3687 27.4438 68.3109 27.463 68.2532 27.463ZM29.7676 26.2892C29.6906 26.2892 29.6329 26.27 29.5559 26.2507C28.8439 25.9236 28.1512 25.5772 27.4584 25.2116C27.2275 25.0962 27.1313 24.7883 27.266 24.5574C27.3815 24.3265 27.6894 24.2302 27.9203 24.3649C28.5938 24.7113 29.2673 25.0577 29.96 25.3848C30.2102 25.5003 30.3064 25.7889 30.1909 26.0198C30.1332 26.193 29.96 26.2892 29.7676 26.2892ZM73.622 24.9037C73.4488 24.9037 73.2948 24.8075 73.1986 24.6536C73.0639 24.4227 73.1409 24.134 73.3718 23.9993C74.0261 23.6337 74.6803 23.2296 75.3153 22.8255C75.5462 22.6908 75.8349 22.7485 75.9888 22.9602C76.1235 23.1911 76.0658 23.4798 75.8541 23.6337C75.1999 24.0571 74.5264 24.4612 73.8529 24.846C73.7951 24.8845 73.7182 24.9037 73.622 24.9037ZM24.5528 23.422C24.4566 23.422 24.3796 23.4028 24.2834 23.3451C23.6291 22.9217 22.9941 22.4791 22.3591 22.0173C22.1474 21.8634 22.0897 21.5555 22.2436 21.3438C22.3976 21.1321 22.7055 21.0744 22.9171 21.2284C23.5329 21.6709 24.1679 22.1135 24.8029 22.5176C25.0338 22.6523 25.0916 22.9602 24.9376 23.1911C24.8607 23.3451 24.7067 23.422 24.5528 23.422ZM78.5866 21.594C78.4519 21.594 78.298 21.5362 78.2017 21.4015C78.0286 21.1899 78.067 20.882 78.2787 20.7281C78.8752 20.2662 79.4718 19.7852 80.0298 19.2656C80.2222 19.0924 80.5301 19.1117 80.7033 19.3041C80.8765 19.4965 80.8573 19.8044 80.6648 19.9776C80.0683 20.4971 79.4718 20.9974 78.856 21.4593C78.7983 21.5555 78.6828 21.594 78.5866 21.594ZM19.7806 19.8621C19.6651 19.8621 19.5496 19.8236 19.4727 19.7467C18.8954 19.2464 18.2989 18.7268 17.7408 18.188C17.5484 17.9956 17.5484 17.7069 17.7216 17.5145C17.8948 17.3221 18.2026 17.3221 18.3951 17.4953C18.9531 18.0148 19.5112 18.5344 20.0884 19.0347C20.2809 19.2079 20.3194 19.5158 20.1462 19.7082C20.05 19.8044 19.9153 19.8621 19.7806 19.8621ZM83.0124 17.6107C82.897 17.6107 82.7623 17.5722 82.6853 17.476C82.4929 17.2836 82.4929 16.9949 82.6853 16.8025C83.2049 16.2637 83.7244 15.7057 84.244 15.1284C84.4172 14.936 84.7251 14.9167 84.9175 15.0899C85.1099 15.2631 85.1292 15.571 84.956 15.7634C84.4364 16.3407 83.8976 16.918 83.3588 17.476C83.2626 17.5722 83.1471 17.6107 83.0124 17.6107Z" fill="black" fill-opacity="0.16"/>
<path d="M72.7755 50.4388C73.7958 50.4388 74.6228 49.6117 74.6228 48.5914C74.6228 47.5712 73.7958 46.7441 72.7755 46.7441C71.7553 46.7441 70.9282 47.5712 70.9282 48.5914C70.9282 49.6117 71.7553 50.4388 72.7755 50.4388Z" fill="#811E68"/>
<path d="M3.5436 63.7771C4.56384 63.7771 5.39091 62.9501 5.39091 61.9298C5.39091 60.9096 4.56384 60.0825 3.5436 60.0825C2.52336 60.0825 1.69629 60.9096 1.69629 61.9298C1.69629 62.9501 2.52336 63.7771 3.5436 63.7771Z" fill="#811E68"/>
<path d="M40.9674 12.1258C41.9877 12.1258 42.8147 11.2987 42.8147 10.2785C42.8147 9.25822 41.9877 8.43115 40.9674 8.43115C39.9472 8.43115 39.1201 9.25822 39.1201 10.2785C39.1201 11.2987 39.9472 12.1258 40.9674 12.1258Z" fill="#811E68"/>
</svg>
