<svg width="100" height="100" viewBox="0 0 100 100" fill="none" xmlns="http://www.w3.org/2000/svg">
<path d="M52.6149 10.8935C51.1467 9.88771 49.234 9.88771 47.7658 10.8935L9.75105 36.9362C6.15276 39.4013 7.85098 45.165 12.1756 45.165H14.8629V80.1906H85.5191V45.165H88.2051C92.5297 45.165 94.228 39.4013 90.6297 36.9362L52.6149 10.8935Z" fill="#33BFC5"/>
<path d="M14.8629 80.1906C12.9118 80.1906 11.3289 81.8419 11.3289 83.8782H12.3383C9.82243 83.9244 7.79663 86.0673 7.79663 88.7039V91.2513H92.5841V88.7039C92.5841 86.0673 90.5583 83.9244 88.0424 83.8782H89.0507C89.0507 81.8419 87.4703 80.1906 85.5191 80.1906H14.8629Z" fill="#33BFC5"/>
<path d="M85.7621 80.0981L85.7621 45.6255L14.6186 45.6255L85.7621 80.0981Z" fill="black" fill-opacity="0.04"/>
<path d="M7.90413 39.542C7.33244 42.3814 9.08205 45.6254 12.1756 45.6254H88.2051C91.2987 45.6254 93.0483 42.3814 92.4766 39.542H7.90413Z" fill="#185D8A"/>
<ellipse cx="50.8439" cy="26.2642" rx="6.98816" ry="7" fill="#185D8A"/>
<path fill-rule="evenodd" clip-rule="evenodd" d="M10.802 2.78181C10.3371 2.78181 9.88167 2.82244 9.43876 2.90037C9.14358 2.95231 8.86391 2.74488 8.8141 2.43707C8.76429 2.12926 8.96321 1.83763 9.2584 1.78569C9.76066 1.69731 10.2764 1.65137 10.802 1.65137H12.4746C12.7739 1.65137 13.0166 1.90443 13.0166 2.21659C13.0166 2.52875 12.7739 2.78181 12.4746 2.78181H10.802ZM16.3927 2.21659C16.3927 1.90443 16.6354 1.65137 16.9347 1.65137H20.2799C20.5792 1.65137 20.8219 1.90443 20.8219 2.21659C20.8219 2.52875 20.5792 2.78181 20.2799 2.78181H16.9347C16.6354 2.78181 16.3927 2.52875 16.3927 2.21659ZM24.198 2.21659C24.198 1.90443 24.4407 1.65137 24.74 1.65137H28.0852C28.3845 1.65137 28.6272 1.90443 28.6272 2.21659C28.6272 2.52875 28.3845 2.78181 28.0852 2.78181H24.74C24.4407 2.78181 24.198 2.52875 24.198 2.21659ZM32.0033 2.21659C32.0033 1.90443 32.246 1.65137 32.5454 1.65137H35.8905C36.1898 1.65137 36.4325 1.90443 36.4325 2.21659C36.4325 2.52875 36.1898 2.78181 35.8905 2.78181H32.5454C32.246 2.78181 32.0033 2.52875 32.0033 2.21659ZM39.8086 2.21659C39.8086 1.90443 40.0513 1.65137 40.3507 1.65137H43.6958C43.9952 1.65137 44.2378 1.90443 44.2378 2.21659C44.2378 2.52875 43.9952 2.78181 43.6958 2.78181H40.3507C40.0513 2.78181 39.8086 2.52875 39.8086 2.21659ZM47.6139 2.21659C47.6139 1.90443 47.8566 1.65137 48.156 1.65137H51.5011C51.8005 1.65137 52.0431 1.90443 52.0431 2.21659C52.0431 2.52875 51.8005 2.78181 51.5011 2.78181H48.156C47.8566 2.78181 47.6139 2.52875 47.6139 2.21659ZM55.4193 2.21659C55.4193 1.90443 55.6619 1.65137 55.9613 1.65137H59.3064C59.6058 1.65137 59.8485 1.90443 59.8485 2.21659C59.8485 2.52875 59.6058 2.78181 59.3064 2.78181H55.9613C55.6619 2.78181 55.4193 2.52875 55.4193 2.21659ZM63.2246 2.21659C63.2246 1.90443 63.4672 1.65137 63.7666 1.65137H67.1117C67.4111 1.65137 67.6538 1.90443 67.6538 2.21659C67.6538 2.52875 67.4111 2.78181 67.1117 2.78181H63.7666C63.4672 2.78181 63.2246 2.52875 63.2246 2.21659ZM71.0299 2.21659C71.0299 1.90443 71.2725 1.65137 71.5719 1.65137H74.917C75.2164 1.65137 75.4591 1.90443 75.4591 2.21659C75.4591 2.52875 75.2164 2.78181 74.917 2.78181H71.5719C71.2725 2.78181 71.0299 2.52875 71.0299 2.21659ZM78.8352 2.21659C78.8352 1.90443 79.0778 1.65137 79.3772 1.65137H82.7223C83.0217 1.65137 83.2644 1.90443 83.2644 2.21659C83.2644 2.52875 83.0217 2.78181 82.7223 2.78181H79.3772C79.0778 2.78181 78.8352 2.52875 78.8352 2.21659ZM86.6405 2.21659C86.6405 1.90443 86.8831 1.65137 87.1825 1.65137H88.8551C89.3807 1.65137 89.8964 1.69732 90.3987 1.78569C90.6939 1.83763 90.8928 2.12926 90.843 2.43707C90.7932 2.74488 90.5135 2.95231 90.2183 2.90037C89.7754 2.82244 89.32 2.78181 88.8551 2.78181H87.1825C86.8831 2.78181 86.6405 2.52875 86.6405 2.21659ZM6.2249 3.55647C6.39833 3.8109 6.34113 4.16377 6.09713 4.34463C5.35198 4.89694 4.69984 5.57698 4.17019 6.354C3.99675 6.60843 3.65835 6.66808 3.41436 6.48723C3.17036 6.30637 3.11316 5.9535 3.28659 5.69907C3.88653 4.81894 4.62504 4.04884 5.46907 3.42324C5.71306 3.24238 6.05146 3.30203 6.2249 3.55647ZM93.4322 3.55647C93.6056 3.30203 93.944 3.24238 94.188 3.42324C95.032 4.04884 95.7705 4.81894 96.3705 5.69907C96.5439 5.9535 96.4867 6.30638 96.2427 6.48723C95.9987 6.66809 95.6603 6.60844 95.4869 6.354C94.9572 5.57698 94.3051 4.89694 93.5599 4.34463C93.3159 4.16377 93.2587 3.8109 93.4322 3.55647ZM2.34088 9.18718C2.63606 9.23912 2.83498 9.53076 2.78517 9.83857C2.71044 10.3004 2.67147 10.7753 2.67147 11.2601V12.9558C2.67147 13.2679 2.4288 13.521 2.12944 13.521C1.83008 13.521 1.5874 13.2679 1.5874 12.9558V11.2601C1.5874 10.712 1.63147 10.1742 1.71621 9.65048C1.76602 9.34267 2.04569 9.13525 2.34088 9.18718ZM97.3162 9.18719C97.6114 9.13525 97.8911 9.34267 97.9409 9.65049C98.0256 10.1742 98.0697 10.712 98.0697 11.2601V12.9558C98.0697 13.2679 97.827 13.521 97.5276 13.521C97.2283 13.521 96.9856 13.2679 96.9856 12.9558V11.2601C96.9856 10.7753 96.9466 10.3004 96.8719 9.83857C96.8221 9.53076 97.021 9.23912 97.3162 9.18719ZM2.12944 16.9123C2.4288 16.9123 2.67147 17.1654 2.67147 17.4775V20.8689C2.67147 21.181 2.4288 21.4341 2.12944 21.4341C1.83008 21.4341 1.5874 21.181 1.5874 20.8689V17.4775C1.5874 17.1654 1.83008 16.9123 2.12944 16.9123ZM97.5276 16.9123C97.827 16.9123 98.0697 17.1654 98.0697 17.4775V20.8689C98.0697 21.181 97.827 21.4341 97.5276 21.4341C97.2283 21.4341 96.9856 21.181 96.9856 20.8689V17.4775C96.9856 17.1654 97.2283 16.9123 97.5276 16.9123ZM2.12944 24.8254C2.4288 24.8254 2.67147 25.0785 2.67147 25.3906V28.782C2.67147 29.0941 2.4288 29.3472 2.12944 29.3472C1.83008 29.3472 1.5874 29.0941 1.5874 28.782V25.3906C1.5874 25.0785 1.83008 24.8254 2.12944 24.8254ZM97.5276 24.8254C97.827 24.8254 98.0697 25.0785 98.0697 25.3906V28.782C98.0697 29.0941 97.827 29.3472 97.5276 29.3472C97.2283 29.3472 96.9856 29.0941 96.9856 28.782V25.3906C96.9856 25.0785 97.2283 24.8254 97.5276 24.8254ZM2.12944 32.7385C2.4288 32.7385 2.67147 32.9916 2.67147 33.3037V36.6951C2.67147 37.0072 2.4288 37.2603 2.12944 37.2603C1.83008 37.2603 1.5874 37.0072 1.5874 36.6951V33.3037C1.5874 32.9916 1.83008 32.7385 2.12944 32.7385ZM97.5276 32.7385C97.827 32.7385 98.0697 32.9916 98.0697 33.3037V36.6951C98.0697 37.0072 97.827 37.2603 97.5276 37.2603C97.2283 37.2603 96.9856 37.0072 96.9856 36.6951V33.3037C96.9856 32.9916 97.2283 32.7385 97.5276 32.7385ZM2.12944 40.6516C2.4288 40.6516 2.67147 40.9047 2.67147 41.2168V44.6082C2.67147 44.9203 2.4288 45.1734 2.12944 45.1734C1.83008 45.1734 1.5874 44.9203 1.5874 44.6082V41.2168C1.5874 40.9047 1.83008 40.6516 2.12944 40.6516ZM97.5276 40.6516C97.827 40.6516 98.0697 40.9047 98.0697 41.2168V44.6082C98.0697 44.9203 97.827 45.1734 97.5276 45.1734C97.2283 45.1734 96.9856 44.9203 96.9856 44.6082V41.2168C96.9856 40.9047 97.2283 40.6516 97.5276 40.6516ZM2.12944 48.5647C2.4288 48.5647 2.67147 48.8177 2.67147 49.1299V52.5212C2.67147 52.8334 2.4288 53.0865 2.12944 53.0865C1.83008 53.0865 1.5874 52.8334 1.5874 52.5212V49.1299C1.5874 48.8177 1.83008 48.5647 2.12944 48.5647ZM97.5276 48.5647C97.827 48.5647 98.0697 48.8177 98.0697 49.1299V52.5212C98.0697 52.8334 97.827 53.0865 97.5276 53.0865C97.2283 53.0865 96.9856 52.8334 96.9856 52.5212V49.1299C96.9856 48.8177 97.2283 48.5647 97.5276 48.5647ZM2.12944 56.4778C2.4288 56.4778 2.67147 56.7308 2.67147 57.043V60.4343C2.67147 60.7465 2.4288 60.9995 2.12944 60.9995C1.83008 60.9995 1.5874 60.7465 1.5874 60.4343V57.043C1.5874 56.7308 1.83008 56.4778 2.12944 56.4778ZM97.5276 56.4778C97.827 56.4778 98.0697 56.7308 98.0697 57.043V60.4343C98.0697 60.7465 97.827 60.9995 97.5276 60.9995C97.2283 60.9995 96.9856 60.7465 96.9856 60.4343V57.043C96.9856 56.7308 97.2283 56.4778 97.5276 56.4778ZM2.12944 64.3909C2.4288 64.3909 2.67147 64.6439 2.67147 64.9561V68.3474C2.67147 68.6596 2.4288 68.9126 2.12944 68.9126C1.83008 68.9126 1.5874 68.6596 1.5874 68.3474V64.9561C1.5874 64.6439 1.83008 64.3909 2.12944 64.3909ZM97.5276 64.3909C97.827 64.3909 98.0697 64.6439 98.0697 64.9561V68.3474C98.0697 68.6596 97.827 68.9126 97.5276 68.9126C97.2283 68.9126 96.9856 68.6596 96.9856 68.3474V64.9561C96.9856 64.6439 97.2283 64.3909 97.5276 64.3909ZM2.12944 72.304C2.4288 72.304 2.67147 72.557 2.67147 72.8692V76.2605C2.67147 76.5727 2.4288 76.8257 2.12944 76.8257C1.83008 76.8257 1.5874 76.5727 1.5874 76.2605V72.8692C1.5874 72.557 1.83008 72.304 2.12944 72.304ZM97.5276 72.304C97.827 72.304 98.0697 72.557 98.0697 72.8692V76.2605C98.0697 76.5727 97.827 76.8257 97.5276 76.8257C97.2283 76.8257 96.9856 76.5727 96.9856 76.2605V72.8692C96.9856 72.557 97.2283 72.304 97.5276 72.304ZM2.12944 80.2171C2.4288 80.2171 2.67147 80.4701 2.67147 80.7823V84.1736C2.67147 84.4858 2.4288 84.7388 2.12944 84.7388C1.83008 84.7388 1.5874 84.4858 1.5874 84.1736V80.7823C1.5874 80.4701 1.83008 80.2171 2.12944 80.2171ZM97.5276 80.2171C97.827 80.2171 98.0697 80.4701 98.0697 80.7823V84.1736C98.0697 84.4858 97.827 84.7388 97.5276 84.7388C97.2283 84.7388 96.9856 84.4858 96.9856 84.1736V80.7823C96.9856 80.4701 97.2283 80.2171 97.5276 80.2171ZM2.12944 88.1301C2.4288 88.1301 2.67147 88.3832 2.67147 88.6954V90.391C2.67147 90.8758 2.71044 91.3507 2.78517 91.8126C2.83498 92.1204 2.63606 92.412 2.34088 92.464C2.04569 92.5159 1.76602 92.3085 1.71621 92.0007C1.63147 91.4769 1.5874 90.9391 1.5874 90.391V88.6954C1.5874 88.3832 1.83008 88.1301 2.12944 88.1301ZM97.5276 88.1301C97.827 88.1301 98.0697 88.3832 98.0697 88.6954V90.391C98.0697 90.9391 98.0256 91.4769 97.9409 92.0007C97.8911 92.3085 97.6114 92.5159 97.3162 92.464C97.021 92.412 96.8221 92.1204 96.8719 91.8126C96.9466 91.3507 96.9856 90.8758 96.9856 90.391V88.6954C96.9856 88.3832 97.2283 88.1301 97.5276 88.1301ZM3.41435 95.1639C3.65835 94.9831 3.99675 95.0427 4.17018 95.2971C4.69984 96.0742 5.35198 96.7542 6.09713 97.3065C6.34113 97.4874 6.39833 97.8402 6.22489 98.0947C6.05146 98.3491 5.71306 98.4088 5.46906 98.2279C4.62504 97.6023 3.88653 96.8322 3.28659 95.9521C3.11315 95.6976 3.17035 95.3448 3.41435 95.1639ZM96.2427 95.1639C96.4867 95.3448 96.5439 95.6977 96.3705 95.9521C95.7705 96.8322 95.032 97.6023 94.188 98.2279C93.944 98.4088 93.6056 98.3491 93.4322 98.0947C93.2587 97.8402 93.3159 97.4874 93.5599 97.3065C94.3051 96.7542 94.9572 96.0742 95.4869 95.2971C95.6603 95.0427 95.9987 94.9831 96.2427 95.1639ZM8.8141 99.2141C8.8639 98.9063 9.14357 98.6988 9.43876 98.7508C9.88167 98.8287 10.3371 98.8693 10.802 98.8693H12.4746C12.7739 98.8693 13.0166 99.1224 13.0166 99.4346C13.0166 99.7467 12.7739 99.9998 12.4746 99.9998H10.802C10.2764 99.9998 9.76065 99.9538 9.25839 99.8655C8.96321 99.8135 8.76429 99.5219 8.8141 99.2141ZM90.843 99.2141C90.8928 99.5219 90.6939 99.8135 90.3987 99.8655C89.8964 99.9538 89.3807 99.9998 88.8551 99.9998H87.1825C86.8831 99.9998 86.6405 99.7467 86.6405 99.4346C86.6405 99.1224 86.8831 98.8693 87.1825 98.8693H88.8551C89.32 98.8693 89.7754 98.8287 90.2183 98.7508C90.5135 98.6988 90.7932 98.9063 90.843 99.2141ZM16.3927 99.4346C16.3927 99.1224 16.6354 98.8693 16.9348 98.8693H20.2799C20.5792 98.8693 20.8219 99.1224 20.8219 99.4346C20.8219 99.7467 20.5792 99.9998 20.2799 99.9998H16.9348C16.6354 99.9998 16.3927 99.7467 16.3927 99.4346ZM24.198 99.4346C24.198 99.1224 24.4407 98.8693 24.74 98.8693H28.0852C28.3845 98.8693 28.6272 99.1224 28.6272 99.4346C28.6272 99.7467 28.3845 99.9998 28.0852 99.9998H24.74C24.4407 99.9998 24.198 99.7467 24.198 99.4346ZM32.0033 99.4346C32.0033 99.1224 32.246 98.8693 32.5454 98.8693H35.8905C36.1898 98.8693 36.4325 99.1224 36.4325 99.4346C36.4325 99.7467 36.1898 99.9998 35.8905 99.9998H32.5454C32.246 99.9998 32.0033 99.7467 32.0033 99.4346ZM39.8086 99.4346C39.8086 99.1224 40.0513 98.8693 40.3507 98.8693H43.6958C43.9951 98.8693 44.2378 99.1224 44.2378 99.4346C44.2378 99.7467 43.9951 99.9998 43.6958 99.9998H40.3507C40.0513 99.9998 39.8086 99.7467 39.8086 99.4346ZM47.6139 99.4346C47.6139 99.1224 47.8566 98.8693 48.156 98.8693H51.5011C51.8005 98.8693 52.0431 99.1224 52.0431 99.4346C52.0431 99.7467 51.8005 99.9998 51.5011 99.9998H48.156C47.8566 99.9998 47.6139 99.7467 47.6139 99.4346ZM55.4192 99.4346C55.4192 99.1224 55.6619 98.8693 55.9613 98.8693H59.3064C59.6058 98.8693 59.8484 99.1224 59.8484 99.4346C59.8484 99.7467 59.6058 99.9998 59.3064 99.9998H55.9613C55.6619 99.9998 55.4192 99.7467 55.4192 99.4346ZM63.2245 99.4346C63.2245 99.1224 63.4672 98.8693 63.7666 98.8693H67.1117C67.4111 98.8693 67.6538 99.1224 67.6538 99.4346C67.6538 99.7467 67.4111 99.9998 67.1117 99.9998H63.7666C63.4672 99.9998 63.2245 99.7467 63.2245 99.4346ZM71.0299 99.4346C71.0299 99.1224 71.2725 98.8693 71.5719 98.8693H74.917C75.2164 98.8693 75.4591 99.1224 75.4591 99.4346C75.4591 99.7467 75.2164 99.9998 74.917 99.9998H71.5719C71.2725 99.9998 71.0299 99.7467 71.0299 99.4346ZM78.8352 99.4346C78.8352 99.1224 79.0778 98.8693 79.3772 98.8693H82.7223C83.0217 98.8693 83.2644 99.1224 83.2644 99.4346C83.2644 99.7467 83.0217 99.9998 82.7223 99.9998H79.3772C79.0778 99.9998 78.8352 99.7467 78.8352 99.4346Z" fill="black" fill-opacity="0.16"/>
<path d="M97.5076 71.9453C98.6121 71.9453 99.5076 71.0499 99.5076 69.9453C99.5076 68.8407 98.6121 67.9453 97.5076 67.9453C96.403 67.9453 95.5076 68.8407 95.5076 69.9453C95.5076 71.0499 96.403 71.9453 97.5076 71.9453Z" fill="#811E68"/>
<rect x="62.3723" y="51.709" width="8.77112" height="31.4309" rx="3" fill="white"/>
<rect x="45.8047" y="51.709" width="8.77112" height="31.4309" rx="3" fill="white"/>
<rect x="29.2371" y="51.709" width="8.77112" height="31.4309" rx="3" fill="white"/>
<path d="M11.6948 82.0981C11.6948 80.9936 12.5903 80.0981 13.6948 80.0981H87.6603C88.7649 80.0981 89.6603 80.9936 89.6603 82.0981V84.1537H11.6948V82.0981Z" fill="#185D8A"/>
<path d="M2 25.021C3.10457 25.021 4 24.1256 4 23.021C4 21.9164 3.10457 21.021 2 21.021C0.895431 21.021 0 21.9164 0 23.021C0 24.1256 0.895431 25.021 2 25.021Z" fill="#811E68"/>
<path d="M72.9087 4C74.0133 4 74.9087 3.10457 74.9087 2C74.9087 0.895428 74.0133 0 72.9087 0C71.8041 0 70.9087 0.895428 70.9087 2C70.9087 3.10457 71.8041 4 72.9087 4Z" fill="#811E68"/>
</svg>
