<?xml version="1.0" encoding="UTF-8"?>
<svg xmlns="http://www.w3.org/2000/svg" width="40" height="41" viewBox="0 0 40 41" fill="none">
  <g clip-path="url(#clip0_82_3104)">
    <path d="M20.9411 36.3568C29.4425 36.3568 36.3343 29.465 36.3343 20.9636C36.3343 12.4621 29.4425 5.57031 20.9411 5.57031C12.4396 5.57031 5.54785 12.4621 5.54785 20.9636C5.54785 29.465 12.4396 36.3568 20.9411 36.3568Z" fill="#086981"></path>
    <path d="M36.3343 19.9348C36.1424 26.6525 29.9851 16.3571 25.8393 16.9713C20.3423 17.7851 25.8393 9.98484 17.9315 11.4435C12.0967 12.5184 17.6091 5.93115 17.6091 5.93115C17.6321 5.94651 24.918 3.91967 30.868 9.10193C30.868 9.10193 36.5109 13.7468 36.3343 19.9348Z" fill="#29CFD4"></path>
    <path d="M18.4153 36.1495C18.4153 36.1495 16.2426 20.81 21.5401 19.5048C26.8375 18.1997 24.3039 28.2725 35.3825 26.3224C35.3825 26.3224 31.5361 37.7618 18.4153 36.1495Z" fill="#29CFD4"></path>
    <path d="M13.8702 34.6064C16.0506 35.7733 13.5017 32.7484 11.6898 28.3723C9.87791 23.9962 13.8932 23.7658 14.5227 19.2361C15.1523 14.7065 7.55932 13.3629 7.55932 13.3629C5.10254 16.7256 2.99893 28.7869 13.8702 34.6064Z" fill="#29CFD4"></path>
    <path fill-rule="evenodd" clip-rule="evenodd" d="M36.6295 6.20197C36.3499 6.15271 36.0493 6.13133 35.7292 6.13677C35.6232 6.13857 35.5358 6.05411 35.534 5.94812C35.5322 5.84214 35.6167 5.75476 35.7226 5.75296C36.0637 5.74716 36.3891 5.76983 36.6961 5.82392C36.8005 5.84231 36.8702 5.94185 36.8518 6.04625C36.8334 6.15064 36.7339 6.22036 36.6295 6.20197ZM34.9726 5.99858C34.9883 6.10342 34.9161 6.20114 34.8112 6.21686C34.518 6.26083 34.2131 6.32235 33.8975 6.40047C33.7946 6.42595 33.6905 6.36318 33.6651 6.26029C33.6396 6.15739 33.7024 6.05333 33.8053 6.02785C34.1311 5.94719 34.4478 5.88319 34.7543 5.83723C34.8591 5.82151 34.9569 5.89375 34.9726 5.99858ZM37.3914 6.21355C37.4377 6.11817 37.5525 6.07836 37.6479 6.12463C37.9513 6.27181 38.2249 6.46458 38.4647 6.70609C38.5393 6.78132 38.5389 6.90285 38.4636 6.97753C38.3884 7.0522 38.2669 7.05175 38.1922 6.97651C37.9841 6.76681 37.7462 6.59897 37.4803 6.47001C37.385 6.42374 37.3451 6.30892 37.3914 6.21355ZM33.1268 6.41507C33.1593 6.51596 33.1039 6.62412 33.003 6.65666C32.716 6.74924 32.422 6.85334 32.1219 6.96828C32.023 7.0062 31.912 6.95669 31.8741 6.8577C31.8361 6.75871 31.8857 6.64772 31.9846 6.60981C32.2906 6.49263 32.591 6.3862 32.8852 6.29132C32.9861 6.25878 33.0942 6.31419 33.1268 6.41507ZM31.3537 7.07074C31.3959 7.168 31.3512 7.28102 31.254 7.32317C30.973 7.44494 30.6877 7.57496 30.3985 7.71274C30.3028 7.75833 30.1883 7.71771 30.1427 7.62202C30.0971 7.52632 30.1377 7.41178 30.2334 7.36619C30.5264 7.22659 30.8159 7.09466 31.1013 6.97096C31.1986 6.92881 31.3116 6.97348 31.3537 7.07074ZM38.7908 7.43912C38.8852 7.39088 39.0008 7.42829 39.0491 7.52268C39.1887 7.79592 39.3024 8.10138 39.3892 8.43988C39.4156 8.54256 39.3537 8.64715 39.251 8.67349C39.1483 8.69984 39.0437 8.63795 39.0174 8.53528C38.9368 8.22096 38.8325 7.94253 38.7072 7.69738C38.659 7.60299 38.6964 7.48737 38.7908 7.43912ZM29.6378 7.87238C29.6863 7.96666 29.6491 8.08237 29.5548 8.13083C29.2811 8.27148 29.0046 8.41829 28.7257 8.57085C28.6327 8.62172 28.5161 8.58756 28.4652 8.49456C28.4143 8.40156 28.4485 8.28493 28.5415 8.23406C28.8231 8.08001 29.1026 7.93164 29.3794 7.7894C29.4736 7.74095 29.5893 7.7781 29.6378 7.87238ZM27.9766 8.76927C28.0295 8.8611 27.998 8.97847 27.9062 9.03143C27.6376 9.18632 27.3672 9.346 27.0954 9.5101C27.0047 9.56489 26.8867 9.53574 26.8319 9.44499C26.7771 9.35425 26.8063 9.23627 26.897 9.18148C27.1709 9.01611 27.4435 8.85512 27.7144 8.69889C27.8063 8.64593 27.9236 8.67744 27.9766 8.76927ZM39.3443 9.22559C39.4497 9.21504 39.5438 9.29199 39.5543 9.39747C39.5845 9.69856 39.5988 10.0197 39.5968 10.3614C39.5962 10.4674 39.5098 10.5528 39.4038 10.5522C39.2978 10.5516 39.2123 10.4652 39.2129 10.3592C39.2148 10.0295 39.201 9.72194 39.1724 9.43567C39.1618 9.3302 39.2388 9.23614 39.3443 9.22559ZM26.353 9.74021C26.4095 9.82996 26.3824 9.94844 26.2927 10.0049C26.0286 10.1709 25.7635 10.3407 25.4977 10.514C25.4089 10.5719 25.29 10.5468 25.2321 10.458C25.1742 10.3692 25.1993 10.2503 25.2881 10.1924C25.5556 10.018 25.8224 9.84708 26.0884 9.67988C26.1781 9.62346 26.2966 9.65047 26.353 9.74021ZM24.7629 10.769C24.8221 10.8569 24.7989 10.9762 24.711 11.0354C24.4521 11.2098 24.1928 11.3871 23.9335 11.5671C23.8464 11.6276 23.7268 11.606 23.6664 11.5189C23.6059 11.4318 23.6275 11.3122 23.7146 11.2518C23.9754 11.0708 24.2361 10.8925 24.4965 10.717C24.5844 10.6578 24.7037 10.6811 24.7629 10.769ZM39.3773 11.1118C39.483 11.1205 39.5615 11.2132 39.5528 11.3188C39.5396 11.479 39.5234 11.643 39.5041 11.811L39.503 11.8206L39.501 11.83L39.4942 11.8286C39.501 11.83 39.501 11.8301 39.501 11.8301L39.501 11.8301L39.5009 11.8301L39.5009 11.8303L39.5008 11.8308L39.5004 11.8324L39.4992 11.8381C39.4985 11.8409 39.4978 11.8443 39.4968 11.8484C39.4961 11.8516 39.4952 11.8552 39.4943 11.8591C39.49 11.8774 39.4836 11.9039 39.475 11.938C39.4577 12.0063 39.4313 12.1051 39.3947 12.2292C39.3648 12.3309 39.258 12.389 39.1564 12.359C39.0547 12.329 38.9966 12.2223 39.0265 12.1206C39.0616 12.0016 39.0867 11.9075 39.1029 11.8437C39.111 11.8118 39.1168 11.7874 39.1206 11.7713C39.122 11.7654 39.1231 11.7607 39.1239 11.757C39.1422 11.5965 39.1577 11.44 39.1703 11.2873C39.179 11.1816 39.2717 11.1031 39.3773 11.1118ZM23.2069 11.8424C23.2685 11.9287 23.2484 12.0485 23.1621 12.1101C22.9068 12.2923 22.6517 12.4768 22.3971 12.6633C22.3116 12.7259 22.1915 12.7074 22.1289 12.6219C22.0662 12.5364 22.0848 12.4163 22.1703 12.3536C22.4261 12.1662 22.6825 11.9808 22.9391 11.7976C23.0254 11.7361 23.1453 11.7561 23.2069 11.8424ZM39.0228 12.753C39.122 12.7905 39.1719 12.9013 39.1343 13.0005C39.0476 13.2295 38.9435 13.4826 38.8198 13.7506C38.7754 13.8469 38.6614 13.8889 38.5651 13.8445C38.4689 13.8001 38.4268 13.6861 38.4712 13.5898C38.5908 13.3307 38.6915 13.086 38.7754 12.8645C38.8129 12.7654 38.9237 12.7155 39.0228 12.753ZM21.6771 12.957C21.7407 13.0417 21.7236 13.162 21.6388 13.2257C21.3875 13.4143 21.137 13.6047 20.8876 13.7964C20.8035 13.861 20.683 13.8452 20.6184 13.7612C20.5538 13.6771 20.5696 13.5566 20.6536 13.492C20.9042 13.2994 21.1559 13.1082 21.4084 12.9187C21.4931 12.8551 21.6134 12.8722 21.6771 12.957ZM20.1744 14.1063C20.2399 14.1896 20.2255 14.3103 20.1422 14.3758C19.8944 14.5706 19.6479 14.7665 19.4031 14.9632C19.3204 15.0296 19.1996 15.0164 19.1332 14.9338C19.0668 14.8512 19.08 14.7303 19.1626 14.664C19.4086 14.4664 19.6561 14.2696 19.9049 14.074C19.9883 14.0085 20.1089 14.023 20.1744 14.1063ZM38.3773 14.216C38.47 14.2674 38.5036 14.3842 38.4522 14.4769C38.3253 14.706 38.1848 14.9397 38.0296 15.1735C37.971 15.2618 37.8518 15.2858 37.7635 15.2272C37.6752 15.1685 37.6512 15.0494 37.7098 14.9611C37.8589 14.7366 37.9941 14.5118 38.1164 14.2909C38.1678 14.1982 38.2846 14.1646 38.3773 14.216ZM18.6975 15.2877C18.7647 15.3696 18.7529 15.4906 18.6709 15.5578C18.4267 15.7583 18.1844 15.9594 17.9442 16.1608C17.863 16.2289 17.7419 16.2182 17.6738 16.137C17.6057 16.0558 17.6163 15.9347 17.6976 15.8666C17.9387 15.6644 18.1821 15.4625 18.4274 15.2611C18.5093 15.1939 18.6302 15.2058 18.6975 15.2877ZM37.5186 15.5636C37.6013 15.6299 37.6146 15.7507 37.5483 15.8334C37.4637 15.9389 37.3758 16.0434 37.2845 16.1466C37.2142 16.226 37.0929 16.2333 37.0135 16.1631C36.9341 16.0928 36.9268 15.9715 36.997 15.8921C37.0841 15.7938 37.168 15.694 37.2488 15.5933C37.3151 15.5106 37.4359 15.4973 37.5186 15.5636ZM17.2442 16.501C17.3132 16.5816 17.3038 16.7027 17.2233 16.7717C17.1041 16.8738 16.9854 16.976 16.8675 17.0781C16.7427 17.1862 16.6189 17.293 16.4962 17.3985C16.4158 17.4676 16.2946 17.4584 16.2255 17.378C16.1564 17.2976 16.1656 17.1765 16.2459 17.1074C16.3683 17.0022 16.4917 16.8957 16.6161 16.7879L16.6162 16.7879C16.7347 16.6853 16.8538 16.5827 16.9736 16.4801C17.0541 16.4112 17.1753 16.4205 17.2442 16.501ZM15.7787 17.7592C15.8473 17.8401 15.8372 17.9612 15.7564 18.0298C15.5041 18.2434 15.2564 18.4517 15.0132 18.6551C14.9319 18.7231 14.8108 18.7122 14.7428 18.6309C14.6748 18.5496 14.6857 18.4285 14.767 18.3605C15.0097 18.1577 15.2567 17.95 15.5082 17.7369C15.5891 17.6683 15.7102 17.6784 15.7787 17.7592ZM14.2893 19.0077C14.3568 19.0894 14.3453 19.2104 14.2636 19.2779C14.0078 19.4892 13.7572 19.6952 13.5115 19.8963C13.4294 19.9635 13.3085 19.9514 13.2414 19.8694C13.1742 19.7874 13.1863 19.6664 13.2683 19.5993C13.5136 19.3984 13.7638 19.1928 14.0191 18.9819C14.1008 18.9144 14.2218 18.9259 14.2893 19.0077ZM12.7872 20.2399C12.8542 20.3221 12.8418 20.443 12.7596 20.5099C12.5813 20.655 12.4058 20.7977 12.2329 20.9383C12.1561 21.0007 12.0799 21.0627 12.0042 21.1242C11.922 21.1911 11.8011 21.1787 11.7342 21.0964C11.6673 21.0142 11.6798 20.8933 11.762 20.8264C11.838 20.7646 11.9144 20.7025 11.9914 20.6399C12.164 20.4995 12.3393 20.3571 12.5172 20.2122C12.5994 20.1453 12.7203 20.1577 12.7872 20.2399ZM11.2791 21.4671C11.3462 21.5491 11.3341 21.6701 11.252 21.7372C10.9955 21.9468 10.7454 22.1521 10.5013 22.3543C10.4196 22.4219 10.2986 22.4105 10.231 22.3288C10.1634 22.2472 10.1748 22.1262 10.2565 22.0586C10.5014 21.8558 10.7522 21.6499 11.009 21.4399C11.0911 21.3728 11.212 21.385 11.2791 21.4671ZM9.78086 22.7053C9.84936 22.7861 9.83932 22.9073 9.75842 22.9758C9.50694 23.1887 9.2622 23.399 9.02378 23.6079C8.94405 23.6777 8.82279 23.6697 8.75293 23.59C8.68308 23.5103 8.69109 23.389 8.77082 23.3192C9.01111 23.1086 9.25751 22.8969 9.51035 22.6828C9.59124 22.6143 9.71236 22.6244 9.78086 22.7053ZM8.31455 23.9825C8.38625 24.0605 8.38108 24.1819 8.303 24.2536C8.06245 24.4745 7.82868 24.6952 7.60119 24.9172C7.52533 24.9913 7.40381 24.9898 7.32977 24.9139C7.25574 24.838 7.25722 24.7165 7.33308 24.6425C7.56364 24.4175 7.80026 24.1941 8.04336 23.9709C8.12144 23.8992 8.24286 23.9044 8.31455 23.9825ZM6.91646 25.3318C6.99328 25.4049 6.99633 25.5264 6.92329 25.6032C6.70099 25.837 6.48487 26.0738 6.27442 26.3153C6.20477 26.3952 6.08353 26.4035 6.00362 26.3338C5.9237 26.2642 5.91537 26.143 5.98502 26.063C6.19934 25.8171 6.41921 25.5762 6.64511 25.3387C6.71816 25.2618 6.83964 25.2588 6.91646 25.3318ZM5.62768 26.7862C5.71084 26.852 5.72495 26.9727 5.6592 27.0558C5.46179 27.3055 5.26935 27.5614 5.08138 27.8252C5.01987 27.9116 4.90002 27.9317 4.81369 27.8702C4.72736 27.8087 4.70724 27.6888 4.76876 27.6025C4.9605 27.3334 5.15678 27.0723 5.35808 26.8177C5.42383 26.7346 5.54453 26.7205 5.62768 26.7862ZM4.48481 28.357C4.57409 28.4142 4.60012 28.5329 4.54297 28.6222C4.37315 28.8874 4.20685 29.1611 4.04367 29.4447C3.9908 29.5366 3.87346 29.5682 3.78159 29.5153C3.68971 29.4625 3.65809 29.3451 3.71096 29.2532C3.87711 28.9645 4.04655 28.6856 4.21968 28.4152C4.27684 28.3259 4.39554 28.2999 4.48481 28.357ZM3.49949 30.032C3.59359 30.0808 3.6303 30.1966 3.58148 30.2907C3.50818 30.4321 3.43547 30.5758 3.3633 30.7221C3.28893 30.8729 3.22657 31.0173 3.17542 31.1553C3.13858 31.2547 3.02814 31.3054 2.92875 31.2686C2.82935 31.2317 2.77864 31.1213 2.81547 31.0219C2.87163 30.8704 2.93935 30.7139 3.019 30.5523L3.01902 30.5523C3.09232 30.4037 3.16621 30.2576 3.24073 30.114C3.28954 30.0199 3.40539 29.9832 3.49949 30.032ZM2.80096 31.8501C2.90695 31.852 2.99132 31.9395 2.98941 32.0454C2.98359 32.3689 3.05879 32.6447 3.19759 32.8828C3.25097 32.9744 3.22001 33.0919 3.12843 33.1453C3.03685 33.1987 2.91933 33.1677 2.86595 33.0761C2.69027 32.7748 2.59857 32.4292 2.6056 32.0385C2.60751 31.9326 2.69497 31.8482 2.80096 31.8501ZM3.55114 33.566C3.61005 33.4779 3.72924 33.4542 3.81737 33.5131C4.05359 33.671 4.33488 33.8061 4.65335 33.9203C4.75312 33.9561 4.80499 34.066 4.76919 34.1658C4.7334 34.2656 4.62349 34.3175 4.52372 34.2817C4.1834 34.1596 3.87233 34.0115 3.60405 33.8322C3.51592 33.7733 3.49223 33.6541 3.55114 33.566ZM5.34353 34.3224C5.3653 34.2186 5.46705 34.1522 5.57079 34.1739C5.87307 34.2374 6.19178 34.2879 6.52145 34.3274C6.6267 34.34 6.70181 34.4355 6.68921 34.5408C6.67662 34.646 6.58108 34.7211 6.47583 34.7085C6.13693 34.668 5.80696 34.6157 5.49196 34.5496C5.38822 34.5279 5.32176 34.4261 5.34353 34.3224ZM12.0654 34.4576C12.0755 34.5631 11.9982 34.6568 11.8927 34.667C11.7365 34.6819 11.5735 34.6966 11.4047 34.7107C11.2991 34.7195 11.2063 34.641 11.1975 34.5354C11.1887 34.4297 11.2672 34.3369 11.3729 34.3282C11.54 34.3142 11.7013 34.2997 11.856 34.2848C11.9615 34.2747 12.0553 34.3521 12.0654 34.4576ZM10.6022 34.5771C10.6081 34.6829 10.5271 34.7736 10.4213 34.7795C10.1029 34.7974 9.77315 34.8115 9.43736 34.8201C9.33139 34.8228 9.2433 34.7391 9.2406 34.6331C9.23791 34.5271 9.32163 34.439 9.42759 34.4363C9.75906 34.4279 10.0848 34.4139 10.3998 34.3962C10.5056 34.3903 10.5962 34.4713 10.6022 34.5771ZM7.28259 34.5918C7.2887 34.4859 7.37944 34.4051 7.48527 34.4112C7.8059 34.4297 8.13074 34.4401 8.45521 34.4438C8.56121 34.445 8.64616 34.5319 8.64495 34.6379C8.64374 34.7439 8.55684 34.8288 8.45084 34.8276C8.1212 34.8239 7.79039 34.8133 7.46314 34.7945C7.35731 34.7883 7.27648 34.6976 7.28259 34.5918Z" fill="black" fill-opacity="0.16"></path>
    <path fill-rule="evenodd" clip-rule="evenodd" d="M36.7665 16.4103C36.8388 16.4878 36.8346 16.6092 36.7571 16.6815C36.6387 16.7921 36.5198 16.8951 36.4006 16.9905C36.3179 17.0567 36.1971 17.0433 36.1309 16.9605C36.0647 16.8777 36.0781 16.757 36.1609 16.6908C36.272 16.6019 36.3834 16.5053 36.4953 16.401C36.5727 16.3287 36.6942 16.3328 36.7665 16.4103Z" fill="black" fill-opacity="0.16"></path>
    <path fill-rule="evenodd" clip-rule="evenodd" d="M16.6434 1.73314C16.3269 1.64455 16.017 1.61343 15.7562 1.6832C15.6538 1.7106 15.5486 1.64979 15.5212 1.54739C15.4938 1.44499 15.5546 1.33977 15.657 1.31237C16.0123 1.2173 16.3993 1.26618 16.7468 1.36347C16.8489 1.39205 16.9085 1.49796 16.8799 1.60004C16.8514 1.70212 16.7455 1.76171 16.6434 1.73314ZM17.4484 1.84224C17.4989 1.74903 17.6154 1.71439 17.7086 1.76487C17.8429 1.83761 17.9536 1.90424 18.031 1.9529C18.0697 1.97725 18.1002 1.99716 18.1213 2.01115C18.1318 2.01815 18.14 2.02367 18.1456 2.02753C18.1485 2.02946 18.1507 2.03098 18.1523 2.03206L18.1573 2.03536C18.1618 2.03832 18.1682 2.04262 18.1767 2.04829C18.1936 2.05961 18.2182 2.07635 18.2502 2.09854C18.3142 2.1429 18.4074 2.20902 18.5258 2.29703C18.6109 2.36026 18.6286 2.48049 18.5654 2.56557C18.5022 2.65065 18.3819 2.66836 18.2968 2.60513C18.1819 2.51973 18.0921 2.45605 18.0315 2.41398C18.0011 2.39294 17.9781 2.37731 17.9628 2.36706C17.9552 2.36193 17.9495 2.35815 17.9458 2.35572L17.9418 2.35307L17.9408 2.35245M17.9357 2.34903L17.9346 2.34824L17.9296 2.34486C17.9251 2.34178 17.9181 2.33706 17.9088 2.33089C17.8902 2.31854 17.8625 2.30039 17.8267 2.27789C17.755 2.23284 17.6516 2.17054 17.5258 2.10242C17.4326 2.05194 17.398 1.93545 17.4484 1.84224M15.0619 1.96215C15.1579 2.00696 15.1995 2.12116 15.1547 2.21723C15.0552 2.4304 14.9841 2.7219 14.9627 3.1156C14.9569 3.22144 14.8664 3.30257 14.7606 3.2968C14.6548 3.29104 14.5736 3.20056 14.5794 3.09471C14.6027 2.6676 14.6809 2.32477 14.8068 2.05497C14.8516 1.9589 14.9658 1.91734 15.0619 1.96215ZM18.9622 2.87998C19.0301 2.79857 19.1511 2.78761 19.2326 2.8555C19.4398 3.02831 19.6707 3.22849 19.9198 3.45625C19.998 3.52778 20.0034 3.64919 19.9319 3.72742C19.8604 3.80565 19.739 3.81108 19.6607 3.73955C19.4162 3.51592 19.1897 3.31957 18.9867 3.15031C18.9053 3.08242 18.8943 2.96139 18.9622 2.87998ZM14.7857 3.91761C14.8911 3.90651 14.9855 3.98298 14.9966 4.08841C15.0272 4.37891 15.0757 4.70095 15.1447 5.05747C15.1648 5.16154 15.0968 5.26223 14.9927 5.28237C14.8886 5.30251 14.7879 5.23446 14.7678 5.13039C14.697 4.76466 14.6467 4.43159 14.6149 4.12857C14.6038 4.02315 14.6802 3.9287 14.7857 3.91761ZM20.2999 4.07838C20.3746 4.00316 20.4962 4.00273 20.5714 4.07742C20.7745 4.27911 20.985 4.4959 21.2008 4.72787C21.273 4.80548 21.2686 4.92693 21.191 4.99913C21.1133 5.07132 20.9919 5.06693 20.9197 4.98931C20.7075 4.76119 20.5005 4.54805 20.3009 4.34981C20.2257 4.27512 20.2252 4.15359 20.2999 4.07838ZM21.5345 5.38319C21.6148 5.31407 21.736 5.32318 21.8051 5.40355C21.9957 5.62516 22.1887 5.85787 22.3826 6.10173C22.4485 6.1847 22.4348 6.30544 22.3518 6.37142C22.2688 6.43739 22.1481 6.42361 22.0821 6.34064C21.8914 6.10075 21.7016 5.87184 21.5141 5.65386C21.445 5.5735 21.4541 5.45231 21.5345 5.38319ZM15.1019 5.73836C15.2047 5.71247 15.309 5.77481 15.3349 5.8776C15.3745 6.03476 15.4173 6.19713 15.4634 6.36485C15.4915 6.46706 15.4315 6.5727 15.3293 6.60081C15.2271 6.62891 15.1214 6.56884 15.0933 6.46663C15.0465 6.29637 15.003 6.13134 14.9627 5.97137C14.9368 5.86858 14.9991 5.76426 15.1019 5.73836ZM22.6639 6.7799C22.7494 6.71716 22.8695 6.73558 22.9322 6.82103C23.1066 7.05854 23.2807 7.30506 23.4536 7.56062C23.513 7.64842 23.49 7.76774 23.4022 7.82714C23.3144 7.88653 23.195 7.86349 23.1356 7.77569C22.9656 7.52432 22.7943 7.28184 22.6228 7.0482C22.5601 6.96275 22.5785 6.84263 22.6639 6.7799ZM23.6817 8.25812C23.7717 8.20218 23.8901 8.22982 23.946 8.31986C24.1024 8.57156 24.2569 8.83098 24.4088 9.09814C24.4612 9.1903 24.4289 9.30747 24.3368 9.35986C24.2446 9.41224 24.1274 9.38 24.075 9.28785C23.9257 9.02512 23.7737 8.76999 23.6199 8.52244C23.564 8.4324 23.5916 8.31406 23.6817 8.25812ZM24.5825 9.81261C24.6766 9.76389 24.7925 9.80071 24.8412 9.89486C24.9781 10.1595 25.1121 10.431 25.2425 10.7094C25.2874 10.8054 25.246 10.9197 25.15 10.9646C25.054 11.0096 24.9398 10.9682 24.8948 10.8722C24.7667 10.5985 24.6349 10.3315 24.5002 10.0713C24.4515 9.97715 24.4883 9.86133 24.5825 9.81261ZM25.3583 11.4334C25.456 11.3923 25.5686 11.4381 25.6097 11.5358C25.7248 11.8094 25.8362 12.0891 25.9434 12.3748C25.9806 12.4741 25.9303 12.5847 25.831 12.6219C25.7318 12.6591 25.6211 12.6089 25.5839 12.5096C25.4786 12.2287 25.3691 11.9537 25.2559 11.6847C25.2148 11.587 25.2606 11.4745 25.3583 11.4334ZM26.0019 13.1066C26.1025 13.0734 26.2111 13.128 26.2443 13.2287C26.3381 13.5126 26.4275 13.802 26.5121 14.0969C26.5413 14.1988 26.4824 14.3051 26.3805 14.3343C26.2786 14.3636 26.1723 14.3046 26.1431 14.2028C26.0599 13.9127 25.972 13.6282 25.8798 13.3491C25.8466 13.2484 25.9012 13.1399 26.0019 13.1066ZM26.512 14.8295C26.6149 14.8043 26.7188 14.8673 26.744 14.9703C26.8147 15.259 26.8806 15.5527 26.9415 15.8513C26.9627 15.9552 26.8957 16.0565 26.7918 16.0777C26.6879 16.0989 26.5866 16.0319 26.5654 15.928C26.5055 15.6343 26.4406 15.3454 26.3711 15.0615C26.346 14.9586 26.409 14.8547 26.512 14.8295ZM26.8851 16.5859C26.9898 16.5687 27.0885 16.6396 27.1056 16.7442C27.1538 17.0381 27.197 17.3366 27.2349 17.6395C27.2481 17.7447 27.1735 17.8407 27.0683 17.8538C26.9631 17.867 26.8672 17.7924 26.854 17.6872C26.8167 17.3891 26.7742 17.0955 26.7268 16.8063C26.7096 16.7017 26.7805 16.603 26.8851 16.5859ZM27.1223 18.362C27.2279 18.3528 27.321 18.4309 27.3303 18.5365C27.3564 18.8348 27.3774 19.1373 27.3929 19.444C27.3983 19.5499 27.3169 19.6401 27.211 19.6454C27.1051 19.6508 27.0149 19.5693 27.0096 19.4635C26.9942 19.1615 26.9736 18.8637 26.9478 18.57C26.9386 18.4644 27.0167 18.3713 27.1223 18.362ZM27.2277 20.1547C27.3337 20.153 27.4209 20.2377 27.4226 20.3436C27.4271 20.6415 27.4265 20.943 27.4206 21.2482C27.4185 21.3542 27.3309 21.4385 27.2249 21.4364C27.1189 21.4343 27.0347 21.3467 27.0368 21.2408C27.0426 20.9399 27.0432 20.6429 27.0387 20.3495C27.0371 20.2435 27.1217 20.1563 27.2277 20.1547ZM27.2061 21.9525C27.3119 21.9581 27.3932 22.0485 27.3875 22.1544C27.3717 22.4501 27.3509 22.7492 27.3249 23.0517C27.3158 23.1573 27.2228 23.2355 27.1172 23.2265C27.0116 23.2174 26.9334 23.1244 26.9424 23.0188C26.9681 22.7205 26.9886 22.4255 27.0042 22.1339C27.0098 22.0281 27.1002 21.9468 27.2061 21.9525ZM27.0641 23.7455C27.1694 23.758 27.2446 23.8534 27.2322 23.9587C27.1976 24.2513 27.1581 24.5469 27.1135 24.8456C27.0979 24.9504 27.0002 25.0228 26.8954 25.0071C26.7906 24.9915 26.7182 24.8938 26.7339 24.789C26.7778 24.4941 26.8168 24.2023 26.851 23.9136C26.8634 23.8083 26.9589 23.733 27.0641 23.7455ZM26.8105 25.523C26.9149 25.5417 26.9842 25.6415 26.9655 25.7458C26.9134 26.0355 26.8566 26.3279 26.795 26.6231C26.7733 26.7268 26.6716 26.7934 26.5678 26.7717C26.4641 26.75 26.3975 26.6483 26.4192 26.5446C26.4801 26.2529 26.5362 25.964 26.5877 25.6779C26.6064 25.5736 26.7062 25.5042 26.8105 25.523ZM26.4537 27.2822C26.5568 27.3068 26.6206 27.4103 26.596 27.5134C26.5279 27.7995 26.4553 28.0881 26.378 28.3791C26.3508 28.4816 26.2457 28.5426 26.1433 28.5154C26.0408 28.4882 25.9798 28.3831 26.007 28.2806C26.0835 27.9927 26.1553 27.7074 26.2226 27.4245C26.2471 27.3214 26.3506 27.2577 26.4537 27.2822ZM26.0018 29.0216C26.1035 29.0514 26.1618 29.158 26.1319 29.2598C26.0494 29.5412 25.9626 29.8248 25.8712 30.1107C25.839 30.2117 25.731 30.2674 25.63 30.2352C25.529 30.2029 25.4733 30.0949 25.5056 29.9939C25.596 29.7109 25.6819 29.4302 25.7636 29.1518C25.7934 29.05 25.9 28.9918 26.0018 29.0216ZM25.4651 30.7309C25.5653 30.7655 25.6185 30.8748 25.5839 30.975C25.4876 31.2534 25.3872 31.5339 25.2825 31.8165C25.2457 31.9159 25.1352 31.9666 25.0358 31.9298C24.9364 31.893 24.8857 31.7825 24.9226 31.6831C25.0263 31.4032 25.1258 31.1253 25.221 30.8496C25.2557 30.7494 25.365 30.6963 25.4651 30.7309ZM24.8509 32.4126C24.9495 32.4516 24.9978 32.5631 24.9588 32.6617C24.9027 32.8035 24.8456 32.9459 24.7873 33.0888C24.7473 33.187 24.6353 33.2341 24.5371 33.1941C24.439 33.1541 24.3918 33.0421 24.4318 32.9439C24.4896 32.8023 24.5462 32.6612 24.6018 32.5205C24.6408 32.422 24.7523 32.3736 24.8509 32.4126Z" fill="black" fill-opacity="0.16"></path>
    <path fill-rule="evenodd" clip-rule="evenodd" d="M5.28437 12.3351C5.60571 12.2959 5.94746 12.3007 6.26641 12.3256C6.37209 12.3339 6.45106 12.4262 6.4428 12.5319C6.43454 12.6376 6.34217 12.7166 6.23649 12.7083C5.93284 12.6846 5.61844 12.6811 5.33091 12.7162C5.22569 12.729 5.12997 12.6541 5.11712 12.5489C5.10427 12.4437 5.17915 12.348 5.28437 12.3351ZM6.99804 12.6102C7.01823 12.5061 7.11896 12.4381 7.22302 12.4583C7.36497 12.4858 7.48184 12.5119 7.56354 12.5311C7.60441 12.5408 7.63652 12.5487 7.6586 12.5543C7.66965 12.5571 7.67819 12.5593 7.68407 12.5608L7.69089 12.5626L7.69276 12.5631L7.69349 12.5633L7.69358 12.5633C7.69359 12.5633 7.6936 12.5633 7.64396 12.7487L7.69358 12.5633C7.79597 12.5907 7.85678 12.6959 7.82937 12.7983C7.80196 12.9007 7.69674 12.9615 7.59435 12.9341M7.59435 12.9341L7.59412 12.934L7.59288 12.9337L7.58736 12.9323C7.58235 12.931 7.57472 12.929 7.56461 12.9264C7.54438 12.9213 7.51428 12.9139 7.47555 12.9048C7.39806 12.8865 7.28619 12.8616 7.14992 12.8352C7.04585 12.815 6.97786 12.7142 6.99804 12.6102M4.58045 12.7187C4.64571 12.8023 4.63088 12.9229 4.54735 12.9881C4.36839 13.1279 4.25397 13.3331 4.26468 13.6578C4.26818 13.7637 4.18512 13.8524 4.07918 13.8559C3.97323 13.8594 3.88451 13.7764 3.88102 13.6704C3.86649 13.2299 4.03028 12.9049 4.31104 12.6856C4.39458 12.6204 4.5152 12.6352 4.58045 12.7187ZM4.23114 14.3923C4.32853 14.3504 4.44141 14.3954 4.48325 14.4928C4.58538 14.7305 4.7264 14.9985 4.91309 15.2999C4.96891 15.39 4.9411 15.5083 4.85098 15.5641C4.76086 15.62 4.64256 15.5922 4.58674 15.502C4.3923 15.1881 4.24173 14.9031 4.13056 14.6444C4.08871 14.547 4.13374 14.4341 4.23114 14.3923ZM5.16343 16.0206C5.24879 15.9578 5.36894 15.976 5.43178 16.0614C5.60114 16.2914 5.79145 16.536 6.00436 16.796C6.07152 16.878 6.05949 16.9989 5.97748 17.0661C5.89547 17.1333 5.77454 17.1212 5.70737 17.0392C5.49077 16.7747 5.29635 16.5249 5.12265 16.289C5.0598 16.2036 5.07806 16.0835 5.16343 16.0206ZM6.33993 17.4911C6.41943 17.421 6.54072 17.4286 6.61084 17.5081C6.80749 17.7311 7.01854 17.9637 7.24471 18.2062C7.31701 18.2837 7.31276 18.4052 7.23524 18.4775C7.15771 18.5498 7.03626 18.5455 6.96396 18.468C6.73556 18.2231 6.52212 17.9879 6.32294 17.7621C6.25282 17.6826 6.26043 17.5613 6.33993 17.4911ZM7.6262 18.8871C7.70213 18.8132 7.82365 18.8148 7.89762 18.8907C8.10393 19.1025 8.32063 19.321 8.54811 19.5466C8.62339 19.6212 8.62391 19.7427 8.54928 19.818C8.47464 19.8933 8.35312 19.8938 8.27784 19.8192C8.04887 19.5921 7.8306 19.372 7.62265 19.1586C7.54869 19.0826 7.55027 18.9611 7.6262 18.8871ZM8.95409 20.2132C9.0276 20.1368 9.14911 20.1345 9.22548 20.208C9.44361 20.4179 9.67034 20.6334 9.90593 20.8545C9.98322 20.927 9.98707 21.0485 9.91453 21.1258C9.84198 21.2031 9.72051 21.2069 9.64322 21.1344C9.40652 20.9122 9.17862 20.6956 8.95929 20.4846C8.88291 20.411 8.88059 20.2895 8.95409 20.2132ZM10.321 21.5031C10.3927 21.425 10.5141 21.4198 10.5922 21.4915C10.8185 21.6994 11.052 21.9118 11.2931 22.129C11.3718 22.2 11.3782 22.3213 11.3072 22.4001C11.2362 22.4788 11.1149 22.4852 11.0361 22.4142C10.7942 22.1962 10.5597 21.9829 10.3325 21.7743C10.2545 21.7026 10.2493 21.5811 10.321 21.5031ZM11.7186 22.7676C11.7889 22.6882 11.9102 22.6809 11.9896 22.7512C12.2197 22.9551 12.4561 23.163 12.6989 23.3748C12.7788 23.4445 12.787 23.5658 12.7174 23.6457C12.6477 23.7255 12.5264 23.7338 12.4465 23.6641C12.203 23.4516 11.9659 23.2431 11.735 23.0385C11.6557 22.9682 11.6483 22.8469 11.7186 22.7676ZM13.1404 24.0122C13.2095 23.9319 13.3307 23.9228 13.411 23.9919C13.6423 24.191 13.8789 24.3933 14.1209 24.5991C14.2017 24.6678 14.2115 24.7889 14.1428 24.8697C14.0742 24.9504 13.953 24.9603 13.8723 24.8916C13.6296 24.6853 13.3925 24.4824 13.1606 24.2829C13.0803 24.2137 13.0712 24.0925 13.1404 24.0122ZM14.5853 25.2437C14.6535 25.1625 14.7746 25.152 14.8558 25.2202C15.0862 25.4138 15.3212 25.6103 15.5609 25.8097C15.6424 25.8775 15.6535 25.9985 15.5857 26.08C15.5179 26.1615 15.3969 26.1726 15.3154 26.1048C15.0752 25.905 14.8397 25.7081 14.6088 25.5141C14.5276 25.4459 14.5171 25.3248 14.5853 25.2437ZM16.024 26.4428C16.0914 26.3609 16.2123 26.3493 16.2941 26.4166C16.4187 26.5193 16.5445 26.6226 16.6715 26.7267C16.7977 26.8302 16.9233 26.9326 17.0482 27.0339C17.1305 27.1007 17.1431 27.2216 17.0763 27.3039C17.0095 27.3862 16.8886 27.3988 16.8063 27.3321C16.6809 27.2303 16.5548 27.1275 16.4281 27.0236C16.3009 26.9193 16.1749 26.8158 16.0501 26.7129C15.9682 26.6455 15.9566 26.5246 16.024 26.4428ZM17.5198 27.6599C17.5857 27.5768 17.7064 27.563 17.7894 27.6289C18.0338 27.8229 18.2756 28.0126 18.5147 28.1982C18.5984 28.2632 18.6136 28.3837 18.5487 28.4675C18.4837 28.5512 18.3631 28.5664 18.2793 28.5014C18.0391 28.315 17.7963 28.1244 17.5508 27.9295C17.4677 27.8636 17.4539 27.7429 17.5198 27.6599ZM34.8097 27.7768C34.8629 27.6851 34.9804 27.654 35.072 27.7073C35.2152 27.7904 35.3526 27.8814 35.4842 27.9793C35.5693 28.0425 35.587 28.1628 35.5237 28.2478C35.4605 28.3329 35.3402 28.3506 35.2552 28.2873C35.1349 28.1979 35.0095 28.1149 34.8792 28.0392C34.7875 27.9859 34.7564 27.8685 34.8097 27.7768ZM35.9346 28.6292C36.0144 28.5593 36.1356 28.5673 36.2055 28.6471C36.4216 28.8938 36.6122 29.1618 36.7756 29.4444C36.8286 29.5361 36.7972 29.6535 36.7055 29.7066C36.6137 29.7597 36.4963 29.7283 36.4432 29.6365C36.2919 29.3748 36.1158 29.1272 35.9167 28.9C35.8469 28.8203 35.8549 28.699 35.9346 28.6292ZM19.0067 28.8185C19.0706 28.734 19.191 28.7173 19.2755 28.7812C19.5286 28.9727 19.7786 29.1593 20.0255 29.3412C20.1109 29.404 20.1291 29.5242 20.0662 29.6095C20.0034 29.6949 19.8832 29.7131 19.7979 29.6502C19.5496 29.4674 19.2983 29.2798 19.0439 29.0874C18.9594 29.0234 18.9427 28.903 19.0067 28.8185ZM20.5177 29.9373C20.5794 29.8511 20.6993 29.8312 20.7855 29.8928C21.0471 30.0799 21.3051 30.2615 21.5596 30.4377C21.6467 30.498 21.6685 30.6176 21.6081 30.7047C21.5478 30.7919 21.4282 30.8136 21.3411 30.7533C21.085 30.576 20.8254 30.3933 20.5622 30.2051C20.476 30.1434 20.4561 30.0235 20.5177 29.9373ZM36.9393 30.216C37.0393 30.1809 37.1489 30.2335 37.184 30.3336C37.2929 30.6442 37.372 30.9636 37.4193 31.2846C37.4347 31.3895 37.3622 31.487 37.2574 31.5025C37.1525 31.5179 37.055 31.4454 37.0395 31.3405C36.9959 31.0442 36.9227 30.7486 36.8217 30.4606C36.7866 30.3606 36.8393 30.251 36.9393 30.216ZM22.061 31.0129C22.1199 30.9248 22.2391 30.9011 22.3272 30.96C22.5969 31.1403 22.8624 31.3143 23.1237 31.4821C23.2129 31.5394 23.2388 31.6582 23.1815 31.7474C23.1242 31.8365 23.0055 31.8624 22.9163 31.8051C22.653 31.636 22.3855 31.4607 22.1139 31.2792C22.0258 31.2203 22.0021 31.1011 22.061 31.0129ZM23.6441 32.0382C23.6996 31.9479 23.8178 31.9198 23.9081 31.9753C24.185 32.1455 24.4568 32.3085 24.7238 32.4645C24.8153 32.5179 24.8461 32.6355 24.7927 32.727C24.7392 32.8185 24.6216 32.8494 24.5301 32.7959C24.2606 32.6384 23.9863 32.4739 23.7071 32.3023C23.6168 32.2468 23.5886 32.1285 23.6441 32.0382ZM37.2826 32.063C37.3884 32.0697 37.4687 32.1609 37.462 32.2667C37.441 32.5986 37.3826 32.9253 37.284 33.2384C37.2522 33.3395 37.1444 33.3956 37.0433 33.3638C36.9422 33.332 36.886 33.2242 36.9179 33.1231C37.0065 32.8415 37.0597 32.5456 37.0789 32.2424C37.0856 32.1366 37.1768 32.0563 37.2826 32.063ZM25.2731 33.0002C25.3244 32.9074 25.4411 32.8737 25.5339 32.9249C25.8161 33.0806 26.0925 33.2282 26.3631 33.3678C26.4573 33.4164 26.4942 33.5322 26.4456 33.6264C26.397 33.7206 26.2813 33.7575 26.1871 33.7089C25.9132 33.5676 25.6337 33.4184 25.3484 33.261C25.2556 33.2098 25.2219 33.093 25.2731 33.0002ZM26.9507 33.8772C26.9963 33.7815 27.1108 33.7409 27.2065 33.7865C27.4936 33.9232 27.7736 34.0504 28.0467 34.1686C28.144 34.2107 28.1887 34.3236 28.1466 34.4209C28.1045 34.5182 27.9915 34.563 27.8943 34.5209C27.6168 34.4008 27.3326 34.2717 27.0415 34.133C26.9458 34.0875 26.9051 33.9729 26.9507 33.8772ZM36.8049 33.8707C36.8934 33.9291 36.9178 34.0481 36.8595 34.1366C36.6795 34.4094 36.4582 34.6597 36.1937 34.8794C36.1122 34.9471 35.9912 34.9359 35.9235 34.8544C35.8557 34.7728 35.8669 34.6518 35.9485 34.5841C36.1833 34.389 36.3794 34.1671 36.539 33.9252C36.5974 33.8367 36.7165 33.8123 36.8049 33.8707ZM28.6726 34.6358C28.7104 34.5367 28.8214 34.4872 28.9204 34.525C29.2246 34.6413 29.5191 34.7455 29.8042 34.8381C29.9051 34.8709 29.9602 34.9792 29.9275 35.08C29.8947 35.1808 29.7864 35.236 29.6856 35.2032C29.394 35.1085 29.0933 35.0021 28.7833 34.8836C28.6843 34.8457 28.6347 34.7348 28.6726 34.6358ZM35.4483 35.1475C35.492 35.2441 35.4492 35.3578 35.3526 35.4015C35.0701 35.5293 34.7587 35.6311 34.4178 35.7033C34.3141 35.7252 34.2122 35.6589 34.1903 35.5552C34.1683 35.4515 34.2346 35.3496 34.3383 35.3277C34.6539 35.2609 34.9387 35.1674 35.1943 35.0518C35.2909 35.0081 35.4046 35.0509 35.4483 35.1475ZM30.4631 35.237C30.4896 35.1344 30.5943 35.0727 30.6969 35.0992C31.0116 35.1805 31.3132 35.2465 31.6019 35.2981C31.7062 35.3168 31.7757 35.4165 31.757 35.5208C31.7383 35.6252 31.6386 35.6946 31.5343 35.676C31.2355 35.6225 30.9244 35.5545 30.6009 35.4709C30.4983 35.4444 30.4366 35.3397 30.4631 35.237ZM32.3115 35.5946C32.3201 35.489 32.4127 35.4103 32.5183 35.4188C32.8444 35.4452 33.1506 35.451 33.4375 35.4384C33.5434 35.4337 33.6331 35.5158 33.6378 35.6217C33.6424 35.7276 33.5604 35.8172 33.4545 35.8219C33.1504 35.8353 32.8281 35.829 32.4873 35.8014C32.3817 35.7929 32.303 35.7003 32.3115 35.5946Z" fill="black" fill-opacity="0.16"></path>
    <path d="M11.0218 22.9593C11.4882 22.9593 11.8662 22.5813 11.8662 22.115C11.8662 21.6487 11.4882 21.2706 11.0218 21.2706C10.5555 21.2706 10.1775 21.6487 10.1775 22.115C10.1775 22.5813 10.5555 22.9593 11.0218 22.9593Z" fill="#872166"></path>
    <path d="M0.411857 21.3014C0.258309 23.1056 1.60186 24.6871 3.40605 24.8407C6.10083 25.0633 8.90309 22.0154 8.90309 22.0154C8.90309 22.0154 6.4847 18.5222 3.95115 18.3149C2.14696 18.1537 0.557729 19.4972 0.411857 21.3014ZM4.97993 21.6776C4.91851 22.3993 4.28896 22.9367 3.56728 22.8753C2.8456 22.8138 2.30818 22.1843 2.3696 21.4626C2.43102 20.7409 3.06057 20.2035 3.78225 20.2649C4.50393 20.3264 5.04135 20.9559 4.97993 21.6776Z" fill="#872166"></path>
    <path d="M25.1471 11.3062C25.6134 11.3062 25.9914 10.9282 25.9914 10.4619C25.9914 9.99558 25.6134 9.61755 25.1471 9.61755C24.6808 9.61755 24.3027 9.99558 24.3027 10.4619C24.3027 10.9282 24.6808 11.3062 25.1471 11.3062Z" fill="#872166"></path>
    <path d="M20.2152 39.2289C19.9328 39.3969 19.6417 39.5077 19.3717 39.5083C19.2657 39.5085 19.18 39.5946 19.1802 39.7006C19.1804 39.8066 19.2665 39.8924 19.3725 39.8921C19.7404 39.8913 20.1012 39.7434 20.4114 39.5589C20.5026 39.5047 20.5325 39.3869 20.4783 39.2958C20.4241 39.2047 20.3064 39.1748 20.2152 39.2289Z" fill="black" fill-opacity="0.16"></path>
    <path d="M20.9641 38.9139C21.0371 38.9907 21.1586 38.9938 21.2354 38.9208C21.3462 38.8156 21.4356 38.7224 21.4977 38.6553C21.5288 38.6217 21.553 38.5945 21.5697 38.5755L21.589 38.5534L21.5942 38.5473L21.5982 38.5428L21.6135 38.5252C21.6269 38.5099 21.6463 38.4873 21.6714 38.4576C21.7216 38.3981 21.7944 38.31 21.8858 38.1941C21.9515 38.1109 21.9373 37.9902 21.8541 37.9246C21.7708 37.8589 21.6502 37.8731 21.5845 37.9563C21.4958 38.0687 21.4257 38.1536 21.3781 38.21C21.3543 38.2382 21.3361 38.2593 21.324 38.2732L21.3105 38.2886L21.3073 38.2922L21.3066 38.293L20.9641 38.9139L21.3025 38.2976L21.3016 38.2987L21.2978 38.3033L21.2813 38.3222C21.2666 38.3389 21.2445 38.3637 21.2158 38.3947C21.1583 38.4569 21.0747 38.544 20.971 38.6425C20.8942 38.7155 20.8911 38.837 20.9641 38.9139Z" fill="black" fill-opacity="0.16"></path>
    <path d="M18.6287 39.4198C18.7098 39.3515 18.7201 39.2304 18.6518 39.1494C18.5003 38.9695 18.3557 38.7065 18.2325 38.332C18.1993 38.2313 18.0908 38.1766 17.9901 38.2097C17.8895 38.2429 17.8347 38.3514 17.8678 38.452C18.0016 38.8583 18.1664 39.1689 18.3582 39.3967C18.4265 39.4777 18.5476 39.4881 18.6287 39.4198Z" fill="black" fill-opacity="0.16"></path>
    <path d="M22.1553 37.5176C22.242 37.5785 22.3617 37.5576 22.4227 37.4708C22.5777 37.25 22.7485 36.9966 22.9297 36.7118C22.9865 36.6224 22.9602 36.5037 22.8707 36.4468C22.7813 36.3899 22.6627 36.4163 22.6058 36.5058C22.4279 36.7854 22.2604 37.034 22.1085 37.2503C22.0476 37.337 22.0685 37.4567 22.1553 37.5176Z" fill="black" fill-opacity="0.16"></path>
    <path d="M17.8526 37.6038C17.9573 37.5871 18.0286 37.4886 18.0118 37.384C17.9656 37.0955 17.9286 36.772 17.9023 36.4098C17.8947 36.3041 17.8027 36.2246 17.697 36.2322C17.5913 36.2399 17.5118 36.3318 17.5195 36.4376C17.5464 36.8091 17.5846 37.1438 17.6328 37.4446C17.6495 37.5493 17.748 37.6206 17.8526 37.6038Z" fill="black" fill-opacity="0.16"></path>
    <path d="M23.1346 36.0121C23.2263 36.0653 23.3438 36.034 23.3969 35.9423C23.5405 35.6947 23.6873 35.4306 23.8352 35.1504C23.8847 35.0566 23.8488 34.9405 23.755 34.8911C23.6613 34.8416 23.5452 34.8775 23.4957 34.9712C23.3503 35.2467 23.2059 35.5064 23.0648 35.7498C23.0117 35.8415 23.0429 35.959 23.1346 36.0121Z" fill="black" fill-opacity="0.16"></path>
    <path d="M23.9866 34.4308C24.0822 34.4766 24.1968 34.4362 24.2426 34.3406C24.3689 34.077 24.4946 33.8021 24.6183 33.5161C24.6603 33.4188 24.6156 33.3058 24.5183 33.2638C24.421 33.2217 24.308 33.2664 24.2659 33.3637C24.1443 33.645 24.0207 33.9155 23.8965 34.1747C23.8507 34.2703 23.891 34.385 23.9866 34.4308Z" fill="black" fill-opacity="0.16"></path>
    <path d="M24.7133 32.7881C24.8121 32.8264 24.9233 32.7773 24.9616 32.6785C25.0681 32.4037 25.172 32.1204 25.2723 31.8286C25.3068 31.7283 25.2534 31.6191 25.1532 31.5847C25.0529 31.5502 24.9437 31.6035 24.9093 31.7038C24.8106 31.9907 24.7084 32.2695 24.6037 32.5397C24.5654 32.6386 24.6144 32.7497 24.7133 32.7881Z" fill="black" fill-opacity="0.16"></path>
    <path d="M24.7435 33.4775C25.2098 33.4775 25.5879 33.0995 25.5879 32.6332C25.5879 32.1668 25.2098 31.7888 24.7435 31.7888C24.2772 31.7888 23.8992 32.1668 23.8992 32.6332C23.8992 33.0995 24.2772 33.4775 24.7435 33.4775Z" fill="#872166"></path>
    <path d="M33.4956 28.3061C32.6503 26.7076 30.6649 26.098 29.0664 26.9434C26.68 28.2123 25.9684 32.2921 25.9684 32.2921C25.9684 32.2921 29.8915 33.9232 32.1329 32.7354C33.7321 31.8824 34.341 29.9047 33.4956 28.3061ZM29.4389 30.4533C29.104 29.811 29.3429 29.0211 29.9857 28.6786C30.6286 28.3361 31.4179 28.5827 31.7604 29.2255C32.1029 29.8683 31.8564 30.6577 31.2135 31.0001C30.5707 31.3426 29.782 31.0885 29.4389 30.4533Z" fill="#872166"></path>
    <path d="M26.6737 0.33587C24.883 0.0703927 23.2179 1.29776 22.9447 3.08827C22.543 5.75886 25.405 8.76083 25.405 8.76083C25.405 8.76083 29.0436 6.57457 29.4261 4.06479C29.6915 2.2741 28.4642 0.609023 26.6737 0.33587ZM25.9893 4.87354C25.27 4.7642 24.779 4.09971 24.8884 3.38044C24.9977 2.66116 25.6622 2.17018 26.3815 2.27952C27.1008 2.38885 27.5917 3.05334 27.4824 3.77262C27.3731 4.49189 26.7086 4.98287 25.9893 4.87354Z" fill="#872166"></path>
  </g>
  <defs>
    <clipPath id="clip0_82_3104">
      <rect width="40" height="40" fill="white" transform="translate(0 0.222412)"></rect>
    </clipPath>
  </defs>
</svg>
