<?xml version="1.0" encoding="UTF-8"?>
<svg xmlns="http://www.w3.org/2000/svg" width="40" height="41" viewBox="0 0 40 41" fill="none">
  <path fill-rule="evenodd" clip-rule="evenodd" d="M20.865 8.76109C20.4232 9.09246 20.3337 9.71927 20.665 10.1611L26.1841 17.5198C26.5154 17.9616 27.1422 18.0512 27.5841 17.7198C28.0259 17.3884 28.1154 16.7616 27.7841 16.3198L22.265 8.96109C21.9337 8.51927 21.3069 8.42972 20.865 8.76109Z" fill="#086981"></path>
  <path d="M5.99115 18.1383C5.61592 16.8578 6.57607 15.5759 7.91044 15.5759H32.6742C33.9945 15.5759 34.9525 16.8326 34.6028 18.1057L31.409 29.7316C30.9319 31.4683 29.353 32.672 27.5519 32.672H13.246C11.47 32.672 9.90676 31.5011 9.40737 29.7968L5.99115 18.1383Z" fill="#086981"></path>
  <path d="M20.323 32.672H27.5209C29.3401 32.672 30.935 31.4562 31.4169 29.7019L34.5955 18.1313C34.9488 16.8453 33.9811 15.5759 32.6475 15.5759H23.3296C23.3356 16.8749 23.1756 18.3314 22.6529 19.7867C22.257 20.889 21.6529 21.9905 21.0489 23.0921C19.9415 25.1116 18.8341 27.1311 19.0091 29.1552C19.1103 30.3262 19.6408 31.4989 20.323 32.672Z" fill="#29CFD4"></path>
  <path fill-rule="evenodd" clip-rule="evenodd" d="M19.6123 8.76109C20.0541 9.09246 20.1436 9.71927 19.8123 10.1611L14.2932 17.5198C13.9619 17.9616 13.3351 18.0512 12.8932 17.7198C12.4514 17.3884 12.3619 16.7616 12.6932 16.3198L18.2122 8.96109C18.5436 8.51927 19.1704 8.42972 19.6123 8.76109Z" fill="#086981"></path>
  <path d="M38.3358 21.458C38.2771 21.458 38.2088 21.4385 38.1599 21.3896L37.3297 20.5593C37.232 20.4617 37.232 20.3054 37.3297 20.2175C37.4273 20.1198 37.5836 20.1198 37.6715 20.2175L38.5018 21.0478C38.5995 21.1454 38.5995 21.3017 38.5018 21.3896C38.4627 21.4385 38.4041 21.458 38.3358 21.458ZM36.1966 19.3188C36.138 19.3188 36.0696 19.2993 36.0207 19.2504L35.1905 18.4202C35.0928 18.3225 35.0928 18.1662 35.1905 18.0783C35.2881 17.9806 35.4444 17.9806 35.5323 18.0783L36.3626 18.9086C36.4603 19.0062 36.4603 19.1625 36.3626 19.2504C36.3235 19.2993 36.2552 19.3188 36.1966 19.3188ZM31.9182 15.0404C31.8596 15.0404 31.7912 15.0209 31.7423 14.972L30.9121 14.1418C30.8144 14.0441 30.8144 13.8878 30.9121 13.7999C31.0097 13.7022 31.166 13.7022 31.2539 13.7999L32.0842 14.6302C32.1819 14.7278 32.1819 14.8841 32.0842 14.972C32.0354 15.0111 31.9768 15.0404 31.9182 15.0404ZM29.7692 12.8915C29.7106 12.8915 29.6422 12.8719 29.5934 12.8231L28.7631 11.9928C28.6654 11.8951 28.6654 11.7388 28.7631 11.6509C28.8608 11.5532 29.0171 11.5532 29.105 11.6509L29.9353 12.4812C30.0329 12.5789 30.0329 12.7352 29.9353 12.8231C29.8962 12.8719 29.8376 12.8915 29.7692 12.8915ZM27.63 10.7523C27.5714 10.7523 27.503 10.7327 27.4542 10.6839L26.6239 9.8536C26.5262 9.75592 26.5262 9.59963 26.6239 9.51172C26.7216 9.41404 26.8779 9.41404 26.9658 9.51172L27.7961 10.342C27.8937 10.4397 27.8937 10.596 27.7961 10.6839C27.757 10.7327 27.6984 10.7523 27.63 10.7523ZM25.4908 8.61306C25.4322 8.61306 25.3638 8.59353 25.315 8.54469L24.4847 7.71441C24.387 7.61673 24.387 7.46044 24.4847 7.37253C24.5824 7.27485 24.7387 7.27485 24.8266 7.37253L25.6569 8.20281C25.7546 8.30049 25.7546 8.45678 25.6569 8.54469C25.6178 8.59353 25.5494 8.61306 25.4908 8.61306ZM23.3516 6.47387C23.293 6.47387 23.2246 6.45433 23.1758 6.40549L22.3455 5.57521C22.2478 5.47753 22.2478 5.32124 22.3455 5.23333C22.4432 5.13565 22.5995 5.13565 22.6874 5.23333L23.5177 6.06361C23.6154 6.16129 23.6154 6.31758 23.5177 6.40549C23.4786 6.44456 23.4102 6.47387 23.3516 6.47387ZM21.2027 4.33467C21.144 4.33467 21.0757 4.31514 21.0268 4.2663L20.1966 3.43601C20.0989 3.33833 20.0989 3.18205 20.1966 3.09413C20.2942 2.99645 20.4505 2.99645 20.5384 3.09413L21.3687 3.92442C21.4664 4.0221 21.4664 4.17838 21.3687 4.2663C21.3296 4.30537 21.271 4.33467 21.2027 4.33467Z" fill="black" fill-opacity="0.16"></path>
  <path d="M20.0989 37.7313C19.9622 37.7313 19.8547 37.6239 19.8547 37.4871V36.315C19.8547 36.1782 19.9622 36.0708 20.0989 36.0708C20.2357 36.0708 20.3431 36.1782 20.3431 36.315V37.4871C20.3431 37.6239 20.2357 37.7313 20.0989 37.7313ZM20.0989 34.7033C19.9622 34.7033 19.8547 34.5958 19.8547 34.4591V33.2869C19.8547 33.1501 19.9622 33.0427 20.0989 33.0427C20.2357 33.0427 20.3431 33.1501 20.3431 33.2869V34.4591C20.3431 34.5958 20.2357 34.7033 20.0989 34.7033ZM19.8547 15.5739V15.1184C19.8547 14.9816 19.9622 14.8742 20.0989 14.8742C20.2357 14.8742 20.3431 14.9816 20.3431 15.1184V15.5739H19.8547ZM20.0989 13.5067C19.9622 13.5067 19.8547 13.3992 19.8547 13.2625V12.0903C19.8547 11.9535 19.9622 11.8461 20.0989 11.8461C20.2357 11.8461 20.3431 11.9535 20.3431 12.0903V13.2625C20.3431 13.3992 20.2357 13.5067 20.0989 13.5067ZM20.0989 10.4786C19.9622 10.4786 19.8547 10.3711 19.8547 10.2344V9.06221C19.8547 8.92546 19.9622 8.81801 20.0989 8.81801C20.2357 8.81801 20.3431 8.92546 20.3431 9.06221V10.2344C20.3431 10.3711 20.2357 10.4786 20.0989 10.4786ZM20.0989 7.45049C19.9622 7.45049 19.8547 7.34304 19.8547 7.20629V6.03413C19.8547 5.89737 19.9622 5.78993 20.0989 5.78993C20.2357 5.78993 20.3431 5.89737 20.3431 6.03413V7.20629C20.3431 7.34304 20.2357 7.45049 20.0989 7.45049ZM20.0989 4.4224C19.9622 4.4224 19.8547 4.31496 19.8547 4.1782V3.00604C19.8547 2.86929 19.9622 2.76184 20.0989 2.76184C20.2357 2.76184 20.3431 2.86929 20.3431 3.00604V4.1782C20.3431 4.31496 20.2357 4.4224 20.0989 4.4224Z" fill="black" fill-opacity="0.16"></path>
  <path d="M19.8743 39.4213C19.8157 39.4213 19.7474 39.4017 19.6985 39.3529L18.8682 38.5226C18.7706 38.4249 18.7706 38.2686 18.8682 38.1807C18.9659 38.0831 19.1222 38.0831 19.2101 38.1807L20.0404 39.011C20.1381 39.1087 20.1381 39.265 20.0404 39.3529C20.0013 39.392 19.9329 39.4213 19.8743 39.4213ZM17.7351 37.2723C17.6765 37.2723 17.6082 37.2528 17.5593 37.2039L16.729 36.3737C16.6314 36.276 16.6314 36.1197 16.729 36.0318C16.8267 35.9341 16.983 35.9341 17.0709 36.0318L17.9012 36.8621C17.9989 36.9597 17.9989 37.116 17.9012 37.2039C17.8621 37.2528 17.7937 37.2723 17.7351 37.2723ZM15.5959 35.1331C15.5373 35.1331 15.469 35.1136 15.4201 35.0647L14.5898 34.2345C14.4922 34.1368 14.4922 33.9805 14.5898 33.8926C14.6875 33.7949 14.8438 33.7949 14.9317 33.8926L15.762 34.7229C15.8597 34.8205 15.8597 34.9768 15.762 35.0647C15.7132 35.1136 15.6546 35.1331 15.5959 35.1331ZM9.16859 28.7155C9.10998 28.7155 9.0416 28.696 8.99276 28.6471L8.16248 27.8169C8.0648 27.7192 8.0648 27.5629 8.16248 27.475C8.26016 27.3773 8.41645 27.3773 8.50436 27.475L9.33464 28.3053C9.43232 28.4029 9.43232 28.5592 9.33464 28.6471C9.29557 28.6862 9.2272 28.7155 9.16859 28.7155ZM7.02939 26.5666C6.97078 26.5666 6.90241 26.547 6.85357 26.4982L6.02329 25.6679C5.92561 25.5702 5.92561 25.4139 6.02329 25.326C6.12097 25.2283 6.27725 25.2283 6.36517 25.326L7.19545 26.1563C7.29313 26.254 7.29313 26.4103 7.19545 26.4982C7.15638 26.547 7.088 26.5666 7.02939 26.5666ZM4.8902 24.4274C4.83159 24.4274 4.76321 24.4078 4.71437 24.359L3.88409 23.5287C3.78641 23.431 3.78641 23.2747 3.88409 23.1868C3.98177 23.0891 4.13806 23.0891 4.22597 23.1868L5.05625 24.0171C5.15393 24.1148 5.15393 24.2711 5.05625 24.359C5.00741 24.4078 4.9488 24.4274 4.8902 24.4274ZM2.74123 22.2882C2.68262 22.2882 2.61425 22.2686 2.56541 22.2198L1.73513 21.3895C1.63745 21.2918 1.63745 21.1355 1.73513 21.0476C1.83281 20.9499 1.98909 20.9499 2.07701 21.0476L2.90729 21.8779C3.00497 21.9756 3.00497 22.1319 2.90729 22.2198C2.86822 22.2686 2.80961 22.2882 2.74123 22.2882Z" fill="black" fill-opacity="0.16"></path>
  <path d="M38.2675 21.4674C38.1308 21.4674 38.0233 21.36 38.0233 21.2232C38.0233 21.0865 38.1308 20.979 38.2675 20.979H38.2773C38.414 20.979 38.5215 21.0865 38.5215 21.2232C38.5215 21.36 38.4043 21.4674 38.2675 21.4674ZM36.4018 21.4674H35.2297C35.0929 21.4674 34.9855 21.36 34.9855 21.2232C34.9855 21.0865 35.0929 20.979 35.2297 20.979H36.4018C36.5386 20.979 36.646 21.0865 36.646 21.2232C36.646 21.36 36.5386 21.4674 36.4018 21.4674ZM6.12096 21.4674H4.9488C4.81205 21.4674 4.7046 21.36 4.7046 21.2232C4.7046 21.0865 4.81205 20.979 4.9488 20.979H6.12096C6.25772 20.979 6.36516 21.0865 6.36516 21.2232C6.36516 21.36 6.25772 21.4674 6.12096 21.4674ZM3.09288 21.4674H1.92071C1.78396 21.4674 1.67651 21.36 1.67651 21.2232C1.67651 21.0865 1.78396 20.979 1.92071 20.979H3.09288C3.22963 20.979 3.33708 21.0865 3.33708 21.2232C3.33708 21.36 3.22963 21.4674 3.09288 21.4674Z" fill="black" fill-opacity="0.16"></path>
  <path d="M20.1282 39.6658C20.0696 39.6658 20.0013 39.6462 19.9524 39.5974C19.8547 39.4997 19.8547 39.3434 19.9524 39.2555L20.7827 38.4252C20.8804 38.3276 21.0367 38.3276 21.1246 38.4252C21.2223 38.5229 21.2223 38.6792 21.1246 38.7671L20.2943 39.5974C20.2552 39.6462 20.1868 39.6658 20.1282 39.6658ZM22.2674 37.5266C22.2088 37.5266 22.1404 37.5071 22.0916 37.4582C21.9939 37.3605 21.9939 37.2042 22.0916 37.1163L22.9219 36.286C23.0196 36.1884 23.1759 36.1884 23.2638 36.286C23.3614 36.3837 23.3614 36.54 23.2638 36.6279L22.4335 37.4582C22.3944 37.5071 22.326 37.5266 22.2674 37.5266ZM24.4066 35.3874C24.348 35.3874 24.2796 35.3679 24.2308 35.319C24.1331 35.2213 24.1331 35.065 24.2308 34.9771L25.0611 34.1468C25.1588 34.0492 25.3151 34.0492 25.403 34.1468C25.5006 34.2445 25.5006 34.4008 25.403 34.4887L24.5727 35.319C24.5336 35.3679 24.475 35.3874 24.4066 35.3874ZM26.5458 33.2482C26.4872 33.2482 26.4188 33.2287 26.37 33.1798C26.2723 33.0821 26.2723 32.9258 26.37 32.8379L27.2003 32.0077C27.298 31.91 27.4542 31.91 27.5422 32.0077C27.6398 32.1053 27.6398 32.2616 27.5422 32.3495L26.7119 33.1798C26.6728 33.2189 26.6142 33.2482 26.5458 33.2482ZM28.6948 31.109C28.6362 31.109 28.5678 31.0895 28.519 31.0406C28.4213 30.9429 28.4213 30.7866 28.519 30.6987L29.3492 29.8685C29.4469 29.7708 29.6032 29.7708 29.6911 29.8685C29.7888 29.9661 29.7888 30.1224 29.6911 30.2103L28.8608 31.0406C28.812 31.0797 28.7534 31.109 28.6948 31.109ZM30.834 28.96C30.7754 28.96 30.707 28.9405 30.6582 28.8917C30.5605 28.794 30.5605 28.6377 30.6582 28.5498L31.4884 27.7195C31.5861 27.6218 31.7424 27.6218 31.8303 27.7195C31.928 27.8172 31.928 27.9735 31.8303 28.0614L31 28.8917C30.961 28.9405 30.8926 28.96 30.834 28.96ZM32.9732 26.8208C32.9146 26.8208 32.8462 26.8013 32.7974 26.7525C32.6997 26.6548 32.6997 26.4985 32.7974 26.4106L33.6276 25.5803C33.7253 25.4826 33.8816 25.4826 33.9695 25.5803C34.0672 25.678 34.0672 25.8343 33.9695 25.9222L33.1392 26.7525C33.1002 26.8013 33.0318 26.8208 32.9732 26.8208ZM35.1124 24.6816C35.0538 24.6816 34.9854 24.6621 34.9366 24.6133C34.8389 24.5156 34.8389 24.3593 34.9366 24.2714L35.7668 23.4411C35.8645 23.3434 36.0208 23.3434 36.1087 23.4411C36.2064 23.5388 36.2064 23.6951 36.1087 23.783L35.2784 24.6133C35.2394 24.6621 35.1808 24.6816 35.1124 24.6816ZM37.2516 22.5424C37.193 22.5424 37.1246 22.5229 37.0757 22.4741C36.9781 22.3764 36.9781 22.2201 37.0757 22.1322L37.906 21.3019C38.0037 21.2042 38.16 21.2042 38.2479 21.3019C38.3456 21.3996 38.3456 21.5559 38.2479 21.6438L37.4176 22.4741C37.3786 22.5131 37.32 22.5424 37.2516 22.5424Z" fill="black" fill-opacity="0.16"></path>
  <path d="M20.1281 40.2224C20.5327 40.2224 20.8607 39.8944 20.8607 39.4898C20.8607 39.0852 20.5327 38.7572 20.1281 38.7572C19.7235 38.7572 19.3955 39.0852 19.3955 39.4898C19.3955 39.8944 19.7235 40.2224 20.1281 40.2224Z" fill="#872166"></path>
  <ellipse cx="20.1901" cy="33.3537" rx="1.21212" ry="1.21212" fill="#872166"></ellipse>
  <path d="M38.2673 21.9563C38.6719 21.9563 38.9999 21.6283 38.9999 21.2237C38.9999 20.8191 38.6719 20.4911 38.2673 20.4911C37.8627 20.4911 37.5347 20.8191 37.5347 21.2237C37.5347 21.6283 37.8627 21.9563 38.2673 21.9563Z" fill="#872166"></path>
  <path d="M2.16461 21.2041C2.106 21.2041 2.03763 21.1846 1.98879 21.1357C1.89111 21.038 1.89111 20.8818 1.98879 20.7938L2.81907 19.9636C2.91675 19.8659 3.07304 19.8659 3.16095 19.9636C3.25863 20.0612 3.25863 20.2175 3.16095 20.3054L2.33067 21.1357C2.2916 21.1846 2.23299 21.2041 2.16461 21.2041ZM4.31358 19.0649C4.25497 19.0649 4.18659 19.0454 4.13775 18.9965C4.04007 18.8988 4.04007 18.7426 4.13775 18.6546L4.96803 17.8244C5.06571 17.7267 5.222 17.7267 5.30992 17.8244C5.4076 17.922 5.4076 18.0783 5.30992 18.1662L4.47963 18.9965C4.43079 19.0454 4.37218 19.0649 4.31358 19.0649ZM8.59197 14.7865C8.53336 14.7865 8.46499 14.767 8.41615 14.7181C8.31847 14.6205 8.31847 14.4642 8.41615 14.3763L9.24643 13.546C9.34411 13.4483 9.5004 13.4483 9.58831 13.546C9.68599 13.6437 9.68599 13.7999 9.58831 13.8879L8.75803 14.7181C8.71896 14.7572 8.65058 14.7865 8.59197 14.7865ZM10.7312 12.6473C10.6726 12.6473 10.6042 12.6278 10.5553 12.5789C10.4577 12.4813 10.4577 12.325 10.5553 12.2371L11.3856 11.4068C11.4833 11.3091 11.6396 11.3091 11.7275 11.4068C11.8252 11.5045 11.8252 11.6607 11.7275 11.7487L10.8972 12.5789C10.8582 12.618 10.7995 12.6473 10.7312 12.6473ZM12.8704 10.4984C12.8118 10.4984 12.7434 10.4788 12.6945 10.43C12.5969 10.3323 12.5969 10.176 12.6945 10.0881L13.5248 9.25781C13.6225 9.16013 13.7788 9.16013 13.8667 9.25781C13.9644 9.35549 13.9644 9.51178 13.8667 9.59969L13.0364 10.43C12.9973 10.4788 12.9387 10.4984 12.8704 10.4984ZM15.0193 8.35916C14.9607 8.35916 14.8923 8.33962 14.8435 8.29078C14.7458 8.1931 14.7458 8.03681 14.8435 7.9489L15.6738 7.11862C15.7715 7.02094 15.9278 7.02094 16.0157 7.11862C16.1133 7.2163 16.1133 7.37259 16.0157 7.4605L15.1854 8.29078C15.1365 8.33962 15.0779 8.35916 15.0193 8.35916ZM17.1585 6.21996C17.0999 6.21996 17.0315 6.20043 16.9827 6.15159C16.885 6.05391 16.885 5.89762 16.9827 5.8097L17.813 4.97942C17.9107 4.88174 18.067 4.88174 18.1549 4.97942C18.2525 5.0771 18.2525 5.23339 18.1549 5.3213L17.3246 6.15159C17.2855 6.20043 17.2171 6.21996 17.1585 6.21996ZM19.2977 4.08077C19.2391 4.08077 19.1707 4.06123 19.1219 4.01239C19.0242 3.91471 19.0242 3.75842 19.1219 3.67051L19.9522 2.84023C20.0499 2.74255 20.2062 2.74255 20.2941 2.84023C20.3917 2.93791 20.3917 3.0942 20.2941 3.18211L19.4638 4.01239C19.4247 4.05146 19.3563 4.08077 19.2977 4.08077Z" fill="black" fill-opacity="0.16"></path>
  <path d="M1.92059 21.9563C2.32519 21.9563 2.65319 21.6283 2.65319 21.2237C2.65319 20.8191 2.32519 20.4911 1.92059 20.4911C1.51599 20.4911 1.18799 20.8191 1.18799 21.2237C1.18799 21.6283 1.51599 21.9563 1.92059 21.9563Z" fill="#872166"></path>
  <path d="M20.0598 5.79018C21.5973 5.79018 22.8436 4.5438 22.8436 3.0063C22.8436 1.4688 21.5973 0.222412 20.0598 0.222412C18.5223 0.222412 17.2759 1.4688 17.2759 3.0063C17.2759 4.5438 18.5223 5.79018 20.0598 5.79018Z" fill="#872166"></path>
  <path fill-rule="evenodd" clip-rule="evenodd" d="M18.5851 24.3023C18.7271 24.4715 18.7051 24.7238 18.5358 24.8658L17.7231 25.5478C17.5538 25.6898 17.3015 25.6677 17.1595 25.4985C17.0175 25.3293 17.0396 25.077 17.2088 24.935L18.0216 24.253C18.1908 24.111 18.4431 24.1331 18.5851 24.3023Z" fill="white"></path>
  <path fill-rule="evenodd" clip-rule="evenodd" d="M17.122 20.9765C17.264 20.8073 17.5163 20.7852 17.6856 20.9272L18.4983 21.6092C18.6676 21.7512 18.6896 22.0035 18.5476 22.1727C18.4056 22.3419 18.1533 22.364 17.9841 22.222L17.1713 21.54C17.0021 21.398 16.98 21.1457 17.122 20.9765Z" fill="white"></path>
  <path fill-rule="evenodd" clip-rule="evenodd" d="M22.4618 20.9637C22.6038 21.1329 22.5818 21.3852 22.4125 21.5272L21.5998 22.2092C21.4305 22.3512 21.1782 22.3291 21.0362 22.1599C20.8942 21.9906 20.9163 21.7383 21.0855 21.5963L21.8983 20.9144C22.0675 20.7724 22.3198 20.7944 22.4618 20.9637Z" fill="white"></path>
  <path fill-rule="evenodd" clip-rule="evenodd" d="M21.2671 23.2939C21.2671 23.073 21.4462 22.8939 21.6671 22.8939H22.8675C23.0884 22.8939 23.2675 23.073 23.2675 23.2939C23.2675 23.5148 23.0884 23.6939 22.8675 23.6939H21.6671C21.4462 23.6939 21.2671 23.5148 21.2671 23.2939Z" fill="white"></path>
  <path fill-rule="evenodd" clip-rule="evenodd" d="M16.4658 23.2939C16.4658 23.073 16.6449 22.8939 16.8658 22.8939H18.0662C18.2871 22.8939 18.4662 23.073 18.4662 23.2939C18.4662 23.5148 18.2871 23.6939 18.0662 23.6939H16.8658C16.6449 23.6939 16.4658 23.5148 16.4658 23.2939Z" fill="white"></path>
  <path d="M19.7166 28.502V23.3127C19.7166 23.2451 19.7951 23.208 19.8473 23.2509L23.7817 26.4827C23.8348 26.5263 23.8119 26.6121 23.7441 26.6234L22.4224 26.8437C22.2792 26.8676 22.2084 27.0312 22.2889 27.1519L22.9033 28.0736C22.9658 28.1674 22.9385 28.2944 22.8429 28.3541L21.9899 28.8873C21.895 28.9466 21.77 28.9165 21.7124 28.8206L21.0487 27.7144C20.9818 27.6028 20.8278 27.5839 20.7358 27.6759L19.8531 28.5586C19.8027 28.6089 19.7166 28.5733 19.7166 28.502Z" fill="white"></path>
  <path fill-rule="evenodd" clip-rule="evenodd" d="M19.8668 19.8927C20.0877 19.8927 20.2668 20.0718 20.2668 20.2927V21.4931C20.2668 21.714 20.0877 21.8931 19.8668 21.8931C19.6459 21.8931 19.4668 21.714 19.4668 21.4931V20.2927C19.4668 20.0718 19.6459 19.8927 19.8668 19.8927Z" fill="white"></path>
</svg>
