<svg width="43" height="24" viewBox="0 0 43 24" fill="none" xmlns="http://www.w3.org/2000/svg">
  <path fill-rule="evenodd" clip-rule="evenodd" d="M7.15678 9.88237C11.0173 9.88237 14.3136 12.9412 14.3136 16.9412C14.3136 20.9412 11.0173 24 7.15678 24C3.29628 24 0 20.9706 0 16.9412C0 12.9118 3.29628 9.88237 7.15678 9.88237ZM7.18648 14.1177C8.73068 14.1177 10.0373 15.3529 10.0373 16.9412C10.0373 18.5294 8.73068 19.7647 7.18648 19.7647C5.64228 19.7647 4.33564 18.5588 4.33564 16.9412C4.30595 15.3235 5.64228 14.1177 7.18648 14.1177Z" fill="white"/>
  <path fill-rule="evenodd" clip-rule="evenodd" d="M21.5003 9.88237C25.3608 9.88237 28.6571 12.9412 28.6571 16.9412C28.6571 20.9412 25.3608 24 21.5003 24C17.6398 24 14.3435 20.9706 14.3435 16.9412C14.3435 12.9118 17.6398 9.88237 21.5003 9.88237ZM21.53 14.1177C23.0742 14.1177 24.3808 15.3529 24.3808 16.9412C24.3808 18.5294 23.0742 19.7647 21.53 19.7647C19.9858 19.7647 18.6791 18.5588 18.6791 16.9412C18.6791 15.3235 19.9858 14.1177 21.53 14.1177Z" fill="white"/>
  <path fill-rule="evenodd" clip-rule="evenodd" d="M35.8433 9.88237C39.7038 9.88237 43.0001 12.9412 43.0001 16.9412C43.0001 20.9412 39.7038 24 35.8433 24C31.9828 24 28.6865 20.9706 28.6865 16.9412C28.6865 12.9118 32.0125 9.88237 35.8433 9.88237ZM35.9027 14.1177C37.4469 14.1177 38.7535 15.3529 38.7535 16.9412C38.7535 18.5294 37.4469 19.7647 35.9027 19.7647C34.3585 19.7647 33.0519 18.5588 33.0519 16.9412C33.0222 15.3235 34.3585 14.1177 35.9027 14.1177Z" fill="white"/>
  <path fill-rule="evenodd" clip-rule="evenodd" d="M7.15678 0C11.0173 0 14.3136 3.05882 14.3136 7.05881C14.3136 11.0588 11.0173 14.1176 7.15678 14.1176C3.29628 14.1176 0 11.0882 0 7.05881C0 3.02941 3.29628 0 7.15678 0ZM7.18648 4.23529C8.73068 4.23529 10.0373 5.47058 10.0373 7.05881C10.0373 8.64705 8.73068 9.88234 7.18648 9.88234C5.64228 9.88234 4.33564 8.67646 4.33564 7.05881C4.33564 5.44117 5.64228 4.23529 7.18648 4.23529Z" fill="white"/>
  <path fill-rule="evenodd" clip-rule="evenodd" d="M21.5003 0C25.3608 0 28.6571 3.05882 28.6571 7.05881C28.6571 11.0588 25.3608 14.1176 21.5003 14.1176C17.6398 14.1176 14.3435 11.0588 14.3435 7.05881C14.3435 3.02941 17.6398 0 21.5003 0ZM21.53 4.23529C23.0742 4.23529 24.3808 5.47058 24.3808 7.05881C24.3808 8.64705 23.0742 9.88234 21.53 9.88234C19.9858 9.88234 18.6791 8.67646 18.6791 7.05881C18.6791 5.44117 19.9858 4.23529 21.53 4.23529Z" fill="white"/>
  <path fill-rule="evenodd" clip-rule="evenodd" d="M35.8433 0C39.7038 0 43.0001 3.05882 43.0001 7.05881C43.0001 11.0588 39.7038 14.1176 35.8433 14.1176C31.9828 14.1176 28.6865 11.0588 28.6865 7.05881C28.7162 3.02941 32.0125 0 35.8433 0ZM35.9027 4.23529C37.4469 4.23529 38.7535 5.47058 38.7535 7.05881C38.7535 8.64705 37.4469 9.88234 35.9027 9.88234C34.3585 9.88234 33.0519 8.67646 33.0519 7.05881C33.0519 5.44117 34.3585 4.23529 35.9027 4.23529Z" fill="white"/>
  <path fill-rule="evenodd" clip-rule="evenodd" d="M12.2646 12C10.9579 13.3235 9.11676 14.1177 7.15682 14.1177C5.16717 14.1177 3.3557 13.3235 2.04907 12C3.3557 10.6765 5.19687 9.88237 7.15682 9.88237C9.11676 9.88237 10.9282 10.6765 12.2646 12Z" fill="#F1F1F1"/>
  <path fill-rule="evenodd" clip-rule="evenodd" d="M26.6081 12C25.3014 13.3235 23.4603 14.1177 21.5003 14.1177C19.5107 14.1177 17.6992 13.3235 16.3926 12C17.6992 10.6765 19.5404 9.88237 21.5003 9.88237C23.4603 9.88237 25.3014 10.6765 26.6081 12Z" fill="#F1F1F1"/>
  <path fill-rule="evenodd" clip-rule="evenodd" d="M40.9508 12C39.6442 13.3235 37.803 14.1177 35.8431 14.1177C33.8535 14.1177 32.042 13.3235 30.7354 12C32.042 10.6765 33.8831 9.88237 35.8431 9.88237C37.8327 9.88237 39.6442 10.6765 40.9508 12Z" fill="#F1F1F1"/>
</svg>
