<svg width="70" height="29" viewBox="0 0 70 29" fill="none" xmlns="http://www.w3.org/2000/svg">
  <path d="M69.1377 0H69.5363C69.7432 0.175945 69.9099 0.395213 70 0.6525V2.08216C69.8404 2.46854 69.786 2.88674 69.6469 3.28018C69.4596 3.86107 69.1787 4.42162 68.7543 4.86723C68.2576 5.38799 67.6592 5.8 67.0582 6.19256C65.5788 7.13594 64.0451 7.99091 62.5024 8.8282C59.3858 10.4913 56.2158 12.0615 52.9548 13.4284C52.689 13.4974 52.426 13.5708 52.1585 13.63C52.1834 13.3197 52.5143 13.1923 52.7372 13.035C58.1339 9.84055 62.9679 5.79823 67.439 1.43939C67.9829 0.936311 68.4841 0.366921 69.1377 0Z" fill="#FFFFFF"/>
  <path d="M67.4568 6.58956C67.653 6.49672 67.9303 6.58867 67.9749 6.81501C68.0454 7.15187 67.908 7.48697 67.7814 7.79288C67.2758 8.88834 66.4813 9.87681 65.4362 10.5063C64.8789 10.8246 64.2645 11.0262 63.6626 11.2428C60.7136 12.2384 57.6809 12.9651 54.6446 13.645C54.6749 13.6645 54.7373 13.7034 54.7685 13.7237C54.7159 13.7361 54.6125 13.7609 54.5599 13.7732C54.518 13.6053 54.131 13.6689 54.3218 13.8272C53.9722 13.8838 53.5959 13.897 53.2963 14.1057C53.249 14.0429 53.2036 13.9801 53.159 13.9165C52.8139 13.9333 52.4715 13.9669 52.1282 13.9969C52.1362 13.874 52.146 13.752 52.1585 13.63C52.426 13.5708 52.689 13.4974 52.9548 13.4284C53.1724 13.3886 53.3891 13.3356 53.5986 13.2613C54.7168 12.8732 55.8065 12.409 56.8873 11.9263C59.945 10.5435 62.9465 9.03599 65.882 7.41181C66.4046 7.13419 66.9022 6.80175 67.4568 6.58956Z" fill="#FFFFFF"/>
  <path d="M64.919 11.2375C65.1615 11.195 65.479 11.0527 65.6787 11.2675C65.9186 11.5805 65.6689 11.9669 65.5084 12.2543C64.9306 13.111 64.1797 13.9058 63.1988 14.3002C62.7334 14.5239 62.2081 14.492 61.7079 14.5451C59.096 14.6954 56.4824 14.5106 53.8813 14.2798C53.6815 14.2445 53.4506 14.256 53.2963 14.1048C53.5959 13.8961 53.9722 13.8829 54.3218 13.8263C54.3815 13.813 54.5001 13.7856 54.5599 13.7723C54.6125 13.76 54.7159 13.7352 54.7685 13.7228C56.5734 13.424 58.3639 13.0411 60.1367 12.5885C61.7462 12.195 63.3192 11.669 64.919 11.2375Z" fill="#FFFFFF"/>
  <path d="M11.5665 12.8306C12.1559 12.5468 12.8015 12.3417 13.4543 12.2754C13.6121 13.4548 13.4864 14.6511 13.5791 15.835C14.0116 15.6449 14.3531 15.3063 14.7758 15.0967C15.2208 14.8553 15.7282 14.7448 16.2338 14.7466C16.8134 14.7298 17.4982 14.7501 17.8995 15.2329C18.2321 15.5848 18.1866 16.0923 18.1982 16.537C18.2758 17.7642 18.2428 18.9949 18.2856 20.223C18.5121 20.3804 18.7297 20.5537 18.9018 20.7703C18.2669 20.9109 17.607 20.8445 16.9623 20.8481C16.9543 19.4688 16.9596 18.0887 16.9596 16.7094C16.9543 16.4804 16.9801 16.247 16.9329 16.0215C16.7822 15.8438 16.6199 15.644 16.3987 15.5556C15.8352 15.5043 15.2395 15.5627 14.7482 15.8615C14.346 16.1073 13.9554 16.3734 13.5782 16.6555C13.5167 16.812 13.5488 16.9861 13.5399 17.1506C13.5541 18.1488 13.5229 19.1479 13.5541 20.1452C13.6995 20.3866 14.0143 20.5112 14.1775 20.7588C13.8573 20.8348 13.5265 20.8569 13.1975 20.8534C12.6624 20.8472 12.1176 20.887 11.5924 20.7579C11.7636 20.5448 11.9856 20.3848 12.1961 20.2141C12.254 20.0859 12.2255 19.9409 12.2353 19.8057C12.2201 17.6908 12.2522 15.575 12.2183 13.4602C11.9829 13.2709 11.7065 13.1083 11.5665 12.8306Z" fill="#FFFFFF"/>
  <path d="M0.205987 12.5178C1.53108 12.4347 2.86331 12.4869 4.19108 12.471C4.9321 12.4922 5.68382 12.4144 6.41503 12.5656C6.53452 12.9758 6.50866 13.409 6.40076 13.8184C5.98611 13.7043 5.6972 13.3719 5.33605 13.165C4.23924 13.1199 3.13796 13.1509 2.04025 13.1517C2.04204 14.0969 2.0465 15.0412 2.05631 15.9863C2.79108 15.9987 3.53032 16.0349 4.26331 15.9899C4.62535 15.8272 4.91873 15.5407 5.29325 15.3975C5.34764 16.0349 5.37083 16.6821 5.26382 17.3152C4.91427 17.1392 4.61732 16.8784 4.26866 16.7051C3.53121 16.6724 2.79108 16.7184 2.05274 16.7113C2.05006 17.8642 2.04115 19.0163 2.04025 20.1683C3.0256 20.1825 4.01095 20.1666 4.99631 20.1772C5.17911 20.1648 5.38955 20.2063 5.54382 20.0843C5.88535 19.8359 6.20459 19.5521 6.58624 19.3629C6.70841 19.8492 6.67898 20.354 6.67095 20.8509C4.44701 20.8615 2.22306 20.8447 0 20.858V20.7996C0.263057 20.4884 0.785605 20.2824 0.73121 19.8085C0.726752 17.683 0.730318 15.5566 0.729427 13.4311C0.765096 13.0536 0.343312 12.8971 0.152484 12.6301C0.16586 12.6027 0.192611 12.5461 0.205987 12.5178Z" fill="#FFFFFF"/>
  <path d="M20.1359 13.3337C20.5301 13.0198 21.1694 13.1772 21.3986 13.6184C21.247 13.9845 20.8466 14.3072 20.432 14.1427C20.0726 14.0817 19.8639 13.6016 20.1359 13.3337Z" fill="#FFFFFF"/>
  <path d="M38.5508 13.2011C38.9361 13.0729 39.5246 13.3125 39.4818 13.7732C39.2749 14.3541 38.294 14.2568 38.1077 13.7007C38.1228 13.4602 38.3359 13.2807 38.5508 13.2011Z" fill="#FFFFFF"/>
  <path d="M8.39732 14.2453C8.67821 14.072 8.93771 13.8457 9.26764 13.7696C9.36484 14.0932 9.35236 14.4319 9.35681 14.7661C9.89185 14.8059 10.4492 14.6945 10.9682 14.8536C11.1554 14.9058 11.1224 15.1197 11.1313 15.2683C10.5883 15.4318 10.0104 15.3355 9.45223 15.3832C9.40229 15.5238 9.35325 15.667 9.35949 15.8191C9.34611 17.1188 9.34879 18.4194 9.35771 19.7191C9.35414 19.9534 9.41478 20.1806 9.47452 20.4052C9.66357 20.4326 9.86242 20.4582 10.047 20.391C10.3627 20.2999 10.6159 20.0267 10.9646 20.0595C11.0805 20.2327 11.0074 20.452 10.8433 20.567C10.4929 20.826 10.0657 20.9763 9.63325 21.0267C9.0349 21.0886 8.39732 20.7677 8.15121 20.2133C8.02369 19.735 8.05044 19.2337 8.04064 18.743C8.03885 17.8288 8.03974 16.9137 8.0335 15.9995C8.04064 15.7917 7.98981 15.5892 7.92115 15.3947C7.62777 15.3638 7.32993 15.3611 7.0428 15.2842C7.41732 14.8509 7.93541 14.576 8.39732 14.2453Z" fill="#FFFFFF"/>
  <path d="M33.3468 14.7626C34.3054 14.5539 35.3906 14.7909 36.0968 15.4894C36.4428 15.813 36.7005 16.2214 36.8735 16.6591C37.0857 17.1507 36.9823 17.6953 37.0082 18.2134C37.0581 19.0932 36.4696 19.8579 35.8329 20.407C35.1605 20.9843 34.2082 21.0356 33.3664 20.9189C32.826 20.8376 32.3561 20.5476 31.8406 20.3902C31.8192 21.1037 31.8094 21.8199 31.8326 22.5343C31.9735 22.7686 32.2152 22.9312 32.3685 23.1602C31.9913 23.261 31.5972 23.238 31.2111 23.2451C30.7634 23.2407 30.3087 23.2716 29.8717 23.1549C30.0394 22.9348 30.2712 22.78 30.4808 22.6041C30.528 22.4724 30.5084 22.3291 30.5155 22.1921C30.5102 20.3646 30.5129 18.537 30.5138 16.7095C30.5075 16.484 30.5369 16.2533 30.4826 16.0322C30.2739 15.8722 30.0322 15.7528 29.853 15.5566C29.8619 15.523 29.8797 15.4549 29.8896 15.4204C30.4808 15.1861 31.0961 14.9527 31.7372 14.9164C31.7818 15.0464 31.8237 15.1773 31.8656 15.3081C32.348 15.1003 32.8162 14.8342 33.3468 14.7626ZM33.4662 15.4018C32.8215 15.462 32.1206 15.759 31.8326 16.362C31.8059 17.125 31.8308 17.8898 31.8228 18.6537C31.8353 18.9826 31.7747 19.3593 32.0127 19.6281C32.3248 19.9906 32.8037 20.1594 33.2638 20.239C33.789 20.2921 34.3892 20.2974 34.8047 19.9207C35.4236 19.3637 35.6099 18.4734 35.5796 17.6759C35.5181 17.1136 35.4075 16.53 35.0892 16.0499C34.7485 15.5256 34.0601 15.3461 33.4662 15.4018Z" fill="#FFFFFF"/>
  <path d="M25.0029 14.8086C26.1006 14.5743 27.3053 14.7732 28.2274 15.4231C28.7588 15.8156 29.2011 16.3558 29.3991 16.9889C29.4544 17.3947 29.4169 17.8058 29.4276 18.2143C29.4624 18.8031 29.1396 19.3372 28.7687 19.7695C28.0374 20.5759 26.9335 20.964 25.8608 21.0082C24.9164 20.9622 23.9444 20.6643 23.2489 20.0056C22.7906 19.5724 22.4071 19.0189 22.3055 18.3885C22.252 17.8076 22.2511 17.194 22.5132 16.6573C22.976 15.6848 23.9552 15.0225 25.0029 14.8086ZM25.4399 15.3152C24.6739 15.4929 24.0764 16.1463 23.8999 16.896C23.7269 17.6131 23.7679 18.3823 24.0051 19.0799C24.203 19.6811 24.7122 20.1736 25.3302 20.338C25.9152 20.5334 26.5795 20.3964 27.0744 20.0445C27.6228 19.6166 27.9358 18.9331 27.959 18.2479C28.0036 17.446 27.9447 16.5415 27.3642 15.9226C26.8978 15.3833 26.1318 15.1693 25.4399 15.3152Z" fill="#FFFFFF"/>
  <path d="M42.3041 14.897C43.3019 14.6875 44.3577 14.6141 45.3493 14.8944C45.8228 15.0288 46.299 15.34 46.4301 15.8369C46.5888 17.2984 46.5148 18.7714 46.5406 20.2382C46.7636 20.3973 46.9945 20.5538 47.1747 20.7634C46.5389 20.9101 45.879 20.8456 45.2325 20.8491C45.212 20.583 45.2735 20.2921 45.121 20.0552C44.3532 20.2612 43.639 20.6166 42.8837 20.8597C42.3433 21.0242 41.687 21.0401 41.234 20.6564C40.8916 20.3575 40.6455 19.9119 40.658 19.4522C40.6161 18.69 41.1841 18.0437 41.8038 17.6688C42.4459 17.2683 43.2225 17.2551 43.9529 17.1781C44.3693 17.1472 44.7875 17.1596 45.2048 17.1463C45.212 16.683 45.294 16.1702 45.0122 15.7635C44.6885 15.302 44.0501 15.2145 43.5302 15.3117C43.0433 15.4523 42.6492 15.7847 42.2318 16.0553C42.0125 16.1923 41.8047 16.3824 41.5345 16.401C41.465 16.0128 41.4935 15.6141 41.5809 15.2321C41.7494 15.0111 42.0517 14.9704 42.3041 14.897ZM43.0406 17.9279C42.4922 18.1366 42.0178 18.6617 42.074 19.2753C42.0152 19.6608 42.3023 20.0012 42.6385 20.1506C42.9363 20.201 43.2199 20.0587 43.4936 19.9632C44.0724 19.7236 44.6671 19.507 45.1986 19.1719C45.2146 18.7723 45.253 18.3682 45.1924 17.9703C45.1237 17.8492 45.0069 17.7413 44.8562 17.7643C44.2498 17.759 43.6211 17.7192 43.0406 17.9279Z" fill="#FFFFFF"/>
  <path d="M51.2881 14.8642C51.775 14.7245 52.2895 14.7537 52.7916 14.759C53.2437 14.7458 53.6726 14.9518 54.0231 15.2206C54.2629 15.408 54.3209 15.7219 54.3681 16.0039C54.4645 17.4124 54.4627 18.8261 54.4805 20.2372C54.7025 20.3963 54.9326 20.552 55.111 20.7633C54.4743 20.91 53.8126 20.8464 53.1661 20.8481C53.1599 19.468 53.1625 18.0878 53.1501 16.7077C53.1402 16.4292 53.1438 16.1295 53.0074 15.8792C52.6971 15.5079 52.1602 15.5344 51.7206 15.5415C50.8771 15.5353 50.1566 16.0596 49.5894 16.629C49.4262 16.7519 49.4931 16.9765 49.4762 17.1506C49.4994 18.1435 49.4414 19.1417 49.5038 20.1311C49.7285 20.3822 50.0005 20.5882 50.2181 20.8473C49.3228 20.8322 48.4141 20.9215 47.5287 20.7668C47.7016 20.5528 47.929 20.3946 48.1359 20.216C48.185 20.0851 48.1636 19.941 48.1716 19.8049C48.1627 18.5662 48.1752 17.3284 48.1653 16.0897C47.9763 15.9137 47.7418 15.7705 47.6089 15.5459C47.5233 15.4045 47.7338 15.362 47.8229 15.3187C48.3374 15.1383 48.8564 14.9588 49.3932 14.8519C49.4904 15.1507 49.4824 15.4663 49.4976 15.7767C49.7597 15.751 49.9568 15.5698 50.1637 15.4274C50.5034 15.1808 50.8771 14.9703 51.2881 14.8642Z" fill="#FFFFFF"/>
  <path d="M37.8357 15.3187C38.3448 15.1375 38.8594 14.9668 39.389 14.851C39.5397 15.935 39.4693 17.0331 39.4916 18.1241C39.5094 18.7925 39.455 19.4653 39.5166 20.1311C39.7413 20.3822 40.0132 20.5882 40.2308 20.8473C39.3346 20.8322 38.4233 20.9242 37.5378 20.7562C37.7251 20.5546 37.9498 20.3955 38.1727 20.2381C38.1816 18.8544 38.1781 17.4716 38.1745 16.0879C37.9873 15.912 37.7554 15.7687 37.6208 15.5468C37.5423 15.4027 37.7438 15.3611 37.8357 15.3187Z" fill="#FFFFFF"/>
  <path d="M19.3664 15.4672C19.9558 15.1507 20.6326 14.9783 21.2978 14.9182C21.4334 16.3063 21.3727 17.7032 21.3897 19.0966C21.4057 19.468 21.3495 19.8482 21.4209 20.2151C21.6322 20.384 21.8543 20.5449 22.0255 20.7588C21.7036 20.8349 21.3736 20.857 21.0446 20.8534C20.5087 20.8481 19.9647 20.887 19.4395 20.7588C19.6107 20.5449 19.8327 20.384 20.0441 20.2142C20.1002 20.086 20.0726 19.9401 20.0824 19.8057C20.0788 18.773 20.0762 17.7412 20.0744 16.7094C20.0744 16.4628 20.0726 16.1869 19.8943 15.9933C19.7186 15.8173 19.493 15.6883 19.3664 15.4672Z" fill="#FFFFFF"/>
  <path d="M25.4729 24.3733C26.1871 24.0612 27.0138 24.0091 27.7673 24.2018C28.1632 24.2999 28.593 24.5254 28.6964 24.9516C28.8355 25.4237 28.8204 26.0612 28.3603 26.3565C27.7842 26.6995 27.0869 26.5678 26.452 26.6394C26.6544 27.1213 27.2215 27.3211 27.4284 27.7959C27.5265 28.199 27.5586 28.6208 27.7459 28.9992H26.3949C26.6856 28.7304 26.8176 28.2158 26.509 27.9143C25.9811 27.4042 25.3239 27.0222 24.8772 26.4334C24.6471 25.9851 24.6819 25.4414 24.8388 24.9745C24.9369 24.6845 25.2053 24.4998 25.4729 24.3733ZM26.2415 24.513C25.8831 24.681 25.5273 25.0329 25.5772 25.4591C25.5897 25.7004 25.5148 26.0355 25.7894 26.1611C26.336 26.23 26.8943 26.1938 27.4409 26.1487C27.8582 26.108 27.9153 25.6129 27.9224 25.2831C27.9697 24.9268 27.6496 24.643 27.349 24.5174C26.9843 24.4626 26.6062 24.4662 26.2415 24.513Z" fill="#FFFFFF"/>
  <path d="M29.6818 24.4803C29.9716 24.3106 30.2962 24.1744 30.6386 24.1762C30.874 24.2274 30.8294 24.5413 30.9034 24.7199C31.2209 24.765 31.5392 24.8101 31.8558 24.8667C31.838 25.383 31.3698 25.711 31.1763 26.1611C31.5918 26.215 32.0145 26.215 32.4274 26.291C32.6985 26.3503 33.0204 26.482 33.081 26.7853C33.2059 27.2831 33.1417 27.802 33.1782 28.3095C33.4332 28.2167 33.6767 28.0823 33.9478 28.039C34.086 28.0974 34.0985 28.2583 34.1448 28.3812C34.1974 28.6093 34.333 28.8029 34.4552 28.9992H33.3405C33.3396 28.8338 33.0997 28.8356 33.098 28.9992H32.4889C32.3427 28.4501 32.3988 27.8807 32.3712 27.3202C32.3614 27.0753 32.2704 26.7641 31.9887 26.7145C31.5687 26.6359 31.0452 26.4749 30.6921 26.8021C30.2837 27.1451 30.4299 27.741 30.396 28.2088C30.3524 28.5173 30.5423 28.7675 30.7188 28.9992H29.3126C29.4285 28.8038 29.5935 28.6155 29.6051 28.3794C29.6577 27.81 29.5222 27.184 29.8405 26.6695C30.1562 26.1673 30.5583 25.7243 30.8722 25.2195C30.6386 25.1867 30.3791 25.2071 30.1794 25.063C29.9653 24.9144 29.8289 24.6881 29.6818 24.4803Z" fill="#FFFFFF"/>
  <path d="M40.1015 24.642C40.542 24.1893 41.2162 24.1018 41.8208 24.1062C42.3281 24.1309 42.8819 24.1265 43.3206 24.4201C43.6657 24.665 43.7371 25.1062 43.878 25.4748C44.1606 25.4916 44.4451 25.4996 44.7295 25.5014C44.6948 25.9045 44.8776 26.2485 45.1014 26.5685C44.7581 26.618 44.4103 26.6021 44.0652 26.5845C44.0171 26.351 43.9725 26.1167 43.9199 25.8851C43.6104 26.0681 43.4098 26.4138 43.0424 26.4996C42.5118 26.6844 41.9376 26.5279 41.4052 26.6897C41.6888 27.0796 42.1587 27.2962 42.4102 27.71C42.5591 28.1344 42.494 28.6153 42.7722 28.9991H41.4346C41.5729 28.7294 41.8734 28.404 41.6576 28.0981C41.1707 27.4323 40.3173 27.1229 39.8768 26.4165C39.6138 25.8533 39.6548 25.1035 40.1015 24.642ZM41.3187 24.5323C40.7159 24.5969 40.5019 25.2963 40.5768 25.8082C40.616 25.9541 40.6455 26.183 40.8443 26.1804C41.316 26.2273 41.794 26.2096 42.2675 26.1884C42.6385 26.2034 42.939 25.8197 42.9051 25.466C42.9122 25.1804 42.9122 24.8232 42.6429 24.6464C42.2417 24.428 41.7548 24.4616 41.3187 24.5323Z" fill="#FFFFFF"/>
  <path d="M51.3898 24.8667C51.6591 24.3689 52.2601 24.1965 52.788 24.139C53.4247 24.0895 54.1167 24.0515 54.6954 24.3662C55.3758 24.7208 55.4525 25.7517 54.9451 26.2777C54.369 26.7552 53.5736 26.505 52.9057 26.6889C53.2428 27.1513 53.776 27.4254 54.1149 27.8834C54.2397 28.0054 54.1568 28.2202 53.982 28.2264C53.2383 28.3864 52.4554 28.3157 51.726 28.5527C51.8276 28.7021 51.9293 28.8515 52.0336 28.9991H50.6345C50.7344 28.8241 50.8414 28.6517 50.9118 28.4616C50.9609 28.3723 50.9689 28.2202 51.0938 28.199C51.6921 28.0522 52.3225 28.092 52.92 27.9311C52.4768 27.3865 51.808 27.0655 51.4041 26.4855C51.1178 25.9984 51.141 25.3635 51.3898 24.8667ZM52.7256 24.513C52.3671 24.681 52.0104 25.0329 52.0613 25.459C52.0738 25.7004 51.998 26.0355 52.2735 26.161C52.8192 26.23 53.3783 26.1929 53.9259 26.1487C54.3423 26.108 54.3994 25.6138 54.4065 25.284C54.4538 24.9277 54.1336 24.643 53.8331 24.5174C53.4684 24.4626 53.0903 24.4661 52.7256 24.513Z" fill="#FFFFFF"/>
  <path d="M35.2336 24.4325C35.5885 24.3025 35.9604 24.2026 36.3429 24.2371C36.4054 24.39 36.466 24.5447 36.5266 24.6986C36.6969 24.7693 36.8673 24.8401 37.0367 24.9143C37.1651 25.3502 37.1865 25.8055 37.191 26.2565C37.8125 26.2662 38.4296 26.3316 39.0502 26.3626C39.0966 26.7171 39.2071 27.0575 39.3873 27.3678C39.1126 27.397 38.8264 27.4456 38.5544 27.3723C38.2735 27.2776 38.2797 26.9355 38.2182 26.6994C37.8758 26.657 37.5307 26.657 37.1874 26.672C37.1865 27.2432 37.1669 27.8143 37.1829 28.3846C37.182 28.6047 37.2935 28.801 37.3773 28.9991H36.0255C36.1485 28.8452 36.301 28.6843 36.293 28.4739C36.309 27.8674 36.2992 27.26 36.2805 26.6534C35.9319 26.6225 35.5832 26.6013 35.2336 26.6234C35.1552 26.8515 35.0981 27.0858 35.0366 27.3192C34.72 27.4085 34.3803 27.4421 34.0646 27.3298C34.2741 27.0221 34.3713 26.6658 34.3758 26.2962C35.0062 26.283 35.6412 26.3201 36.268 26.2335C36.3144 25.901 36.3135 25.5659 36.2912 25.2326C35.7883 25.2282 35.4762 24.8135 35.2336 24.4325Z" fill="#FFFFFF"/>
  <path d="M46.8786 24.3715C47.1871 24.2557 47.5126 24.1849 47.8443 24.2079C47.8702 24.3777 47.8969 24.5492 47.929 24.719C48.391 24.8339 48.8778 24.94 49.2443 25.2636C49.5324 25.5615 49.9764 25.4528 50.334 25.589C50.4749 25.9099 50.515 26.2698 50.7103 26.5704C50.3688 26.6155 50.0228 26.6031 49.6804 26.5836C49.634 26.3493 49.593 26.1133 49.5466 25.879C49.3273 26.2653 49.0437 26.6048 48.6692 26.8524C48.8743 27.0115 49.1329 27.1353 49.2506 27.3785C49.428 27.771 49.3522 28.2122 49.4236 28.6251C49.4949 28.7622 49.5974 28.8789 49.6946 28.9991H48.308C48.5497 28.6251 48.7218 28.1636 48.5417 27.7268C48.415 27.2954 47.8818 27.1504 47.4868 27.2724C47.048 27.397 46.5897 27.5208 46.2178 27.7923C45.92 28.1627 46.1759 28.6578 46.4006 28.9991H45.0078C45.1023 28.8789 45.2057 28.7622 45.2762 28.6251C45.3555 28.1875 45.2583 27.68 45.5615 27.3095C45.7666 27.1168 46.0332 27.008 46.2669 26.8542C45.9155 26.5933 45.4732 26.2441 45.5847 25.749C45.6944 25.1884 46.2589 24.932 46.7511 24.7773C46.7939 24.642 46.8349 24.5059 46.8786 24.3715ZM46.9374 25.2344C46.5174 25.3273 46.299 25.8294 46.5273 26.1919C46.7573 26.5447 47.2442 26.4952 47.6053 26.4307C47.9415 26.3369 48.3178 26.2185 48.5283 25.9223C48.6932 25.7066 48.4837 25.4395 48.3062 25.3069C47.896 25.0682 47.3797 25.1212 46.9374 25.2344Z" fill="#FFFFFF"/>
  <path opacity="0.29" d="M54.3218 13.8275C54.131 13.6692 54.518 13.6055 54.5599 13.7735C54.5002 13.7868 54.3816 13.8142 54.3218 13.8275Z" fill="#854728"/>
  <path opacity="0.29" d="M33.098 29.0003C33.0998 28.8367 33.3397 28.8349 33.3406 29.0003H33.098Z" fill="#854728"/>
</svg>
