<svg width="60" height="17" viewBox="0 0 60 17" fill="none" xmlns="http://www.w3.org/2000/svg">
  <path d="M13.5603 0H1.13161e-07V0.607697C1.54626 0.682519 2.03016 0.859536 2.03016 2.53298V13.4095C2.03016 15.0665 1.54811 15.2581 1.13161e-07 15.3348V15.9133H7.63673V15.3348C5.74192 15.26 5.27656 15.0848 5.27656 13.4095V8.19935H8.02979C10.1174 8.19935 11.0815 8.65558 11.4134 10.5225H12.0456V4.92728H11.4134C11.0963 6.5843 10.555 7.05878 8.02793 7.05878H5.27656V1.99646C5.27656 1.34496 5.44342 1.19715 6.17947 1.19715H8.63049C11.8027 1.19715 12.4183 1.7282 12.9912 3.52027H13.6531L13.5603 0ZM23.8891 14.249L20.7317 9.72133L22.43 7.63545C23.5424 6.27407 24.2025 5.62257 25.2259 5.53315V4.92545H20.8355V5.53497C21.6476 5.53497 21.9943 5.72842 21.9943 6.21567C21.9943 6.6427 21.4826 7.192 21.0914 7.65005L20.1292 8.7742L18.9574 7.08615C18.7034 6.7157 18.4327 6.45108 18.4327 6.0788C18.4327 5.72476 18.8666 5.54775 19.5451 5.54775V4.94005H13.6679V5.54775C14.5411 5.74119 14.886 6.27407 15.2902 6.86351L18.1769 11.0517L15.7425 13.8639C14.899 14.8402 14.4799 15.1943 13.4584 15.3439V15.9224H17.7875V15.3293C17.185 15.3293 16.5861 15.1833 16.5861 14.8548C16.5861 14.5008 17.0366 14.0409 17.7449 13.1686L18.7516 11.9569L19.9846 13.7289C20.4184 14.3639 20.6316 14.6614 20.6316 14.8822C20.6316 15.1322 20.2107 15.3092 19.3987 15.3257V15.9042H25.4892V15.3257C24.9552 15.3293 24.551 15.1815 23.8891 14.249ZM34.1104 0H26.444V0.607697C28.0663 0.682519 28.4741 0.857711 28.4741 2.53298V13.4095C28.4741 15.0665 28.0681 15.2581 26.444 15.3348V15.9133H33.886V15.3348C32.2026 15.26 31.7205 15.0848 31.7205 13.4095V9.26511H33.8397C38.002 9.26511 40.1971 7.6829 40.1971 4.63346C40.2009 2.01288 38.5304 0 34.1104 0ZM31.7205 8.34352V1.83587C31.7205 1.30482 31.9597 0.947132 33.0573 0.947132C35.1931 0.947132 36.8599 2.15888 36.8599 4.27761C36.8636 6.79234 35.5083 8.34352 31.7205 8.34352ZM47.8691 4.64624C46.5324 4.64624 45.6758 5.72659 45.2216 6.65912H45.1771V4.98567C45.1771 4.79223 45.1771 4.63164 45.0584 4.63164C44.8192 4.63164 42.2013 5.35796 40.9833 5.56417V6.17187C42.066 6.17187 42.3348 6.40728 42.3348 7.54786V13.9405C42.3348 14.9169 41.9288 15.1523 40.9833 15.3019V15.8804H46.8605V15.3311C45.7778 15.3019 45.1771 15.0209 45.1771 13.8803V7.73765C45.5071 7.20477 45.9576 6.80512 46.4081 6.80512C46.6788 6.80512 46.8902 6.95111 47.0255 7.04053C47.2647 7.20477 47.5076 7.51501 48.1973 7.51501C48.9203 7.51501 49.4599 6.95293 49.4599 6.22844C49.4617 5.44555 48.95 4.64624 47.8691 4.64624ZM54.6178 4.64624C51.4288 4.64624 49.2355 7.08798 49.2355 10.4312C49.2355 13.7745 51.4288 16.2162 54.6178 16.2162C57.8067 16.2162 60 13.7745 60 10.4312C60 7.07155 57.8048 4.64624 54.6178 4.64624ZM54.6178 15.2855C52.9343 15.2855 52.2427 13.8347 52.2427 10.4331C52.2427 7.03141 52.9343 5.5806 54.6178 5.5806C56.3012 5.5806 56.9928 7.03141 56.9928 10.4331C56.9928 13.8201 56.316 15.2855 54.6178 15.2855Z" fill="#FFFFFF"/>
</svg>
