<svg width="37" height="61" viewBox="0 0 37 61" fill="none" xmlns="http://www.w3.org/2000/svg">
    <path d="M18.4511 59.702C13.5643 59.702 9.12435 56.4534 5.8851 51.1123C2.64586 45.7713 0.614349 38.3449 0.621312 30.1595C0.628311 21.9742 2.63888 14.5549 5.8851 9.20674C9.13133 3.8586 13.5643 0.602907 18.4511 0.609988C23.3379 0.617093 27.7919 3.8586 31.0172 9.20674C34.2425 14.5549 36.2949 21.9742 36.288 30.1595C36.281 38.3449 34.2704 45.7642 31.0172 51.1123C27.764 56.4605 23.3379 59.702 18.4511 59.702ZM18.4511 0C8.14001 0.0496512 0.00699009 13.5973 4.47746e-06 30.1595C-0.00697217 46.7217 8.14001 60.2694 18.4511 60.3121C28.7623 60.3545 36.9023 46.7217 36.9093 30.1595C36.9162 13.5973 28.7693 0.0496512 18.4511 0ZM20.0149 50.0271C19.5426 50.0741 19.1222 49.7232 19.076 49.2433C19.0297 48.7634 19.3751 48.3363 19.8474 48.2893C20.3919 48.2397 20.6851 48.5659 20.727 49.1334C20.7654 49.3483 20.7108 49.5697 20.5771 49.7409C20.4435 49.912 20.2437 50.0163 20.0289 50.0271H20.0149ZM21.8579 49.8994C21.7951 49.1901 21.6206 47.353 19.7636 47.5091C19.2713 47.4945 18.7982 47.7034 18.4729 48.0792C18.1477 48.4549 18.004 48.9583 18.0811 49.4526C18.111 49.8855 18.3186 50.2858 18.6532 50.5556C18.9878 50.8254 19.4186 50.9399 19.8404 50.8712C20.2269 50.8712 20.5911 50.6875 20.8247 50.3747C20.8945 51.4173 20.4827 51.7365 20.0568 51.7933C19.692 51.9032 19.303 51.7252 19.1423 51.3748L18.3953 51.6585C18.6765 52.3411 19.3908 52.7291 20.1057 52.5877C21.076 52.5026 22.0045 51.8074 21.851 49.8852L21.8579 49.8994ZM24.6015 49.105C24.3795 49.2126 24.1211 49.2108 23.9005 49.1001C23.68 48.9894 23.5215 48.7821 23.4706 48.5376C23.3875 48.3227 23.3996 48.0818 23.5039 47.8767C23.6082 47.6715 23.7945 47.522 24.0151 47.4665C24.2329 47.3716 24.4817 47.3843 24.6891 47.5007C24.8965 47.6172 25.0394 47.8245 25.0762 48.0623C25.1634 48.2635 25.1613 48.493 25.0704 48.6925C24.9796 48.892 24.8088 49.0422 24.6015 49.105ZM26.3747 48.4879C26.1513 47.8354 25.53 46.0834 23.7638 46.7005C23.2841 46.8065 22.8759 47.1243 22.6505 47.5674C22.425 48.0104 22.4057 48.5326 22.5979 48.9915C22.7373 49.3997 23.0384 49.7301 23.4283 49.9026C23.8182 50.0751 24.2613 50.0739 24.6504 49.8994C25.0233 49.8087 25.3331 49.5464 25.4881 49.1901C25.8162 50.1902 25.4881 50.6087 25.0972 50.8002C24.7676 50.9927 24.3491 50.9113 24.1128 50.6087L23.4566 51.0698C23.8987 51.6557 24.6811 51.853 25.3415 51.545C26.263 51.2258 26.9891 50.3108 26.3747 48.4808V48.4879ZM16.2102 48.8355C16.1763 49.0103 16.0712 49.1624 15.921 49.2543C15.7707 49.3461 15.5892 49.3692 15.4213 49.3178C15.066 49.2778 14.7978 48.9717 14.8 48.6085C14.8628 48.2397 15.1979 48.041 15.6657 48.1262C16.0042 48.1774 16.2437 48.4894 16.2102 48.8355ZM15.9659 50.9634C15.9273 51.1748 15.806 51.3613 15.6297 51.4803C15.4534 51.5992 15.2372 51.6405 15.0304 51.5947C14.813 51.5704 14.6151 51.4563 14.483 51.2792C14.3509 51.1021 14.2964 50.8776 14.3323 50.6584C14.3699 50.4428 14.4949 50.2532 14.6768 50.1359C14.8586 50.0185 15.0807 49.9842 15.2887 50.0413C15.5041 50.0639 15.7008 50.1755 15.8328 50.3499C15.9649 50.5242 16.0205 50.7461 15.9868 50.9634H15.9659ZM17.2155 48.8922C17.3342 48.1829 16.8525 47.4736 15.7564 47.2963C14.821 47.126 14.0181 47.502 13.8715 48.3531C13.7873 48.7767 13.9783 49.2076 14.3462 49.4242C13.7987 49.5203 13.3817 49.976 13.327 50.5378C13.2153 51.2471 13.5364 52.1266 14.9047 52.3749C15.3479 52.51 15.8266 52.4504 16.2245 52.2105C16.6225 51.9706 16.9034 51.5723 16.9991 51.1123C17.1232 50.5805 16.8797 50.0303 16.4057 49.7717C16.8226 49.6729 17.1363 49.3231 17.1945 48.8922H17.2155ZM12.1751 46.3529C11.8582 46.8303 11.2586 47.0216 10.73 46.814L10.5834 46.7714L10.381 47.3601L10.2762 47.6438L10.4717 47.7148C10.8175 47.8756 11.2077 47.9082 11.5747 47.807L10.5136 50.9634L11.5259 51.318L13.0896 46.6721L12.1751 46.3529ZM26.5143 9.32023L25.893 8.80954L25.0064 11.0509L24.2664 7.50442L23.4147 6.9157L21.6345 12.8597C21.9627 12.9306 22.2977 13.0086 22.6259 13.0937L23.6591 9.63233L24.427 13.7037C24.6085 13.7817 24.79 13.8527 24.9645 13.9378L26.0466 11.1999L27.1776 15.1436C27.6243 15.4344 28.0572 15.7465 28.483 16.0799L26.5143 9.32023ZM20.6013 10.6608C19.8948 11.4358 18.7931 11.692 17.8251 11.3065C16.857 10.921 16.2202 9.97235 16.2202 8.91593C16.2202 7.85951 16.857 6.9109 17.8251 6.52536C18.7931 6.13981 19.8948 6.39603 20.6013 7.17105L21.3693 6.46174C20.3664 5.37388 18.8112 5.01904 17.4468 5.56683C16.0825 6.11462 15.1861 7.45379 15.1861 8.9443C15.1861 10.4348 16.0825 11.774 17.4468 12.3218C18.8112 12.8696 20.3664 12.5147 21.3693 11.4269L20.6013 10.6608ZM11.4491 11.5971L12.936 8.48326L13.6342 10.7317L11.4491 11.5971ZM13.5434 6.88023L12.2519 7.71721L8.17491 16.2856C8.68374 15.8476 9.22266 15.447 9.78756 15.0869L10.7859 13.0157L13.8994 11.739L14.2974 13.0724C14.6185 12.9802 14.9466 12.9093 15.2747 12.8384L13.5434 6.88023ZM27.4428 31.4576V42.4517C26.3738 43.2722 25.1994 43.9404 23.9523 44.4378V31.4576H19.2889V28.3721H23.9523V15.8529C25.202 16.363 26.3765 17.0456 27.4428 17.8815V28.3792H33.4187C33.4934 28.9697 33.5331 29.5642 33.5374 30.1595C33.5374 30.5922 33.5374 31.0178 33.4815 31.4363L27.4428 31.4576ZM28.476 41.6077V32.486H33.3628C32.8344 36.0078 31.1047 39.2289 28.476 41.5864V41.6077ZM28.9159 48.8497C26.2351 53.602 22.5491 56.5243 18.507 56.5527H18.4232C14.3462 56.5527 10.6393 53.6233 7.95152 48.8497C6.12379 45.4648 4.87949 41.7872 4.27246 37.976C7.09287 43.2517 12.5282 46.5366 18.4372 46.5366C24.3461 46.5366 29.7815 43.2517 32.6019 37.976C31.9912 41.7863 30.7471 45.4633 28.9228 48.8497H28.9159ZM5.18699 22.797V37.515C2.73008 32.9265 2.73008 27.3854 5.18699 22.797ZM10.8138 16.931V43.388C9.80818 42.7861 8.8716 42.0724 8.02133 41.2601V19.0873C8.8716 18.275 9.80818 17.5613 10.8138 16.9594V16.931ZM16.4545 14.9947V45.3812C15.5058 45.2486 14.5711 45.0278 13.6621 44.7215V15.6401C14.5692 15.3273 15.5046 15.1063 16.4545 14.9805V14.9947ZM19.247 32.5002H22.8423V44.7924C21.6787 45.1691 20.4732 45.3955 19.254 45.4663L19.247 32.5002ZM22.8423 15.5408V27.3223H19.2889V14.8599C20.5093 14.9346 21.7164 15.1585 22.8842 15.5266L22.8423 15.5408ZM33.293 27.3223H28.511V18.7256C31.0006 20.973 32.6851 23.9968 33.3 27.3223H33.293ZM7.97246 11.4623C10.6881 6.68872 14.3742 3.79477 18.4511 3.74512C22.5281 3.74512 26.2351 6.68163 28.9228 11.4623C30.7561 14.8554 32.0029 18.5429 32.6089 22.3643C30.5569 18.5129 27.0721 15.6569 22.933 14.4343H22.8842C15.6216 12.3218 7.8891 15.6148 4.27944 22.3572C4.88879 18.5379 6.13787 14.8529 7.97246 11.4623ZM18.4442 2.31233C9.3268 2.37616 2.19208 14.8812 2.1781 30.1595C2.16416 45.4379 9.3268 57.9571 18.4511 58.0069C27.5755 58.0564 34.7242 45.4379 34.7311 30.1595C34.7381 14.8812 27.5894 2.37616 18.4511 2.31233" fill="white"/>
</svg>
