<svg width="85" height="13" viewBox="0 0 85 13" fill="none" xmlns="http://www.w3.org/2000/svg">
  <path d="M5.43785 0.271011H0V0.68365C0 0.68365 1.14109 0.715791 1.14109 1.79819V11.9312H3.32846V7.28848H4.02491C6.49254 7.28848 9.47593 7.28849 9.47593 3.74165C9.47593 1.52811 7.88388 0.271011 5.43785 0.271011ZM4.36366 6.40722H3.32846V2.27874C3.32846 1.50997 3.38851 1.15228 4.46218 1.15228C6.23282 1.15228 7.28699 1.56595 7.28699 3.66803C7.28699 5.91889 5.93464 6.40722 4.36366 6.40722Z" fill="white"/>
  <path d="M31.1699 7.55186H37.2352C37.2352 5.5291 36.2906 3.00038 33.2729 3.00038C31.0682 3.00038 29.0847 4.25541 29.0847 7.39116C29.0847 10.9914 31.8969 12.1391 33.7597 12.1391C35.3592 12.1391 36.1378 11.7047 36.6636 11.3289V10.2812C36.3406 10.5995 35.316 11.1257 34.2908 11.1257C32.2994 11.1246 31.1699 9.99194 31.1699 7.55186ZM33.1592 3.63852C34.7359 3.63852 35.0868 5.27768 35.1737 6.55914H31.2125C31.2763 4.582 32.2161 3.63852 33.1592 3.63852Z" fill="white"/>
  <path d="M67.5085 11.0531C67.1497 11.447 66.4738 12.1386 64.9424 12.1386C63.3914 12.1386 62.2761 11.0878 62.2761 9.9805C62.2761 7.33566 66.2357 6.40256 67.5085 6.36523V5.40776C67.5085 4.22583 67.0481 3.63849 66.1019 3.63849C64.8533 3.63849 64.6068 4.72659 64.6068 5.55187H62.4958C62.7144 4.31344 63.3703 2.99983 66.2357 2.99983C68.707 2.99983 69.4983 4.06202 69.4983 6.22682V11.9312H67.5085V11.0531ZM67.5085 7.0407C66.792 7.05936 64.4666 7.87842 64.4666 9.66117C64.4666 10.5238 64.9229 11.1241 65.6588 11.1241C66.6572 11.1241 67.509 10.4559 67.509 9.49995V7.0407H67.5085Z" fill="white"/>
  <path d="M24.6277 6.60317L28.1685 3.20615H26.6571L22.7781 6.97745V0.271011H19.6477V0.68365C19.6477 0.68365 20.7899 0.715791 20.7899 1.79819V11.9312H22.7781V7.22161H22.8176L26.4579 11.9312H28.9846L24.6277 6.60317Z" fill="white"/>
  <path d="M43.7709 2.99983C42.4355 2.99983 41.5636 3.94745 41.2838 4.75096H41.2459V3.11854L38.115 3.11751V3.53118C38.115 3.53118 39.2556 3.56332 39.2556 4.64521V11.9312H41.2459V7.44712C41.2459 6.13403 41.8228 4.51146 43.831 4.51146C44.1687 4.51146 44.5269 4.59389 44.8451 4.68772V3.09418C44.5069 3.03767 44.1292 2.99983 43.7709 2.99983Z" fill="white"/>
  <path d="M76.683 2.99983C75.3486 2.99983 74.4757 3.94745 74.1964 4.75096H74.1569V3.11854L71.0271 3.11751V3.53118C71.0271 3.53118 72.1671 3.56332 72.1671 4.64521V11.9312H74.1569V7.44712C74.1569 6.13403 74.7333 4.51146 76.7426 4.51146C77.0803 4.51146 77.4396 4.59389 77.7583 4.68772V3.09418C77.4195 3.03767 77.0413 2.99983 76.683 2.99983Z" fill="white"/>
  <path d="M61.015 3.95626V3.20614H58.4089V0.0289154L56.4191 0.996752V3.20614H54.8823V3.95626H56.4191V9.71715C56.4191 11.8571 57.5333 12.138 59.443 12.138C60.2037 12.138 60.7748 11.9535 60.7748 11.9535V11.0598C60.7748 11.0598 60.5541 11.1401 59.8576 11.1401C58.4352 11.1401 58.4089 10.7301 58.4089 9.417V3.95626H61.015Z" fill="white"/>
  <path d="M48.1943 2.71836C48.2201 1.58931 49.4007 0.996784 50.5524 1.01907C52.0807 1.04759 53.0927 1.9641 53.0927 1.9641V0.442101C52.9089 0.376265 51.8689 0.0289434 50.3985 0.000950271C48.7765 -0.0291165 46.2867 0.647904 46.2377 2.94542C46.1582 6.72294 52.1908 6.46219 52.1355 9.08214C52.1033 10.5456 50.7573 11.1376 49.3507 11.1106C47.8013 11.0811 46.2198 9.93334 45.9985 9.72028V11.3066C46.2367 11.4144 47.8366 12.0956 49.4998 12.1272C51.5317 12.165 54.0336 11.3491 54.091 8.68972C54.1722 4.86917 48.148 4.94278 48.1943 2.71836Z" fill="white"/>
  <path d="M80.7132 4.85982C80.7305 4.00655 81.3738 3.79452 82.243 3.81163C83.3984 3.8334 84.2465 4.44822 84.2465 4.44822V3.29894C84.1064 3.24917 83.3193 2.98583 82.2098 2.9651C80.9829 2.94177 78.9546 3.45342 78.9177 5.19004C78.8577 8.04482 83.2293 7.94995 83.1871 9.93021C83.1639 11.0365 82.3395 11.2189 81.3669 11.2189C80.1963 11.2189 79.0516 10.3496 78.884 10.1889V11.5087C79.0658 11.5896 80.2743 12.1049 81.5303 12.1282C83.067 12.1577 84.9562 11.5409 84.9994 9.53157C85.0605 6.64309 80.6773 6.54096 80.7132 4.85982Z" fill="white"/>
  <path fill-rule="evenodd" clip-rule="evenodd" d="M14.6264 8.91668C14.5132 9.68879 14.2794 11.284 12.7638 11.8389H16.9183C15.3386 11.2607 15.1393 9.55559 15.0538 8.82412C15.0522 8.8106 15.0506 8.79741 15.0491 8.78457C15.0291 8.60573 15.1819 8.5036 15.3073 8.5036C15.3868 8.5036 15.4948 8.54093 15.538 8.59276L15.5796 8.63424C16.0064 9.318 16.7181 9.75759 17.601 9.75759C18.9434 9.75759 20.0318 8.69437 20.0318 7.38595C20.0318 5.42073 18.1948 3.4441 17.3782 2.64785C15.8293 1.13881 14.8405 0.201553 14.8405 0.201553C14.8405 0.201553 13.8522 1.13881 12.3033 2.64785C11.4868 3.4441 9.64868 5.42073 9.64868 7.38595C9.64868 8.69437 10.7387 9.75759 12.081 9.75759C12.9629 9.75759 13.662 9.29726 14.0887 8.61402L14.1235 8.57203C14.1662 8.52071 14.2805 8.49635 14.36 8.49635C14.4854 8.49635 14.6667 8.59277 14.6461 8.78457C14.6398 8.82524 14.6333 8.86942 14.6264 8.91668ZM15.858 5.78725C15.8359 5.80332 15.8227 5.82975 15.8227 5.85619C15.8227 5.865 15.8238 5.87382 15.8248 5.88263L16.4017 7.62546C16.0698 7.38908 14.8939 6.54825 14.8939 6.54825C14.8634 6.52648 14.8217 6.52648 14.7912 6.54825C14.7912 6.54825 13.6148 7.38856 13.2834 7.62546C13.4104 7.24341 13.8592 5.88263 13.8592 5.88263C13.8624 5.87382 13.8634 5.865 13.8634 5.85619C13.8634 5.82975 13.8508 5.80332 13.8282 5.78725C13.8282 5.78725 12.6512 4.94641 12.3193 4.70951H14.1853C14.2233 4.70951 14.2565 4.68515 14.2675 4.65041C14.2675 4.65041 14.7164 3.29067 14.8428 2.90654L15.4192 4.65041C15.4313 4.68515 15.4645 4.70951 15.5029 4.70951H17.3673C17.036 4.94641 15.858 5.78725 15.858 5.78725Z" fill="white"/>
</svg>
