<svg width="23" height="23" viewBox="0 0 23 23" fill="none" xmlns="http://www.w3.org/2000/svg">
  <path d="M22.0399 13.165C22.1257 12.622 22.1709 12.0664 22.1709 11.4994C22.1709 5.60586 17.3934 0.828567 11.4996 0.828567C10.9341 0.828567 10.3769 0.875142 9.83435 0.960004C8.85155 0.351907 7.69159 0 6.44847 0C2.88713 0 0 2.8867 0 6.44833C0 7.69116 0.352128 8.85014 0.959971 9.8349C0.875856 10.3788 0.829547 10.9326 0.829547 11.4996C0.829547 17.3936 5.60694 22.1695 11.4994 22.1695C12.0654 22.1695 12.6227 22.1258 13.1652 22.0402C14.149 22.6471 15.308 23 16.5509 23C20.1132 23 23 20.1126 23 16.551C23.0003 15.3077 22.6484 14.149 22.0399 13.165ZM16.5661 16.3526C16.1147 17.0025 15.4516 17.5103 14.5851 17.8755C13.7168 18.2416 12.6906 18.4238 11.5055 18.4238C10.0851 18.4238 8.90909 18.1753 7.98083 17.6734C7.32283 17.314 6.78766 16.8319 6.37622 16.2307C5.96394 15.629 5.75491 15.0398 5.75491 14.4653C5.75491 14.1263 5.88415 13.8316 6.13575 13.5913C6.38997 13.3492 6.71739 13.2279 7.10385 13.2279C7.42042 13.2279 7.69233 13.3232 7.91372 13.5121C8.13344 13.701 8.31777 13.9756 8.46851 14.3379C8.6492 14.7577 8.84545 15.1086 9.05427 15.3886C9.2618 15.6651 9.55388 15.8959 9.93216 16.0766C10.3063 16.2578 10.8042 16.3484 11.4272 16.3484C12.2798 16.3484 12.9689 16.1639 13.4963 15.8001C14.0263 15.433 14.2809 14.9862 14.2809 14.4465C14.2809 14.016 14.1436 13.6741 13.8621 13.4075C13.5781 13.1375 13.2113 12.9318 12.756 12.7883C12.299 12.6434 11.6855 12.4896 10.9166 12.3277C9.88409 12.1023 9.02058 11.84 8.3213 11.5388C7.62111 11.2365 7.06348 10.8232 6.65017 10.3011C6.23601 9.77394 6.0295 9.11868 6.0295 8.34257C6.0295 7.6025 6.24751 6.94066 6.68397 6.36465C7.12021 5.78703 7.75137 5.34491 8.57434 5.03696C9.39442 4.72912 10.3599 4.57511 11.466 4.57511C12.3505 4.57511 13.1156 4.67746 13.7632 4.88109C14.4091 5.08621 14.9475 5.35689 15.3779 5.69655C15.8057 6.03547 16.1204 6.39294 16.3198 6.76805C16.519 7.14429 16.6193 7.51175 16.6193 7.87035C16.6193 8.20375 16.49 8.50614 16.2382 8.77116C15.9864 9.03654 15.6642 9.17183 15.288 9.1706C14.9489 9.1706 14.6829 9.09237 14.4984 8.92676C14.3187 8.76656 14.13 8.51149 13.9259 8.156C13.6679 7.65998 13.3588 7.27353 12.9995 6.99713C12.6496 6.72586 12.0724 6.58464 11.2691 6.58635C10.5259 6.58635 9.9313 6.73821 9.48249 7.0352C9.0309 7.33695 8.81503 7.68704 8.81401 8.09723C8.81476 8.35428 8.88866 8.57101 9.03737 8.75634C9.18839 8.94339 9.39849 9.10547 9.66853 9.24209C9.93868 9.38086 10.2135 9.48818 10.4896 9.56539C10.769 9.64459 11.2326 9.75907 11.877 9.91067C12.6851 10.0848 13.418 10.2794 14.0767 10.4915C14.734 10.7046 15.295 10.9617 15.7585 11.2679C16.2257 11.5733 16.5908 11.9625 16.8514 12.4327C17.1139 12.9037 17.2447 13.4789 17.2447 14.1557C17.2457 14.9708 17.0186 15.7038 16.5661 16.3526Z" fill="#FFFFFF"/>
</svg>
