<svg width="70" height="22" viewBox="0 0 70 22" fill="none" xmlns="http://www.w3.org/2000/svg">
  <path d="M10.7206 -8.58411e-08C5.0669 -8.58411e-08 0.44011 4.38803 -8.60967e-08 9.95745L5.76656 12.354C6.25181 12.0165 6.84991 11.8252 7.48186 11.8252C7.53829 11.8252 7.59471 11.8252 7.65114 11.8252L10.2128 8.08973C10.2128 8.06722 10.2128 8.05597 10.2128 8.03347C10.2128 5.7832 12.0297 3.94923 14.2641 3.94923C16.4985 3.94923 18.3153 5.7832 18.3153 8.03347C18.3153 10.2837 16.4985 12.1177 14.2641 12.1177C14.2302 12.1177 14.2076 12.1177 14.1738 12.1177L10.5175 14.728C10.5175 14.773 10.5175 14.8293 10.5175 14.8743C10.5175 16.562 9.15202 17.9347 7.47058 17.9347C5.99226 17.9347 4.76221 16.877 4.48009 15.4706L0.361116 13.7604C1.63631 18.306 5.78913 21.6364 10.7093 21.6364C16.6452 21.6364 21.4638 16.787 21.4638 10.8126C21.4751 4.83808 16.6565 -8.58411e-08 10.7206 -8.58411e-08Z" fill="#FFFFFF"/>
  <path d="M6.73705 16.4157L5.41672 15.8644C5.6537 16.3594 6.05995 16.7645 6.59034 16.9895C7.75268 17.4733 9.09558 16.922 9.58083 15.7519C9.81781 15.1893 9.81781 14.5592 9.58083 13.9966C9.34385 13.4341 8.91502 12.984 8.35078 12.7477C7.78654 12.5115 7.18844 12.5227 6.66934 12.7252L8.03481 13.2878C8.89246 13.6479 9.29871 14.638 8.93759 15.5043C8.57648 16.3707 7.5947 16.7757 6.73705 16.4157Z" fill="#FFFFFF"/>
  <path d="M12.244 8.02248C12.244 6.89735 13.1581 5.97474 14.2753 5.97474C15.3925 5.97474 16.3066 6.8861 16.3066 8.02248C16.3066 9.14762 15.3925 10.0702 14.2753 10.0702C13.1468 10.0702 12.244 9.14762 12.244 8.02248ZM16.9724 8.03373C16.9724 6.5373 15.7649 5.31091 14.2753 5.31091C12.7857 5.31091 11.5782 6.52605 11.5782 8.03373C11.5782 9.53016 12.7857 10.7566 14.2753 10.7566C15.7536 10.7453 16.9724 9.53016 16.9724 8.03373Z" fill="#FFFFFF"/>
  <path d="M32.7599 7.50415L32.0603 8.7418C31.5186 8.35925 30.7964 8.13423 30.1531 8.13423C29.4196 8.13423 28.9795 8.43801 28.9795 8.97808C28.9795 9.64191 29.7807 9.78818 30.9656 10.2157C32.2408 10.6658 32.9743 11.2058 32.9743 12.3872C32.9743 13.9962 31.7104 14.9075 29.9049 14.9075C29.0246 14.9075 27.9526 14.6825 27.1401 14.1762L27.6479 12.8035C28.3137 13.1523 29.1036 13.3661 29.8146 13.3661C30.7738 13.3661 31.2252 13.0061 31.2252 12.4885C31.2252 11.8922 30.5368 11.7122 29.4196 11.3409C28.1444 10.9133 27.2642 10.3507 27.2642 9.04559C27.2642 7.57166 28.4378 6.72781 30.1193 6.72781C31.3042 6.72781 32.2408 7.0991 32.7599 7.50415Z" fill="#FFFFFF"/>
  <path d="M38.2332 8.28095V14.773H36.5856V8.28095H34.1932V6.86328H40.6143V8.28095H38.2332Z" fill="#FFFFFF"/>
  <path d="M44.0787 8.28095V10.0587H47.2272V11.4763H44.0787V13.3328H47.735V14.773H42.4311V6.86328H47.735V8.28095H44.0787Z" fill="#FFFFFF"/>
  <path d="M52.9259 8.75358L51.8539 11.9152H54.0206L52.9259 8.75358ZM51.4138 13.2316L50.8947 14.7618H49.1681L52.1134 6.8521H53.7723L56.8079 14.7618H55.0249L54.4945 13.2316H51.4138Z" fill="#FFFFFF"/>
  <path d="M65.2491 9.92365L63.0937 14.5367H62.1683L60.0467 9.95741V14.773H58.4669V6.86328H60.0467L62.6874 12.5677L65.2378 6.86328H66.8177V14.773H65.2491V9.92365Z" fill="#FFFFFF"/>
  <path d="M68.7247 7.80898H68.9166C69.0407 7.80898 69.1197 7.73022 69.1197 7.62896C69.1197 7.5277 69.0633 7.46019 68.9166 7.46019H68.7247V7.80898ZM68.9279 7.30267C69.21 7.30267 69.3003 7.44894 69.3003 7.61771C69.3003 7.76397 69.21 7.86524 69.1084 7.92149L69.3567 8.39405H69.1536L68.9392 7.9665H68.7247V8.39405H68.5555V7.30267H68.9279ZM68.0025 7.86524C68.0025 8.43906 68.4088 8.78785 68.9053 8.78785C69.4018 8.78785 69.8081 8.4278 69.8081 7.86524C69.8081 7.29142 69.4018 6.94263 68.9053 6.94263C68.4201 6.94263 68.0025 7.29142 68.0025 7.86524ZM69.9999 7.86524C69.9999 8.54032 69.4921 8.96787 68.9166 8.96787C68.3298 8.96787 67.822 8.54032 67.822 7.86524C67.822 7.19016 68.3298 6.7626 68.9166 6.7626C69.4921 6.7626 69.9999 7.1789 69.9999 7.86524Z" fill="#FFFFFF"/>
</svg>
